<?xml version="1.0" encoding="UTF-8" standalone="no"?>
<!DOCTYPE svg PUBLIC "-//W3C//DTD SVG 1.1//EN"
 "http://www.w3.org/Graphics/SVG/1.1/DTD/svg11.dtd">
<!-- Generated by graphviz version 2.38.0 (20140413.2041)
 -->
<!-- Title: gmgf/basic_state.hpp Pages: 1 -->
<svg width="997pt" height="151pt"
 viewBox="0.00 0.00 996.50 151.00" xmlns="http://www.w3.org/2000/svg" xmlns:xlink="http://www.w3.org/1999/xlink">
<g id="graph0" class="graph" transform="scale(1 1) rotate(0) translate(4 147)">
<title>gmgf/basic_state.hpp</title>
<polygon fill="white" stroke="none" points="-4,4 -4,-147 992.5,-147 992.5,4 -4,4"/>
<!-- Node1 -->
<g id="node1" class="node"><title>Node1</title>
<polygon fill="#bfbfbf" stroke="black" points="289,-123.5 289,-142.5 399,-142.5 399,-123.5 289,-123.5"/>
<text text-anchor="middle" x="344" y="-130.5" font-family="Helvetica,sans-Serif" font-size="10.00">gmgf/basic_state.hpp</text>
</g>
<!-- Node2 -->
<g id="node2" class="node"><title>Node2</title>
<g id="a_node2"><a xlink:href="basic__state_8cpp.html" target="_top" xlink:title="gmgf/basic_state.cpp">
<polygon fill="white" stroke="black" points="0,-67.5 0,-86.5 110,-86.5 110,-67.5 0,-67.5"/>
<text text-anchor="middle" x="55" y="-74.5" font-family="Helvetica,sans-Serif" font-size="10.00">gmgf/basic_state.cpp</text>
</a>
</g>
</g>
<!-- Node1&#45;&gt;Node2 -->
<g id="edge1" class="edge"><title>Node1&#45;&gt;Node2</title>
<path fill="none" stroke="midnightblue" d="M288.345,-121.601C233.727,-111.395 151.434,-96.0189 100.579,-86.5164"/>
<polygon fill="midnightblue" stroke="midnightblue" points="287.734,-125.047 298.207,-123.444 289.02,-118.166 287.734,-125.047"/>
</g>
<!-- Node3 -->
<g id="node3" class="node"><title>Node3</title>
<g id="a_node3"><a xlink:href="basic__state__initr_8cpp.html" target="_top" xlink:title="gmgf/basic_state_initr.cpp">
<polygon fill="white" stroke="black" points="128.5,-67.5 128.5,-86.5 259.5,-86.5 259.5,-67.5 128.5,-67.5"/>
<text text-anchor="middle" x="194" y="-74.5" font-family="Helvetica,sans-Serif" font-size="10.00">gmgf/basic_state_initr.cpp</text>
</a>
</g>
</g>
<!-- Node1&#45;&gt;Node3 -->
<g id="edge2" class="edge"><title>Node1&#45;&gt;Node3</title>
<path fill="none" stroke="midnightblue" d="M310.775,-120.039C282.552,-109.879 242.738,-95.5457 217.657,-86.5164"/>
<polygon fill="midnightblue" stroke="midnightblue" points="309.638,-123.349 320.232,-123.444 312.009,-116.763 309.638,-123.349"/>
</g>
<!-- Node4 -->
<g id="node4" class="node"><title>Node4</title>
<g id="a_node4"><a xlink:href="matrix__opt__state_8hpp.html" target="_top" xlink:title="gmgf/matrix_opt_state.hpp">
<polygon fill="white" stroke="black" points="277.5,-67.5 277.5,-86.5 410.5,-86.5 410.5,-67.5 277.5,-67.5"/>
<text text-anchor="middle" x="344" y="-74.5" font-family="Helvetica,sans-Serif" font-size="10.00">gmgf/matrix_opt_state.hpp</text>
</a>
</g>
</g>
<!-- Node1&#45;&gt;Node4 -->
<g id="edge3" class="edge"><title>Node1&#45;&gt;Node4</title>
<path fill="none" stroke="midnightblue" d="M344,-112.805C344,-103.91 344,-93.7798 344,-86.7511"/>
<polygon fill="midnightblue" stroke="midnightblue" points="340.5,-113.083 344,-123.083 347.5,-113.083 340.5,-113.083"/>
</g>
<!-- Node7 -->
<g id="node7" class="node"><title>Node7</title>
<g id="a_node7"><a xlink:href="matrix__state_8hpp.html" target="_top" xlink:title="gmgf/matrix_state.hpp">
<polygon fill="white" stroke="black" points="429,-67.5 429,-86.5 543,-86.5 543,-67.5 429,-67.5"/>
<text text-anchor="middle" x="486" y="-74.5" font-family="Helvetica,sans-Serif" font-size="10.00">gmgf/matrix_state.hpp</text>
</a>
</g>
</g>
<!-- Node1&#45;&gt;Node7 -->
<g id="edge6" class="edge"><title>Node1&#45;&gt;Node7</title>
<path fill="none" stroke="midnightblue" d="M376.155,-119.772C402.828,-109.629 440.069,-95.4669 463.605,-86.5164"/>
<polygon fill="midnightblue" stroke="midnightblue" points="374.603,-116.618 366.5,-123.444 377.091,-123.16 374.603,-116.618"/>
</g>
<!-- Node10 -->
<g id="node10" class="node"><title>Node10</title>
<g id="a_node10"><a xlink:href="minmax__state_8hpp.html" target="_top" xlink:title="gmgf/minmax_state.hpp">
<polygon fill="white" stroke="black" points="705,-67.5 705,-86.5 827,-86.5 827,-67.5 705,-67.5"/>
<text text-anchor="middle" x="766" y="-74.5" font-family="Helvetica,sans-Serif" font-size="10.00">gmgf/minmax_state.hpp</text>
</a>
</g>
</g>
<!-- Node1&#45;&gt;Node10 -->
<g id="edge9" class="edge"><title>Node1&#45;&gt;Node10</title>
<path fill="none" stroke="midnightblue" d="M409.196,-123.657C489.782,-113.345 625.892,-95.9285 704.659,-85.8494"/>
<polygon fill="midnightblue" stroke="midnightblue" points="408.644,-120.199 399.169,-124.94 409.533,-127.143 408.644,-120.199"/>
</g>
<!-- Node5 -->
<g id="node5" class="node"><title>Node5</title>
<g id="a_node5"><a xlink:href="matrix__opt__state_8cpp.html" target="_top" xlink:title="gmgf/matrix_opt_state.cpp">
<polygon fill="white" stroke="black" points="135.5,-6 135.5,-25 268.5,-25 268.5,-6 135.5,-6"/>
<text text-anchor="middle" x="202" y="-13" font-family="Helvetica,sans-Serif" font-size="10.00">gmgf/matrix_opt_state.cpp</text>
</a>
</g>
</g>
<!-- Node4&#45;&gt;Node5 -->
<g id="edge4" class="edge"><title>Node4&#45;&gt;Node5</title>
<path fill="none" stroke="midnightblue" d="M314.119,-63.4795C286.541,-51.9238 246.332,-35.0758 222.307,-25.0091"/>
<polygon fill="midnightblue" stroke="midnightblue" points="313.079,-66.8385 323.655,-67.4751 315.784,-60.3824 313.079,-66.8385"/>
</g>
<!-- Node6 -->
<g id="node6" class="node"><title>Node6</title>
<g id="a_node6"><a xlink:href="matrix__opt__state__initr_8cpp.html" target="_top" xlink:title="gmgf/matrix_opt_state\l_initr.cpp">
<polygon fill="white" stroke="black" points="287,-0.5 287,-30.5 401,-30.5 401,-0.5 287,-0.5"/>
<text text-anchor="start" x="295" y="-18.5" font-family="Helvetica,sans-Serif" font-size="10.00">gmgf/matrix_opt_state</text>
<text text-anchor="middle" x="344" y="-7.5" font-family="Helvetica,sans-Serif" font-size="10.00">_initr.cpp</text>
</a>
</g>
</g>
<!-- Node4&#45;&gt;Node6 -->
<g id="edge5" class="edge"><title>Node4&#45;&gt;Node6</title>
<path fill="none" stroke="midnightblue" d="M344,-57.2349C344,-48.5864 344,-38.4969 344,-30.523"/>
<polygon fill="midnightblue" stroke="midnightblue" points="340.5,-57.4751 344,-67.4751 347.5,-57.4751 340.5,-57.4751"/>
</g>
<!-- Node8 -->
<g id="node8" class="node"><title>Node8</title>
<g id="a_node8"><a xlink:href="matrix__state_8cpp.html" target="_top" xlink:title="gmgf/matrix_state.cpp">
<polygon fill="white" stroke="black" points="419,-6 419,-25 533,-25 533,-6 419,-6"/>
<text text-anchor="middle" x="476" y="-13" font-family="Helvetica,sans-Serif" font-size="10.00">gmgf/matrix_state.cpp</text>
</a>
</g>
</g>
<!-- Node7&#45;&gt;Node8 -->
<g id="edge7" class="edge"><title>Node7&#45;&gt;Node8</title>
<path fill="none" stroke="midnightblue" d="M482.86,-57.3165C481.041,-46.4962 478.84,-33.398 477.43,-25.0091"/>
<polygon fill="midnightblue" stroke="midnightblue" points="479.458,-58.1935 484.567,-67.4751 486.361,-57.0333 479.458,-58.1935"/>
</g>
<!-- Node9 -->
<g id="node9" class="node"><title>Node9</title>
<g id="a_node9"><a xlink:href="matrix__state__initr_8cpp.html" target="_top" xlink:title="gmgf/matrix_state_initr.cpp">
<polygon fill="white" stroke="black" points="551.5,-6 551.5,-25 686.5,-25 686.5,-6 551.5,-6"/>
<text text-anchor="middle" x="619" y="-13" font-family="Helvetica,sans-Serif" font-size="10.00">gmgf/matrix_state_initr.cpp</text>
</a>
</g>
</g>
<!-- Node7&#45;&gt;Node9 -->
<g id="edge8" class="edge"><title>Node7&#45;&gt;Node9</title>
<path fill="none" stroke="midnightblue" d="M514.327,-63.3272C540.147,-51.7761 577.576,-35.0316 599.98,-25.0091"/>
<polygon fill="midnightblue" stroke="midnightblue" points="512.755,-60.1965 505.056,-67.4751 515.613,-66.5862 512.755,-60.1965"/>
</g>
<!-- Node11 -->
<g id="node11" class="node"><title>Node11</title>
<g id="a_node11"><a xlink:href="minmax__state_8cpp.html" target="_top" xlink:title="gmgf/minmax_state.cpp">
<polygon fill="white" stroke="black" points="705,-6 705,-25 827,-25 827,-6 705,-6"/>
<text text-anchor="middle" x="766" y="-13" font-family="Helvetica,sans-Serif" font-size="10.00">gmgf/minmax_state.cpp</text>
</a>
</g>
</g>
<!-- Node10&#45;&gt;Node11 -->
<g id="edge10" class="edge"><title>Node10&#45;&gt;Node11</title>
<path fill="none" stroke="midnightblue" d="M766,-57.3165C766,-46.4962 766,-33.398 766,-25.0091"/>
<polygon fill="midnightblue" stroke="midnightblue" points="762.5,-57.4751 766,-67.4751 769.5,-57.4751 762.5,-57.4751"/>
</g>
<!-- Node12 -->
<g id="node12" class="node"><title>Node12</title>
<g id="a_node12"><a xlink:href="minmax__state__initr_8cpp.html" target="_top" xlink:title="gmgf/minmax_state_initr.cpp">
<polygon fill="white" stroke="black" points="845.5,-6 845.5,-25 988.5,-25 988.5,-6 845.5,-6"/>
<text text-anchor="middle" x="917" y="-13" font-family="Helvetica,sans-Serif" font-size="10.00">gmgf/minmax_state_initr.cpp</text>
</a>
</g>
</g>
<!-- Node10&#45;&gt;Node12 -->
<g id="edge11" class="edge"><title>Node10&#45;&gt;Node12</title>
<path fill="none" stroke="midnightblue" d="M797.006,-63.7824C826.35,-52.2199 869.634,-35.1641 895.406,-25.0091"/>
<polygon fill="midnightblue" stroke="midnightblue" points="795.655,-60.5527 787.635,-67.4751 798.222,-67.0653 795.655,-60.5527"/>
</g>
</g>
</svg>
