<?xml version="1.0" encoding="UTF-8" standalone="no"?>
<!DOCTYPE svg PUBLIC "-//W3C//DTD SVG 1.1//EN"
 "http://www.w3.org/Graphics/SVG/1.1/DTD/svg11.dtd">
<!-- Generated by graphviz version 2.38.0 (20140413.2041)
 -->
<!-- Title: gmgf/basic_state.hpp Pages: 1 -->
<svg width="151pt" height="196pt"
 viewBox="0.00 0.00 150.50 196.00" xmlns="http://www.w3.org/2000/svg" xmlns:xlink="http://www.w3.org/1999/xlink">
<g id="graph0" class="graph" transform="scale(1 1) rotate(0) translate(4 192)">
<title>gmgf/basic_state.hpp</title>
<polygon fill="white" stroke="none" points="-4,4 -4,-192 146.5,-192 146.5,4 -4,4"/>
<!-- Node1 -->
<g id="node1" class="node"><title>Node1</title>
<polygon fill="#bfbfbf" stroke="black" points="0,-168.5 0,-187.5 110,-187.5 110,-168.5 0,-168.5"/>
<text text-anchor="middle" x="55" y="-175.5" font-family="Helvetica,sans-Serif" font-size="10.00">gmgf/basic_state.hpp</text>
</g>
<!-- Node2 -->
<g id="node2" class="node"><title>Node2</title>
<polygon fill="white" stroke="#bfbfbf" points="34.5,-0.5 34.5,-19.5 85.5,-19.5 85.5,-0.5 34.5,-0.5"/>
<text text-anchor="middle" x="60" y="-7.5" font-family="Helvetica,sans-Serif" font-size="10.00">igraph.h</text>
</g>
<!-- Node1&#45;&gt;Node2 -->
<g id="edge1" class="edge"><title>Node1&#45;&gt;Node2</title>
<path fill="none" stroke="midnightblue" d="M52.3456,-168.419C46.5634,-148.511 33.9692,-97.7007 42,-56 43.7901,-46.7047 47.483,-36.8887 51.0607,-28.8048"/>
<polygon fill="midnightblue" stroke="midnightblue" points="54.2733,-30.1981 55.3788,-19.6611 47.9436,-27.2089 54.2733,-30.1981"/>
</g>
<!-- Node3 -->
<g id="node3" class="node"><title>Node3</title>
<g id="a_node3"><a xlink:href="state_8hpp.html" target="_top" xlink:title="state.hpp">
<polygon fill="white" stroke="black" points="59.5,-112.5 59.5,-131.5 116.5,-131.5 116.5,-112.5 59.5,-112.5"/>
<text text-anchor="middle" x="88" y="-119.5" font-family="Helvetica,sans-Serif" font-size="10.00">state.hpp</text>
</a>
</g>
</g>
<!-- Node1&#45;&gt;Node3 -->
<g id="edge2" class="edge"><title>Node1&#45;&gt;Node3</title>
<path fill="none" stroke="midnightblue" d="M60.4493,-168.083C65.0145,-160.613 71.6684,-149.724 77.2934,-140.52"/>
<polygon fill="midnightblue" stroke="midnightblue" points="80.4241,-142.109 82.6521,-131.751 74.4511,-138.459 80.4241,-142.109"/>
</g>
<!-- Node4 -->
<g id="node4" class="node"><title>Node4</title>
<g id="a_node4"><a xlink:href="graph__config_8hpp.html" target="_top" xlink:title="graph_config.hpp">
<polygon fill="white" stroke="red" points="51.5,-56.5 51.5,-75.5 142.5,-75.5 142.5,-56.5 51.5,-56.5"/>
<text text-anchor="middle" x="97" y="-63.5" font-family="Helvetica,sans-Serif" font-size="10.00">graph_config.hpp</text>
</a>
</g>
</g>
<!-- Node3&#45;&gt;Node4 -->
<g id="edge3" class="edge"><title>Node3&#45;&gt;Node4</title>
<path fill="none" stroke="midnightblue" d="M89.4862,-112.083C90.6788,-104.927 92.3941,-94.6353 93.8848,-85.6911"/>
<polygon fill="midnightblue" stroke="midnightblue" points="97.3498,-86.1904 95.5415,-75.7511 90.445,-85.0396 97.3498,-86.1904"/>
</g>
<!-- Node4&#45;&gt;Node2 -->
<g id="edge4" class="edge"><title>Node4&#45;&gt;Node2</title>
<path fill="none" stroke="midnightblue" d="M90.8902,-56.083C85.7178,-48.5341 78.1539,-37.4948 71.8056,-28.2298"/>
<polygon fill="midnightblue" stroke="midnightblue" points="74.5357,-26.0221 65.9961,-19.7511 68.7612,-29.9787 74.5357,-26.0221"/>
</g>
</g>
</svg>
