<?xml version="1.0" encoding="UTF-8" standalone="no"?>
<!DOCTYPE svg PUBLIC "-//W3C//DTD SVG 1.1//EN"
 "http://www.w3.org/Graphics/SVG/1.1/DTD/svg11.dtd">
<!-- Generated by graphviz version 2.38.0 (20140413.2041)
 -->
<!-- Title: gmgf/basic_graph_initr.hpp Pages: 1 -->
<svg width="283pt" height="196pt"
 viewBox="0.00 0.00 283.00 196.00" xmlns="http://www.w3.org/2000/svg" xmlns:xlink="http://www.w3.org/1999/xlink">
<g id="graph0" class="graph" transform="scale(1 1) rotate(0) translate(4 192)">
<title>gmgf/basic_graph_initr.hpp</title>
<polygon fill="white" stroke="none" points="-4,4 -4,-192 279,-192 279,4 -4,4"/>
<!-- Node1 -->
<g id="node1" class="node"><title>Node1</title>
<polygon fill="#bfbfbf" stroke="black" points="0,-168.5 0,-187.5 134,-187.5 134,-168.5 0,-168.5"/>
<text text-anchor="middle" x="67" y="-175.5" font-family="Helvetica,sans-Serif" font-size="10.00">gmgf/basic_graph_initr.hpp</text>
</g>
<!-- Node2 -->
<g id="node2" class="node"><title>Node2</title>
<polygon fill="white" stroke="#bfbfbf" points="28.5,-0.5 28.5,-19.5 79.5,-19.5 79.5,-0.5 28.5,-0.5"/>
<text text-anchor="middle" x="54" y="-7.5" font-family="Helvetica,sans-Serif" font-size="10.00">igraph.h</text>
</g>
<!-- Node1&#45;&gt;Node2 -->
<g id="edge1" class="edge"><title>Node1&#45;&gt;Node2</title>
<path fill="none" stroke="midnightblue" d="M51.2167,-168.467C38.7973,-160.769 22.3949,-148.179 15,-132 0.958369,-101.279 3.19441,-87.6475 15,-56 19.1734,-44.8124 27.5196,-34.5598 35.4238,-26.6759"/>
<polygon fill="midnightblue" stroke="midnightblue" points="38.0616,-29.0029 43.0098,-19.6346 33.2994,-23.8724 38.0616,-29.0029"/>
</g>
<!-- Node3 -->
<g id="node3" class="node"><title>Node3</title>
<polygon fill="white" stroke="#bfbfbf" points="98,-0.5 98,-19.5 138,-19.5 138,-0.5 98,-0.5"/>
<text text-anchor="middle" x="118" y="-7.5" font-family="Helvetica,sans-Serif" font-size="10.00">utility</text>
</g>
<!-- Node1&#45;&gt;Node3 -->
<g id="edge2" class="edge"><title>Node1&#45;&gt;Node3</title>
<path fill="none" stroke="midnightblue" d="M63.1866,-168.457C58.1134,-155.907 50.4003,-131.826 56,-112 65.2696,-79.181 88.5265,-46.5203 103.772,-27.5708"/>
<polygon fill="midnightblue" stroke="midnightblue" points="106.646,-29.5884 110.326,-19.6531 101.253,-25.125 106.646,-29.5884"/>
</g>
<!-- Node4 -->
<g id="node4" class="node"><title>Node4</title>
<polygon fill="white" stroke="#bfbfbf" points="231,-0.5 231,-19.5 275,-19.5 275,-0.5 231,-0.5"/>
<text text-anchor="middle" x="253" y="-7.5" font-family="Helvetica,sans-Serif" font-size="10.00">vector</text>
</g>
<!-- Node1&#45;&gt;Node4 -->
<g id="edge3" class="edge"><title>Node1&#45;&gt;Node4</title>
<path fill="none" stroke="midnightblue" d="M106.402,-168.413C151.095,-156.318 221.806,-129.484 253,-76 261.165,-62.0011 260.169,-43.2533 257.721,-29.4899"/>
<polygon fill="midnightblue" stroke="midnightblue" points="261.139,-28.7345 255.594,-19.7065 254.299,-30.2219 261.139,-28.7345"/>
</g>
<!-- Node5 -->
<g id="node5" class="node"><title>Node5</title>
<g id="a_node5"><a xlink:href="graph__initr_8hpp.html" target="_top" xlink:title="graph_initr.hpp">
<polygon fill="white" stroke="black" points="65,-112.5 65,-131.5 145,-131.5 145,-112.5 65,-112.5"/>
<text text-anchor="middle" x="105" y="-119.5" font-family="Helvetica,sans-Serif" font-size="10.00">graph_initr.hpp</text>
</a>
</g>
</g>
<!-- Node1&#45;&gt;Node5 -->
<g id="edge4" class="edge"><title>Node1&#45;&gt;Node5</title>
<path fill="none" stroke="midnightblue" d="M73.2749,-168.083C78.6425,-160.455 86.5176,-149.264 93.0787,-139.941"/>
<polygon fill="midnightblue" stroke="midnightblue" points="95.9492,-141.943 98.8418,-131.751 90.2245,-137.915 95.9492,-141.943"/>
</g>
<!-- Node5&#45;&gt;Node2 -->
<g id="edge5" class="edge"><title>Node5&#45;&gt;Node2</title>
<path fill="none" stroke="midnightblue" d="M100.998,-112.368C92.6934,-94.4563 73.4372,-52.9233 62.3214,-28.9482"/>
<polygon fill="midnightblue" stroke="midnightblue" points="65.3649,-27.1916 57.9833,-19.5914 59.0143,-30.136 65.3649,-27.1916"/>
</g>
<!-- Node5&#45;&gt;Node3 -->
<g id="edge6" class="edge"><title>Node5&#45;&gt;Node3</title>
<path fill="none" stroke="midnightblue" d="M106.02,-112.368C108.118,-94.617 112.958,-53.6664 115.802,-29.5974"/>
<polygon fill="midnightblue" stroke="midnightblue" points="119.287,-29.9331 116.985,-19.5914 112.335,-29.1115 119.287,-29.9331"/>
</g>
<!-- Node5&#45;&gt;Node4 -->
<g id="edge7" class="edge"><title>Node5&#45;&gt;Node4</title>
<path fill="none" stroke="midnightblue" d="M145.051,-116.468C173.232,-111.244 209.902,-100.03 233,-76 244.879,-63.6413 249.717,-44.3938 251.679,-30.0464"/>
<polygon fill="midnightblue" stroke="midnightblue" points="255.19,-30.1179 252.716,-19.8159 248.226,-29.4119 255.19,-30.1179"/>
</g>
<!-- Node6 -->
<g id="node6" class="node"><title>Node6</title>
<g id="a_node6"><a xlink:href="graph__config_8hpp.html" target="_top" xlink:title="graph_config.hpp">
<polygon fill="white" stroke="black" points="133.5,-56.5 133.5,-75.5 224.5,-75.5 224.5,-56.5 133.5,-56.5"/>
<text text-anchor="middle" x="179" y="-63.5" font-family="Helvetica,sans-Serif" font-size="10.00">graph_config.hpp</text>
</a>
</g>
</g>
<!-- Node5&#45;&gt;Node6 -->
<g id="edge8" class="edge"><title>Node5&#45;&gt;Node6</title>
<path fill="none" stroke="midnightblue" d="M116.889,-112.324C128.15,-104.107 145.287,-91.6017 158.709,-81.8069"/>
<polygon fill="midnightblue" stroke="midnightblue" points="160.88,-84.5559 166.894,-75.8339 156.753,-78.9014 160.88,-84.5559"/>
</g>
<!-- Node6&#45;&gt;Node2 -->
<g id="edge9" class="edge"><title>Node6&#45;&gt;Node2</title>
<path fill="none" stroke="midnightblue" d="M159.193,-56.4435C138.713,-47.5961 106.517,-33.6875 83.1353,-23.5865"/>
<polygon fill="midnightblue" stroke="midnightblue" points="84.282,-20.2692 73.714,-19.5164 81.5059,-26.6953 84.282,-20.2692"/>
</g>
<!-- Node6&#45;&gt;Node3 -->
<g id="edge10" class="edge"><title>Node6&#45;&gt;Node3</title>
<path fill="none" stroke="midnightblue" d="M169.199,-56.324C160.182,-48.3414 146.594,-36.3128 135.682,-26.6529"/>
<polygon fill="midnightblue" stroke="midnightblue" points="137.787,-23.8416 127.979,-19.8339 133.147,-29.083 137.787,-23.8416"/>
</g>
<!-- Node6&#45;&gt;Node4 -->
<g id="edge11" class="edge"><title>Node6&#45;&gt;Node4</title>
<path fill="none" stroke="midnightblue" d="M190.889,-56.324C202.15,-48.1066 219.287,-35.6017 232.709,-25.8069"/>
<polygon fill="midnightblue" stroke="midnightblue" points="234.88,-28.5559 240.894,-19.8339 230.753,-22.9014 234.88,-28.5559"/>
</g>
</g>
</svg>
