<?xml version="1.0" encoding="UTF-8" standalone="no"?>
<!DOCTYPE svg PUBLIC "-//W3C//DTD SVG 1.1//EN"
 "http://www.w3.org/Graphics/SVG/1.1/DTD/svg11.dtd">
<!-- Generated by graphviz version 2.38.0 (20140413.2041)
 -->
<!-- Title: gmgf/basic_state_initr.cpp Pages: 1 -->
<svg width="220pt" height="196pt"
 viewBox="0.00 0.00 219.50 196.00" xmlns="http://www.w3.org/2000/svg" xmlns:xlink="http://www.w3.org/1999/xlink">
<g id="graph0" class="graph" transform="scale(1 1) rotate(0) translate(4 192)">
<title>gmgf/basic_state_initr.cpp</title>
<polygon fill="white" stroke="none" points="-4,4 -4,-192 215.5,-192 215.5,4 -4,4"/>
<!-- Node1 -->
<g id="node1" class="node"><title>Node1</title>
<polygon fill="#bfbfbf" stroke="black" points="45,-168.5 45,-187.5 176,-187.5 176,-168.5 45,-168.5"/>
<text text-anchor="middle" x="110.5" y="-175.5" font-family="Helvetica,sans-Serif" font-size="10.00">gmgf/basic_state_initr.cpp</text>
</g>
<!-- Node2 -->
<g id="node2" class="node"><title>Node2</title>
<g id="a_node2"><a xlink:href="basic__state__initr_8hpp.html" target="_top" xlink:title="basic_state_initr.hpp">
<polygon fill="white" stroke="black" points="0,-112.5 0,-131.5 107,-131.5 107,-112.5 0,-112.5"/>
<text text-anchor="middle" x="53.5" y="-119.5" font-family="Helvetica,sans-Serif" font-size="10.00">basic_state_initr.hpp</text>
</a>
</g>
</g>
<!-- Node1&#45;&gt;Node2 -->
<g id="edge1" class="edge"><title>Node1&#45;&gt;Node2</title>
<path fill="none" stroke="midnightblue" d="M101.342,-168.324C92.9985,-160.42 80.4676,-148.548 70.3231,-138.938"/>
<polygon fill="midnightblue" stroke="midnightblue" points="72.4913,-136.171 62.8247,-131.834 67.6771,-141.252 72.4913,-136.171"/>
</g>
<!-- Node5 -->
<g id="node5" class="node"><title>Node5</title>
<g id="a_node5"><a xlink:href="basic__state_8hpp.html" target="_top" xlink:title="basic_state.hpp">
<polygon fill="white" stroke="black" points="125.5,-112.5 125.5,-131.5 211.5,-131.5 211.5,-112.5 125.5,-112.5"/>
<text text-anchor="middle" x="168.5" y="-119.5" font-family="Helvetica,sans-Serif" font-size="10.00">basic_state.hpp</text>
</a>
</g>
</g>
<!-- Node1&#45;&gt;Node5 -->
<g id="edge4" class="edge"><title>Node1&#45;&gt;Node5</title>
<path fill="none" stroke="midnightblue" d="M119.819,-168.324C128.393,-160.341 141.312,-148.313 151.688,-138.653"/>
<polygon fill="midnightblue" stroke="midnightblue" points="154.078,-141.21 159.012,-131.834 149.308,-136.086 154.078,-141.21"/>
</g>
<!-- Node3 -->
<g id="node3" class="node"><title>Node3</title>
<g id="a_node3"><a xlink:href="state__initr_8hpp.html" target="_top" xlink:title="state_initr.hpp">
<polygon fill="white" stroke="red" points="14.5,-56.5 14.5,-75.5 92.5,-75.5 92.5,-56.5 14.5,-56.5"/>
<text text-anchor="middle" x="53.5" y="-63.5" font-family="Helvetica,sans-Serif" font-size="10.00">state_initr.hpp</text>
</a>
</g>
</g>
<!-- Node2&#45;&gt;Node3 -->
<g id="edge2" class="edge"><title>Node2&#45;&gt;Node3</title>
<path fill="none" stroke="midnightblue" d="M53.5,-112.083C53.5,-105.006 53.5,-94.8611 53.5,-85.9865"/>
<polygon fill="midnightblue" stroke="midnightblue" points="57.0001,-85.751 53.5,-75.7511 50.0001,-85.7511 57.0001,-85.751"/>
</g>
<!-- Node4 -->
<g id="node4" class="node"><title>Node4</title>
<g id="a_node4"><a xlink:href="state_8hpp.html" target="_top" xlink:title="state.hpp">
<polygon fill="white" stroke="red" points="58,-0.5 58,-19.5 115,-19.5 115,-0.5 58,-0.5"/>
<text text-anchor="middle" x="86.5" y="-7.5" font-family="Helvetica,sans-Serif" font-size="10.00">state.hpp</text>
</a>
</g>
</g>
<!-- Node3&#45;&gt;Node4 -->
<g id="edge3" class="edge"><title>Node3&#45;&gt;Node4</title>
<path fill="none" stroke="midnightblue" d="M58.9493,-56.083C63.5145,-48.6127 70.1684,-37.7244 75.7934,-28.5199"/>
<polygon fill="midnightblue" stroke="midnightblue" points="78.9241,-30.109 81.1521,-19.7511 72.9511,-26.4588 78.9241,-30.109"/>
</g>
<!-- Node5&#45;&gt;Node4 -->
<g id="edge6" class="edge"><title>Node5&#45;&gt;Node4</title>
<path fill="none" stroke="midnightblue" d="M162.066,-112.368C148.473,-94.135 116.636,-51.4257 98.9306,-27.6752"/>
<polygon fill="midnightblue" stroke="midnightblue" points="101.687,-25.5171 92.9045,-19.5914 96.0751,-29.7007 101.687,-25.5171"/>
</g>
<!-- Node6 -->
<g id="node6" class="node"><title>Node6</title>
<polygon fill="white" stroke="#bfbfbf" points="149,-56.5 149,-75.5 200,-75.5 200,-56.5 149,-56.5"/>
<text text-anchor="middle" x="174.5" y="-63.5" font-family="Helvetica,sans-Serif" font-size="10.00">igraph.h</text>
</g>
<!-- Node5&#45;&gt;Node6 -->
<g id="edge5" class="edge"><title>Node5&#45;&gt;Node6</title>
<path fill="none" stroke="midnightblue" d="M169.491,-112.083C170.286,-104.927 171.429,-94.6353 172.423,-85.6911"/>
<polygon fill="midnightblue" stroke="midnightblue" points="175.902,-86.0765 173.528,-75.7511 168.945,-85.3034 175.902,-86.0765"/>
</g>
</g>
</svg>
