<?xml version="1.0" encoding="UTF-8" standalone="no"?>
<!DOCTYPE svg PUBLIC "-//W3C//DTD SVG 1.1//EN"
 "http://www.w3.org/Graphics/SVG/1.1/DTD/svg11.dtd">
<!-- Generated by graphviz version 2.38.0 (20140413.2041)
 -->
<!-- Title: gmgf/basic_state.hpp Pages: 1 -->
<svg width="713pt" height="140pt"
 viewBox="0.00 0.00 712.50 140.00" xmlns="http://www.w3.org/2000/svg" xmlns:xlink="http://www.w3.org/1999/xlink">
<g id="graph0" class="graph" transform="scale(1 1) rotate(0) translate(4 136)">
<title>gmgf/basic_state.hpp</title>
<polygon fill="white" stroke="none" points="-4,4 -4,-136 708.5,-136 708.5,4 -4,4"/>
<!-- Node1 -->
<g id="node1" class="node"><title>Node1</title>
<polygon fill="#bfbfbf" stroke="black" points="211,-112.5 211,-131.5 321,-131.5 321,-112.5 211,-112.5"/>
<text text-anchor="middle" x="266" y="-119.5" font-family="Helvetica,sans-Serif" font-size="10.00">gmgf/basic_state.hpp</text>
</g>
<!-- Node2 -->
<g id="node2" class="node"><title>Node2</title>
<g id="a_node2"><a xlink:href="basic__state_8cpp.html" target="_top" xlink:title="gmgf/basic_state.cpp">
<polygon fill="white" stroke="black" points="0,-56.5 0,-75.5 110,-75.5 110,-56.5 0,-56.5"/>
<text text-anchor="middle" x="55" y="-63.5" font-family="Helvetica,sans-Serif" font-size="10.00">gmgf/basic_state.cpp</text>
</a>
</g>
</g>
<!-- Node1&#45;&gt;Node2 -->
<g id="edge1" class="edge"><title>Node1&#45;&gt;Node2</title>
<path fill="none" stroke="midnightblue" d="M222.858,-109.959C183.006,-99.7598 124.637,-84.8217 88.2772,-75.5164"/>
<polygon fill="midnightblue" stroke="midnightblue" points="222.011,-113.355 232.566,-112.444 223.746,-106.573 222.011,-113.355"/>
</g>
<!-- Node3 -->
<g id="node3" class="node"><title>Node3</title>
<g id="a_node3"><a xlink:href="basic__state__initr_8cpp.html" target="_top" xlink:title="gmgf/basic_state_initr.cpp">
<polygon fill="white" stroke="black" points="128.5,-56.5 128.5,-75.5 259.5,-75.5 259.5,-56.5 128.5,-56.5"/>
<text text-anchor="middle" x="194" y="-63.5" font-family="Helvetica,sans-Serif" font-size="10.00">gmgf/basic_state_initr.cpp</text>
</a>
</g>
</g>
<!-- Node1&#45;&gt;Node3 -->
<g id="edge2" class="edge"><title>Node1&#45;&gt;Node3</title>
<path fill="none" stroke="midnightblue" d="M246.134,-106.101C233.177,-96.3824 216.703,-84.0269 205.779,-75.8339"/>
<polygon fill="midnightblue" stroke="midnightblue" points="244.332,-109.124 254.432,-112.324 248.532,-103.524 244.332,-109.124"/>
</g>
<!-- Node4 -->
<g id="node4" class="node"><title>Node4</title>
<g id="a_node4"><a xlink:href="minmax__state_8hpp.html" target="_top" xlink:title="gmgf/minmax_state.hpp">
<polygon fill="white" stroke="black" points="278,-56.5 278,-75.5 400,-75.5 400,-56.5 278,-56.5"/>
<text text-anchor="middle" x="339" y="-63.5" font-family="Helvetica,sans-Serif" font-size="10.00">gmgf/minmax_state.hpp</text>
</a>
</g>
</g>
<!-- Node1&#45;&gt;Node4 -->
<g id="edge3" class="edge"><title>Node1&#45;&gt;Node4</title>
<path fill="none" stroke="midnightblue" d="M286.142,-106.101C299.279,-96.3824 315.982,-84.0269 327.058,-75.8339"/>
<polygon fill="midnightblue" stroke="midnightblue" points="283.687,-103.563 277.729,-112.324 287.85,-109.191 283.687,-103.563"/>
</g>
<!-- Node7 -->
<g id="node7" class="node"><title>Node7</title>
<g id="a_node7"><a xlink:href="mmmtr__state_8hpp.html" target="_top" xlink:title="gmgf/mmmtr_state.hpp">
<polygon fill="white" stroke="black" points="429,-56.5 429,-75.5 547,-75.5 547,-56.5 429,-56.5"/>
<text text-anchor="middle" x="488" y="-63.5" font-family="Helvetica,sans-Serif" font-size="10.00">gmgf/mmmtr_state.hpp</text>
</a>
</g>
</g>
<!-- Node1&#45;&gt;Node7 -->
<g id="edge6" class="edge"><title>Node1&#45;&gt;Node7</title>
<path fill="none" stroke="midnightblue" d="M311.125,-110.024C353.06,-99.8232 414.652,-84.8414 452.988,-75.5164"/>
<polygon fill="midnightblue" stroke="midnightblue" points="310.066,-106.679 301.177,-112.444 311.72,-113.481 310.066,-106.679"/>
</g>
<!-- Node5 -->
<g id="node5" class="node"><title>Node5</title>
<g id="a_node5"><a xlink:href="minmax__state_8cpp.html" target="_top" xlink:title="gmgf/minmax_state.cpp">
<polygon fill="white" stroke="black" points="127,-0.5 127,-19.5 249,-19.5 249,-0.5 127,-0.5"/>
<text text-anchor="middle" x="188" y="-7.5" font-family="Helvetica,sans-Serif" font-size="10.00">gmgf/minmax_state.cpp</text>
</a>
</g>
</g>
<!-- Node4&#45;&gt;Node5 -->
<g id="edge4" class="edge"><title>Node4&#45;&gt;Node5</title>
<path fill="none" stroke="midnightblue" d="M305.554,-53.0392C277.142,-42.8786 237.063,-28.5457 211.814,-19.5164"/>
<polygon fill="midnightblue" stroke="midnightblue" points="304.479,-56.3718 315.074,-56.4435 306.836,-49.7806 304.479,-56.3718"/>
</g>
<!-- Node6 -->
<g id="node6" class="node"><title>Node6</title>
<g id="a_node6"><a xlink:href="minmax__state__initr_8cpp.html" target="_top" xlink:title="gmgf/minmax_state_initr.cpp">
<polygon fill="white" stroke="black" points="267.5,-0.5 267.5,-19.5 410.5,-19.5 410.5,-0.5 267.5,-0.5"/>
<text text-anchor="middle" x="339" y="-7.5" font-family="Helvetica,sans-Serif" font-size="10.00">gmgf/minmax_state_initr.cpp</text>
</a>
</g>
</g>
<!-- Node4&#45;&gt;Node6 -->
<g id="edge5" class="edge"><title>Node4&#45;&gt;Node6</title>
<path fill="none" stroke="midnightblue" d="M339,-45.8045C339,-36.9102 339,-26.7798 339,-19.7511"/>
<polygon fill="midnightblue" stroke="midnightblue" points="335.5,-46.083 339,-56.083 342.5,-46.083 335.5,-46.083"/>
</g>
<!-- Node8 -->
<g id="node8" class="node"><title>Node8</title>
<g id="a_node8"><a xlink:href="mmmtr__state_8cpp.html" target="_top" xlink:title="gmgf/mmmtr_state.cpp">
<polygon fill="white" stroke="black" points="429,-0.5 429,-19.5 547,-19.5 547,-0.5 429,-0.5"/>
<text text-anchor="middle" x="488" y="-7.5" font-family="Helvetica,sans-Serif" font-size="10.00">gmgf/mmmtr_state.cpp</text>
</a>
</g>
</g>
<!-- Node7&#45;&gt;Node8 -->
<g id="edge7" class="edge"><title>Node7&#45;&gt;Node8</title>
<path fill="none" stroke="midnightblue" d="M488,-45.8045C488,-36.9102 488,-26.7798 488,-19.7511"/>
<polygon fill="midnightblue" stroke="midnightblue" points="484.5,-46.083 488,-56.083 491.5,-46.083 484.5,-46.083"/>
</g>
<!-- Node9 -->
<g id="node9" class="node"><title>Node9</title>
<g id="a_node9"><a xlink:href="mmmtr__state__initr_8cpp.html" target="_top" xlink:title="gmgf/mmmtr_state_initr.cpp">
<polygon fill="white" stroke="black" points="565.5,-0.5 565.5,-19.5 704.5,-19.5 704.5,-0.5 565.5,-0.5"/>
<text text-anchor="middle" x="635" y="-7.5" font-family="Helvetica,sans-Serif" font-size="10.00">gmgf/mmmtr_state_initr.cpp</text>
</a>
</g>
</g>
<!-- Node7&#45;&gt;Node9 -->
<g id="edge8" class="edge"><title>Node7&#45;&gt;Node9</title>
<path fill="none" stroke="midnightblue" d="M520.923,-52.9058C548.56,-42.7536 587.344,-28.5063 611.816,-19.5164"/>
<polygon fill="midnightblue" stroke="midnightblue" points="519.472,-49.71 511.293,-56.4435 521.886,-56.2806 519.472,-49.71"/>
</g>
</g>
</svg>
