<?xml version="1.0" encoding="UTF-8" standalone="no"?>
<!DOCTYPE svg PUBLIC "-//W3C//DTD SVG 1.1//EN"
 "http://www.w3.org/Graphics/SVG/1.1/DTD/svg11.dtd">
<!-- Generated by graphviz version 2.38.0 (20140413.2041)
 -->
<!-- Title: gmgf::graph_initr Pages: 1 -->
<svg width="380pt" height="151pt"
 viewBox="0.00 0.00 380.00 151.00" xmlns="http://www.w3.org/2000/svg" xmlns:xlink="http://www.w3.org/1999/xlink">
<g id="graph0" class="graph" transform="scale(1 1) rotate(0) translate(4 147)">
<title>gmgf::graph_initr</title>
<polygon fill="white" stroke="none" points="-4,4 -4,-147 376,-147 376,4 -4,4"/>
<!-- Node1 -->
<g id="node1" class="node"><title>Node1</title>
<polygon fill="#bfbfbf" stroke="black" points="142.5,-123.5 142.5,-142.5 231.5,-142.5 231.5,-123.5 142.5,-123.5"/>
<text text-anchor="middle" x="187" y="-130.5" font-family="Helvetica,sans-Serif" font-size="10.00">gmgf::graph_initr</text>
</g>
<!-- Node2 -->
<g id="node2" class="node"><title>Node2</title>
<g id="a_node2"><a xlink:href="classgmgf_1_1basic__graph__initr.html" target="_top" xlink:title="基本的なグラフ初期化子． ">
<polygon fill="white" stroke="black" points="0,-62 0,-81 118,-81 118,-62 0,-62"/>
<text text-anchor="middle" x="59" y="-69" font-family="Helvetica,sans-Serif" font-size="10.00">gmgf::basic_graph_initr</text>
</a>
</g>
</g>
<!-- Node1&#45;&gt;Node2 -->
<g id="edge1" class="edge"><title>Node1&#45;&gt;Node2</title>
<path fill="none" stroke="midnightblue" d="M159.408,-119.174C134.571,-107.629 98.7714,-90.9875 77.3053,-81.0091"/>
<polygon fill="midnightblue" stroke="midnightblue" points="158.117,-122.434 168.661,-123.475 161.068,-116.086 158.117,-122.434"/>
</g>
<!-- Node4 -->
<g id="node4" class="node"><title>Node4</title>
<g id="a_node4"><a xlink:href="classgmgf_1_1sorted__graph__initr.html" target="_top" xlink:title="あるグラフ初期化子の候補辺リストをソートして返すグラフ初期化子． ">
<polygon fill="white" stroke="black" points="136.5,-56.5 136.5,-86.5 237.5,-86.5 237.5,-56.5 136.5,-56.5"/>
<text text-anchor="start" x="144.5" y="-74.5" font-family="Helvetica,sans-Serif" font-size="10.00">gmgf::sorted_graph</text>
<text text-anchor="middle" x="187" y="-63.5" font-family="Helvetica,sans-Serif" font-size="10.00">_initr</text>
</a>
</g>
</g>
<!-- Node1&#45;&gt;Node4 -->
<g id="edge3" class="edge"><title>Node1&#45;&gt;Node4</title>
<path fill="none" stroke="midnightblue" d="M187,-113.235C187,-104.586 187,-94.4969 187,-86.523"/>
<polygon fill="midnightblue" stroke="midnightblue" points="183.5,-113.475 187,-123.475 190.5,-113.475 183.5,-113.475"/>
</g>
<!-- Node5 -->
<g id="node5" class="node"><title>Node5</title>
<g id="a_node5"><a xlink:href="classgmgf_1_1stree__graph__initr.html" target="_top" xlink:title="全域木を初期グラフとして与えるグラフ初期化子． ">
<polygon fill="white" stroke="black" points="256,-62 256,-81 372,-81 372,-62 256,-62"/>
<text text-anchor="middle" x="314" y="-69" font-family="Helvetica,sans-Serif" font-size="10.00">gmgf::stree_graph_initr</text>
</a>
</g>
</g>
<!-- Node1&#45;&gt;Node5 -->
<g id="edge4" class="edge"><title>Node1&#45;&gt;Node5</title>
<path fill="none" stroke="midnightblue" d="M214.376,-119.174C239.019,-107.629 274.539,-90.9875 295.838,-81.0091"/>
<polygon fill="midnightblue" stroke="midnightblue" points="212.767,-116.063 205.196,-123.475 215.736,-122.402 212.767,-116.063"/>
</g>
<!-- Node3 -->
<g id="node3" class="node"><title>Node3</title>
<g id="a_node3"><a xlink:href="classgmgf_1_1cycle__graph__initr.html" target="_top" xlink:title="閉路を含む初期グラフを与えるグラフ初期化子． ">
<polygon fill="white" stroke="black" points="0,-0.5 0,-19.5 118,-19.5 118,-0.5 0,-0.5"/>
<text text-anchor="middle" x="59" y="-7.5" font-family="Helvetica,sans-Serif" font-size="10.00">gmgf::cycle_graph_initr</text>
</a>
</g>
</g>
<!-- Node2&#45;&gt;Node3 -->
<g id="edge2" class="edge"><title>Node2&#45;&gt;Node3</title>
<path fill="none" stroke="midnightblue" d="M59,-51.8165C59,-40.9962 59,-27.898 59,-19.5091"/>
<polygon fill="midnightblue" stroke="midnightblue" points="55.5001,-51.9751 59,-61.9751 62.5001,-51.9751 55.5001,-51.9751"/>
</g>
</g>
</svg>
