<?xml version="1.0" encoding="UTF-8" standalone="no"?>
<!DOCTYPE svg PUBLIC "-//W3C//DTD SVG 1.1//EN"
 "http://www.w3.org/Graphics/SVG/1.1/DTD/svg11.dtd">
<!-- Generated by graphviz version 2.38.0 (20140413.2041)
 -->
<!-- Title: gmgf::state_initr Pages: 1 -->
<svg width="390pt" height="95pt"
 viewBox="0.00 0.00 389.50 95.00" xmlns="http://www.w3.org/2000/svg" xmlns:xlink="http://www.w3.org/1999/xlink">
<g id="graph0" class="graph" transform="scale(1 1) rotate(0) translate(4 91)">
<title>gmgf::state_initr</title>
<polygon fill="white" stroke="none" points="-4,4 -4,-91 385.5,-91 385.5,4 -4,4"/>
<!-- Node1 -->
<g id="node1" class="node"><title>Node1</title>
<polygon fill="#bfbfbf" stroke="black" points="143.5,-67.5 143.5,-86.5 230.5,-86.5 230.5,-67.5 143.5,-67.5"/>
<text text-anchor="middle" x="187" y="-74.5" font-family="Helvetica,sans-Serif" font-size="10.00">gmgf::state_initr</text>
</g>
<!-- Node2 -->
<g id="node2" class="node"><title>Node2</title>
<g id="a_node2"><a xlink:href="classgmgf_1_1basic__state__initr.html" target="_top" xlink:title="gmgf::basic_state に対する状態初期化子 ">
<polygon fill="white" stroke="black" points="0,-6 0,-25 116,-25 116,-6 0,-6"/>
<text text-anchor="middle" x="58" y="-13" font-family="Helvetica,sans-Serif" font-size="10.00">gmgf::basic_state_initr</text>
</a>
</g>
</g>
<!-- Node1&#45;&gt;Node2 -->
<g id="edge1" class="edge"><title>Node1&#45;&gt;Node2</title>
<path fill="none" stroke="midnightblue" d="M159.193,-63.1742C134.161,-51.6287 98.0821,-34.9875 76.4483,-25.0091"/>
<polygon fill="midnightblue" stroke="midnightblue" points="157.971,-66.4649 168.517,-67.4751 160.903,-60.1085 157.971,-66.4649"/>
</g>
<!-- Node3 -->
<g id="node3" class="node"><title>Node3</title>
<g id="a_node3"><a xlink:href="classgmgf_1_1minmax__state__initr.html" target="_top" xlink:title="gmgf::minmax_state に対する状態初期化子 ">
<polygon fill="white" stroke="black" points="134,-0.5 134,-30.5 240,-30.5 240,-0.5 134,-0.5"/>
<text text-anchor="start" x="142" y="-18.5" font-family="Helvetica,sans-Serif" font-size="10.00">gmgf::minmax_state</text>
<text text-anchor="middle" x="187" y="-7.5" font-family="Helvetica,sans-Serif" font-size="10.00">_initr</text>
</a>
</g>
</g>
<!-- Node1&#45;&gt;Node3 -->
<g id="edge2" class="edge"><title>Node1&#45;&gt;Node3</title>
<path fill="none" stroke="midnightblue" d="M187,-57.2349C187,-48.5864 187,-38.4969 187,-30.523"/>
<polygon fill="midnightblue" stroke="midnightblue" points="183.5,-57.4751 187,-67.4751 190.5,-57.4751 183.5,-57.4751"/>
</g>
<!-- Node4 -->
<g id="node4" class="node"><title>Node4</title>
<g id="a_node4"><a xlink:href="classgmgf_1_1mmmtr__state__initr.html" target="_top" xlink:title="gmgf::mmmtr_state に対する状態初期化子 ">
<polygon fill="white" stroke="black" points="258.5,-6 258.5,-25 381.5,-25 381.5,-6 258.5,-6"/>
<text text-anchor="middle" x="320" y="-13" font-family="Helvetica,sans-Serif" font-size="10.00">gmgf::mmmtr_state_initr</text>
</a>
</g>
</g>
<!-- Node1&#45;&gt;Node4 -->
<g id="edge3" class="edge"><title>Node1&#45;&gt;Node4</title>
<path fill="none" stroke="midnightblue" d="M215.327,-63.3272C241.147,-51.7761 278.576,-35.0316 300.98,-25.0091"/>
<polygon fill="midnightblue" stroke="midnightblue" points="213.755,-60.1965 206.056,-67.4751 216.613,-66.5862 213.755,-60.1965"/>
</g>
</g>
</svg>
