<?xml version="1.0" encoding="UTF-8" standalone="no"?>
<!DOCTYPE svg PUBLIC "-//W3C//DTD SVG 1.1//EN"
 "http://www.w3.org/Graphics/SVG/1.1/DTD/svg11.dtd">
<!-- Generated by graphviz version 2.38.0 (20140413.2041)
 -->
<!-- Title: gmgf::basic_state Pages: 1 -->
<svg width="234pt" height="140pt"
 viewBox="0.00 0.00 234.00 140.00" xmlns="http://www.w3.org/2000/svg" xmlns:xlink="http://www.w3.org/1999/xlink">
<g id="graph0" class="graph" transform="scale(1 1) rotate(0) translate(4 136)">
<title>gmgf::basic_state</title>
<polygon fill="white" stroke="none" points="-4,4 -4,-136 230,-136 230,4 -4,4"/>
<!-- Node1 -->
<g id="node1" class="node"><title>Node1</title>
<polygon fill="#bfbfbf" stroke="black" points="66.5,-56.5 66.5,-75.5 161.5,-75.5 161.5,-56.5 66.5,-56.5"/>
<text text-anchor="middle" x="114" y="-63.5" font-family="Helvetica,sans-Serif" font-size="10.00">gmgf::basic_state</text>
</g>
<!-- Node3 -->
<g id="node3" class="node"><title>Node3</title>
<g id="a_node3"><a xlink:href="classgmgf_1_1minmax__state.html" target="_top" xlink:title="最大グラフで直径の下界を導出し，枝刈りを実現した状態． ">
<polygon fill="white" stroke="black" points="0,-0.5 0,-19.5 106,-19.5 106,-0.5 0,-0.5"/>
<text text-anchor="middle" x="53" y="-7.5" font-family="Helvetica,sans-Serif" font-size="10.00">gmgf::minmax_state</text>
</a>
</g>
</g>
<!-- Node1&#45;&gt;Node3 -->
<g id="edge2" class="edge"><title>Node1&#45;&gt;Node3</title>
<path fill="none" stroke="midnightblue" d="M96.5328,-49.5372C85.6562,-39.9087 72.0561,-27.8694 62.979,-19.8339"/>
<polygon fill="midnightblue" stroke="midnightblue" points="94.3917,-52.3162 104.199,-56.324 99.0316,-47.0749 94.3917,-52.3162"/>
</g>
<!-- Node4 -->
<g id="node4" class="node"><title>Node4</title>
<g id="a_node4"><a xlink:href="classgmgf_1_1mmmtr__state.html" target="_top" xlink:title="距離間距離が格納された行列を利用して， 頂点間距離の計算の高速化を図った状態． ">
<polygon fill="white" stroke="black" points="124,-0.5 124,-19.5 226,-19.5 226,-0.5 124,-0.5"/>
<text text-anchor="middle" x="175" y="-7.5" font-family="Helvetica,sans-Serif" font-size="10.00">gmgf::mmmtr_state</text>
</a>
</g>
</g>
<!-- Node1&#45;&gt;Node4 -->
<g id="edge3" class="edge"><title>Node1&#45;&gt;Node4</title>
<path fill="none" stroke="midnightblue" d="M131.467,-49.5372C142.344,-39.9087 155.944,-27.8694 165.021,-19.8339"/>
<polygon fill="midnightblue" stroke="midnightblue" points="128.968,-47.0749 123.801,-56.324 133.608,-52.3162 128.968,-47.0749"/>
</g>
<!-- Node2 -->
<g id="node2" class="node"><title>Node2</title>
<g id="a_node2"><a xlink:href="classgmgf_1_1state.html" target="_top" xlink:title="各種探索における状態． ">
<polygon fill="white" stroke="black" points="81,-112.5 81,-131.5 147,-131.5 147,-112.5 81,-112.5"/>
<text text-anchor="middle" x="114" y="-119.5" font-family="Helvetica,sans-Serif" font-size="10.00">gmgf::state</text>
</a>
</g>
</g>
<!-- Node2&#45;&gt;Node1 -->
<g id="edge1" class="edge"><title>Node2&#45;&gt;Node1</title>
<path fill="none" stroke="midnightblue" d="M114,-101.805C114,-92.9102 114,-82.7798 114,-75.7511"/>
<polygon fill="midnightblue" stroke="midnightblue" points="110.5,-102.083 114,-112.083 117.5,-102.083 110.5,-102.083"/>
</g>
</g>
</svg>
