<?xml version="1.0" encoding="UTF-8" standalone="no"?>
<!DOCTYPE svg PUBLIC "-//W3C//DTD SVG 1.1//EN"
 "http://www.w3.org/Graphics/SVG/1.1/DTD/svg11.dtd">
<!-- Generated by graphviz version 2.38.0 (20140413.2041)
 -->
<!-- Title: gmgf::basic_state Pages: 1 -->
<svg width="366pt" height="140pt"
 viewBox="0.00 0.00 365.50 140.00" xmlns="http://www.w3.org/2000/svg" xmlns:xlink="http://www.w3.org/1999/xlink">
<g id="graph0" class="graph" transform="scale(1 1) rotate(0) translate(4 136)">
<title>gmgf::basic_state</title>
<polygon fill="white" stroke="none" points="-4,4 -4,-136 361.5,-136 361.5,4 -4,4"/>
<!-- Node1 -->
<g id="node1" class="node"><title>Node1</title>
<polygon fill="#bfbfbf" stroke="black" points="137,-56.5 137,-75.5 232,-75.5 232,-56.5 137,-56.5"/>
<text text-anchor="middle" x="184.5" y="-63.5" font-family="Helvetica,sans-Serif" font-size="10.00">gmgf::basic_state</text>
</g>
<!-- Node3 -->
<g id="node3" class="node"><title>Node3</title>
<g id="a_node3"><a xlink:href="classgmgf_1_1matrix__opt__state.html" target="_top" xlink:title="距離間距離が格納された行列を利用して， 頂点間距離の計算の高速化を図った状態． ">
<polygon fill="white" stroke="black" points="0,-0.5 0,-19.5 117,-19.5 117,-0.5 0,-0.5"/>
<text text-anchor="middle" x="58.5" y="-7.5" font-family="Helvetica,sans-Serif" font-size="10.00">gmgf::matrix_opt_state</text>
</a>
</g>
</g>
<!-- Node1&#45;&gt;Node3 -->
<g id="edge2" class="edge"><title>Node1&#45;&gt;Node3</title>
<path fill="none" stroke="midnightblue" d="M155.34,-52.503C131.719,-42.3795 99.072,-28.388 78.3717,-19.5164"/>
<polygon fill="midnightblue" stroke="midnightblue" points="153.965,-55.7213 164.535,-56.4435 156.722,-49.2873 153.965,-55.7213"/>
</g>
<!-- Node4 -->
<g id="node4" class="node"><title>Node4</title>
<g id="a_node4"><a xlink:href="classgmgf_1_1matrix__state.html" target="_top" xlink:title="距離間距離が格納された行列を利用して， 頂点間距離の計算の高速化を図った状態． ">
<polygon fill="white" stroke="black" points="135.5,-0.5 135.5,-19.5 233.5,-19.5 233.5,-0.5 135.5,-0.5"/>
<text text-anchor="middle" x="184.5" y="-7.5" font-family="Helvetica,sans-Serif" font-size="10.00">gmgf::matrix_state</text>
</a>
</g>
</g>
<!-- Node1&#45;&gt;Node4 -->
<g id="edge3" class="edge"><title>Node1&#45;&gt;Node4</title>
<path fill="none" stroke="midnightblue" d="M184.5,-45.8045C184.5,-36.9102 184.5,-26.7798 184.5,-19.7511"/>
<polygon fill="midnightblue" stroke="midnightblue" points="181,-46.083 184.5,-56.083 188,-46.083 181,-46.083"/>
</g>
<!-- Node5 -->
<g id="node5" class="node"><title>Node5</title>
<g id="a_node5"><a xlink:href="classgmgf_1_1minmax__state.html" target="_top" xlink:title="最大グラフで直径の下界を導出し，枝刈りを実現した状態． ">
<polygon fill="white" stroke="black" points="251.5,-0.5 251.5,-19.5 357.5,-19.5 357.5,-0.5 251.5,-0.5"/>
<text text-anchor="middle" x="304.5" y="-7.5" font-family="Helvetica,sans-Serif" font-size="10.00">gmgf::minmax_state</text>
</a>
</g>
</g>
<!-- Node1&#45;&gt;Node5 -->
<g id="edge4" class="edge"><title>Node1&#45;&gt;Node5</title>
<path fill="none" stroke="midnightblue" d="M212.873,-52.2321C235.32,-42.1312 266.035,-28.3091 285.575,-19.5164"/>
<polygon fill="midnightblue" stroke="midnightblue" points="211.197,-49.1481 203.514,-56.4435 214.07,-55.5316 211.197,-49.1481"/>
</g>
<!-- Node2 -->
<g id="node2" class="node"><title>Node2</title>
<g id="a_node2"><a xlink:href="classgmgf_1_1state.html" target="_top" xlink:title="各種探索における状態． ">
<polygon fill="white" stroke="black" points="151.5,-112.5 151.5,-131.5 217.5,-131.5 217.5,-112.5 151.5,-112.5"/>
<text text-anchor="middle" x="184.5" y="-119.5" font-family="Helvetica,sans-Serif" font-size="10.00">gmgf::state</text>
</a>
</g>
</g>
<!-- Node2&#45;&gt;Node1 -->
<g id="edge1" class="edge"><title>Node2&#45;&gt;Node1</title>
<path fill="none" stroke="midnightblue" d="M184.5,-101.805C184.5,-92.9102 184.5,-82.7798 184.5,-75.7511"/>
<polygon fill="midnightblue" stroke="midnightblue" points="181,-102.083 184.5,-112.083 188,-102.083 181,-102.083"/>
</g>
</g>
</svg>
