<?xml version="1.0" encoding="UTF-8" standalone="no"?>
<!DOCTYPE svg PUBLIC "-//W3C//DTD SVG 1.1//EN"
 "http://www.w3.org/Graphics/SVG/1.1/DTD/svg11.dtd">
<!-- Generated by graphviz version 2.38.0 (20140413.2041)
 -->
<!-- Title: gmgf::stree_graph_initr Pages: 1 -->
<svg width="124pt" height="152pt"
 viewBox="0.00 0.00 124.00 152.00" xmlns="http://www.w3.org/2000/svg" xmlns:xlink="http://www.w3.org/1999/xlink">
<g id="graph0" class="graph" transform="scale(1 1) rotate(0) translate(4 148)">
<title>gmgf::stree_graph_initr</title>
<polygon fill="white" stroke="none" points="-4,4 -4,-148 120,-148 120,4 -4,4"/>
<!-- Node1 -->
<g id="node1" class="node"><title>Node1</title>
<polygon fill="#bfbfbf" stroke="black" points="-7.10543e-15,-0.5 -7.10543e-15,-19.5 116,-19.5 116,-0.5 -7.10543e-15,-0.5"/>
<text text-anchor="middle" x="58" y="-7.5" font-family="Helvetica,sans-Serif" font-size="10.00">gmgf::stree_graph_initr</text>
</g>
<!-- Node2 -->
<g id="node2" class="node"><title>Node2</title>
<g id="a_node2"><a xlink:href="classgmgf_1_1graph__initr.html" target="_top" xlink:title="探索の初期グラフを生成するグラフ初期化子． ">
<polygon fill="white" stroke="black" points="13.5,-57.5 13.5,-76.5 102.5,-76.5 102.5,-57.5 13.5,-57.5"/>
<text text-anchor="middle" x="58" y="-64.5" font-family="Helvetica,sans-Serif" font-size="10.00">gmgf::graph_initr</text>
</a>
</g>
</g>
<!-- Node2&#45;&gt;Node1 -->
<g id="edge1" class="edge"><title>Node2&#45;&gt;Node1</title>
<path fill="none" stroke="midnightblue" d="M58,-47.1166C58,-37.8173 58,-27.0557 58,-19.7149"/>
<polygon fill="midnightblue" stroke="midnightblue" points="54.5001,-47.4062 58,-57.4062 61.5001,-47.4063 54.5001,-47.4062"/>
</g>
<!-- Node3 -->
<g id="node3" class="node"><title>Node3</title>
<g id="a_node3"><a xlink:href="classgmgf_1_1graph__config.html" target="_top" xlink:title="一般化ムーアグラフに関する基礎的な量を計算する． ">
<polygon fill="white" stroke="black" points="8,-124.5 8,-143.5 108,-143.5 108,-124.5 8,-124.5"/>
<text text-anchor="middle" x="58" y="-131.5" font-family="Helvetica,sans-Serif" font-size="10.00">gmgf::graph_config</text>
</a>
</g>
</g>
<!-- Node3&#45;&gt;Node2 -->
<g id="edge2" class="edge"><title>Node3&#45;&gt;Node2</title>
<path fill="none" stroke="#9a32cd" stroke-dasharray="5,2" d="M58,-114.037C58,-101.67 58,-86.1198 58,-76.6273"/>
<polygon fill="#9a32cd" stroke="#9a32cd" points="54.5001,-114.234 58,-124.234 61.5001,-114.234 54.5001,-114.234"/>
<text text-anchor="middle" x="79.5" y="-98" font-family="Helvetica,sans-Serif" font-size="10.00"> m_config</text>
</g>
</g>
</svg>
