<?xml version="1.0" encoding="UTF-8" standalone="no"?>
<!DOCTYPE svg PUBLIC "-//W3C//DTD SVG 1.1//EN"
 "http://www.w3.org/Graphics/SVG/1.1/DTD/svg11.dtd">
<!-- Generated by graphviz version 2.38.0 (20140413.2041)
 -->
<!-- Title: gmgf::sorted_graph_initr Pages: 1 -->
<svg width="109pt" height="163pt"
 viewBox="0.00 0.00 109.00 163.00" xmlns="http://www.w3.org/2000/svg" xmlns:xlink="http://www.w3.org/1999/xlink">
<g id="graph0" class="graph" transform="scale(1 1) rotate(0) translate(4 159)">
<title>gmgf::sorted_graph_initr</title>
<polygon fill="white" stroke="none" points="-4,4 -4,-159 105,-159 105,4 -4,4"/>
<!-- Node1 -->
<g id="node1" class="node"><title>Node1</title>
<polygon fill="#bfbfbf" stroke="black" points="0,-0.5 0,-30.5 101,-30.5 101,-0.5 0,-0.5"/>
<text text-anchor="start" x="8" y="-18.5" font-family="Helvetica,sans-Serif" font-size="10.00">gmgf::sorted_graph</text>
<text text-anchor="middle" x="50.5" y="-7.5" font-family="Helvetica,sans-Serif" font-size="10.00">_initr</text>
</g>
<!-- Node2 -->
<g id="node2" class="node"><title>Node2</title>
<g id="a_node2"><a xlink:href="classgmgf_1_1graph__initr.html" target="_top" xlink:title="探索の初期グラフを生成するグラフ初期化子． ">
<polygon fill="white" stroke="black" points="6,-68.5 6,-87.5 95,-87.5 95,-68.5 6,-68.5"/>
<text text-anchor="middle" x="50.5" y="-75.5" font-family="Helvetica,sans-Serif" font-size="10.00">gmgf::graph_initr</text>
</a>
</g>
</g>
<!-- Node2&#45;&gt;Node1 -->
<g id="edge1" class="edge"><title>Node2&#45;&gt;Node1</title>
<path fill="none" stroke="midnightblue" d="M50.5,-58.2154C50.5,-49.3565 50.5,-38.9577 50.5,-30.7587"/>
<polygon fill="midnightblue" stroke="midnightblue" points="47.0001,-58.3318 50.5,-68.3318 54.0001,-58.3319 47.0001,-58.3318"/>
</g>
<!-- Node3 -->
<g id="node3" class="node"><title>Node3</title>
<g id="a_node3"><a xlink:href="classgmgf_1_1graph__config.html" target="_top" xlink:title="一般化ムーアグラフに関する基礎的な量を計算する． ">
<polygon fill="white" stroke="black" points="0.5,-135.5 0.5,-154.5 100.5,-154.5 100.5,-135.5 0.5,-135.5"/>
<text text-anchor="middle" x="50.5" y="-142.5" font-family="Helvetica,sans-Serif" font-size="10.00">gmgf::graph_config</text>
</a>
</g>
</g>
<!-- Node3&#45;&gt;Node2 -->
<g id="edge2" class="edge"><title>Node3&#45;&gt;Node2</title>
<path fill="none" stroke="#9a32cd" stroke-dasharray="5,2" d="M50.5,-125.037C50.5,-112.67 50.5,-97.1198 50.5,-87.6273"/>
<polygon fill="#9a32cd" stroke="#9a32cd" points="47.0001,-125.234 50.5,-135.234 54.0001,-125.234 47.0001,-125.234"/>
<text text-anchor="middle" x="72" y="-109" font-family="Helvetica,sans-Serif" font-size="10.00"> m_config</text>
</g>
</g>
</svg>
