<?xml version="1.0" encoding="UTF-8" standalone="no"?>
<!DOCTYPE svg PUBLIC "-//W3C//DTD SVG 1.1//EN"
 "http://www.w3.org/Graphics/SVG/1.1/DTD/svg11.dtd">
<!-- Generated by graphviz version 2.38.0 (20140413.2041)
 -->
<!-- Title: gmgf/cycle_graph_initr.hpp Pages: 1 -->
<svg width="255pt" height="196pt"
 viewBox="0.00 0.00 255.00 196.00" xmlns="http://www.w3.org/2000/svg" xmlns:xlink="http://www.w3.org/1999/xlink">
<g id="graph0" class="graph" transform="scale(1 1) rotate(0) translate(4 192)">
<title>gmgf/cycle_graph_initr.hpp</title>
<polygon fill="white" stroke="none" points="-4,4 -4,-192 251,-192 251,4 -4,4"/>
<!-- Node1 -->
<g id="node1" class="node"><title>Node1</title>
<polygon fill="#bfbfbf" stroke="black" points="0,-168.5 0,-187.5 134,-187.5 134,-168.5 0,-168.5"/>
<text text-anchor="middle" x="67" y="-175.5" font-family="Helvetica,sans-Serif" font-size="10.00">gmgf/cycle_graph_initr.hpp</text>
</g>
<!-- Node2 -->
<g id="node2" class="node"><title>Node2</title>
<polygon fill="white" stroke="#bfbfbf" points="42,-0.5 42,-19.5 86,-19.5 86,-0.5 42,-0.5"/>
<text text-anchor="middle" x="64" y="-7.5" font-family="Helvetica,sans-Serif" font-size="10.00">vector</text>
</g>
<!-- Node1&#45;&gt;Node2 -->
<g id="edge1" class="edge"><title>Node1&#45;&gt;Node2</title>
<path fill="none" stroke="midnightblue" d="M61.3622,-168.481C55.946,-159.745 48.1363,-145.556 45,-132 36.6454,-95.8891 48.476,-52.8575 56.8777,-29.0703"/>
<polygon fill="midnightblue" stroke="midnightblue" points="60.1985,-30.1819 60.4118,-19.5892 53.6394,-27.7369 60.1985,-30.1819"/>
</g>
<!-- Node3 -->
<g id="node3" class="node"><title>Node3</title>
<g id="a_node3"><a xlink:href="basic__graph__initr_8hpp.html" target="_top" xlink:title="basic_graph_initr.hpp">
<polygon fill="white" stroke="black" points="54.5,-112.5 54.5,-131.5 163.5,-131.5 163.5,-112.5 54.5,-112.5"/>
<text text-anchor="middle" x="109" y="-119.5" font-family="Helvetica,sans-Serif" font-size="10.00">basic_graph_initr.hpp</text>
</a>
</g>
</g>
<!-- Node1&#45;&gt;Node3 -->
<g id="edge2" class="edge"><title>Node1&#45;&gt;Node3</title>
<path fill="none" stroke="midnightblue" d="M73.9354,-168.083C79.9292,-160.377 88.7518,-149.033 96.0476,-139.653"/>
<polygon fill="midnightblue" stroke="midnightblue" points="98.8169,-141.793 102.194,-131.751 93.2914,-137.496 98.8169,-141.793"/>
</g>
<!-- Node3&#45;&gt;Node2 -->
<g id="edge5" class="edge"><title>Node3&#45;&gt;Node2</title>
<path fill="none" stroke="midnightblue" d="M105.469,-112.368C98.1412,-94.4563 81.1504,-52.9233 71.3424,-28.9482"/>
<polygon fill="midnightblue" stroke="midnightblue" points="74.5405,-27.5217 67.5147,-19.5914 68.0616,-30.1721 74.5405,-27.5217"/>
</g>
<!-- Node4 -->
<g id="node4" class="node"><title>Node4</title>
<polygon fill="white" stroke="#bfbfbf" points="115.5,-0.5 115.5,-19.5 166.5,-19.5 166.5,-0.5 115.5,-0.5"/>
<text text-anchor="middle" x="141" y="-7.5" font-family="Helvetica,sans-Serif" font-size="10.00">igraph.h</text>
</g>
<!-- Node3&#45;&gt;Node4 -->
<g id="edge3" class="edge"><title>Node3&#45;&gt;Node4</title>
<path fill="none" stroke="midnightblue" d="M109.929,-112.432C111.438,-99.8502 114.888,-75.7308 121,-56 123.846,-46.8127 128.053,-37.0098 131.875,-28.9066"/>
<polygon fill="midnightblue" stroke="midnightblue" points="135.117,-30.2452 136.379,-19.7259 128.833,-27.1619 135.117,-30.2452"/>
</g>
<!-- Node5 -->
<g id="node5" class="node"><title>Node5</title>
<polygon fill="white" stroke="#bfbfbf" points="207,-0.5 207,-19.5 247,-19.5 247,-0.5 207,-0.5"/>
<text text-anchor="middle" x="227" y="-7.5" font-family="Helvetica,sans-Serif" font-size="10.00">utility</text>
</g>
<!-- Node3&#45;&gt;Node5 -->
<g id="edge4" class="edge"><title>Node3&#45;&gt;Node5</title>
<path fill="none" stroke="midnightblue" d="M158.391,-112.491C180.314,-106.136 204.405,-95.1003 219,-76 229.023,-62.8833 230.25,-43.7375 229.435,-29.6203"/>
<polygon fill="midnightblue" stroke="midnightblue" points="232.911,-29.2077 228.472,-19.5879 225.943,-29.8766 232.911,-29.2077"/>
</g>
<!-- Node6 -->
<g id="node6" class="node"><title>Node6</title>
<g id="a_node6"><a xlink:href="graph__initr_8hpp.html" target="_top" xlink:title="graph_initr.hpp">
<polygon fill="white" stroke="red" points="130,-56.5 130,-75.5 210,-75.5 210,-56.5 130,-56.5"/>
<text text-anchor="middle" x="170" y="-63.5" font-family="Helvetica,sans-Serif" font-size="10.00">graph_initr.hpp</text>
</a>
</g>
</g>
<!-- Node3&#45;&gt;Node6 -->
<g id="edge6" class="edge"><title>Node3&#45;&gt;Node6</title>
<path fill="none" stroke="midnightblue" d="M118.801,-112.324C127.818,-104.341 141.406,-92.3128 152.318,-82.6529"/>
<polygon fill="midnightblue" stroke="midnightblue" points="154.853,-85.083 160.021,-75.8339 150.213,-79.8416 154.853,-85.083"/>
</g>
<!-- Node6&#45;&gt;Node2 -->
<g id="edge9" class="edge"><title>Node6&#45;&gt;Node2</title>
<path fill="none" stroke="midnightblue" d="M152.969,-56.324C135.97,-47.6641 109.624,-34.2424 90.0074,-24.249"/>
<polygon fill="midnightblue" stroke="midnightblue" points="91.4876,-21.0752 80.9885,-19.6545 88.3101,-27.3125 91.4876,-21.0752"/>
</g>
<!-- Node6&#45;&gt;Node4 -->
<g id="edge7" class="edge"><title>Node6&#45;&gt;Node4</title>
<path fill="none" stroke="midnightblue" d="M165.211,-56.083C161.242,-48.6913 155.475,-37.9533 150.565,-28.8111"/>
<polygon fill="midnightblue" stroke="midnightblue" points="153.514,-26.9051 145.7,-19.7511 147.347,-30.217 153.514,-26.9051"/>
</g>
<!-- Node6&#45;&gt;Node5 -->
<g id="edge8" class="edge"><title>Node6&#45;&gt;Node5</title>
<path fill="none" stroke="midnightblue" d="M179.158,-56.324C187.501,-48.4196 200.032,-36.5482 210.177,-26.9377"/>
<polygon fill="midnightblue" stroke="midnightblue" points="212.823,-29.2522 217.675,-19.8339 208.009,-24.1705 212.823,-29.2522"/>
</g>
</g>
</svg>
