<?xml version="1.0" encoding="UTF-8" standalone="no"?>
<!DOCTYPE svg PUBLIC "-//W3C//DTD SVG 1.1//EN"
 "http://www.w3.org/Graphics/SVG/1.1/DTD/svg11.dtd">
<!-- Generated by graphviz version 2.38.0 (20140413.2041)
 -->
<!-- Title: gmgf/cycle_graph_initr.cpp Pages: 1 -->
<svg width="192pt" height="196pt"
 viewBox="0.00 0.00 191.50 196.00" xmlns="http://www.w3.org/2000/svg" xmlns:xlink="http://www.w3.org/1999/xlink">
<g id="graph0" class="graph" transform="scale(1 1) rotate(0) translate(4 192)">
<title>gmgf/cycle_graph_initr.cpp</title>
<polygon fill="white" stroke="none" points="-4,4 -4,-192 187.5,-192 187.5,4 -4,4"/>
<!-- Node1 -->
<g id="node1" class="node"><title>Node1</title>
<polygon fill="#bfbfbf" stroke="black" points="37.5,-168.5 37.5,-187.5 171.5,-187.5 171.5,-168.5 37.5,-168.5"/>
<text text-anchor="middle" x="104.5" y="-175.5" font-family="Helvetica,sans-Serif" font-size="10.00">gmgf/cycle_graph_initr.cpp</text>
</g>
<!-- Node2 -->
<g id="node2" class="node"><title>Node2</title>
<g id="a_node2"><a xlink:href="cycle__graph__initr_8hpp.html" target="_top" xlink:title="cycle_graph_initr.hpp">
<polygon fill="white" stroke="black" points="0,-112.5 0,-131.5 109,-131.5 109,-112.5 0,-112.5"/>
<text text-anchor="middle" x="54.5" y="-119.5" font-family="Helvetica,sans-Serif" font-size="10.00">cycle_graph_initr.hpp</text>
</a>
</g>
</g>
<!-- Node1&#45;&gt;Node2 -->
<g id="edge1" class="edge"><title>Node1&#45;&gt;Node2</title>
<path fill="none" stroke="midnightblue" d="M96.2435,-168.083C89.0353,-160.298 78.3902,-148.801 69.6542,-139.367"/>
<polygon fill="midnightblue" stroke="midnightblue" points="71.9651,-136.711 62.6028,-131.751 66.8288,-141.467 71.9651,-136.711"/>
</g>
<!-- Node5 -->
<g id="node5" class="node"><title>Node5</title>
<polygon fill="white" stroke="#bfbfbf" points="127.5,-112.5 127.5,-131.5 183.5,-131.5 183.5,-112.5 127.5,-112.5"/>
<text text-anchor="middle" x="155.5" y="-119.5" font-family="Helvetica,sans-Serif" font-size="10.00">algorithm</text>
</g>
<!-- Node1&#45;&gt;Node5 -->
<g id="edge5" class="edge"><title>Node1&#45;&gt;Node5</title>
<path fill="none" stroke="midnightblue" d="M112.922,-168.083C120.348,-160.22 131.352,-148.569 140.312,-139.081"/>
<polygon fill="midnightblue" stroke="midnightblue" points="142.913,-141.424 147.235,-131.751 137.824,-136.618 142.913,-141.424"/>
</g>
<!-- Node3 -->
<g id="node3" class="node"><title>Node3</title>
<polygon fill="white" stroke="#bfbfbf" points="32.5,-0.5 32.5,-19.5 76.5,-19.5 76.5,-0.5 32.5,-0.5"/>
<text text-anchor="middle" x="54.5" y="-7.5" font-family="Helvetica,sans-Serif" font-size="10.00">vector</text>
</g>
<!-- Node2&#45;&gt;Node3 -->
<g id="edge2" class="edge"><title>Node2&#45;&gt;Node3</title>
<path fill="none" stroke="midnightblue" d="M48.2862,-112.328C40.2233,-100.015 27.72,-76.6604 32.5,-56 34.7297,-46.3627 39.3215,-36.4052 43.736,-28.3149"/>
<polygon fill="midnightblue" stroke="midnightblue" points="46.8506,-29.9216 48.8622,-19.5194 40.8028,-26.3968 46.8506,-29.9216"/>
</g>
<!-- Node4 -->
<g id="node4" class="node"><title>Node4</title>
<g id="a_node4"><a xlink:href="basic__graph__initr_8hpp.html" target="_top" xlink:title="basic_graph_initr.hpp">
<polygon fill="white" stroke="red" points="42,-56.5 42,-75.5 151,-75.5 151,-56.5 42,-56.5"/>
<text text-anchor="middle" x="96.5" y="-63.5" font-family="Helvetica,sans-Serif" font-size="10.00">basic_graph_initr.hpp</text>
</a>
</g>
</g>
<!-- Node2&#45;&gt;Node4 -->
<g id="edge3" class="edge"><title>Node2&#45;&gt;Node4</title>
<path fill="none" stroke="midnightblue" d="M61.4354,-112.083C67.4292,-104.377 76.2518,-93.0333 83.5476,-83.6531"/>
<polygon fill="midnightblue" stroke="midnightblue" points="86.3169,-85.7934 89.6936,-75.7511 80.7914,-81.4958 86.3169,-85.7934"/>
</g>
<!-- Node4&#45;&gt;Node3 -->
<g id="edge4" class="edge"><title>Node4&#45;&gt;Node3</title>
<path fill="none" stroke="midnightblue" d="M89.5646,-56.083C83.5708,-48.3768 74.7482,-37.0333 67.4524,-27.6531"/>
<polygon fill="midnightblue" stroke="midnightblue" points="70.2086,-25.4958 61.3064,-19.7511 64.6831,-29.7934 70.2086,-25.4958"/>
</g>
</g>
</svg>
