<?xml version="1.0" encoding="UTF-8" standalone="no"?>
<!DOCTYPE svg PUBLIC "-//W3C//DTD SVG 1.1//EN"
 "http://www.w3.org/Graphics/SVG/1.1/DTD/svg11.dtd">
<!-- Generated by graphviz version 2.38.0 (20140413.2041)
 -->
<!-- Title: gmgf/dfs_finder.hpp Pages: 1 -->
<svg width="253pt" height="252pt"
 viewBox="0.00 0.00 252.50 252.00" xmlns="http://www.w3.org/2000/svg" xmlns:xlink="http://www.w3.org/1999/xlink">
<g id="graph0" class="graph" transform="scale(1 1) rotate(0) translate(4 248)">
<title>gmgf/dfs_finder.hpp</title>
<polygon fill="white" stroke="none" points="-4,4 -4,-248 248.5,-248 248.5,4 -4,4"/>
<!-- Node1 -->
<g id="node1" class="node"><title>Node1</title>
<polygon fill="#bfbfbf" stroke="black" points="0.5,-224.5 0.5,-243.5 103.5,-243.5 103.5,-224.5 0.5,-224.5"/>
<text text-anchor="middle" x="52" y="-231.5" font-family="Helvetica,sans-Serif" font-size="10.00">gmgf/dfs_finder.hpp</text>
</g>
<!-- Node2 -->
<g id="node2" class="node"><title>Node2</title>
<polygon fill="white" stroke="#bfbfbf" points="193.5,-0.5 193.5,-19.5 244.5,-19.5 244.5,-0.5 193.5,-0.5"/>
<text text-anchor="middle" x="219" y="-7.5" font-family="Helvetica,sans-Serif" font-size="10.00">igraph.h</text>
</g>
<!-- Node1&#45;&gt;Node2 -->
<g id="edge1" class="edge"><title>Node1&#45;&gt;Node2</title>
<path fill="none" stroke="midnightblue" d="M95.0622,-224.443C118.705,-217.871 147.162,-206.65 167,-188 206.985,-150.408 207.166,-129.59 219,-76 222.388,-60.6591 222.091,-42.7804 221.115,-29.661"/>
<polygon fill="midnightblue" stroke="midnightblue" points="224.584,-29.1666 220.158,-19.5405 217.615,-29.8255 224.584,-29.1666"/>
</g>
<!-- Node3 -->
<g id="node3" class="node"><title>Node3</title>
<polygon fill="white" stroke="#bfbfbf" points="62,-0.5 62,-19.5 102,-19.5 102,-0.5 62,-0.5"/>
<text text-anchor="middle" x="82" y="-7.5" font-family="Helvetica,sans-Serif" font-size="10.00">utility</text>
</g>
<!-- Node1&#45;&gt;Node3 -->
<g id="edge2" class="edge"><title>Node1&#45;&gt;Node3</title>
<path fill="none" stroke="midnightblue" d="M46.2738,-224.477C33.7084,-204.692 5.77803,-154.122 18,-112 27.6315,-78.8059 51.807,-46.0662 67.5338,-27.2313"/>
<polygon fill="midnightblue" stroke="midnightblue" points="70.2236,-29.4713 74.0825,-19.6041 64.9127,-24.9112 70.2236,-29.4713"/>
</g>
<!-- Node4 -->
<g id="node4" class="node"><title>Node4</title>
<polygon fill="white" stroke="#bfbfbf" points="0,-0.5 0,-19.5 44,-19.5 44,-0.5 0,-0.5"/>
<text text-anchor="middle" x="22" y="-7.5" font-family="Helvetica,sans-Serif" font-size="10.00">vector</text>
</g>
<!-- Node1&#45;&gt;Node4 -->
<g id="edge3" class="edge"><title>Node1&#45;&gt;Node4</title>
<path fill="none" stroke="midnightblue" d="M42.7396,-224.342C34.4155,-215.934 22.6559,-202.367 17,-188 -4.35556,-133.754 8.67239,-62.7465 16.8614,-29.5789"/>
<polygon fill="midnightblue" stroke="midnightblue" points="20.3494,-30.0747 19.4919,-19.5146 13.5769,-28.3045 20.3494,-30.0747"/>
</g>
<!-- Node5 -->
<g id="node5" class="node"><title>Node5</title>
<g id="a_node5"><a xlink:href="graph__initr_8hpp.html" target="_top" xlink:title="graph_initr.hpp">
<polygon fill="white" stroke="black" points="27,-112.5 27,-131.5 107,-131.5 107,-112.5 27,-112.5"/>
<text text-anchor="middle" x="67" y="-119.5" font-family="Helvetica,sans-Serif" font-size="10.00">graph_initr.hpp</text>
</a>
</g>
</g>
<!-- Node1&#45;&gt;Node5 -->
<g id="edge4" class="edge"><title>Node1&#45;&gt;Node5</title>
<path fill="none" stroke="midnightblue" d="M53.177,-224.368C55.5977,-206.617 61.1819,-165.666 64.464,-141.597"/>
<polygon fill="midnightblue" stroke="midnightblue" points="67.9451,-141.973 65.8284,-131.591 61.0093,-141.027 67.9451,-141.973"/>
</g>
<!-- Node7 -->
<g id="node7" class="node"><title>Node7</title>
<g id="a_node7"><a xlink:href="state__initr_8hpp.html" target="_top" xlink:title="state_initr.hpp">
<polygon fill="white" stroke="black" points="80,-168.5 80,-187.5 158,-187.5 158,-168.5 80,-168.5"/>
<text text-anchor="middle" x="119" y="-175.5" font-family="Helvetica,sans-Serif" font-size="10.00">state_initr.hpp</text>
</a>
</g>
</g>
<!-- Node1&#45;&gt;Node7 -->
<g id="edge12" class="edge"><title>Node1&#45;&gt;Node7</title>
<path fill="none" stroke="midnightblue" d="M62.7647,-224.324C72.7661,-216.263 87.8865,-204.077 99.9305,-194.369"/>
<polygon fill="midnightblue" stroke="midnightblue" points="102.45,-196.834 108.039,-187.834 98.0571,-191.384 102.45,-196.834"/>
</g>
<!-- Node5&#45;&gt;Node2 -->
<g id="edge5" class="edge"><title>Node5&#45;&gt;Node2</title>
<path fill="none" stroke="midnightblue" d="M103.719,-112.464C137.922,-103.827 185.595,-89.8136 199,-76 210.938,-63.698 215.768,-44.4428 217.712,-30.0783"/>
<polygon fill="midnightblue" stroke="midnightblue" points="221.224,-30.1309 218.734,-19.8329 214.259,-29.4362 221.224,-30.1309"/>
</g>
<!-- Node5&#45;&gt;Node3 -->
<g id="edge6" class="edge"><title>Node5&#45;&gt;Node3</title>
<path fill="none" stroke="midnightblue" d="M68.177,-112.368C70.5977,-94.617 76.1819,-53.6664 79.464,-29.5974"/>
<polygon fill="midnightblue" stroke="midnightblue" points="82.9451,-29.9726 80.8284,-19.5914 76.0093,-29.0268 82.9451,-29.9726"/>
</g>
<!-- Node5&#45;&gt;Node4 -->
<g id="edge7" class="edge"><title>Node5&#45;&gt;Node4</title>
<path fill="none" stroke="midnightblue" d="M63.4689,-112.368C56.1412,-94.4563 39.1504,-52.9233 29.3424,-28.9482"/>
<polygon fill="midnightblue" stroke="midnightblue" points="32.5405,-27.5217 25.5147,-19.5914 26.0616,-30.1721 32.5405,-27.5217"/>
</g>
<!-- Node6 -->
<g id="node6" class="node"><title>Node6</title>
<g id="a_node6"><a xlink:href="graph__config_8hpp.html" target="_top" xlink:title="graph_config.hpp">
<polygon fill="white" stroke="black" points="99.5,-56.5 99.5,-75.5 190.5,-75.5 190.5,-56.5 99.5,-56.5"/>
<text text-anchor="middle" x="145" y="-63.5" font-family="Helvetica,sans-Serif" font-size="10.00">graph_config.hpp</text>
</a>
</g>
</g>
<!-- Node5&#45;&gt;Node6 -->
<g id="edge8" class="edge"><title>Node5&#45;&gt;Node6</title>
<path fill="none" stroke="midnightblue" d="M79.532,-112.324C91.5859,-103.979 110.027,-91.2122 124.269,-81.3524"/>
<polygon fill="midnightblue" stroke="midnightblue" points="126.269,-84.2243 132.499,-75.6545 122.285,-78.469 126.269,-84.2243"/>
</g>
<!-- Node6&#45;&gt;Node2 -->
<g id="edge9" class="edge"><title>Node6&#45;&gt;Node2</title>
<path fill="none" stroke="midnightblue" d="M156.889,-56.324C168.15,-48.1066 185.287,-35.6017 198.709,-25.8069"/>
<polygon fill="midnightblue" stroke="midnightblue" points="200.88,-28.5559 206.894,-19.8339 196.753,-22.9014 200.88,-28.5559"/>
</g>
<!-- Node6&#45;&gt;Node3 -->
<g id="edge10" class="edge"><title>Node6&#45;&gt;Node3</title>
<path fill="none" stroke="midnightblue" d="M134.878,-56.324C125.474,-48.2631 111.256,-36.0765 99.931,-26.3695"/>
<polygon fill="midnightblue" stroke="midnightblue" points="102.177,-23.6844 92.3062,-19.8339 97.621,-28.9993 102.177,-23.6844"/>
</g>
<!-- Node6&#45;&gt;Node4 -->
<g id="edge11" class="edge"><title>Node6&#45;&gt;Node4</title>
<path fill="none" stroke="midnightblue" d="M125.51,-56.4435C105.358,-47.5961 73.6771,-33.6875 50.6692,-23.5865"/>
<polygon fill="midnightblue" stroke="midnightblue" points="51.962,-20.3316 41.3985,-19.5164 49.148,-26.7411 51.962,-20.3316"/>
</g>
<!-- Node7&#45;&gt;Node5 -->
<g id="edge15" class="edge"><title>Node7&#45;&gt;Node5</title>
<path fill="none" stroke="midnightblue" d="M110.413,-168.083C102.841,-160.22 91.6218,-148.569 82.4856,-139.081"/>
<polygon fill="midnightblue" stroke="midnightblue" points="84.8845,-136.527 75.427,-131.751 79.8423,-141.382 84.8845,-136.527"/>
</g>
<!-- Node8 -->
<g id="node8" class="node"><title>Node8</title>
<g id="a_node8"><a xlink:href="state_8hpp.html" target="_top" xlink:title="state.hpp">
<polygon fill="white" stroke="black" points="125.5,-112.5 125.5,-131.5 182.5,-131.5 182.5,-112.5 125.5,-112.5"/>
<text text-anchor="middle" x="154" y="-119.5" font-family="Helvetica,sans-Serif" font-size="10.00">state.hpp</text>
</a>
</g>
</g>
<!-- Node7&#45;&gt;Node8 -->
<g id="edge13" class="edge"><title>Node7&#45;&gt;Node8</title>
<path fill="none" stroke="midnightblue" d="M124.78,-168.083C129.672,-160.534 136.827,-149.495 142.833,-140.23"/>
<polygon fill="midnightblue" stroke="midnightblue" points="145.826,-142.046 148.328,-131.751 139.952,-138.239 145.826,-142.046"/>
</g>
<!-- Node8&#45;&gt;Node6 -->
<g id="edge14" class="edge"><title>Node8&#45;&gt;Node6</title>
<path fill="none" stroke="midnightblue" d="M152.514,-112.083C151.321,-104.927 149.606,-94.6353 148.115,-85.6911"/>
<polygon fill="midnightblue" stroke="midnightblue" points="151.555,-85.0396 146.459,-75.7511 144.65,-86.1904 151.555,-85.0396"/>
</g>
</g>
</svg>
