<?xml version="1.0" encoding="UTF-8" standalone="no"?>
<!DOCTYPE svg PUBLIC "-//W3C//DTD SVG 1.1//EN"
 "http://www.w3.org/Graphics/SVG/1.1/DTD/svg11.dtd">
<!-- Generated by graphviz version 2.38.0 (20140413.2041)
 -->
<!-- Title: gmgf/dfs_finder.cpp Pages: 1 -->
<svg width="223pt" height="252pt"
 viewBox="0.00 0.00 222.50 252.00" xmlns="http://www.w3.org/2000/svg" xmlns:xlink="http://www.w3.org/1999/xlink">
<g id="graph0" class="graph" transform="scale(1 1) rotate(0) translate(4 248)">
<title>gmgf/dfs_finder.cpp</title>
<polygon fill="white" stroke="none" points="-4,4 -4,-248 218.5,-248 218.5,4 -4,4"/>
<!-- Node1 -->
<g id="node1" class="node"><title>Node1</title>
<polygon fill="#bfbfbf" stroke="black" points="77,-224.5 77,-243.5 180,-243.5 180,-224.5 77,-224.5"/>
<text text-anchor="middle" x="128.5" y="-231.5" font-family="Helvetica,sans-Serif" font-size="10.00">gmgf/dfs_finder.cpp</text>
</g>
<!-- Node2 -->
<g id="node2" class="node"><title>Node2</title>
<g id="a_node2"><a xlink:href="dfs__finder_8hpp.html" target="_top" xlink:title="dfs_finder.hpp">
<polygon fill="white" stroke="black" points="89.5,-168.5 89.5,-187.5 167.5,-187.5 167.5,-168.5 89.5,-168.5"/>
<text text-anchor="middle" x="128.5" y="-175.5" font-family="Helvetica,sans-Serif" font-size="10.00">dfs_finder.hpp</text>
</a>
</g>
</g>
<!-- Node1&#45;&gt;Node2 -->
<g id="edge1" class="edge"><title>Node1&#45;&gt;Node2</title>
<path fill="none" stroke="midnightblue" d="M128.5,-224.083C128.5,-217.006 128.5,-206.861 128.5,-197.986"/>
<polygon fill="midnightblue" stroke="midnightblue" points="132,-197.751 128.5,-187.751 125,-197.751 132,-197.751"/>
</g>
<!-- Node3 -->
<g id="node3" class="node"><title>Node3</title>
<polygon fill="white" stroke="#bfbfbf" points="0,-0.5 0,-19.5 51,-19.5 51,-0.5 0,-0.5"/>
<text text-anchor="middle" x="25.5" y="-7.5" font-family="Helvetica,sans-Serif" font-size="10.00">igraph.h</text>
</g>
<!-- Node2&#45;&gt;Node3 -->
<g id="edge2" class="edge"><title>Node2&#45;&gt;Node3</title>
<path fill="none" stroke="midnightblue" d="M89.4848,-172.925C63.2277,-167.925 30.4207,-156.791 13.5,-132 -7.7424,-100.877 6.47254,-54.3283 17.0261,-28.9969"/>
<polygon fill="midnightblue" stroke="midnightblue" points="20.3622,-30.1072 21.2108,-19.5464 13.9616,-27.2729 20.3622,-30.1072"/>
</g>
<!-- Node4 -->
<g id="node4" class="node"><title>Node4</title>
<polygon fill="white" stroke="#bfbfbf" points="89.5,-0.5 89.5,-19.5 129.5,-19.5 129.5,-0.5 89.5,-0.5"/>
<text text-anchor="middle" x="109.5" y="-7.5" font-family="Helvetica,sans-Serif" font-size="10.00">utility</text>
</g>
<!-- Node2&#45;&gt;Node4 -->
<g id="edge3" class="edge"><title>Node2&#45;&gt;Node4</title>
<path fill="none" stroke="midnightblue" d="M132.787,-168.203C142.095,-147.841 162.181,-96.1408 147.5,-56 143.443,-44.9083 135.312,-34.6651 127.609,-26.7625"/>
<polygon fill="midnightblue" stroke="midnightblue" points="129.862,-24.0747 120.214,-19.6955 125.025,-29.1351 129.862,-24.0747"/>
</g>
<!-- Node5 -->
<g id="node5" class="node"><title>Node5</title>
<polygon fill="white" stroke="#bfbfbf" points="170.5,-0.5 170.5,-19.5 214.5,-19.5 214.5,-0.5 170.5,-0.5"/>
<text text-anchor="middle" x="192.5" y="-7.5" font-family="Helvetica,sans-Serif" font-size="10.00">vector</text>
</g>
<!-- Node2&#45;&gt;Node5 -->
<g id="edge4" class="edge"><title>Node2&#45;&gt;Node5</title>
<path fill="none" stroke="midnightblue" d="M136.705,-168.404C144.45,-159.833 155.84,-145.964 162.5,-132 178.748,-97.9347 186.78,-54.1335 190.251,-29.667"/>
<polygon fill="midnightblue" stroke="midnightblue" points="193.739,-29.9835 191.571,-19.6129 186.799,-29.0722 193.739,-29.9835"/>
</g>
<!-- Node6 -->
<g id="node6" class="node"><title>Node6</title>
<g id="a_node6"><a xlink:href="graph__initr_8hpp.html" target="_top" xlink:title="graph_initr.hpp">
<polygon fill="white" stroke="red" points="58.5,-56.5 58.5,-75.5 138.5,-75.5 138.5,-56.5 58.5,-56.5"/>
<text text-anchor="middle" x="98.5" y="-63.5" font-family="Helvetica,sans-Serif" font-size="10.00">graph_initr.hpp</text>
</a>
</g>
</g>
<!-- Node2&#45;&gt;Node6 -->
<g id="edge5" class="edge"><title>Node2&#45;&gt;Node6</title>
<path fill="none" stroke="midnightblue" d="M126.146,-168.368C121.283,-150.537 110.035,-109.295 103.483,-85.2717"/>
<polygon fill="midnightblue" stroke="midnightblue" points="106.851,-84.3181 100.843,-75.5914 100.098,-86.16 106.851,-84.3181"/>
</g>
<!-- Node7 -->
<g id="node7" class="node"><title>Node7</title>
<g id="a_node7"><a xlink:href="state__initr_8hpp.html" target="_top" xlink:title="state_initr.hpp">
<polygon fill="white" stroke="red" points="22.5,-112.5 22.5,-131.5 100.5,-131.5 100.5,-112.5 22.5,-112.5"/>
<text text-anchor="middle" x="61.5" y="-119.5" font-family="Helvetica,sans-Serif" font-size="10.00">state_initr.hpp</text>
</a>
</g>
</g>
<!-- Node2&#45;&gt;Node7 -->
<g id="edge9" class="edge"><title>Node2&#45;&gt;Node7</title>
<path fill="none" stroke="midnightblue" d="M117.735,-168.324C107.734,-160.263 92.6135,-148.077 80.5695,-138.369"/>
<polygon fill="midnightblue" stroke="midnightblue" points="82.4429,-135.384 72.4606,-131.834 78.0502,-140.834 82.4429,-135.384"/>
</g>
<!-- Node6&#45;&gt;Node3 -->
<g id="edge6" class="edge"><title>Node6&#45;&gt;Node3</title>
<path fill="none" stroke="midnightblue" d="M86.7713,-56.324C75.6626,-48.1066 58.7578,-35.6017 45.5167,-25.8069"/>
<polygon fill="midnightblue" stroke="midnightblue" points="47.5631,-22.9671 37.4421,-19.8339 43.4001,-28.5948 47.5631,-22.9671"/>
</g>
<!-- Node6&#45;&gt;Node4 -->
<g id="edge7" class="edge"><title>Node6&#45;&gt;Node4</title>
<path fill="none" stroke="midnightblue" d="M100.316,-56.083C101.774,-48.9272 103.871,-38.6353 105.693,-29.6911"/>
<polygon fill="midnightblue" stroke="midnightblue" points="109.151,-30.2485 107.717,-19.7511 102.292,-28.8512 109.151,-30.2485"/>
</g>
<!-- Node6&#45;&gt;Node5 -->
<g id="edge8" class="edge"><title>Node6&#45;&gt;Node5</title>
<path fill="none" stroke="midnightblue" d="M113.603,-56.324C128.403,-47.8215 151.194,-34.7288 168.482,-24.7975"/>
<polygon fill="midnightblue" stroke="midnightblue" points="170.507,-27.6707 177.435,-19.6545 167.02,-21.6009 170.507,-27.6707"/>
</g>
<!-- Node7&#45;&gt;Node6 -->
<g id="edge10" class="edge"><title>Node7&#45;&gt;Node6</title>
<path fill="none" stroke="midnightblue" d="M67.6098,-112.083C72.7822,-104.534 80.3461,-93.4948 86.6944,-84.2298"/>
<polygon fill="midnightblue" stroke="midnightblue" points="89.7388,-85.9787 92.5039,-75.7511 83.9643,-82.0221 89.7388,-85.9787"/>
</g>
</g>
</svg>
