<?xml version="1.0" encoding="UTF-8" standalone="no"?>
<!DOCTYPE svg PUBLIC "-//W3C//DTD SVG 1.1//EN"
 "http://www.w3.org/Graphics/SVG/1.1/DTD/svg11.dtd">
<!-- Generated by graphviz version 2.38.0 (20140413.2041)
 -->
<!-- Title: gmgf/distance_update.hpp Pages: 1 -->
<svg width="433pt" height="84pt"
 viewBox="0.00 0.00 433.00 84.00" xmlns="http://www.w3.org/2000/svg" xmlns:xlink="http://www.w3.org/1999/xlink">
<g id="graph0" class="graph" transform="scale(1 1) rotate(0) translate(4 80)">
<title>gmgf/distance_update.hpp</title>
<polygon fill="white" stroke="none" points="-4,4 -4,-80 429,-80 429,4 -4,4"/>
<!-- Node1 -->
<g id="node1" class="node"><title>Node1</title>
<polygon fill="#bfbfbf" stroke="black" points="143,-56.5 143,-75.5 274,-75.5 274,-56.5 143,-56.5"/>
<text text-anchor="middle" x="208.5" y="-63.5" font-family="Helvetica,sans-Serif" font-size="10.00">gmgf/distance_update.hpp</text>
</g>
<!-- Node2 -->
<g id="node2" class="node"><title>Node2</title>
<g id="a_node2"><a xlink:href="distance__update_8cpp.html" target="_top" xlink:title="gmgf/distance_update.cpp">
<polygon fill="white" stroke="black" points="0,-0.5 0,-19.5 131,-19.5 131,-0.5 0,-0.5"/>
<text text-anchor="middle" x="65.5" y="-7.5" font-family="Helvetica,sans-Serif" font-size="10.00">gmgf/distance_update.cpp</text>
</a>
</g>
</g>
<!-- Node1&#45;&gt;Node2 -->
<g id="edge1" class="edge"><title>Node1&#45;&gt;Node2</title>
<path fill="none" stroke="midnightblue" d="M176.473,-52.9058C149.588,-42.7536 111.859,-28.5063 88.0528,-19.5164"/>
<polygon fill="midnightblue" stroke="midnightblue" points="175.25,-56.1851 185.841,-56.4435 177.722,-49.6364 175.25,-56.1851"/>
</g>
<!-- Node3 -->
<g id="node3" class="node"><title>Node3</title>
<g id="a_node3"><a xlink:href="mmmtr__state_8cpp.html" target="_top" xlink:title="gmgf/mmmtr_state.cpp">
<polygon fill="white" stroke="black" points="149.5,-0.5 149.5,-19.5 267.5,-19.5 267.5,-0.5 149.5,-0.5"/>
<text text-anchor="middle" x="208.5" y="-7.5" font-family="Helvetica,sans-Serif" font-size="10.00">gmgf/mmmtr_state.cpp</text>
</a>
</g>
</g>
<!-- Node1&#45;&gt;Node3 -->
<g id="edge2" class="edge"><title>Node1&#45;&gt;Node3</title>
<path fill="none" stroke="midnightblue" d="M208.5,-45.8045C208.5,-36.9102 208.5,-26.7798 208.5,-19.7511"/>
<polygon fill="midnightblue" stroke="midnightblue" points="205,-46.083 208.5,-56.083 212,-46.083 205,-46.083"/>
</g>
<!-- Node4 -->
<g id="node4" class="node"><title>Node4</title>
<g id="a_node4"><a xlink:href="mmmtr__state__initr_8cpp.html" target="_top" xlink:title="gmgf/mmmtr_state_initr.cpp">
<polygon fill="white" stroke="black" points="286,-0.5 286,-19.5 425,-19.5 425,-0.5 286,-0.5"/>
<text text-anchor="middle" x="355.5" y="-7.5" font-family="Helvetica,sans-Serif" font-size="10.00">gmgf/mmmtr_state_initr.cpp</text>
</a>
</g>
</g>
<!-- Node1&#45;&gt;Node4 -->
<g id="edge3" class="edge"><title>Node1&#45;&gt;Node4</title>
<path fill="none" stroke="midnightblue" d="M241.423,-52.9058C269.06,-42.7536 307.844,-28.5063 332.316,-19.5164"/>
<polygon fill="midnightblue" stroke="midnightblue" points="239.972,-49.71 231.793,-56.4435 242.386,-56.2806 239.972,-49.71"/>
</g>
</g>
</svg>
