<?xml version="1.0" encoding="UTF-8" standalone="no"?>
<!DOCTYPE svg PUBLIC "-//W3C//DTD SVG 1.1//EN"
 "http://www.w3.org/Graphics/SVG/1.1/DTD/svg11.dtd">
<!-- Generated by graphviz version 2.38.0 (20140413.2041)
 -->
<!-- Title: gmgf/distance_update_gmgopt.hpp Pages: 1 -->
<svg width="272pt" height="106pt"
 viewBox="0.00 0.00 272.00 106.00" xmlns="http://www.w3.org/2000/svg" xmlns:xlink="http://www.w3.org/1999/xlink">
<g id="graph0" class="graph" transform="scale(1 1) rotate(0) translate(4 102)">
<title>gmgf/distance_update_gmgopt.hpp</title>
<polygon fill="white" stroke="none" points="-4,4 -4,-102 268,-102 268,4 -4,4"/>
<!-- Node1 -->
<g id="node1" class="node"><title>Node1</title>
<polygon fill="#bfbfbf" stroke="black" points="70,-67.5 70,-97.5 183,-97.5 183,-67.5 70,-67.5"/>
<text text-anchor="start" x="78" y="-85.5" font-family="Helvetica,sans-Serif" font-size="10.00">gmgf/distance_update</text>
<text text-anchor="middle" x="126.5" y="-74.5" font-family="Helvetica,sans-Serif" font-size="10.00">_gmgopt.hpp</text>
</g>
<!-- Node2 -->
<g id="node2" class="node"><title>Node2</title>
<g id="a_node2"><a xlink:href="distance__update__gmgopt_8cpp.html" target="_top" xlink:title="gmgf/distance_update\l_gmgopt.cpp">
<polygon fill="white" stroke="black" points="0,-0.5 0,-30.5 113,-30.5 113,-0.5 0,-0.5"/>
<text text-anchor="start" x="8" y="-18.5" font-family="Helvetica,sans-Serif" font-size="10.00">gmgf/distance_update</text>
<text text-anchor="middle" x="56.5" y="-7.5" font-family="Helvetica,sans-Serif" font-size="10.00">_gmgopt.cpp</text>
</a>
</g>
</g>
<!-- Node1&#45;&gt;Node2 -->
<g id="edge1" class="edge"><title>Node1&#45;&gt;Node2</title>
<path fill="none" stroke="midnightblue" d="M103.682,-60.3115C93.1813,-50.5612 81.0097,-39.259 71.6593,-30.5765"/>
<polygon fill="midnightblue" stroke="midnightblue" points="101.601,-63.1562 111.311,-67.396 106.365,-58.0266 101.601,-63.1562"/>
</g>
<!-- Node3 -->
<g id="node3" class="node"><title>Node3</title>
<g id="a_node3"><a xlink:href="matrix__opt__state_8cpp.html" target="_top" xlink:title="gmgf/matrix_opt_state.cpp">
<polygon fill="white" stroke="black" points="131,-6 131,-25 264,-25 264,-6 131,-6"/>
<text text-anchor="middle" x="197.5" y="-13" font-family="Helvetica,sans-Serif" font-size="10.00">gmgf/matrix_opt_state.cpp</text>
</a>
</g>
</g>
<!-- Node1&#45;&gt;Node3 -->
<g id="edge2" class="edge"><title>Node1&#45;&gt;Node3</title>
<path fill="none" stroke="midnightblue" d="M149.619,-60.335C162.654,-48.401 178.236,-34.1359 188.003,-25.1945"/>
<polygon fill="midnightblue" stroke="midnightblue" points="146.918,-58.0618 141.906,-67.396 151.645,-63.225 146.918,-58.0618"/>
</g>
</g>
</svg>
