<?xml version="1.0" encoding="UTF-8" standalone="no"?>
<!DOCTYPE svg PUBLIC "-//W3C//DTD SVG 1.1//EN"
 "http://www.w3.org/Graphics/SVG/1.1/DTD/svg11.dtd">
<!-- Generated by graphviz version 2.38.0 (20140413.2041)
 -->
<!-- Title: gmgf/distance_update.hpp Pages: 1 -->
<svg width="557pt" height="95pt"
 viewBox="0.00 0.00 557.00 95.00" xmlns="http://www.w3.org/2000/svg" xmlns:xlink="http://www.w3.org/1999/xlink">
<g id="graph0" class="graph" transform="scale(1 1) rotate(0) translate(4 91)">
<title>gmgf/distance_update.hpp</title>
<polygon fill="white" stroke="none" points="-4,4 -4,-91 553,-91 553,4 -4,4"/>
<!-- Node1 -->
<g id="node1" class="node"><title>Node1</title>
<polygon fill="#bfbfbf" stroke="black" points="207,-67.5 207,-86.5 338,-86.5 338,-67.5 207,-67.5"/>
<text text-anchor="middle" x="272.5" y="-74.5" font-family="Helvetica,sans-Serif" font-size="10.00">gmgf/distance_update.hpp</text>
</g>
<!-- Node2 -->
<g id="node2" class="node"><title>Node2</title>
<g id="a_node2"><a xlink:href="distance__update_8cpp.html" target="_top" xlink:title="gmgf/distance_update.cpp">
<polygon fill="white" stroke="black" points="0,-6 0,-25 131,-25 131,-6 0,-6"/>
<text text-anchor="middle" x="65.5" y="-13" font-family="Helvetica,sans-Serif" font-size="10.00">gmgf/distance_update.cpp</text>
</a>
</g>
</g>
<!-- Node1&#45;&gt;Node2 -->
<g id="edge1" class="edge"><title>Node1&#45;&gt;Node2</title>
<path fill="none" stroke="midnightblue" d="M233.103,-64.6759C192.881,-53.1144 131.354,-35.429 95.103,-25.0091"/>
<polygon fill="midnightblue" stroke="midnightblue" points="232.264,-68.0763 242.842,-67.4751 234.198,-61.3487 232.264,-68.0763"/>
</g>
<!-- Node3 -->
<g id="node3" class="node"><title>Node3</title>
<g id="a_node3"><a xlink:href="matrix__opt__state__initr_8cpp.html" target="_top" xlink:title="gmgf/matrix_opt_state\l_initr.cpp">
<polygon fill="white" stroke="black" points="149.5,-0.5 149.5,-30.5 263.5,-30.5 263.5,-0.5 149.5,-0.5"/>
<text text-anchor="start" x="157.5" y="-18.5" font-family="Helvetica,sans-Serif" font-size="10.00">gmgf/matrix_opt_state</text>
<text text-anchor="middle" x="206.5" y="-7.5" font-family="Helvetica,sans-Serif" font-size="10.00">_initr.cpp</text>
</a>
</g>
</g>
<!-- Node1&#45;&gt;Node3 -->
<g id="edge2" class="edge"><title>Node1&#45;&gt;Node3</title>
<path fill="none" stroke="midnightblue" d="M255.469,-60.6459C245.152,-51.3456 232.092,-39.572 222.055,-30.523"/>
<polygon fill="midnightblue" stroke="midnightblue" points="253.273,-63.3788 263.044,-67.4751 257.96,-58.1796 253.273,-63.3788"/>
</g>
<!-- Node4 -->
<g id="node4" class="node"><title>Node4</title>
<g id="a_node4"><a xlink:href="matrix__state_8cpp.html" target="_top" xlink:title="gmgf/matrix_state.cpp">
<polygon fill="white" stroke="black" points="281.5,-6 281.5,-25 395.5,-25 395.5,-6 281.5,-6"/>
<text text-anchor="middle" x="338.5" y="-13" font-family="Helvetica,sans-Serif" font-size="10.00">gmgf/matrix_state.cpp</text>
</a>
</g>
</g>
<!-- Node1&#45;&gt;Node4 -->
<g id="edge3" class="edge"><title>Node1&#45;&gt;Node4</title>
<path fill="none" stroke="midnightblue" d="M289.527,-60.6496C302.11,-49.3058 318.776,-34.2811 329.061,-25.0091"/>
<polygon fill="midnightblue" stroke="midnightblue" points="287.04,-58.1796 281.956,-67.4751 291.727,-63.3788 287.04,-58.1796"/>
</g>
<!-- Node5 -->
<g id="node5" class="node"><title>Node5</title>
<g id="a_node5"><a xlink:href="matrix__state__initr_8cpp.html" target="_top" xlink:title="gmgf/matrix_state_initr.cpp">
<polygon fill="white" stroke="black" points="414,-6 414,-25 549,-25 549,-6 414,-6"/>
<text text-anchor="middle" x="481.5" y="-13" font-family="Helvetica,sans-Serif" font-size="10.00">gmgf/matrix_state_initr.cpp</text>
</a>
</g>
</g>
<!-- Node1&#45;&gt;Node5 -->
<g id="edge4" class="edge"><title>Node1&#45;&gt;Node5</title>
<path fill="none" stroke="midnightblue" d="M312.277,-64.6759C352.888,-53.1144 415.01,-35.429 451.611,-25.0091"/>
<polygon fill="midnightblue" stroke="midnightblue" points="311.104,-61.3707 302.445,-67.4751 313.021,-68.1032 311.104,-61.3707"/>
</g>
</g>
</svg>
