<?xml version="1.0" encoding="UTF-8" standalone="no"?>
<!DOCTYPE svg PUBLIC "-//W3C//DTD SVG 1.1//EN"
 "http://www.w3.org/Graphics/SVG/1.1/DTD/svg11.dtd">
<!-- Generated by graphviz version 2.38.0 (20140413.2041)
 -->
<!-- Title: gmgf/fbs_enumer.hpp Pages: 1 -->
<svg width="242pt" height="252pt"
 viewBox="0.00 0.00 241.50 252.00" xmlns="http://www.w3.org/2000/svg" xmlns:xlink="http://www.w3.org/1999/xlink">
<g id="graph0" class="graph" transform="scale(1 1) rotate(0) translate(4 248)">
<title>gmgf/fbs_enumer.hpp</title>
<polygon fill="white" stroke="none" points="-4,4 -4,-248 237.5,-248 237.5,4 -4,4"/>
<!-- Node1 -->
<g id="node1" class="node"><title>Node1</title>
<polygon fill="#bfbfbf" stroke="black" points="41,-224.5 41,-243.5 152,-243.5 152,-224.5 41,-224.5"/>
<text text-anchor="middle" x="96.5" y="-231.5" font-family="Helvetica,sans-Serif" font-size="10.00">gmgf/fbs_enumer.hpp</text>
</g>
<!-- Node2 -->
<g id="node2" class="node"><title>Node2</title>
<polygon fill="white" stroke="#bfbfbf" points="0,-0.5 0,-19.5 51,-19.5 51,-0.5 0,-0.5"/>
<text text-anchor="middle" x="25.5" y="-7.5" font-family="Helvetica,sans-Serif" font-size="10.00">igraph.h</text>
</g>
<!-- Node1&#45;&gt;Node2 -->
<g id="edge1" class="edge"><title>Node1&#45;&gt;Node2</title>
<path fill="none" stroke="midnightblue" d="M85.8209,-224.386C67.0685,-208.489 28.8505,-172.443 14.5,-132 2.1438,-97.1772 11.8478,-53.356 19.2074,-29.1556"/>
<polygon fill="midnightblue" stroke="midnightblue" points="22.5767,-30.1122 22.3362,-19.5201 15.9189,-27.9503 22.5767,-30.1122"/>
</g>
<!-- Node3 -->
<g id="node3" class="node"><title>Node3</title>
<polygon fill="white" stroke="#bfbfbf" points="189.5,-0.5 189.5,-19.5 233.5,-19.5 233.5,-0.5 189.5,-0.5"/>
<text text-anchor="middle" x="211.5" y="-7.5" font-family="Helvetica,sans-Serif" font-size="10.00">vector</text>
</g>
<!-- Node1&#45;&gt;Node3 -->
<g id="edge2" class="edge"><title>Node1&#45;&gt;Node3</title>
<path fill="none" stroke="midnightblue" d="M123.359,-224.412C141.388,-217.339 164.347,-205.584 178.5,-188 216.183,-141.182 215.877,-64.8499 213.389,-29.7442"/>
<polygon fill="midnightblue" stroke="midnightblue" points="216.854,-29.1862 212.514,-19.5215 209.88,-29.7838 216.854,-29.1862"/>
</g>
<!-- Node4 -->
<g id="node4" class="node"><title>Node4</title>
<g id="a_node4"><a xlink:href="graph__initr_8hpp.html" target="_top" xlink:title="graph_initr.hpp">
<polygon fill="white" stroke="black" points="23.5,-112.5 23.5,-131.5 103.5,-131.5 103.5,-112.5 23.5,-112.5"/>
<text text-anchor="middle" x="63.5" y="-119.5" font-family="Helvetica,sans-Serif" font-size="10.00">graph_initr.hpp</text>
</a>
</g>
</g>
<!-- Node1&#45;&gt;Node4 -->
<g id="edge3" class="edge"><title>Node1&#45;&gt;Node4</title>
<path fill="none" stroke="midnightblue" d="M93.7719,-224.387C90.9177,-215.339 86.3283,-200.69 82.5,-188 77.7778,-172.347 72.5794,-154.52 68.8156,-141.499"/>
<polygon fill="midnightblue" stroke="midnightblue" points="72.1659,-140.485 66.0333,-131.846 65.4397,-142.424 72.1659,-140.485"/>
</g>
<!-- Node7 -->
<g id="node7" class="node"><title>Node7</title>
<g id="a_node7"><a xlink:href="state__initr_8hpp.html" target="_top" xlink:title="state_initr.hpp">
<polygon fill="white" stroke="black" points="91.5,-168.5 91.5,-187.5 169.5,-187.5 169.5,-168.5 91.5,-168.5"/>
<text text-anchor="middle" x="130.5" y="-175.5" font-family="Helvetica,sans-Serif" font-size="10.00">state_initr.hpp</text>
</a>
</g>
</g>
<!-- Node1&#45;&gt;Node7 -->
<g id="edge11" class="edge"><title>Node1&#45;&gt;Node7</title>
<path fill="none" stroke="midnightblue" d="M102.114,-224.083C106.867,-216.534 113.818,-205.495 119.652,-196.23"/>
<polygon fill="midnightblue" stroke="midnightblue" points="122.624,-198.078 124.99,-187.751 116.7,-194.349 122.624,-198.078"/>
</g>
<!-- Node4&#45;&gt;Node2 -->
<g id="edge4" class="edge"><title>Node4&#45;&gt;Node2</title>
<path fill="none" stroke="midnightblue" d="M60.5182,-112.368C54.3581,-94.5366 40.1111,-53.2953 31.8121,-29.2717"/>
<polygon fill="midnightblue" stroke="midnightblue" points="35.0414,-27.9005 28.4679,-19.5914 28.425,-30.1862 35.0414,-27.9005"/>
</g>
<!-- Node4&#45;&gt;Node3 -->
<g id="edge6" class="edge"><title>Node4&#45;&gt;Node3</title>
<path fill="none" stroke="midnightblue" d="M98.4908,-112.493C131.706,-103.768 178.441,-89.586 191.5,-76 203.379,-63.6413 208.217,-44.3938 210.179,-30.0464"/>
<polygon fill="midnightblue" stroke="midnightblue" points="213.69,-30.1179 211.216,-19.8159 206.726,-29.4119 213.69,-30.1179"/>
</g>
<!-- Node5 -->
<g id="node5" class="node"><title>Node5</title>
<polygon fill="white" stroke="#bfbfbf" points="93.5,-0.5 93.5,-19.5 133.5,-19.5 133.5,-0.5 93.5,-0.5"/>
<text text-anchor="middle" x="113.5" y="-7.5" font-family="Helvetica,sans-Serif" font-size="10.00">utility</text>
</g>
<!-- Node4&#45;&gt;Node5 -->
<g id="edge5" class="edge"><title>Node4&#45;&gt;Node5</title>
<path fill="none" stroke="midnightblue" d="M65.1268,-112.269C67.7114,-99.483 73.4132,-75.1124 82.5,-56 87.2265,-46.0587 94.0369,-35.8846 100.071,-27.7311"/>
<polygon fill="midnightblue" stroke="midnightblue" points="102.861,-29.8451 106.179,-19.7833 97.3103,-25.5796 102.861,-29.8451"/>
</g>
<!-- Node6 -->
<g id="node6" class="node"><title>Node6</title>
<g id="a_node6"><a xlink:href="graph__config_8hpp.html" target="_top" xlink:title="graph_config.hpp">
<polygon fill="white" stroke="black" points="92,-56.5 92,-75.5 183,-75.5 183,-56.5 92,-56.5"/>
<text text-anchor="middle" x="137.5" y="-63.5" font-family="Helvetica,sans-Serif" font-size="10.00">graph_config.hpp</text>
</a>
</g>
</g>
<!-- Node4&#45;&gt;Node6 -->
<g id="edge7" class="edge"><title>Node4&#45;&gt;Node6</title>
<path fill="none" stroke="midnightblue" d="M75.3894,-112.324C86.6502,-104.107 103.787,-91.6017 117.209,-81.8069"/>
<polygon fill="midnightblue" stroke="midnightblue" points="119.38,-84.5559 125.394,-75.8339 115.253,-78.9014 119.38,-84.5559"/>
</g>
<!-- Node6&#45;&gt;Node2 -->
<g id="edge8" class="edge"><title>Node6&#45;&gt;Node2</title>
<path fill="none" stroke="midnightblue" d="M119.505,-56.324C101.462,-47.6247 73.4531,-34.1202 52.6973,-24.113"/>
<polygon fill="midnightblue" stroke="midnightblue" points="53.9778,-20.8449 43.4501,-19.6545 50.9377,-27.1502 53.9778,-20.8449"/>
</g>
<!-- Node6&#45;&gt;Node3 -->
<g id="edge10" class="edge"><title>Node6&#45;&gt;Node3</title>
<path fill="none" stroke="midnightblue" d="M149.389,-56.324C160.65,-48.1066 177.787,-35.6017 191.209,-25.8069"/>
<polygon fill="midnightblue" stroke="midnightblue" points="193.38,-28.5559 199.394,-19.8339 189.253,-22.9014 193.38,-28.5559"/>
</g>
<!-- Node6&#45;&gt;Node5 -->
<g id="edge9" class="edge"><title>Node6&#45;&gt;Node5</title>
<path fill="none" stroke="midnightblue" d="M133.537,-56.083C130.287,-48.77 125.581,-38.1814 121.546,-29.1034"/>
<polygon fill="midnightblue" stroke="midnightblue" points="124.649,-27.4677 117.389,-19.7511 118.252,-30.3107 124.649,-27.4677"/>
</g>
<!-- Node7&#45;&gt;Node4 -->
<g id="edge14" class="edge"><title>Node7&#45;&gt;Node4</title>
<path fill="none" stroke="midnightblue" d="M119.735,-168.324C109.734,-160.263 94.6135,-148.077 82.5695,-138.369"/>
<polygon fill="midnightblue" stroke="midnightblue" points="84.4429,-135.384 74.4606,-131.834 80.0502,-140.834 84.4429,-135.384"/>
</g>
<!-- Node8 -->
<g id="node8" class="node"><title>Node8</title>
<g id="a_node8"><a xlink:href="state_8hpp.html" target="_top" xlink:title="state.hpp">
<polygon fill="white" stroke="black" points="122,-112.5 122,-131.5 179,-131.5 179,-112.5 122,-112.5"/>
<text text-anchor="middle" x="150.5" y="-119.5" font-family="Helvetica,sans-Serif" font-size="10.00">state.hpp</text>
</a>
</g>
</g>
<!-- Node7&#45;&gt;Node8 -->
<g id="edge12" class="edge"><title>Node7&#45;&gt;Node8</title>
<path fill="none" stroke="midnightblue" d="M133.803,-168.083C136.482,-160.849 140.349,-150.409 143.686,-141.397"/>
<polygon fill="midnightblue" stroke="midnightblue" points="147.068,-142.344 147.259,-131.751 140.504,-139.913 147.068,-142.344"/>
</g>
<!-- Node8&#45;&gt;Node6 -->
<g id="edge13" class="edge"><title>Node8&#45;&gt;Node6</title>
<path fill="none" stroke="midnightblue" d="M148.353,-112.083C146.631,-104.927 144.153,-94.6353 142,-85.6911"/>
<polygon fill="midnightblue" stroke="midnightblue" points="145.35,-84.6541 139.607,-75.7511 138.545,-86.2925 145.35,-84.6541"/>
</g>
</g>
</svg>
