<?xml version="1.0" encoding="UTF-8" standalone="no"?>
<!DOCTYPE svg PUBLIC "-//W3C//DTD SVG 1.1//EN"
 "http://www.w3.org/Graphics/SVG/1.1/DTD/svg11.dtd">
<!-- Generated by graphviz version 2.38.0 (20140413.2041)
 -->
<!-- Title: gmgf/fbs_enumer.cpp Pages: 1 -->
<svg width="212pt" height="252pt"
 viewBox="0.00 0.00 212.13 252.00" xmlns="http://www.w3.org/2000/svg" xmlns:xlink="http://www.w3.org/1999/xlink">
<g id="graph0" class="graph" transform="scale(1 1) rotate(0) translate(4 248)">
<title>gmgf/fbs_enumer.cpp</title>
<polygon fill="white" stroke="none" points="-4,4 -4,-248 208.125,-248 208.125,4 -4,4"/>
<!-- Node1 -->
<g id="node1" class="node"><title>Node1</title>
<polygon fill="#bfbfbf" stroke="black" points="77.6253,-224.5 77.6253,-243.5 188.625,-243.5 188.625,-224.5 77.6253,-224.5"/>
<text text-anchor="middle" x="133.125" y="-231.5" font-family="Helvetica,sans-Serif" font-size="10.00">gmgf/fbs_enumer.cpp</text>
</g>
<!-- Node2 -->
<g id="node2" class="node"><title>Node2</title>
<g id="a_node2"><a xlink:href="fbs__enumer_8hpp.html" target="_top" xlink:title="fbs_enumer.hpp">
<polygon fill="white" stroke="black" points="46.1253,-168.5 46.1253,-187.5 132.125,-187.5 132.125,-168.5 46.1253,-168.5"/>
<text text-anchor="middle" x="89.1253" y="-175.5" font-family="Helvetica,sans-Serif" font-size="10.00">fbs_enumer.hpp</text>
</a>
</g>
</g>
<!-- Node1&#45;&gt;Node2 -->
<g id="edge1" class="edge"><title>Node1&#45;&gt;Node2</title>
<path fill="none" stroke="midnightblue" d="M125.86,-224.083C119.58,-216.377 110.338,-205.033 102.694,-195.653"/>
<polygon fill="midnightblue" stroke="midnightblue" points="105.286,-193.293 96.2558,-187.751 99.8592,-197.714 105.286,-193.293"/>
</g>
<!-- Node7 -->
<g id="node7" class="node"><title>Node7</title>
<polygon fill="white" stroke="#bfbfbf" points="150.125,-168.5 150.125,-187.5 204.125,-187.5 204.125,-168.5 150.125,-168.5"/>
<text text-anchor="middle" x="177.125" y="-175.5" font-family="Helvetica,sans-Serif" font-size="10.00">iostream</text>
</g>
<!-- Node1&#45;&gt;Node7 -->
<g id="edge9" class="edge"><title>Node1&#45;&gt;Node7</title>
<path fill="none" stroke="midnightblue" d="M140.391,-224.083C146.67,-216.377 155.913,-205.033 163.556,-195.653"/>
<polygon fill="midnightblue" stroke="midnightblue" points="166.391,-197.714 169.995,-187.751 160.965,-193.293 166.391,-197.714"/>
</g>
<!-- Node3 -->
<g id="node3" class="node"><title>Node3</title>
<polygon fill="white" stroke="#bfbfbf" points="11.6253,-0.5 11.6253,-19.5 62.6253,-19.5 62.6253,-0.5 11.6253,-0.5"/>
<text text-anchor="middle" x="37.1253" y="-7.5" font-family="Helvetica,sans-Serif" font-size="10.00">igraph.h</text>
</g>
<!-- Node2&#45;&gt;Node3 -->
<g id="edge2" class="edge"><title>Node2&#45;&gt;Node3</title>
<path fill="none" stroke="midnightblue" d="M58.1028,-168.436C40.0929,-161.694 18.894,-150.302 8.1253,-132 -11.5071,-98.6345 10.5593,-52.6863 25.5636,-28.1234"/>
<polygon fill="midnightblue" stroke="midnightblue" points="28.6072,-29.8606 31.0514,-19.5516 22.7119,-26.0863 28.6072,-29.8606"/>
</g>
<!-- Node4 -->
<g id="node4" class="node"><title>Node4</title>
<polygon fill="white" stroke="#bfbfbf" points="91.1253,-0.5 91.1253,-19.5 135.125,-19.5 135.125,-0.5 91.1253,-0.5"/>
<text text-anchor="middle" x="113.125" y="-7.5" font-family="Helvetica,sans-Serif" font-size="10.00">vector</text>
</g>
<!-- Node2&#45;&gt;Node4 -->
<g id="edge3" class="edge"><title>Node2&#45;&gt;Node4</title>
<path fill="none" stroke="midnightblue" d="M96.7824,-168.417C103.926,-159.855 114.199,-145.993 119.125,-132 130.367,-100.07 128.173,-89.6079 124.125,-56 123.054,-47.1069 120.833,-37.4344 118.665,-29.344"/>
<polygon fill="midnightblue" stroke="midnightblue" points="121.969,-28.1668 115.855,-19.5139 115.239,-30.0908 121.969,-28.1668"/>
</g>
<!-- Node5 -->
<g id="node5" class="node"><title>Node5</title>
<g id="a_node5"><a xlink:href="graph__initr_8hpp.html" target="_top" xlink:title="graph_initr.hpp">
<polygon fill="white" stroke="red" points="35.1253,-56.5 35.1253,-75.5 115.125,-75.5 115.125,-56.5 35.1253,-56.5"/>
<text text-anchor="middle" x="75.1253" y="-63.5" font-family="Helvetica,sans-Serif" font-size="10.00">graph_initr.hpp</text>
</a>
</g>
</g>
<!-- Node2&#45;&gt;Node5 -->
<g id="edge4" class="edge"><title>Node2&#45;&gt;Node5</title>
<path fill="none" stroke="midnightblue" d="M94.0753,-168.082C100.42,-155.476 109.946,-131.776 104.125,-112 101.113,-101.765 94.9707,-91.6599 89.1114,-83.627"/>
<polygon fill="midnightblue" stroke="midnightblue" points="91.7111,-81.2694 82.7982,-75.5413 86.1937,-85.5773 91.7111,-81.2694"/>
</g>
<!-- Node6 -->
<g id="node6" class="node"><title>Node6</title>
<g id="a_node6"><a xlink:href="state__initr_8hpp.html" target="_top" xlink:title="state_initr.hpp">
<polygon fill="white" stroke="red" points="17.1253,-112.5 17.1253,-131.5 95.1253,-131.5 95.1253,-112.5 17.1253,-112.5"/>
<text text-anchor="middle" x="56.1253" y="-119.5" font-family="Helvetica,sans-Serif" font-size="10.00">state_initr.hpp</text>
</a>
</g>
</g>
<!-- Node2&#45;&gt;Node6 -->
<g id="edge7" class="edge"><title>Node2&#45;&gt;Node6</title>
<path fill="none" stroke="midnightblue" d="M83.676,-168.083C79.1108,-160.613 72.4569,-149.724 66.8319,-140.52"/>
<polygon fill="midnightblue" stroke="midnightblue" points="69.6742,-138.459 61.4732,-131.751 63.7012,-142.109 69.6742,-138.459"/>
</g>
<!-- Node5&#45;&gt;Node3 -->
<g id="edge5" class="edge"><title>Node5&#45;&gt;Node3</title>
<path fill="none" stroke="midnightblue" d="M68.8504,-56.083C63.4828,-48.4554 55.6077,-37.2645 49.0466,-27.9408"/>
<polygon fill="midnightblue" stroke="midnightblue" points="51.9008,-25.9149 43.2835,-19.7511 46.1761,-29.9434 51.9008,-25.9149"/>
</g>
<!-- Node5&#45;&gt;Node4 -->
<g id="edge6" class="edge"><title>Node5&#45;&gt;Node4</title>
<path fill="none" stroke="midnightblue" d="M81.4002,-56.083C86.7678,-48.4554 94.6429,-37.2645 101.204,-27.9408"/>
<polygon fill="midnightblue" stroke="midnightblue" points="104.074,-29.9434 106.967,-19.7511 98.3498,-25.9149 104.074,-29.9434"/>
</g>
<!-- Node6&#45;&gt;Node5 -->
<g id="edge8" class="edge"><title>Node6&#45;&gt;Node5</title>
<path fill="none" stroke="midnightblue" d="M59.2628,-112.083C61.8082,-104.849 65.4815,-94.4087 68.6524,-85.3968"/>
<polygon fill="midnightblue" stroke="midnightblue" points="72.0287,-86.3459 72.0462,-75.7511 65.4255,-84.0225 72.0287,-86.3459"/>
</g>
</g>
</svg>
