<?xml version="1.0" encoding="UTF-8" standalone="no"?>
<!DOCTYPE svg PUBLIC "-//W3C//DTD SVG 1.1//EN"
 "http://www.w3.org/Graphics/SVG/1.1/DTD/svg11.dtd">
<!-- Generated by graphviz version 2.38.0 (20140413.2041)
 -->
<!-- Title: gmgf/graph_config.hpp Pages: 1 -->
<svg width="959pt" height="196pt"
 viewBox="0.00 0.00 959.00 196.00" xmlns="http://www.w3.org/2000/svg" xmlns:xlink="http://www.w3.org/1999/xlink">
<g id="graph0" class="graph" transform="scale(1 1) rotate(0) translate(4 192)">
<title>gmgf/graph_config.hpp</title>
<polygon fill="white" stroke="none" points="-4,4 -4,-192 955,-192 955,4 -4,4"/>
<!-- Node1 -->
<g id="node1" class="node"><title>Node1</title>
<polygon fill="#bfbfbf" stroke="black" points="675,-168.5 675,-187.5 791,-187.5 791,-168.5 675,-168.5"/>
<text text-anchor="middle" x="733" y="-175.5" font-family="Helvetica,sans-Serif" font-size="10.00">gmgf/graph_config.hpp</text>
</g>
<!-- Node2 -->
<g id="node2" class="node"><title>Node2</title>
<g id="a_node2"><a xlink:href="graph__initr_8hpp.html" target="_top" xlink:title="gmgf/graph_initr.hpp">
<polygon fill="white" stroke="black" points="329.5,-112.5 329.5,-131.5 434.5,-131.5 434.5,-112.5 329.5,-112.5"/>
<text text-anchor="middle" x="382" y="-119.5" font-family="Helvetica,sans-Serif" font-size="10.00">gmgf/graph_initr.hpp</text>
</a>
</g>
</g>
<!-- Node1&#45;&gt;Node2 -->
<g id="edge1" class="edge"><title>Node1&#45;&gt;Node2</title>
<path fill="none" stroke="midnightblue" d="M667.323,-166.896C600.086,-156.552 496.894,-140.676 434.775,-131.119"/>
<polygon fill="midnightblue" stroke="midnightblue" points="666.967,-170.382 677.383,-168.444 668.032,-163.464 666.967,-170.382"/>
</g>
<!-- Node9 -->
<g id="node9" class="node"><title>Node9</title>
<g id="a_node9"><a xlink:href="state_8hpp.html" target="_top" xlink:title="gmgf/state.hpp">
<polygon fill="white" stroke="black" points="692,-112.5 692,-131.5 774,-131.5 774,-112.5 692,-112.5"/>
<text text-anchor="middle" x="733" y="-119.5" font-family="Helvetica,sans-Serif" font-size="10.00">gmgf/state.hpp</text>
</a>
</g>
</g>
<!-- Node1&#45;&gt;Node9 -->
<g id="edge9" class="edge"><title>Node1&#45;&gt;Node9</title>
<path fill="none" stroke="midnightblue" d="M733,-157.805C733,-148.91 733,-138.78 733,-131.751"/>
<polygon fill="midnightblue" stroke="midnightblue" points="729.5,-158.083 733,-168.083 736.5,-158.083 729.5,-158.083"/>
</g>
<!-- Node12 -->
<g id="node12" class="node"><title>Node12</title>
<g id="a_node12"><a xlink:href="graph__config_8cpp.html" target="_top" xlink:title="gmgf/graph_config.cpp">
<polygon fill="white" stroke="black" points="792,-112.5 792,-131.5 908,-131.5 908,-112.5 792,-112.5"/>
<text text-anchor="middle" x="850" y="-119.5" font-family="Helvetica,sans-Serif" font-size="10.00">gmgf/graph_config.cpp</text>
</a>
</g>
</g>
<!-- Node1&#45;&gt;Node12 -->
<g id="edge13" class="edge"><title>Node1&#45;&gt;Node12</title>
<path fill="none" stroke="midnightblue" d="M760.664,-164.232C782.549,-154.131 812.497,-140.309 831.548,-131.516"/>
<polygon fill="midnightblue" stroke="midnightblue" points="759.152,-161.075 751.539,-168.444 762.085,-167.431 759.152,-161.075"/>
</g>
<!-- Node3 -->
<g id="node3" class="node"><title>Node3</title>
<g id="a_node3"><a xlink:href="basic__graph__initr_8hpp.html" target="_top" xlink:title="gmgf/basic_graph_initr.hpp">
<polygon fill="white" stroke="red" points="0,-56.5 0,-75.5 134,-75.5 134,-56.5 0,-56.5"/>
<text text-anchor="middle" x="67" y="-63.5" font-family="Helvetica,sans-Serif" font-size="10.00">gmgf/basic_graph_initr.hpp</text>
</a>
</g>
</g>
<!-- Node2&#45;&gt;Node3 -->
<g id="edge2" class="edge"><title>Node2&#45;&gt;Node3</title>
<path fill="none" stroke="midnightblue" d="M322.077,-110.727C262.551,-100.523 172.34,-85.0583 116.679,-75.5164"/>
<polygon fill="midnightblue" stroke="midnightblue" points="321.64,-114.203 332.087,-112.444 322.822,-107.304 321.64,-114.203"/>
</g>
<!-- Node4 -->
<g id="node4" class="node"><title>Node4</title>
<g id="a_node4"><a xlink:href="state__initr_8hpp.html" target="_top" xlink:title="gmgf/state_initr.hpp">
<polygon fill="white" stroke="red" points="619.5,-56.5 619.5,-75.5 722.5,-75.5 722.5,-56.5 619.5,-56.5"/>
<text text-anchor="middle" x="671" y="-63.5" font-family="Helvetica,sans-Serif" font-size="10.00">gmgf/state_initr.hpp</text>
</a>
</g>
</g>
<!-- Node2&#45;&gt;Node4 -->
<g id="edge3" class="edge"><title>Node2&#45;&gt;Node4</title>
<path fill="none" stroke="midnightblue" d="M437.655,-110.601C492.273,-100.395 574.566,-85.0189 625.421,-75.5164"/>
<polygon fill="midnightblue" stroke="midnightblue" points="436.98,-107.166 427.793,-112.444 438.266,-114.047 436.98,-107.166"/>
</g>
<!-- Node5 -->
<g id="node5" class="node"><title>Node5</title>
<g id="a_node5"><a xlink:href="dfs__finder_8hpp.html" target="_top" xlink:title="gmgf/dfs_finder.hpp">
<polygon fill="white" stroke="red" points="364.5,-0.5 364.5,-19.5 467.5,-19.5 467.5,-0.5 364.5,-0.5"/>
<text text-anchor="middle" x="416" y="-7.5" font-family="Helvetica,sans-Serif" font-size="10.00">gmgf/dfs_finder.hpp</text>
</a>
</g>
</g>
<!-- Node2&#45;&gt;Node5 -->
<g id="edge5" class="edge"><title>Node2&#45;&gt;Node5</title>
<path fill="none" stroke="midnightblue" d="M319.4,-120.347C246.419,-117.375 140.605,-104.865 181,-56 203.795,-28.4259 302.306,-17.5856 364.322,-13.4439"/>
<polygon fill="midnightblue" stroke="midnightblue" points="319.343,-123.847 329.462,-120.706 319.593,-116.852 319.343,-123.847"/>
</g>
<!-- Node6 -->
<g id="node6" class="node"><title>Node6</title>
<g id="a_node6"><a xlink:href="graph__initr_8cpp.html" target="_top" xlink:title="gmgf/graph_initr.cpp">
<polygon fill="white" stroke="black" points="190.5,-56.5 190.5,-75.5 295.5,-75.5 295.5,-56.5 190.5,-56.5"/>
<text text-anchor="middle" x="243" y="-63.5" font-family="Helvetica,sans-Serif" font-size="10.00">gmgf/graph_initr.cpp</text>
</a>
</g>
</g>
<!-- Node2&#45;&gt;Node6 -->
<g id="edge6" class="edge"><title>Node2&#45;&gt;Node6</title>
<path fill="none" stroke="midnightblue" d="M350.524,-108.772C324.415,-98.6287 287.961,-84.4669 264.922,-75.5164"/>
<polygon fill="midnightblue" stroke="midnightblue" points="349.386,-112.085 359.975,-112.444 351.921,-105.56 349.386,-112.085"/>
</g>
<!-- Node7 -->
<g id="node7" class="node"><title>Node7</title>
<g id="a_node7"><a xlink:href="sorted__graph__initr_8hpp.html" target="_top" xlink:title="gmgf/sorted_graph_initr.hpp">
<polygon fill="white" stroke="red" points="313.5,-56.5 313.5,-75.5 450.5,-75.5 450.5,-56.5 313.5,-56.5"/>
<text text-anchor="middle" x="382" y="-63.5" font-family="Helvetica,sans-Serif" font-size="10.00">gmgf/sorted_graph_initr.hpp</text>
</a>
</g>
</g>
<!-- Node2&#45;&gt;Node7 -->
<g id="edge7" class="edge"><title>Node2&#45;&gt;Node7</title>
<path fill="none" stroke="midnightblue" d="M382,-101.805C382,-92.9102 382,-82.7798 382,-75.7511"/>
<polygon fill="midnightblue" stroke="midnightblue" points="378.5,-102.083 382,-112.083 385.5,-102.083 378.5,-102.083"/>
</g>
<!-- Node8 -->
<g id="node8" class="node"><title>Node8</title>
<g id="a_node8"><a xlink:href="stree__graph__initr_8hpp.html" target="_top" xlink:title="gmgf/stree_graph_initr.hpp">
<polygon fill="white" stroke="red" points="469,-56.5 469,-75.5 601,-75.5 601,-56.5 469,-56.5"/>
<text text-anchor="middle" x="535" y="-63.5" font-family="Helvetica,sans-Serif" font-size="10.00">gmgf/stree_graph_initr.hpp</text>
</a>
</g>
</g>
<!-- Node2&#45;&gt;Node8 -->
<g id="edge8" class="edge"><title>Node2&#45;&gt;Node8</title>
<path fill="none" stroke="midnightblue" d="M415.889,-109.039C444.677,-98.8786 485.287,-84.5457 510.87,-75.5164"/>
<polygon fill="midnightblue" stroke="midnightblue" points="414.508,-105.815 406.243,-112.444 416.838,-112.416 414.508,-105.815"/>
</g>
<!-- Node4&#45;&gt;Node5 -->
<g id="edge4" class="edge"><title>Node4&#45;&gt;Node5</title>
<path fill="none" stroke="midnightblue" d="M620.688,-54.3456C572.497,-44.1405 500.717,-28.94 456.216,-19.5164"/>
<polygon fill="midnightblue" stroke="midnightblue" points="620.086,-57.7958 630.594,-56.4435 621.537,-50.9477 620.086,-57.7958"/>
</g>
<!-- Node9&#45;&gt;Node4 -->
<g id="edge11" class="edge"><title>Node9&#45;&gt;Node4</title>
<path fill="none" stroke="midnightblue" d="M715.246,-105.537C704.192,-95.9087 690.369,-83.8694 681.143,-75.8339"/>
<polygon fill="midnightblue" stroke="midnightblue" points="713.199,-108.395 723.039,-112.324 717.797,-103.117 713.199,-108.395"/>
</g>
<!-- Node10 -->
<g id="node10" class="node"><title>Node10</title>
<g id="a_node10"><a xlink:href="basic__state_8hpp.html" target="_top" xlink:title="gmgf/basic_state.hpp">
<polygon fill="white" stroke="red" points="741,-56.5 741,-75.5 851,-75.5 851,-56.5 741,-56.5"/>
<text text-anchor="middle" x="796" y="-63.5" font-family="Helvetica,sans-Serif" font-size="10.00">gmgf/basic_state.hpp</text>
</a>
</g>
</g>
<!-- Node9&#45;&gt;Node10 -->
<g id="edge10" class="edge"><title>Node9&#45;&gt;Node10</title>
<path fill="none" stroke="midnightblue" d="M751.04,-105.537C762.273,-95.9087 776.319,-83.8694 785.694,-75.8339"/>
<polygon fill="midnightblue" stroke="midnightblue" points="748.437,-103.159 743.122,-112.324 752.992,-108.473 748.437,-103.159"/>
</g>
<!-- Node11 -->
<g id="node11" class="node"><title>Node11</title>
<g id="a_node11"><a xlink:href="state_8cpp.html" target="_top" xlink:title="gmgf/state.cpp">
<polygon fill="white" stroke="black" points="869,-56.5 869,-75.5 951,-75.5 951,-56.5 869,-56.5"/>
<text text-anchor="middle" x="910" y="-63.5" font-family="Helvetica,sans-Serif" font-size="10.00">gmgf/state.cpp</text>
</a>
</g>
</g>
<!-- Node9&#45;&gt;Node11 -->
<g id="edge12" class="edge"><title>Node9&#45;&gt;Node11</title>
<path fill="none" stroke="midnightblue" d="M770.903,-109.436C804.275,-99.2551 852.101,-84.664 882.085,-75.5164"/>
<polygon fill="midnightblue" stroke="midnightblue" points="769.59,-106.178 761.046,-112.444 771.632,-112.873 769.59,-106.178"/>
</g>
</g>
</svg>
