<?xml version="1.0" encoding="UTF-8" standalone="no"?>
<!DOCTYPE svg PUBLIC "-//W3C//DTD SVG 1.1//EN"
 "http://www.w3.org/Graphics/SVG/1.1/DTD/svg11.dtd">
<!-- Generated by graphviz version 2.38.0 (20140413.2041)
 -->
<!-- Title: gmgf/graph_initr.hpp Pages: 1 -->
<svg width="1567pt" height="151pt"
 viewBox="0.00 0.00 1567.00 151.00" xmlns="http://www.w3.org/2000/svg" xmlns:xlink="http://www.w3.org/1999/xlink">
<g id="graph0" class="graph" transform="scale(1 1) rotate(0) translate(4 147)">
<title>gmgf/graph_initr.hpp</title>
<polygon fill="white" stroke="none" points="-4,4 -4,-147 1563,-147 1563,4 -4,4"/>
<!-- Node1 -->
<g id="node1" class="node"><title>Node1</title>
<polygon fill="#bfbfbf" stroke="black" points="630.5,-123.5 630.5,-142.5 735.5,-142.5 735.5,-123.5 630.5,-123.5"/>
<text text-anchor="middle" x="683" y="-130.5" font-family="Helvetica,sans-Serif" font-size="10.00">gmgf/graph_initr.hpp</text>
</g>
<!-- Node2 -->
<g id="node2" class="node"><title>Node2</title>
<g id="a_node2"><a xlink:href="basic__graph__initr_8hpp.html" target="_top" xlink:title="gmgf/basic_graph_initr.hpp">
<polygon fill="white" stroke="black" points="152,-67.5 152,-86.5 286,-86.5 286,-67.5 152,-67.5"/>
<text text-anchor="middle" x="219" y="-74.5" font-family="Helvetica,sans-Serif" font-size="10.00">gmgf/basic_graph_initr.hpp</text>
</a>
</g>
</g>
<!-- Node1&#45;&gt;Node2 -->
<g id="edge1" class="edge"><title>Node1&#45;&gt;Node2</title>
<path fill="none" stroke="midnightblue" d="M620.204,-124.692C532.998,-114.543 375.874,-96.2569 286.322,-85.8349"/>
<polygon fill="midnightblue" stroke="midnightblue" points="619.887,-128.179 630.225,-125.858 620.697,-121.225 619.887,-128.179"/>
</g>
<!-- Node5 -->
<g id="node5" class="node"><title>Node5</title>
<g id="a_node5"><a xlink:href="state__initr_8hpp.html" target="_top" xlink:title="gmgf/state_initr.hpp">
<polygon fill="white" stroke="black" points="631.5,-67.5 631.5,-86.5 734.5,-86.5 734.5,-67.5 631.5,-67.5"/>
<text text-anchor="middle" x="683" y="-74.5" font-family="Helvetica,sans-Serif" font-size="10.00">gmgf/state_initr.hpp</text>
</a>
</g>
</g>
<!-- Node1&#45;&gt;Node5 -->
<g id="edge4" class="edge"><title>Node1&#45;&gt;Node5</title>
<path fill="none" stroke="midnightblue" d="M683,-112.805C683,-103.91 683,-93.7798 683,-86.7511"/>
<polygon fill="midnightblue" stroke="midnightblue" points="679.5,-113.083 683,-123.083 686.5,-113.083 679.5,-113.083"/>
</g>
<!-- Node7 -->
<g id="node7" class="node"><title>Node7</title>
<g id="a_node7"><a xlink:href="dfs__finder_8hpp.html" target="_top" xlink:title="gmgf/dfs_finder.hpp">
<polygon fill="white" stroke="red" points="304.5,-6 304.5,-25 407.5,-25 407.5,-6 304.5,-6"/>
<text text-anchor="middle" x="356" y="-13" font-family="Helvetica,sans-Serif" font-size="10.00">gmgf/dfs_finder.hpp</text>
</a>
</g>
</g>
<!-- Node1&#45;&gt;Node7 -->
<g id="edge12" class="edge"><title>Node1&#45;&gt;Node7</title>
<path fill="none" stroke="midnightblue" d="M649.154,-120.045C583.051,-96.6971 438.214,-45.5389 380.471,-25.1434"/>
<polygon fill="midnightblue" stroke="midnightblue" points="648.094,-123.383 658.689,-123.413 650.426,-116.782 648.094,-123.383"/>
</g>
<!-- Node8 -->
<g id="node8" class="node"><title>Node8</title>
<g id="a_node8"><a xlink:href="fbs__enumer_8hpp.html" target="_top" xlink:title="gmgf/fbs_enumer.hpp">
<polygon fill="white" stroke="red" points="425.5,-6 425.5,-25 536.5,-25 536.5,-6 425.5,-6"/>
<text text-anchor="middle" x="481" y="-13" font-family="Helvetica,sans-Serif" font-size="10.00">gmgf/fbs_enumer.hpp</text>
</a>
</g>
</g>
<!-- Node1&#45;&gt;Node8 -->
<g id="edge13" class="edge"><title>Node1&#45;&gt;Node8</title>
<path fill="none" stroke="midnightblue" d="M659.064,-118.314C616.973,-94.2472 530.874,-45.0172 496.083,-25.1245"/>
<polygon fill="midnightblue" stroke="midnightblue" points="657.399,-121.393 667.817,-123.319 660.873,-115.317 657.399,-121.393"/>
</g>
<!-- Node13 -->
<g id="node13" class="node"><title>Node13</title>
<g id="a_node13"><a xlink:href="graph__initr_8cpp.html" target="_top" xlink:title="gmgf/graph_initr.cpp">
<polygon fill="white" stroke="black" points="752.5,-67.5 752.5,-86.5 857.5,-86.5 857.5,-67.5 752.5,-67.5"/>
<text text-anchor="middle" x="805" y="-74.5" font-family="Helvetica,sans-Serif" font-size="10.00">gmgf/graph_initr.cpp</text>
</a>
</g>
</g>
<!-- Node1&#45;&gt;Node13 -->
<g id="edge14" class="edge"><title>Node1&#45;&gt;Node13</title>
<path fill="none" stroke="midnightblue" d="M711.539,-119.368C734.386,-109.255 765.805,-95.3486 785.759,-86.5164"/>
<polygon fill="midnightblue" stroke="midnightblue" points="710.059,-116.196 702.331,-123.444 712.892,-122.597 710.059,-116.196"/>
</g>
<!-- Node14 -->
<g id="node14" class="node"><title>Node14</title>
<g id="a_node14"><a xlink:href="sorted__graph__initr_8hpp.html" target="_top" xlink:title="gmgf/sorted_graph_initr.hpp">
<polygon fill="white" stroke="black" points="988.5,-67.5 988.5,-86.5 1125.5,-86.5 1125.5,-67.5 988.5,-67.5"/>
<text text-anchor="middle" x="1057" y="-74.5" font-family="Helvetica,sans-Serif" font-size="10.00">gmgf/sorted_graph_initr.hpp</text>
</a>
</g>
</g>
<!-- Node1&#45;&gt;Node14 -->
<g id="edge15" class="edge"><title>Node1&#45;&gt;Node14</title>
<path fill="none" stroke="midnightblue" d="M745.849,-122.926C816.188,-112.77 929.274,-96.4417 998.004,-86.5182"/>
<polygon fill="midnightblue" stroke="midnightblue" points="745.189,-119.484 735.792,-124.378 746.189,-126.413 745.189,-119.484"/>
</g>
<!-- Node16 -->
<g id="node16" class="node"><title>Node16</title>
<g id="a_node16"><a xlink:href="stree__graph__initr_8hpp.html" target="_top" xlink:title="gmgf/stree_graph_initr.hpp">
<polygon fill="white" stroke="black" points="1370,-67.5 1370,-86.5 1502,-86.5 1502,-67.5 1370,-67.5"/>
<text text-anchor="middle" x="1436" y="-74.5" font-family="Helvetica,sans-Serif" font-size="10.00">gmgf/stree_graph_initr.hpp</text>
</a>
</g>
</g>
<!-- Node1&#45;&gt;Node16 -->
<g id="edge17" class="edge"><title>Node1&#45;&gt;Node16</title>
<path fill="none" stroke="midnightblue" d="M745.838,-127.494C886.588,-117.4 1226.06,-93.0551 1369.86,-82.7429"/>
<polygon fill="midnightblue" stroke="midnightblue" points="745.374,-124.018 735.65,-128.224 745.875,-131 745.374,-124.018"/>
</g>
<!-- Node3 -->
<g id="node3" class="node"><title>Node3</title>
<g id="a_node3"><a xlink:href="basic__graph__initr_8cpp.html" target="_top" xlink:title="gmgf/basic_graph_initr.cpp">
<polygon fill="white" stroke="black" points="152,-6 152,-25 286,-25 286,-6 152,-6"/>
<text text-anchor="middle" x="219" y="-13" font-family="Helvetica,sans-Serif" font-size="10.00">gmgf/basic_graph_initr.cpp</text>
</a>
</g>
</g>
<!-- Node2&#45;&gt;Node3 -->
<g id="edge2" class="edge"><title>Node2&#45;&gt;Node3</title>
<path fill="none" stroke="midnightblue" d="M219,-57.3165C219,-46.4962 219,-33.398 219,-25.0091"/>
<polygon fill="midnightblue" stroke="midnightblue" points="215.5,-57.4751 219,-67.4751 222.5,-57.4751 215.5,-57.4751"/>
</g>
<!-- Node4 -->
<g id="node4" class="node"><title>Node4</title>
<g id="a_node4"><a xlink:href="cycle__graph__initr_8hpp.html" target="_top" xlink:title="gmgf/cycle_graph_initr.hpp">
<polygon fill="white" stroke="red" points="0,-6 0,-25 134,-25 134,-6 0,-6"/>
<text text-anchor="middle" x="67" y="-13" font-family="Helvetica,sans-Serif" font-size="10.00">gmgf/cycle_graph_initr.hpp</text>
</a>
</g>
</g>
<!-- Node2&#45;&gt;Node4 -->
<g id="edge3" class="edge"><title>Node2&#45;&gt;Node4</title>
<path fill="none" stroke="midnightblue" d="M187.789,-63.7824C158.251,-52.2199 114.68,-35.1641 88.7375,-25.0091"/>
<polygon fill="midnightblue" stroke="midnightblue" points="186.634,-67.0891 197.222,-67.4751 189.186,-60.5707 186.634,-67.0891"/>
</g>
<!-- Node6 -->
<g id="node6" class="node"><title>Node6</title>
<g id="a_node6"><a xlink:href="basic__state__initr_8hpp.html" target="_top" xlink:title="gmgf/basic_state_initr.hpp">
<polygon fill="white" stroke="red" points="836.5,-6 836.5,-25 967.5,-25 967.5,-6 836.5,-6"/>
<text text-anchor="middle" x="902" y="-13" font-family="Helvetica,sans-Serif" font-size="10.00">gmgf/basic_state_initr.hpp</text>
</a>
</g>
</g>
<!-- Node5&#45;&gt;Node6 -->
<g id="edge5" class="edge"><title>Node5&#45;&gt;Node6</title>
<path fill="none" stroke="midnightblue" d="M724.141,-64.8225C766.682,-53.2645 832.166,-35.4732 870.681,-25.0091"/>
<polygon fill="midnightblue" stroke="midnightblue" points="723.11,-61.4756 714.377,-67.4751 724.945,-68.2307 723.11,-61.4756"/>
</g>
<!-- Node5&#45;&gt;Node7 -->
<g id="edge6" class="edge"><title>Node5&#45;&gt;Node7</title>
<path fill="none" stroke="midnightblue" d="M621.218,-66.8461C566.955,-58.5068 485.979,-45.3344 416,-31 407.391,-29.2366 398.141,-27.1151 389.545,-25.046"/>
<polygon fill="midnightblue" stroke="midnightblue" points="620.952,-70.346 631.366,-68.3972 622.01,-63.4264 620.952,-70.346"/>
</g>
<!-- Node5&#45;&gt;Node8 -->
<g id="edge7" class="edge"><title>Node5&#45;&gt;Node8</title>
<path fill="none" stroke="midnightblue" d="M644.305,-64.6023C605.05,-53.0395 545.188,-35.4069 509.888,-25.0091"/>
<polygon fill="midnightblue" stroke="midnightblue" points="643.477,-68.0069 654.058,-67.4751 645.455,-61.2921 643.477,-68.0069"/>
</g>
<!-- Node9 -->
<g id="node9" class="node"><title>Node9</title>
<g id="a_node9"><a xlink:href="matrix__opt__state__initr_8hpp.html" target="_top" xlink:title="gmgf/matrix_opt_state\l_initr.hpp">
<polygon fill="white" stroke="red" points="986,-0.5 986,-30.5 1100,-30.5 1100,-0.5 986,-0.5"/>
<text text-anchor="start" x="994" y="-18.5" font-family="Helvetica,sans-Serif" font-size="10.00">gmgf/matrix_opt_state</text>
<text text-anchor="middle" x="1043" y="-7.5" font-family="Helvetica,sans-Serif" font-size="10.00">_initr.hpp</text>
</a>
</g>
</g>
<!-- Node5&#45;&gt;Node9 -->
<g id="edge8" class="edge"><title>Node5&#45;&gt;Node9</title>
<path fill="none" stroke="midnightblue" d="M744.953,-66.6904C824.163,-54.7556 953.781,-35.1065 976,-31 979.16,-30.416 982.398,-29.7939 985.664,-29.1482"/>
<polygon fill="midnightblue" stroke="midnightblue" points="743.97,-63.2988 734.603,-68.2492 745.013,-70.2208 743.97,-63.2988"/>
</g>
<!-- Node10 -->
<g id="node10" class="node"><title>Node10</title>
<g id="a_node10"><a xlink:href="matrix__state__initr_8hpp.html" target="_top" xlink:title="gmgf/matrix_state_initr.hpp">
<polygon fill="white" stroke="red" points="1118.5,-6 1118.5,-25 1253.5,-25 1253.5,-6 1118.5,-6"/>
<text text-anchor="middle" x="1186" y="-13" font-family="Helvetica,sans-Serif" font-size="10.00">gmgf/matrix_state_initr.hpp</text>
</a>
</g>
</g>
<!-- Node5&#45;&gt;Node10 -->
<g id="edge9" class="edge"><title>Node5&#45;&gt;Node10</title>
<path fill="none" stroke="midnightblue" d="M745.019,-66.8071C906.98,-47.1559 950.514,-53.6719 1109,-31 1120.45,-29.3626 1132.78,-27.214 1144.15,-25.0742"/>
<polygon fill="midnightblue" stroke="midnightblue" points="744.186,-63.383 734.688,-68.0764 745.04,-70.3308 744.186,-63.383"/>
</g>
<!-- Node11 -->
<g id="node11" class="node"><title>Node11</title>
<g id="a_node11"><a xlink:href="minmax__state__initr_8hpp.html" target="_top" xlink:title="gmgf/minmax_state_initr.hpp">
<polygon fill="white" stroke="red" points="554.5,-6 554.5,-25 697.5,-25 697.5,-6 554.5,-6"/>
<text text-anchor="middle" x="626" y="-13" font-family="Helvetica,sans-Serif" font-size="10.00">gmgf/minmax_state_initr.hpp</text>
</a>
</g>
</g>
<!-- Node5&#45;&gt;Node11 -->
<g id="edge10" class="edge"><title>Node5&#45;&gt;Node11</title>
<path fill="none" stroke="midnightblue" d="M667.67,-59.9975C656.881,-48.7356 642.865,-34.1044 634.152,-25.0091"/>
<polygon fill="midnightblue" stroke="midnightblue" points="665.388,-62.6751 674.833,-67.4751 670.443,-57.8327 665.388,-62.6751"/>
</g>
<!-- Node12 -->
<g id="node12" class="node"><title>Node12</title>
<g id="a_node12"><a xlink:href="state__initr_8cpp.html" target="_top" xlink:title="gmgf/state_initr.cpp">
<polygon fill="white" stroke="black" points="715.5,-6 715.5,-25 818.5,-25 818.5,-6 715.5,-6"/>
<text text-anchor="middle" x="767" y="-13" font-family="Helvetica,sans-Serif" font-size="10.00">gmgf/state_initr.cpp</text>
</a>
</g>
</g>
<!-- Node5&#45;&gt;Node12 -->
<g id="edge11" class="edge"><title>Node5&#45;&gt;Node12</title>
<path fill="none" stroke="midnightblue" d="M703.311,-61.6127C719.467,-50.1691 741.523,-34.546 754.987,-25.0091"/>
<polygon fill="midnightblue" stroke="midnightblue" points="701.172,-58.8388 695.035,-67.4751 705.218,-64.551 701.172,-58.8388"/>
</g>
<!-- Node15 -->
<g id="node15" class="node"><title>Node15</title>
<g id="a_node15"><a xlink:href="sorted__graph__initr_8cpp.html" target="_top" xlink:title="gmgf/sorted_graph_initr.cpp">
<polygon fill="white" stroke="black" points="1271.5,-6 1271.5,-25 1408.5,-25 1408.5,-6 1271.5,-6"/>
<text text-anchor="middle" x="1340" y="-13" font-family="Helvetica,sans-Serif" font-size="10.00">gmgf/sorted_graph_initr.cpp</text>
</a>
</g>
</g>
<!-- Node14&#45;&gt;Node15 -->
<g id="edge16" class="edge"><title>Node14&#45;&gt;Node15</title>
<path fill="none" stroke="midnightblue" d="M1107.41,-65.4023C1162.27,-53.8671 1248.92,-35.6498 1299.53,-25.0091"/>
<polygon fill="midnightblue" stroke="midnightblue" points="1106.61,-61.9924 1097.55,-67.4751 1108.05,-68.8426 1106.61,-61.9924"/>
</g>
<!-- Node17 -->
<g id="node17" class="node"><title>Node17</title>
<g id="a_node17"><a xlink:href="stree__graph__initr_8cpp.html" target="_top" xlink:title="gmgf/stree_graph_initr.cpp">
<polygon fill="white" stroke="black" points="1427,-6 1427,-25 1559,-25 1559,-6 1427,-6"/>
<text text-anchor="middle" x="1493" y="-13" font-family="Helvetica,sans-Serif" font-size="10.00">gmgf/stree_graph_initr.cpp</text>
</a>
</g>
</g>
<!-- Node16&#45;&gt;Node17 -->
<g id="edge18" class="edge"><title>Node16&#45;&gt;Node17</title>
<path fill="none" stroke="midnightblue" d="M1451.33,-59.9975C1462.12,-48.7356 1476.14,-34.1044 1484.85,-25.0091"/>
<polygon fill="midnightblue" stroke="midnightblue" points="1448.56,-57.8327 1444.17,-67.4751 1453.61,-62.6751 1448.56,-57.8327"/>
</g>
</g>
</svg>
