<?xml version="1.0" encoding="UTF-8" standalone="no"?>
<!DOCTYPE svg PUBLIC "-//W3C//DTD SVG 1.1//EN"
 "http://www.w3.org/Graphics/SVG/1.1/DTD/svg11.dtd">
<!-- Generated by graphviz version 2.38.0 (20140413.2041)
 -->
<!-- Title: gmgf/graph_config.hpp Pages: 1 -->
<svg width="997pt" height="196pt"
 viewBox="0.00 0.00 996.50 196.00" xmlns="http://www.w3.org/2000/svg" xmlns:xlink="http://www.w3.org/1999/xlink">
<g id="graph0" class="graph" transform="scale(1 1) rotate(0) translate(4 192)">
<title>gmgf/graph_config.hpp</title>
<polygon fill="white" stroke="none" points="-4,4 -4,-192 992.5,-192 992.5,4 -4,4"/>
<!-- Node1 -->
<g id="node1" class="node"><title>Node1</title>
<polygon fill="#bfbfbf" stroke="black" points="705.5,-168.5 705.5,-187.5 821.5,-187.5 821.5,-168.5 705.5,-168.5"/>
<text text-anchor="middle" x="763.5" y="-175.5" font-family="Helvetica,sans-Serif" font-size="10.00">gmgf/graph_config.hpp</text>
</g>
<!-- Node2 -->
<g id="node2" class="node"><title>Node2</title>
<g id="a_node2"><a xlink:href="graph__initr_8hpp.html" target="_top" xlink:title="gmgf/graph_initr.hpp">
<polygon fill="white" stroke="black" points="406,-112.5 406,-131.5 511,-131.5 511,-112.5 406,-112.5"/>
<text text-anchor="middle" x="458.5" y="-119.5" font-family="Helvetica,sans-Serif" font-size="10.00">gmgf/graph_initr.hpp</text>
</a>
</g>
</g>
<!-- Node1&#45;&gt;Node2 -->
<g id="edge1" class="edge"><title>Node1&#45;&gt;Node2</title>
<path fill="none" stroke="midnightblue" d="M705.122,-166.664C647.482,-156.459 560.385,-141.039 506.602,-131.516"/>
<polygon fill="midnightblue" stroke="midnightblue" points="704.715,-170.146 715.172,-168.444 705.935,-163.254 704.715,-170.146"/>
</g>
<!-- Node10 -->
<g id="node10" class="node"><title>Node10</title>
<g id="a_node10"><a xlink:href="state_8hpp.html" target="_top" xlink:title="gmgf/state.hpp">
<polygon fill="white" stroke="black" points="722.5,-112.5 722.5,-131.5 804.5,-131.5 804.5,-112.5 722.5,-112.5"/>
<text text-anchor="middle" x="763.5" y="-119.5" font-family="Helvetica,sans-Serif" font-size="10.00">gmgf/state.hpp</text>
</a>
</g>
</g>
<!-- Node1&#45;&gt;Node10 -->
<g id="edge11" class="edge"><title>Node1&#45;&gt;Node10</title>
<path fill="none" stroke="midnightblue" d="M763.5,-157.805C763.5,-148.91 763.5,-138.78 763.5,-131.751"/>
<polygon fill="midnightblue" stroke="midnightblue" points="760,-158.083 763.5,-168.083 767,-158.083 760,-158.083"/>
</g>
<!-- Node13 -->
<g id="node13" class="node"><title>Node13</title>
<g id="a_node13"><a xlink:href="graph__config_8cpp.html" target="_top" xlink:title="gmgf/graph_config.cpp">
<polygon fill="white" stroke="black" points="822.5,-112.5 822.5,-131.5 938.5,-131.5 938.5,-112.5 822.5,-112.5"/>
<text text-anchor="middle" x="880.5" y="-119.5" font-family="Helvetica,sans-Serif" font-size="10.00">gmgf/graph_config.cpp</text>
</a>
</g>
</g>
<!-- Node1&#45;&gt;Node13 -->
<g id="edge15" class="edge"><title>Node1&#45;&gt;Node13</title>
<path fill="none" stroke="midnightblue" d="M791.164,-164.232C813.049,-154.131 842.997,-140.309 862.048,-131.516"/>
<polygon fill="midnightblue" stroke="midnightblue" points="789.652,-161.075 782.039,-168.444 792.585,-167.431 789.652,-161.075"/>
</g>
<!-- Node3 -->
<g id="node3" class="node"><title>Node3</title>
<g id="a_node3"><a xlink:href="basic__graph__initr_8hpp.html" target="_top" xlink:title="gmgf/basic_graph_initr.hpp">
<polygon fill="white" stroke="red" points="466.5,-56.5 466.5,-75.5 600.5,-75.5 600.5,-56.5 466.5,-56.5"/>
<text text-anchor="middle" x="533.5" y="-63.5" font-family="Helvetica,sans-Serif" font-size="10.00">gmgf/basic_graph_initr.hpp</text>
</a>
</g>
</g>
<!-- Node2&#45;&gt;Node3 -->
<g id="edge2" class="edge"><title>Node2&#45;&gt;Node3</title>
<path fill="none" stroke="midnightblue" d="M478.805,-106.38C492.361,-96.6204 509.742,-84.1057 521.231,-75.8339"/>
<polygon fill="midnightblue" stroke="midnightblue" points="476.62,-103.641 470.55,-112.324 480.71,-109.321 476.62,-103.641"/>
</g>
<!-- Node4 -->
<g id="node4" class="node"><title>Node4</title>
<g id="a_node4"><a xlink:href="state__initr_8hpp.html" target="_top" xlink:title="gmgf/state_initr.hpp">
<polygon fill="white" stroke="red" points="657,-56.5 657,-75.5 760,-75.5 760,-56.5 657,-56.5"/>
<text text-anchor="middle" x="708.5" y="-63.5" font-family="Helvetica,sans-Serif" font-size="10.00">gmgf/state_initr.hpp</text>
</a>
</g>
</g>
<!-- Node2&#45;&gt;Node4 -->
<g id="edge3" class="edge"><title>Node2&#45;&gt;Node4</title>
<path fill="none" stroke="midnightblue" d="M508.123,-110.281C555.366,-100.077 625.536,-84.9203 669.072,-75.5164"/>
<polygon fill="midnightblue" stroke="midnightblue" points="507.149,-106.911 498.113,-112.444 508.627,-113.753 507.149,-106.911"/>
</g>
<!-- Node5 -->
<g id="node5" class="node"><title>Node5</title>
<g id="a_node5"><a xlink:href="dfs__finder_8hpp.html" target="_top" xlink:title="gmgf/dfs_finder.hpp">
<polygon fill="white" stroke="red" points="617,-0.5 617,-19.5 720,-19.5 720,-0.5 617,-0.5"/>
<text text-anchor="middle" x="668.5" y="-7.5" font-family="Helvetica,sans-Serif" font-size="10.00">gmgf/dfs_finder.hpp</text>
</a>
</g>
</g>
<!-- Node2&#45;&gt;Node5 -->
<g id="edge6" class="edge"><title>Node2&#45;&gt;Node5</title>
<path fill="none" stroke="midnightblue" d="M520.939,-110.402C549.472,-103.611 582.784,-92.8125 609.5,-76 633.492,-60.902 653.766,-33.4302 663.06,-19.5354"/>
<polygon fill="midnightblue" stroke="midnightblue" points="520.043,-107.016 511.065,-112.64 521.591,-113.843 520.043,-107.016"/>
</g>
<!-- Node6 -->
<g id="node6" class="node"><title>Node6</title>
<g id="a_node6"><a xlink:href="fbs__enumer_8hpp.html" target="_top" xlink:title="gmgf/fbs_enumer.hpp">
<polygon fill="white" stroke="red" points="381,-0.5 381,-19.5 492,-19.5 492,-0.5 381,-0.5"/>
<text text-anchor="middle" x="436.5" y="-7.5" font-family="Helvetica,sans-Serif" font-size="10.00">gmgf/fbs_enumer.hpp</text>
</a>
</g>
</g>
<!-- Node2&#45;&gt;Node6 -->
<g id="edge7" class="edge"><title>Node2&#45;&gt;Node6</title>
<path fill="none" stroke="midnightblue" d="M395.687,-119.145C363.876,-114.616 327.784,-103.211 307.5,-76 284.343,-44.9356 336.123,-27.6918 380.823,-18.9014"/>
<polygon fill="midnightblue" stroke="midnightblue" points="395.489,-122.646 405.84,-120.385 396.338,-115.698 395.489,-122.646"/>
</g>
<!-- Node7 -->
<g id="node7" class="node"><title>Node7</title>
<g id="a_node7"><a xlink:href="graph__initr_8cpp.html" target="_top" xlink:title="gmgf/graph_initr.cpp">
<polygon fill="white" stroke="black" points="0,-56.5 0,-75.5 105,-75.5 105,-56.5 0,-56.5"/>
<text text-anchor="middle" x="52.5" y="-63.5" font-family="Helvetica,sans-Serif" font-size="10.00">gmgf/graph_initr.cpp</text>
</a>
</g>
</g>
<!-- Node2&#45;&gt;Node7 -->
<g id="edge8" class="edge"><title>Node2&#45;&gt;Node7</title>
<path fill="none" stroke="midnightblue" d="M395.569,-113.114C326.379,-104.368 211.949,-89.6822 113.5,-76 110.743,-75.6169 107.917,-75.2187 105.064,-74.8126"/>
<polygon fill="midnightblue" stroke="midnightblue" points="395.499,-116.632 405.859,-114.413 396.376,-109.688 395.499,-116.632"/>
</g>
<!-- Node8 -->
<g id="node8" class="node"><title>Node8</title>
<g id="a_node8"><a xlink:href="sorted__graph__initr_8hpp.html" target="_top" xlink:title="gmgf/sorted_graph_initr.hpp">
<polygon fill="white" stroke="red" points="123,-56.5 123,-75.5 260,-75.5 260,-56.5 123,-56.5"/>
<text text-anchor="middle" x="191.5" y="-63.5" font-family="Helvetica,sans-Serif" font-size="10.00">gmgf/sorted_graph_initr.hpp</text>
</a>
</g>
</g>
<!-- Node2&#45;&gt;Node8 -->
<g id="edge9" class="edge"><title>Node2&#45;&gt;Node8</title>
<path fill="none" stroke="midnightblue" d="M406.136,-110.41C355.676,-100.204 280.301,-84.9597 233.609,-75.5164"/>
<polygon fill="midnightblue" stroke="midnightblue" points="405.698,-113.892 416.193,-112.444 407.085,-107.031 405.698,-113.892"/>
</g>
<!-- Node9 -->
<g id="node9" class="node"><title>Node9</title>
<g id="a_node9"><a xlink:href="stree__graph__initr_8hpp.html" target="_top" xlink:title="gmgf/stree_graph_initr.hpp">
<polygon fill="white" stroke="red" points="316.5,-56.5 316.5,-75.5 448.5,-75.5 448.5,-56.5 316.5,-56.5"/>
<text text-anchor="middle" x="382.5" y="-63.5" font-family="Helvetica,sans-Serif" font-size="10.00">gmgf/stree_graph_initr.hpp</text>
</a>
</g>
</g>
<!-- Node2&#45;&gt;Node9 -->
<g id="edge10" class="edge"><title>Node2&#45;&gt;Node9</title>
<path fill="none" stroke="midnightblue" d="M437.924,-106.38C424.188,-96.6204 406.575,-84.1057 394.933,-75.8339"/>
<polygon fill="midnightblue" stroke="midnightblue" points="436.11,-109.385 446.289,-112.324 440.165,-103.679 436.11,-109.385"/>
</g>
<!-- Node4&#45;&gt;Node5 -->
<g id="edge4" class="edge"><title>Node4&#45;&gt;Node5</title>
<path fill="none" stroke="midnightblue" d="M695.8,-47.8554C688.874,-38.5048 680.594,-27.3265 674.982,-19.7511"/>
<polygon fill="midnightblue" stroke="midnightblue" points="693.13,-50.1307 701.895,-56.083 698.755,-45.9641 693.13,-50.1307"/>
</g>
<!-- Node4&#45;&gt;Node6 -->
<g id="edge5" class="edge"><title>Node4&#45;&gt;Node6</title>
<path fill="none" stroke="midnightblue" d="M655.477,-54.4734C604.071,-44.2678 527.063,-28.9794 479.398,-19.5164"/>
<polygon fill="midnightblue" stroke="midnightblue" points="654.911,-57.9292 665.401,-56.4435 656.274,-51.0632 654.911,-57.9292"/>
</g>
<!-- Node10&#45;&gt;Node4 -->
<g id="edge13" class="edge"><title>Node10&#45;&gt;Node4</title>
<path fill="none" stroke="midnightblue" d="M747.206,-105.002C737.459,-95.4329 725.447,-83.6389 717.413,-75.7511"/>
<polygon fill="midnightblue" stroke="midnightblue" points="744.83,-107.575 754.418,-112.083 749.734,-102.58 744.83,-107.575"/>
</g>
<!-- Node11 -->
<g id="node11" class="node"><title>Node11</title>
<g id="a_node11"><a xlink:href="basic__state_8hpp.html" target="_top" xlink:title="gmgf/basic_state.hpp">
<polygon fill="white" stroke="red" points="878.5,-56.5 878.5,-75.5 988.5,-75.5 988.5,-56.5 878.5,-56.5"/>
<text text-anchor="middle" x="933.5" y="-63.5" font-family="Helvetica,sans-Serif" font-size="10.00">gmgf/basic_state.hpp</text>
</a>
</g>
</g>
<!-- Node10&#45;&gt;Node11 -->
<g id="edge12" class="edge"><title>Node10&#45;&gt;Node11</title>
<path fill="none" stroke="midnightblue" d="M800.319,-109.304C832.352,-99.1294 878.015,-84.6246 906.689,-75.5164"/>
<polygon fill="midnightblue" stroke="midnightblue" points="798.908,-106.08 790.437,-112.444 801.027,-112.752 798.908,-106.08"/>
</g>
<!-- Node12 -->
<g id="node12" class="node"><title>Node12</title>
<g id="a_node12"><a xlink:href="state_8cpp.html" target="_top" xlink:title="gmgf/state.cpp">
<polygon fill="white" stroke="black" points="778.5,-56.5 778.5,-75.5 860.5,-75.5 860.5,-56.5 778.5,-56.5"/>
<text text-anchor="middle" x="819.5" y="-63.5" font-family="Helvetica,sans-Serif" font-size="10.00">gmgf/state.cpp</text>
</a>
</g>
</g>
<!-- Node10&#45;&gt;Node12 -->
<g id="edge14" class="edge"><title>Node10&#45;&gt;Node12</title>
<path fill="none" stroke="midnightblue" d="M779.83,-105.253C789.765,-95.6731 802.088,-83.7906 810.339,-75.8339"/>
<polygon fill="midnightblue" stroke="midnightblue" points="777.266,-102.863 772.497,-112.324 782.125,-107.902 777.266,-102.863"/>
</g>
</g>
</svg>
