<?xml version="1.0" encoding="UTF-8" standalone="no"?>
<!DOCTYPE svg PUBLIC "-//W3C//DTD SVG 1.1//EN"
 "http://www.w3.org/Graphics/SVG/1.1/DTD/svg11.dtd">
<!-- Generated by graphviz version 2.38.0 (20140413.2041)
 -->
<!-- Title: gmgf/graph_initr.cpp Pages: 1 -->
<svg width="224pt" height="196pt"
 viewBox="0.00 0.00 223.50 196.00" xmlns="http://www.w3.org/2000/svg" xmlns:xlink="http://www.w3.org/1999/xlink">
<g id="graph0" class="graph" transform="scale(1 1) rotate(0) translate(4 192)">
<title>gmgf/graph_initr.cpp</title>
<polygon fill="white" stroke="none" points="-4,4 -4,-192 219.5,-192 219.5,4 -4,4"/>
<!-- Node1 -->
<g id="node1" class="node"><title>Node1</title>
<polygon fill="#bfbfbf" stroke="black" points="79,-168.5 79,-187.5 184,-187.5 184,-168.5 79,-168.5"/>
<text text-anchor="middle" x="131.5" y="-175.5" font-family="Helvetica,sans-Serif" font-size="10.00">gmgf/graph_initr.cpp</text>
</g>
<!-- Node2 -->
<g id="node2" class="node"><title>Node2</title>
<g id="a_node2"><a xlink:href="graph__initr_8hpp.html" target="_top" xlink:title="graph_initr.hpp">
<polygon fill="white" stroke="black" points="91.5,-112.5 91.5,-131.5 171.5,-131.5 171.5,-112.5 91.5,-112.5"/>
<text text-anchor="middle" x="131.5" y="-119.5" font-family="Helvetica,sans-Serif" font-size="10.00">graph_initr.hpp</text>
</a>
</g>
</g>
<!-- Node1&#45;&gt;Node2 -->
<g id="edge1" class="edge"><title>Node1&#45;&gt;Node2</title>
<path fill="none" stroke="midnightblue" d="M131.5,-168.083C131.5,-161.006 131.5,-150.861 131.5,-141.986"/>
<polygon fill="midnightblue" stroke="midnightblue" points="135,-141.751 131.5,-131.751 128,-141.751 135,-141.751"/>
</g>
<!-- Node3 -->
<g id="node3" class="node"><title>Node3</title>
<polygon fill="white" stroke="#bfbfbf" points="0,-0.5 0,-19.5 51,-19.5 51,-0.5 0,-0.5"/>
<text text-anchor="middle" x="25.5" y="-7.5" font-family="Helvetica,sans-Serif" font-size="10.00">igraph.h</text>
</g>
<!-- Node2&#45;&gt;Node3 -->
<g id="edge2" class="edge"><title>Node2&#45;&gt;Node3</title>
<path fill="none" stroke="midnightblue" d="M97.3842,-112.411C77.6091,-105.697 53.8547,-94.3434 39.5,-76 29.1713,-62.8013 26.0551,-43.6666 25.2927,-29.5742"/>
<polygon fill="midnightblue" stroke="midnightblue" points="28.7919,-29.4914 25.0931,-19.5632 21.7933,-29.6311 28.7919,-29.4914"/>
</g>
<!-- Node4 -->
<g id="node4" class="node"><title>Node4</title>
<polygon fill="white" stroke="#bfbfbf" points="87.5,-0.5 87.5,-19.5 127.5,-19.5 127.5,-0.5 87.5,-0.5"/>
<text text-anchor="middle" x="107.5" y="-7.5" font-family="Helvetica,sans-Serif" font-size="10.00">utility</text>
</g>
<!-- Node2&#45;&gt;Node4 -->
<g id="edge3" class="edge"><title>Node2&#45;&gt;Node4</title>
<path fill="none" stroke="midnightblue" d="M137.11,-112.392C144.597,-99.76 156.082,-75.579 148.5,-56 144.046,-44.498 135.132,-34.1311 126.751,-26.2546"/>
<polygon fill="midnightblue" stroke="midnightblue" points="128.872,-23.4599 119.041,-19.5103 124.263,-28.7286 128.872,-23.4599"/>
</g>
<!-- Node5 -->
<g id="node5" class="node"><title>Node5</title>
<polygon fill="white" stroke="#bfbfbf" points="171.5,-0.5 171.5,-19.5 215.5,-19.5 215.5,-0.5 171.5,-0.5"/>
<text text-anchor="middle" x="193.5" y="-7.5" font-family="Helvetica,sans-Serif" font-size="10.00">vector</text>
</g>
<!-- Node2&#45;&gt;Node5 -->
<g id="edge4" class="edge"><title>Node2&#45;&gt;Node5</title>
<path fill="none" stroke="midnightblue" d="M138.657,-112.417C145.77,-103.631 156.715,-89.404 164.5,-76 173.315,-60.8235 181.275,-42.4793 186.616,-29.1538"/>
<polygon fill="midnightblue" stroke="midnightblue" points="189.93,-30.2877 190.304,-19.6994 183.409,-27.7439 189.93,-30.2877"/>
</g>
<!-- Node6 -->
<g id="node6" class="node"><title>Node6</title>
<g id="a_node6"><a xlink:href="graph__config_8hpp.html" target="_top" xlink:title="graph_config.hpp">
<polygon fill="white" stroke="black" points="49,-56.5 49,-75.5 140,-75.5 140,-56.5 49,-56.5"/>
<text text-anchor="middle" x="94.5" y="-63.5" font-family="Helvetica,sans-Serif" font-size="10.00">graph_config.hpp</text>
</a>
</g>
</g>
<!-- Node2&#45;&gt;Node6 -->
<g id="edge5" class="edge"><title>Node2&#45;&gt;Node6</title>
<path fill="none" stroke="midnightblue" d="M125.39,-112.083C120.218,-104.534 112.654,-93.4948 106.306,-84.2298"/>
<polygon fill="midnightblue" stroke="midnightblue" points="109.036,-82.0221 100.496,-75.7511 103.261,-85.9787 109.036,-82.0221"/>
</g>
<!-- Node6&#45;&gt;Node3 -->
<g id="edge6" class="edge"><title>Node6&#45;&gt;Node3</title>
<path fill="none" stroke="midnightblue" d="M83.414,-56.324C73.014,-48.1849 57.2394,-35.8395 44.7784,-26.0874"/>
<polygon fill="midnightblue" stroke="midnightblue" points="46.8199,-23.2407 36.7878,-19.8339 42.5057,-28.7533 46.8199,-23.2407"/>
</g>
<!-- Node6&#45;&gt;Node4 -->
<g id="edge7" class="edge"><title>Node6&#45;&gt;Node4</title>
<path fill="none" stroke="midnightblue" d="M96.6467,-56.083C98.3694,-48.9272 100.847,-38.6353 103,-29.6911"/>
<polygon fill="midnightblue" stroke="midnightblue" points="106.455,-30.2925 105.393,-19.7511 99.6499,-28.6541 106.455,-30.2925"/>
</g>
<!-- Node6&#45;&gt;Node5 -->
<g id="edge8" class="edge"><title>Node6&#45;&gt;Node5</title>
<path fill="none" stroke="midnightblue" d="M110.406,-56.324C126.138,-47.7428 150.442,-34.486 168.709,-24.5224"/>
<polygon fill="midnightblue" stroke="midnightblue" points="170.53,-27.5157 177.633,-19.6545 167.178,-21.3704 170.53,-27.5157"/>
</g>
</g>
</svg>
