<?xml version="1.0" encoding="UTF-8" standalone="no"?>
<!DOCTYPE svg PUBLIC "-//W3C//DTD SVG 1.1//EN"
 "http://www.w3.org/Graphics/SVG/1.1/DTD/svg11.dtd">
<!-- Generated by graphviz version 2.38.0 (20140413.2041)
 -->
<!-- Title: gmgf/graph_initr.hpp Pages: 1 -->
<svg width="1309pt" height="140pt"
 viewBox="0.00 0.00 1309.00 140.00" xmlns="http://www.w3.org/2000/svg" xmlns:xlink="http://www.w3.org/1999/xlink">
<g id="graph0" class="graph" transform="scale(1 1) rotate(0) translate(4 136)">
<title>gmgf/graph_initr.hpp</title>
<polygon fill="white" stroke="none" points="-4,4 -4,-136 1305,-136 1305,4 -4,4"/>
<!-- Node1 -->
<g id="node1" class="node"><title>Node1</title>
<polygon fill="#bfbfbf" stroke="black" points="654.5,-112.5 654.5,-131.5 759.5,-131.5 759.5,-112.5 654.5,-112.5"/>
<text text-anchor="middle" x="707" y="-119.5" font-family="Helvetica,sans-Serif" font-size="10.00">gmgf/graph_initr.hpp</text>
</g>
<!-- Node2 -->
<g id="node2" class="node"><title>Node2</title>
<g id="a_node2"><a xlink:href="basic__graph__initr_8hpp.html" target="_top" xlink:title="gmgf/basic_graph_initr.hpp">
<polygon fill="white" stroke="black" points="152,-56.5 152,-75.5 286,-75.5 286,-56.5 152,-56.5"/>
<text text-anchor="middle" x="219" y="-63.5" font-family="Helvetica,sans-Serif" font-size="10.00">gmgf/basic_graph_initr.hpp</text>
</a>
</g>
</g>
<!-- Node1&#45;&gt;Node2 -->
<g id="edge1" class="edge"><title>Node1&#45;&gt;Node2</title>
<path fill="none" stroke="midnightblue" d="M644.291,-114.061C552.146,-103.865 380.878,-84.9127 286.224,-74.4387"/>
<polygon fill="midnightblue" stroke="midnightblue" points="643.987,-117.549 654.312,-115.17 644.757,-110.591 643.987,-117.549"/>
</g>
<!-- Node5 -->
<g id="node5" class="node"><title>Node5</title>
<g id="a_node5"><a xlink:href="state__initr_8hpp.html" target="_top" xlink:title="gmgf/state_initr.hpp">
<polygon fill="white" stroke="black" points="594.5,-56.5 594.5,-75.5 697.5,-75.5 697.5,-56.5 594.5,-56.5"/>
<text text-anchor="middle" x="646" y="-63.5" font-family="Helvetica,sans-Serif" font-size="10.00">gmgf/state_initr.hpp</text>
</a>
</g>
</g>
<!-- Node1&#45;&gt;Node5 -->
<g id="edge4" class="edge"><title>Node1&#45;&gt;Node5</title>
<path fill="none" stroke="midnightblue" d="M689.533,-105.537C678.656,-95.9087 665.056,-83.8694 655.979,-75.8339"/>
<polygon fill="midnightblue" stroke="midnightblue" points="687.392,-108.316 697.199,-112.324 692.032,-103.075 687.392,-108.316"/>
</g>
<!-- Node7 -->
<g id="node7" class="node"><title>Node7</title>
<g id="a_node7"><a xlink:href="dfs__finder_8hpp.html" target="_top" xlink:title="gmgf/dfs_finder.hpp">
<polygon fill="white" stroke="red" points="304.5,-0.5 304.5,-19.5 407.5,-19.5 407.5,-0.5 304.5,-0.5"/>
<text text-anchor="middle" x="356" y="-7.5" font-family="Helvetica,sans-Serif" font-size="10.00">gmgf/dfs_finder.hpp</text>
</a>
</g>
</g>
<!-- Node1&#45;&gt;Node7 -->
<g id="edge10" class="edge"><title>Node1&#45;&gt;Node7</title>
<path fill="none" stroke="midnightblue" d="M669.916,-109.378C599.081,-87.1791 446.022,-39.2121 383.475,-19.6104"/>
<polygon fill="midnightblue" stroke="midnightblue" points="669.161,-112.809 679.75,-112.46 671.254,-106.13 669.161,-112.809"/>
</g>
<!-- Node11 -->
<g id="node11" class="node"><title>Node11</title>
<g id="a_node11"><a xlink:href="graph__initr_8cpp.html" target="_top" xlink:title="gmgf/graph_initr.cpp">
<polygon fill="white" stroke="black" points="715.5,-56.5 715.5,-75.5 820.5,-75.5 820.5,-56.5 715.5,-56.5"/>
<text text-anchor="middle" x="768" y="-63.5" font-family="Helvetica,sans-Serif" font-size="10.00">gmgf/graph_initr.cpp</text>
</a>
</g>
</g>
<!-- Node1&#45;&gt;Node11 -->
<g id="edge11" class="edge"><title>Node1&#45;&gt;Node11</title>
<path fill="none" stroke="midnightblue" d="M724.467,-105.537C735.344,-95.9087 748.944,-83.8694 758.021,-75.8339"/>
<polygon fill="midnightblue" stroke="midnightblue" points="721.968,-103.075 716.801,-112.324 726.608,-108.316 721.968,-103.075"/>
</g>
<!-- Node12 -->
<g id="node12" class="node"><title>Node12</title>
<g id="a_node12"><a xlink:href="sorted__graph__initr_8hpp.html" target="_top" xlink:title="gmgf/sorted_graph_initr.hpp">
<polygon fill="white" stroke="black" points="882.5,-56.5 882.5,-75.5 1019.5,-75.5 1019.5,-56.5 882.5,-56.5"/>
<text text-anchor="middle" x="951" y="-63.5" font-family="Helvetica,sans-Serif" font-size="10.00">gmgf/sorted_graph_initr.hpp</text>
</a>
</g>
</g>
<!-- Node1&#45;&gt;Node12 -->
<g id="edge12" class="edge"><title>Node1&#45;&gt;Node12</title>
<path fill="none" stroke="midnightblue" d="M755.432,-110.281C801.541,-100.077 870.027,-84.9203 912.518,-75.5164"/>
<polygon fill="midnightblue" stroke="midnightblue" points="754.67,-106.865 745.663,-112.444 756.183,-113.7 754.67,-106.865"/>
</g>
<!-- Node14 -->
<g id="node14" class="node"><title>Node14</title>
<g id="a_node14"><a xlink:href="stree__graph__initr_8hpp.html" target="_top" xlink:title="gmgf/stree_graph_initr.hpp">
<polygon fill="white" stroke="black" points="1125,-56.5 1125,-75.5 1257,-75.5 1257,-56.5 1125,-56.5"/>
<text text-anchor="middle" x="1191" y="-63.5" font-family="Helvetica,sans-Serif" font-size="10.00">gmgf/stree_graph_initr.hpp</text>
</a>
</g>
</g>
<!-- Node1&#45;&gt;Node14 -->
<g id="edge14" class="edge"><title>Node1&#45;&gt;Node14</title>
<path fill="none" stroke="midnightblue" d="M769.691,-114.006C861.378,-103.776 1031.28,-84.8196 1124.88,-74.3773"/>
<polygon fill="midnightblue" stroke="midnightblue" points="769.268,-110.531 759.718,-115.118 770.044,-117.488 769.268,-110.531"/>
</g>
<!-- Node3 -->
<g id="node3" class="node"><title>Node3</title>
<g id="a_node3"><a xlink:href="basic__graph__initr_8cpp.html" target="_top" xlink:title="gmgf/basic_graph_initr.cpp">
<polygon fill="white" stroke="black" points="0,-0.5 0,-19.5 134,-19.5 134,-0.5 0,-0.5"/>
<text text-anchor="middle" x="67" y="-7.5" font-family="Helvetica,sans-Serif" font-size="10.00">gmgf/basic_graph_initr.cpp</text>
</a>
</g>
</g>
<!-- Node2&#45;&gt;Node3 -->
<g id="edge2" class="edge"><title>Node2&#45;&gt;Node3</title>
<path fill="none" stroke="midnightblue" d="M185.332,-53.0392C156.732,-42.8786 116.388,-28.5457 90.9722,-19.5164"/>
<polygon fill="midnightblue" stroke="midnightblue" points="184.32,-56.3939 194.915,-56.4435 186.664,-49.7978 184.32,-56.3939"/>
</g>
<!-- Node4 -->
<g id="node4" class="node"><title>Node4</title>
<g id="a_node4"><a xlink:href="cycle__graph__initr_8hpp.html" target="_top" xlink:title="gmgf/cycle_graph_initr.hpp">
<polygon fill="white" stroke="red" points="152,-0.5 152,-19.5 286,-19.5 286,-0.5 152,-0.5"/>
<text text-anchor="middle" x="219" y="-7.5" font-family="Helvetica,sans-Serif" font-size="10.00">gmgf/cycle_graph_initr.hpp</text>
</a>
</g>
</g>
<!-- Node2&#45;&gt;Node4 -->
<g id="edge3" class="edge"><title>Node2&#45;&gt;Node4</title>
<path fill="none" stroke="midnightblue" d="M219,-45.8045C219,-36.9102 219,-26.7798 219,-19.7511"/>
<polygon fill="midnightblue" stroke="midnightblue" points="215.5,-46.083 219,-56.083 222.5,-46.083 215.5,-46.083"/>
</g>
<!-- Node6 -->
<g id="node6" class="node"><title>Node6</title>
<g id="a_node6"><a xlink:href="basic__state__initr_8hpp.html" target="_top" xlink:title="gmgf/basic_state_initr.hpp">
<polygon fill="white" stroke="red" points="425.5,-0.5 425.5,-19.5 556.5,-19.5 556.5,-0.5 425.5,-0.5"/>
<text text-anchor="middle" x="491" y="-7.5" font-family="Helvetica,sans-Serif" font-size="10.00">gmgf/basic_state_initr.hpp</text>
</a>
</g>
</g>
<!-- Node5&#45;&gt;Node6 -->
<g id="edge5" class="edge"><title>Node5&#45;&gt;Node6</title>
<path fill="none" stroke="midnightblue" d="M611.668,-53.0392C582.503,-42.8786 541.363,-28.5457 515.445,-19.5164"/>
<polygon fill="midnightblue" stroke="midnightblue" points="610.845,-56.4587 621.44,-56.4435 613.148,-49.8484 610.845,-56.4587"/>
</g>
<!-- Node5&#45;&gt;Node7 -->
<g id="edge6" class="edge"><title>Node5&#45;&gt;Node7</title>
<path fill="none" stroke="midnightblue" d="M590.152,-54.6007C535.345,-44.3953 452.768,-29.0189 401.736,-19.5164"/>
<polygon fill="midnightblue" stroke="midnightblue" points="589.577,-58.0537 600.049,-56.4435 590.858,-51.172 589.577,-58.0537"/>
</g>
<!-- Node8 -->
<g id="node8" class="node"><title>Node8</title>
<g id="a_node8"><a xlink:href="minmax__state__initr_8hpp.html" target="_top" xlink:title="gmgf/minmax_state_initr.hpp">
<polygon fill="white" stroke="red" points="574.5,-0.5 574.5,-19.5 717.5,-19.5 717.5,-0.5 574.5,-0.5"/>
<text text-anchor="middle" x="646" y="-7.5" font-family="Helvetica,sans-Serif" font-size="10.00">gmgf/minmax_state_initr.hpp</text>
</a>
</g>
</g>
<!-- Node5&#45;&gt;Node8 -->
<g id="edge7" class="edge"><title>Node5&#45;&gt;Node8</title>
<path fill="none" stroke="midnightblue" d="M646,-45.8045C646,-36.9102 646,-26.7798 646,-19.7511"/>
<polygon fill="midnightblue" stroke="midnightblue" points="642.5,-46.083 646,-56.083 649.5,-46.083 642.5,-46.083"/>
</g>
<!-- Node9 -->
<g id="node9" class="node"><title>Node9</title>
<g id="a_node9"><a xlink:href="mmmtr__state__initr_8hpp.html" target="_top" xlink:title="gmgf/mmmtr_state_initr.hpp">
<polygon fill="white" stroke="red" points="735.5,-0.5 735.5,-19.5 874.5,-19.5 874.5,-0.5 735.5,-0.5"/>
<text text-anchor="middle" x="805" y="-7.5" font-family="Helvetica,sans-Serif" font-size="10.00">gmgf/mmmtr_state_initr.hpp</text>
</a>
</g>
</g>
<!-- Node5&#45;&gt;Node9 -->
<g id="edge8" class="edge"><title>Node5&#45;&gt;Node9</title>
<path fill="none" stroke="midnightblue" d="M680.827,-53.172C710.766,-43.0039 753.221,-28.5852 779.924,-19.5164"/>
<polygon fill="midnightblue" stroke="midnightblue" points="679.537,-49.9136 671.194,-56.4435 681.788,-56.5417 679.537,-49.9136"/>
</g>
<!-- Node10 -->
<g id="node10" class="node"><title>Node10</title>
<g id="a_node10"><a xlink:href="state__initr_8cpp.html" target="_top" xlink:title="gmgf/state_initr.cpp">
<polygon fill="white" stroke="black" points="892.5,-0.5 892.5,-19.5 995.5,-19.5 995.5,-0.5 892.5,-0.5"/>
<text text-anchor="middle" x="944" y="-7.5" font-family="Helvetica,sans-Serif" font-size="10.00">gmgf/state_initr.cpp</text>
</a>
</g>
</g>
<!-- Node5&#45;&gt;Node10 -->
<g id="edge9" class="edge"><title>Node5&#45;&gt;Node10</title>
<path fill="none" stroke="midnightblue" d="M703.389,-54.6007C759.707,-44.3953 844.562,-29.0189 897.002,-19.5164"/>
<polygon fill="midnightblue" stroke="midnightblue" points="702.435,-51.2165 693.219,-56.4435 703.683,-58.1043 702.435,-51.2165"/>
</g>
<!-- Node13 -->
<g id="node13" class="node"><title>Node13</title>
<g id="a_node13"><a xlink:href="sorted__graph__initr_8cpp.html" target="_top" xlink:title="gmgf/sorted_graph_initr.cpp">
<polygon fill="white" stroke="black" points="1013.5,-0.5 1013.5,-19.5 1150.5,-19.5 1150.5,-0.5 1013.5,-0.5"/>
<text text-anchor="middle" x="1082" y="-7.5" font-family="Helvetica,sans-Serif" font-size="10.00">gmgf/sorted_graph_initr.cpp</text>
</a>
</g>
</g>
<!-- Node12&#45;&gt;Node13 -->
<g id="edge13" class="edge"><title>Node12&#45;&gt;Node13</title>
<path fill="none" stroke="midnightblue" d="M981.317,-52.503C1005.88,-42.3795 1039.82,-28.388 1061.34,-19.5164"/>
<polygon fill="midnightblue" stroke="midnightblue" points="979.669,-49.3966 971.757,-56.4435 982.337,-55.8683 979.669,-49.3966"/>
</g>
<!-- Node15 -->
<g id="node15" class="node"><title>Node15</title>
<g id="a_node15"><a xlink:href="stree__graph__initr_8cpp.html" target="_top" xlink:title="gmgf/stree_graph_initr.cpp">
<polygon fill="white" stroke="black" points="1169,-0.5 1169,-19.5 1301,-19.5 1301,-0.5 1169,-0.5"/>
<text text-anchor="middle" x="1235" y="-7.5" font-family="Helvetica,sans-Serif" font-size="10.00">gmgf/stree_graph_initr.cpp</text>
</a>
</g>
</g>
<!-- Node14&#45;&gt;Node15 -->
<g id="edge15" class="edge"><title>Node14&#45;&gt;Node15</title>
<path fill="none" stroke="midnightblue" d="M1204.73,-48.144C1212.4,-38.7357 1221.63,-27.4046 1227.87,-19.7511"/>
<polygon fill="midnightblue" stroke="midnightblue" points="1201.87,-46.1198 1198.27,-56.083 1207.3,-50.5415 1201.87,-46.1198"/>
</g>
</g>
</svg>
