<?xml version="1.0" encoding="UTF-8" standalone="no"?>
<!DOCTYPE svg PUBLIC "-//W3C//DTD SVG 1.1//EN"
 "http://www.w3.org/Graphics/SVG/1.1/DTD/svg11.dtd">
<!-- Generated by graphviz version 2.38.0 (20140413.2041)
 -->
<!-- Title: Graphical Class Hierarchy Pages: 1 -->
<svg width="405pt" height="116pt"
 viewBox="0.00 0.00 405.00 116.00" xmlns="http://www.w3.org/2000/svg" xmlns:xlink="http://www.w3.org/1999/xlink">
<g id="graph0" class="graph" transform="scale(1 1) rotate(0) translate(4 112)">
<title>Graphical Class Hierarchy</title>
<polygon fill="white" stroke="none" points="-4,4 -4,-112 401,-112 401,4 -4,4"/>
<!-- Node1 -->
<g id="node1" class="node"><title>Node1</title>
<g id="a_node1"><a xlink:href="classgmgf_1_1graph__initr.html" target="_top" xlink:title="探索の初期グラフを生成するグラフ初期化子． ">
<polygon fill="white" stroke="black" points="0,-44.5 0,-63.5 89,-63.5 89,-44.5 0,-44.5"/>
<text text-anchor="middle" x="44.5" y="-51.5" font-family="Helvetica,sans-Serif" font-size="10.00">gmgf::graph_initr</text>
</a>
</g>
</g>
<!-- Node2 -->
<g id="node2" class="node"><title>Node2</title>
<g id="a_node2"><a xlink:href="classgmgf_1_1basic__graph__initr.html" target="_top" xlink:title="基本的なグラフ初期化子． ">
<polygon fill="white" stroke="black" points="125,-88.5 125,-107.5 243,-107.5 243,-88.5 125,-88.5"/>
<text text-anchor="middle" x="184" y="-95.5" font-family="Helvetica,sans-Serif" font-size="10.00">gmgf::basic_graph_initr</text>
</a>
</g>
</g>
<!-- Node1&#45;&gt;Node2 -->
<g id="edge1" class="edge"><title>Node1&#45;&gt;Node2</title>
<path fill="none" stroke="midnightblue" d="M84.9449,-66.6224C106.685,-73.5793 133.235,-82.0753 153.223,-88.4713"/>
<polygon fill="midnightblue" stroke="midnightblue" points="85.9264,-63.2617 75.3355,-63.5473 83.793,-69.9287 85.9264,-63.2617"/>
</g>
<!-- Node4 -->
<g id="node4" class="node"><title>Node4</title>
<g id="a_node4"><a xlink:href="classgmgf_1_1sorted__graph__initr.html" target="_top" xlink:title="あるグラフ初期化子の候補辺リストをソートして返すグラフ初期化子． ">
<polygon fill="white" stroke="black" points="133.5,-39 133.5,-69 234.5,-69 234.5,-39 133.5,-39"/>
<text text-anchor="start" x="141.5" y="-57" font-family="Helvetica,sans-Serif" font-size="10.00">gmgf::sorted_graph</text>
<text text-anchor="middle" x="184" y="-46" font-family="Helvetica,sans-Serif" font-size="10.00">_initr</text>
</a>
</g>
</g>
<!-- Node1&#45;&gt;Node4 -->
<g id="edge3" class="edge"><title>Node1&#45;&gt;Node4</title>
<path fill="none" stroke="midnightblue" d="M99.0841,-54C110.27,-54 122.02,-54 133.068,-54"/>
<polygon fill="midnightblue" stroke="midnightblue" points="99.0059,-50.5001 89.0059,-54 99.0058,-57.5001 99.0059,-50.5001"/>
</g>
<!-- Node5 -->
<g id="node5" class="node"><title>Node5</title>
<g id="a_node5"><a xlink:href="classgmgf_1_1stree__graph__initr.html" target="_top" xlink:title="全域木を初期グラフとして与えるグラフ初期化子． ">
<polygon fill="white" stroke="black" points="126,-0.5 126,-19.5 242,-19.5 242,-0.5 126,-0.5"/>
<text text-anchor="middle" x="184" y="-7.5" font-family="Helvetica,sans-Serif" font-size="10.00">gmgf::stree_graph_initr</text>
</a>
</g>
</g>
<!-- Node1&#45;&gt;Node5 -->
<g id="edge4" class="edge"><title>Node1&#45;&gt;Node5</title>
<path fill="none" stroke="midnightblue" d="M84.9449,-41.3776C106.685,-34.4207 133.235,-25.9247 153.223,-19.5287"/>
<polygon fill="midnightblue" stroke="midnightblue" points="83.793,-38.0713 75.3355,-44.4527 85.9264,-44.7383 83.793,-38.0713"/>
</g>
<!-- Node3 -->
<g id="node3" class="node"><title>Node3</title>
<g id="a_node3"><a xlink:href="classgmgf_1_1cycle__graph__initr.html" target="_top" xlink:title="閉路を含む初期グラフを与えるグラフ初期化子． ">
<polygon fill="white" stroke="black" points="279,-88.5 279,-107.5 397,-107.5 397,-88.5 279,-88.5"/>
<text text-anchor="middle" x="338" y="-95.5" font-family="Helvetica,sans-Serif" font-size="10.00">gmgf::cycle_graph_initr</text>
</a>
</g>
</g>
<!-- Node2&#45;&gt;Node3 -->
<g id="edge2" class="edge"><title>Node2&#45;&gt;Node3</title>
<path fill="none" stroke="midnightblue" d="M253.542,-98C261.986,-98 270.554,-98 278.824,-98"/>
<polygon fill="midnightblue" stroke="midnightblue" points="253.332,-94.5001 243.332,-98 253.332,-101.5 253.332,-94.5001"/>
</g>
</g>
</svg>
