<?xml version="1.0" encoding="UTF-8" standalone="no"?>
<!DOCTYPE svg PUBLIC "-//W3C//DTD SVG 1.1//EN"
 "http://www.w3.org/Graphics/SVG/1.1/DTD/svg11.dtd">
<!-- Generated by graphviz version 2.38.0 (20140413.2041)
 -->
<!-- Title: Graphical Class Hierarchy Pages: 1 -->
<svg width="248pt" height="176pt"
 viewBox="0.00 0.00 248.00 175.50" xmlns="http://www.w3.org/2000/svg" xmlns:xlink="http://www.w3.org/1999/xlink">
<g id="graph0" class="graph" transform="scale(1 1) rotate(0) translate(4 171.5)">
<title>Graphical Class Hierarchy</title>
<polygon fill="white" stroke="none" points="-4,4 -4,-171.5 244,-171.5 244,4 -4,4"/>
<!-- Node1 -->
<g id="node1" class="node"><title>Node1</title>
<g id="a_node1"><a xlink:href="classgmgf_1_1state__initr.html" target="_top" xlink:title="探索の初期状態を与える状態初期化子 ">
<polygon fill="white" stroke="black" points="0,-79 0,-98 87,-98 87,-79 0,-79"/>
<text text-anchor="middle" x="43.5" y="-86" font-family="Helvetica,sans-Serif" font-size="10.00">gmgf::state_initr</text>
</a>
</g>
</g>
<!-- Node2 -->
<g id="node2" class="node"><title>Node2</title>
<g id="a_node2"><a xlink:href="classgmgf_1_1basic__state__initr.html" target="_top" xlink:title="gmgf::basic_state に対する状態初期化子 ">
<polygon fill="white" stroke="black" points="123.5,-148 123.5,-167 239.5,-167 239.5,-148 123.5,-148"/>
<text text-anchor="middle" x="181.5" y="-155" font-family="Helvetica,sans-Serif" font-size="10.00">gmgf::basic_state_initr</text>
</a>
</g>
</g>
<!-- Node1&#45;&gt;Node2 -->
<g id="edge1" class="edge"><title>Node1&#45;&gt;Node2</title>
<path fill="none" stroke="midnightblue" d="M65.5148,-103.919C80.8675,-114.668 102.5,-128.77 123,-138.5 130.503,-142.061 138.852,-145.234 146.809,-147.919"/>
<polygon fill="midnightblue" stroke="midnightblue" points="67.4324,-100.988 57.257,-98.0366 63.3708,-106.689 67.4324,-100.988"/>
</g>
<!-- Node3 -->
<g id="node3" class="node"><title>Node3</title>
<g id="a_node3"><a xlink:href="classgmgf_1_1matrix__opt__state__initr.html" target="_top" xlink:title="gmgf::matrix_opt_state に対する状態初期化子 ">
<polygon fill="white" stroke="black" points="123,-98.5 123,-128.5 240,-128.5 240,-98.5 123,-98.5"/>
<text text-anchor="start" x="131" y="-116.5" font-family="Helvetica,sans-Serif" font-size="10.00">gmgf::matrix_opt_state</text>
<text text-anchor="middle" x="181.5" y="-105.5" font-family="Helvetica,sans-Serif" font-size="10.00">_initr</text>
</a>
</g>
</g>
<!-- Node1&#45;&gt;Node3 -->
<g id="edge2" class="edge"><title>Node1&#45;&gt;Node3</title>
<path fill="none" stroke="midnightblue" d="M97.1189,-98.1726C105.446,-99.7034 114.099,-101.294 122.54,-102.846"/>
<polygon fill="midnightblue" stroke="midnightblue" points="97.6261,-94.7073 87.1581,-96.3416 96.3605,-101.592 97.6261,-94.7073"/>
</g>
<!-- Node4 -->
<g id="node4" class="node"><title>Node4</title>
<g id="a_node4"><a xlink:href="classgmgf_1_1matrix__state__initr.html" target="_top" xlink:title="gmgf::matrix_state に対する状態初期化子 ">
<polygon fill="white" stroke="black" points="132.5,-49.5 132.5,-79.5 230.5,-79.5 230.5,-49.5 132.5,-49.5"/>
<text text-anchor="start" x="140.5" y="-67.5" font-family="Helvetica,sans-Serif" font-size="10.00">gmgf::matrix_state</text>
<text text-anchor="middle" x="181.5" y="-56.5" font-family="Helvetica,sans-Serif" font-size="10.00">_initr</text>
</a>
</g>
</g>
<!-- Node1&#45;&gt;Node4 -->
<g id="edge3" class="edge"><title>Node1&#45;&gt;Node4</title>
<path fill="none" stroke="midnightblue" d="M97.1341,-79.2116C108.711,-77.1686 120.915,-75.015 132.306,-73.0048"/>
<polygon fill="midnightblue" stroke="midnightblue" points="96.3977,-75.7874 87.1581,-80.9721 97.6142,-82.6809 96.3977,-75.7874"/>
</g>
<!-- Node5 -->
<g id="node5" class="node"><title>Node5</title>
<g id="a_node5"><a xlink:href="classgmgf_1_1minmax__state__initr.html" target="_top" xlink:title="gmgf::minmax_state に対する状態初期化子 ">
<polygon fill="white" stroke="black" points="128.5,-0.5 128.5,-30.5 234.5,-30.5 234.5,-0.5 128.5,-0.5"/>
<text text-anchor="start" x="136.5" y="-18.5" font-family="Helvetica,sans-Serif" font-size="10.00">gmgf::minmax_state</text>
<text text-anchor="middle" x="181.5" y="-7.5" font-family="Helvetica,sans-Serif" font-size="10.00">_initr</text>
</a>
</g>
</g>
<!-- Node1&#45;&gt;Node5 -->
<g id="edge4" class="edge"><title>Node1&#45;&gt;Node5</title>
<path fill="none" stroke="midnightblue" d="M67.7152,-73.1308C83.0873,-63.2496 103.869,-50.4471 123,-40.5 129.567,-37.0854 136.703,-33.7209 143.641,-30.6208"/>
<polygon fill="midnightblue" stroke="midnightblue" points="65.3848,-70.471 58.906,-78.854 69.1985,-76.3409 65.3848,-70.471"/>
</g>
</g>
</svg>
