<?xml version="1.0" encoding="UTF-8" standalone="no"?>
<!DOCTYPE svg PUBLIC "-//W3C//DTD SVG 1.1//EN"
 "http://www.w3.org/Graphics/SVG/1.1/DTD/svg11.dtd">
<!-- Generated by graphviz version 2.38.0 (20140413.2041)
 -->
<!-- Title: Graphical Class Hierarchy Pages: 1 -->
<svg width="358pt" height="104pt"
 viewBox="0.00 0.00 358.00 104.00" xmlns="http://www.w3.org/2000/svg" xmlns:xlink="http://www.w3.org/1999/xlink">
<g id="graph0" class="graph" transform="scale(1 1) rotate(0) translate(4 100)">
<title>Graphical Class Hierarchy</title>
<polygon fill="white" stroke="none" points="-4,4 -4,-100 354,-100 354,4 -4,4"/>
<!-- Node1 -->
<g id="node1" class="node"><title>Node1</title>
<g id="a_node1"><a xlink:href="classgmgf_1_1state.html" target="_top" xlink:title="各種探索における状態． ">
<polygon fill="white" stroke="black" points="0,-38.5 0,-57.5 66,-57.5 66,-38.5 0,-38.5"/>
<text text-anchor="middle" x="33" y="-45.5" font-family="Helvetica,sans-Serif" font-size="10.00">gmgf::state</text>
</a>
</g>
</g>
<!-- Node2 -->
<g id="node2" class="node"><title>Node2</title>
<g id="a_node2"><a xlink:href="classgmgf_1_1basic__state.html" target="_top" xlink:title="探索中のグラフを一つ含む基本的な状態 ">
<polygon fill="white" stroke="black" points="102,-38.5 102,-57.5 197,-57.5 197,-38.5 102,-38.5"/>
<text text-anchor="middle" x="149.5" y="-45.5" font-family="Helvetica,sans-Serif" font-size="10.00">gmgf::basic_state</text>
</a>
</g>
</g>
<!-- Node1&#45;&gt;Node2 -->
<g id="edge1" class="edge"><title>Node1&#45;&gt;Node2</title>
<path fill="none" stroke="midnightblue" d="M76.3272,-48C84.5538,-48 93.2224,-48 101.586,-48"/>
<polygon fill="midnightblue" stroke="midnightblue" points="76.1994,-44.5001 66.1993,-48 76.1993,-51.5001 76.1994,-44.5001"/>
</g>
<!-- Node3 -->
<g id="node3" class="node"><title>Node3</title>
<g id="a_node3"><a xlink:href="classgmgf_1_1matrix__opt__state.html" target="_top" xlink:title="距離間距離が格納された行列を利用して， 頂点間距離の計算の高速化を図った状態． ">
<polygon fill="white" stroke="black" points="233,-76.5 233,-95.5 350,-95.5 350,-76.5 233,-76.5"/>
<text text-anchor="middle" x="291.5" y="-83.5" font-family="Helvetica,sans-Serif" font-size="10.00">gmgf::matrix_opt_state</text>
</a>
</g>
</g>
<!-- Node2&#45;&gt;Node3 -->
<g id="edge2" class="edge"><title>Node2&#45;&gt;Node3</title>
<path fill="none" stroke="midnightblue" d="M195.618,-60.2462C214.915,-65.484 237.112,-71.5091 255.183,-76.4141"/>
<polygon fill="midnightblue" stroke="midnightblue" points="196.396,-56.8308 185.828,-57.589 194.562,-63.5864 196.396,-56.8308"/>
</g>
<!-- Node4 -->
<g id="node4" class="node"><title>Node4</title>
<g id="a_node4"><a xlink:href="classgmgf_1_1matrix__state.html" target="_top" xlink:title="距離間距離が格納された行列を利用して， 頂点間距離の計算の高速化を図った状態． ">
<polygon fill="white" stroke="black" points="242.5,-38.5 242.5,-57.5 340.5,-57.5 340.5,-38.5 242.5,-38.5"/>
<text text-anchor="middle" x="291.5" y="-45.5" font-family="Helvetica,sans-Serif" font-size="10.00">gmgf::matrix_state</text>
</a>
</g>
</g>
<!-- Node2&#45;&gt;Node4 -->
<g id="edge3" class="edge"><title>Node2&#45;&gt;Node4</title>
<path fill="none" stroke="midnightblue" d="M207.156,-48C218.766,-48 230.885,-48 242.17,-48"/>
<polygon fill="midnightblue" stroke="midnightblue" points="207.118,-44.5001 197.118,-48 207.118,-51.5001 207.118,-44.5001"/>
</g>
<!-- Node5 -->
<g id="node5" class="node"><title>Node5</title>
<g id="a_node5"><a xlink:href="classgmgf_1_1minmax__state.html" target="_top" xlink:title="最大グラフで直径の下界を導出し，枝刈りを実現した状態． ">
<polygon fill="white" stroke="black" points="238.5,-0.5 238.5,-19.5 344.5,-19.5 344.5,-0.5 238.5,-0.5"/>
<text text-anchor="middle" x="291.5" y="-7.5" font-family="Helvetica,sans-Serif" font-size="10.00">gmgf::minmax_state</text>
</a>
</g>
</g>
<!-- Node2&#45;&gt;Node5 -->
<g id="edge4" class="edge"><title>Node2&#45;&gt;Node5</title>
<path fill="none" stroke="midnightblue" d="M195.618,-35.7538C214.915,-30.516 237.112,-24.4909 255.183,-19.5859"/>
<polygon fill="midnightblue" stroke="midnightblue" points="194.562,-32.4136 185.828,-38.411 196.396,-39.1692 194.562,-32.4136"/>
</g>
</g>
</svg>
