<?xml version="1.0" encoding="UTF-8" standalone="no"?>
<!DOCTYPE svg PUBLIC "-//W3C//DTD SVG 1.1//EN"
 "http://www.w3.org/Graphics/SVG/1.1/DTD/svg11.dtd">
<!-- Generated by graphviz version 2.38.0 (20140413.2041)
 -->
<!-- Title: Graphical Class Hierarchy Pages: 1 -->
<svg width="347pt" height="66pt"
 viewBox="0.00 0.00 347.00 66.00" xmlns="http://www.w3.org/2000/svg" xmlns:xlink="http://www.w3.org/1999/xlink">
<g id="graph0" class="graph" transform="scale(1 1) rotate(0) translate(4 62)">
<title>Graphical Class Hierarchy</title>
<polygon fill="white" stroke="none" points="-4,4 -4,-62 343,-62 343,4 -4,4"/>
<!-- Node1 -->
<g id="node1" class="node"><title>Node1</title>
<g id="a_node1"><a xlink:href="classgmgf_1_1state.html" target="_top" xlink:title="各種探索における状態． ">
<polygon fill="white" stroke="black" points="0,-19.5 0,-38.5 66,-38.5 66,-19.5 0,-19.5"/>
<text text-anchor="middle" x="33" y="-26.5" font-family="Helvetica,sans-Serif" font-size="10.00">gmgf::state</text>
</a>
</g>
</g>
<!-- Node2 -->
<g id="node2" class="node"><title>Node2</title>
<g id="a_node2"><a xlink:href="classgmgf_1_1basic__state.html" target="_top" xlink:title="探索中のグラフを一つ含む基本的な状態 ">
<polygon fill="white" stroke="black" points="102,-19.5 102,-38.5 197,-38.5 197,-19.5 102,-19.5"/>
<text text-anchor="middle" x="149.5" y="-26.5" font-family="Helvetica,sans-Serif" font-size="10.00">gmgf::basic_state</text>
</a>
</g>
</g>
<!-- Node1&#45;&gt;Node2 -->
<g id="edge1" class="edge"><title>Node1&#45;&gt;Node2</title>
<path fill="none" stroke="midnightblue" d="M76.3272,-29C84.5538,-29 93.2224,-29 101.586,-29"/>
<polygon fill="midnightblue" stroke="midnightblue" points="76.1994,-25.5001 66.1993,-29 76.1993,-32.5001 76.1994,-25.5001"/>
</g>
<!-- Node3 -->
<g id="node3" class="node"><title>Node3</title>
<g id="a_node3"><a xlink:href="classgmgf_1_1minmax__state.html" target="_top" xlink:title="最大グラフで直径の下界を導出し，枝刈りを実現した状態． ">
<polygon fill="white" stroke="black" points="233,-38.5 233,-57.5 339,-57.5 339,-38.5 233,-38.5"/>
<text text-anchor="middle" x="286" y="-45.5" font-family="Helvetica,sans-Serif" font-size="10.00">gmgf::minmax_state</text>
</a>
</g>
</g>
<!-- Node2&#45;&gt;Node3 -->
<g id="edge2" class="edge"><title>Node2&#45;&gt;Node3</title>
<path fill="none" stroke="midnightblue" d="M207.072,-36.9917C215.635,-38.2012 224.435,-39.4443 232.897,-40.6397"/>
<polygon fill="midnightblue" stroke="midnightblue" points="207.555,-33.5252 197.164,-35.592 206.576,-40.4564 207.555,-33.5252"/>
</g>
<!-- Node4 -->
<g id="node4" class="node"><title>Node4</title>
<g id="a_node4"><a xlink:href="classgmgf_1_1mmmtr__state.html" target="_top" xlink:title="距離間距離が格納された行列を利用して， 頂点間距離の計算の高速化を図った状態． ">
<polygon fill="white" stroke="black" points="235,-0.5 235,-19.5 337,-19.5 337,-0.5 235,-0.5"/>
<text text-anchor="middle" x="286" y="-7.5" font-family="Helvetica,sans-Serif" font-size="10.00">gmgf::mmmtr_state</text>
</a>
</g>
</g>
<!-- Node2&#45;&gt;Node4 -->
<g id="edge3" class="edge"><title>Node2&#45;&gt;Node4</title>
<path fill="none" stroke="midnightblue" d="M207.308,-20.9751C216.423,-19.6874 225.801,-18.3626 234.75,-17.0985"/>
<polygon fill="midnightblue" stroke="midnightblue" points="206.576,-17.5436 197.164,-22.408 207.555,-24.4748 206.576,-17.5436"/>
</g>
</g>
</svg>
