<?xml version="1.0" encoding="UTF-8" standalone="no"?>
<!DOCTYPE svg PUBLIC "-//W3C//DTD SVG 1.1//EN"
 "http://www.w3.org/Graphics/SVG/1.1/DTD/svg11.dtd">
<!-- Generated by graphviz version 2.38.0 (20140413.2041)
 -->
<!-- Title: Graphical Class Hierarchy Pages: 1 -->
<svg width="254pt" height="116pt"
 viewBox="0.00 0.00 254.00 116.00" xmlns="http://www.w3.org/2000/svg" xmlns:xlink="http://www.w3.org/1999/xlink">
<g id="graph0" class="graph" transform="scale(1 1) rotate(0) translate(4 112)">
<title>Graphical Class Hierarchy</title>
<polygon fill="white" stroke="none" points="-4,4 -4,-112 250,-112 250,4 -4,4"/>
<!-- Node1 -->
<g id="node1" class="node"><title>Node1</title>
<g id="a_node1"><a xlink:href="classgmgf_1_1state__initr.html" target="_top" xlink:title="探索の初期状態を与える状態初期化子 ">
<polygon fill="white" stroke="black" points="0,-44.5 0,-63.5 87,-63.5 87,-44.5 0,-44.5"/>
<text text-anchor="middle" x="43.5" y="-51.5" font-family="Helvetica,sans-Serif" font-size="10.00">gmgf::state_initr</text>
</a>
</g>
</g>
<!-- Node2 -->
<g id="node2" class="node"><title>Node2</title>
<g id="a_node2"><a xlink:href="classgmgf_1_1basic__state__initr.html" target="_top" xlink:title="gmgf::basic_state に対する状態初期化子 ">
<polygon fill="white" stroke="black" points="126.5,-88.5 126.5,-107.5 242.5,-107.5 242.5,-88.5 126.5,-88.5"/>
<text text-anchor="middle" x="184.5" y="-95.5" font-family="Helvetica,sans-Serif" font-size="10.00">gmgf::basic_state_initr</text>
</a>
</g>
</g>
<!-- Node1&#45;&gt;Node2 -->
<g id="edge1" class="edge"><title>Node1&#45;&gt;Node2</title>
<path fill="none" stroke="midnightblue" d="M83.9785,-66.6069C96.4571,-70.5826 110.303,-74.9843 123,-79 132.762,-82.0873 143.416,-85.439 153.025,-88.4555"/>
<polygon fill="midnightblue" stroke="midnightblue" points="84.9026,-63.228 74.3119,-63.5253 82.7764,-69.8973 84.9026,-63.228"/>
</g>
<!-- Node3 -->
<g id="node3" class="node"><title>Node3</title>
<g id="a_node3"><a xlink:href="classgmgf_1_1minmax__state__initr.html" target="_top" xlink:title="gmgf::minmax_state に対する状態初期化子 ">
<polygon fill="white" stroke="black" points="131.5,-39 131.5,-69 237.5,-69 237.5,-39 131.5,-39"/>
<text text-anchor="start" x="139.5" y="-57" font-family="Helvetica,sans-Serif" font-size="10.00">gmgf::minmax_state</text>
<text text-anchor="middle" x="184.5" y="-46" font-family="Helvetica,sans-Serif" font-size="10.00">_initr</text>
</a>
</g>
</g>
<!-- Node1&#45;&gt;Node3 -->
<g id="edge2" class="edge"><title>Node1&#45;&gt;Node3</title>
<path fill="none" stroke="midnightblue" d="M97.6786,-54C108.689,-54 120.278,-54 131.255,-54"/>
<polygon fill="midnightblue" stroke="midnightblue" points="97.3388,-50.5001 87.3388,-54 97.3387,-57.5001 97.3388,-50.5001"/>
</g>
<!-- Node4 -->
<g id="node4" class="node"><title>Node4</title>
<g id="a_node4"><a xlink:href="classgmgf_1_1mmmtr__state__initr.html" target="_top" xlink:title="gmgf::mmmtr_state に対する状態初期化子 ">
<polygon fill="white" stroke="black" points="123,-0.5 123,-19.5 246,-19.5 246,-0.5 123,-0.5"/>
<text text-anchor="middle" x="184.5" y="-7.5" font-family="Helvetica,sans-Serif" font-size="10.00">gmgf::mmmtr_state_initr</text>
</a>
</g>
</g>
<!-- Node1&#45;&gt;Node4 -->
<g id="edge3" class="edge"><title>Node1&#45;&gt;Node4</title>
<path fill="none" stroke="midnightblue" d="M84.3752,-41.3776C106.353,-34.4207 133.192,-25.9247 153.398,-19.5287"/>
<polygon fill="midnightblue" stroke="midnightblue" points="83.1384,-38.0979 74.6609,-44.4527 85.251,-44.7715 83.1384,-38.0979"/>
</g>
</g>
</svg>
