<?xml version="1.0" encoding="UTF-8" standalone="no"?>
<!DOCTYPE svg PUBLIC "-//W3C//DTD SVG 1.1//EN"
 "http://www.w3.org/Graphics/SVG/1.1/DTD/svg11.dtd">
<!-- Generated by graphviz version 2.38.0 (20140413.2041)
 -->
<!-- Title: gmgf/matrix_opt_state.cpp Pages: 1 -->
<svg width="282pt" height="196pt"
 viewBox="0.00 0.00 282.00 196.00" xmlns="http://www.w3.org/2000/svg" xmlns:xlink="http://www.w3.org/1999/xlink">
<g id="graph0" class="graph" transform="scale(1 1) rotate(0) translate(4 192)">
<title>gmgf/matrix_opt_state.cpp</title>
<polygon fill="white" stroke="none" points="-4,4 -4,-192 278,-192 278,4 -4,4"/>
<!-- Node1 -->
<g id="node1" class="node"><title>Node1</title>
<polygon fill="#bfbfbf" stroke="black" points="61.5,-168.5 61.5,-187.5 194.5,-187.5 194.5,-168.5 61.5,-168.5"/>
<text text-anchor="middle" x="128" y="-175.5" font-family="Helvetica,sans-Serif" font-size="10.00">gmgf/matrix_opt_state.cpp</text>
</g>
<!-- Node2 -->
<g id="node2" class="node"><title>Node2</title>
<g id="a_node2"><a xlink:href="matrix__opt__state_8hpp.html" target="_top" xlink:title="matrix_opt_state.hpp">
<polygon fill="white" stroke="black" points="0,-112.5 0,-131.5 108,-131.5 108,-112.5 0,-112.5"/>
<text text-anchor="middle" x="54" y="-119.5" font-family="Helvetica,sans-Serif" font-size="10.00">matrix_opt_state.hpp</text>
</a>
</g>
</g>
<!-- Node1&#45;&gt;Node2 -->
<g id="edge1" class="edge"><title>Node1&#45;&gt;Node2</title>
<path fill="none" stroke="midnightblue" d="M116.111,-168.324C104.85,-160.107 87.7134,-147.602 74.2909,-137.807"/>
<polygon fill="midnightblue" stroke="midnightblue" points="76.2468,-134.901 66.1057,-131.834 72.1205,-140.556 76.2468,-134.901"/>
</g>
<!-- Node6 -->
<g id="node6" class="node"><title>Node6</title>
<g id="a_node6"><a xlink:href="distance__update__gmgopt_8hpp.html" target="_top" xlink:title="distance_update_gmgopt.hpp">
<polygon fill="white" stroke="black" points="130,-112.5 130,-131.5 274,-131.5 274,-112.5 130,-112.5"/>
<text text-anchor="middle" x="202" y="-119.5" font-family="Helvetica,sans-Serif" font-size="10.00">distance_update_gmgopt.hpp</text>
</a>
</g>
</g>
<!-- Node1&#45;&gt;Node6 -->
<g id="edge6" class="edge"><title>Node1&#45;&gt;Node6</title>
<path fill="none" stroke="midnightblue" d="M139.889,-168.324C151.15,-160.107 168.287,-147.602 181.709,-137.807"/>
<polygon fill="midnightblue" stroke="midnightblue" points="183.88,-140.556 189.894,-131.834 179.753,-134.901 183.88,-140.556"/>
</g>
<!-- Node3 -->
<g id="node3" class="node"><title>Node3</title>
<polygon fill="white" stroke="#bfbfbf" points="107.5,-0.5 107.5,-19.5 158.5,-19.5 158.5,-0.5 107.5,-0.5"/>
<text text-anchor="middle" x="133" y="-7.5" font-family="Helvetica,sans-Serif" font-size="10.00">igraph.h</text>
</g>
<!-- Node2&#45;&gt;Node3 -->
<g id="edge2" class="edge"><title>Node2&#45;&gt;Node3</title>
<path fill="none" stroke="midnightblue" d="M44.1091,-112.155C30.8781,-99.2288 10.4563,-74.6842 23,-56 39.4764,-31.4579 71.9606,-20.2915 97.3762,-15.2161"/>
<polygon fill="midnightblue" stroke="midnightblue" points="98.1778,-18.6288 107.418,-13.446 96.9627,-11.7351 98.1778,-18.6288"/>
</g>
<!-- Node4 -->
<g id="node4" class="node"><title>Node4</title>
<polygon fill="white" stroke="#bfbfbf" points="32,-56.5 32,-75.5 72,-75.5 72,-56.5 32,-56.5"/>
<text text-anchor="middle" x="52" y="-63.5" font-family="Helvetica,sans-Serif" font-size="10.00">utility</text>
</g>
<!-- Node2&#45;&gt;Node4 -->
<g id="edge3" class="edge"><title>Node2&#45;&gt;Node4</title>
<path fill="none" stroke="midnightblue" d="M53.6697,-112.083C53.4076,-105.006 53.0319,-94.8611 52.7032,-85.9865"/>
<polygon fill="midnightblue" stroke="midnightblue" points="56.1919,-85.6147 52.3241,-75.7511 49.1967,-85.8738 56.1919,-85.6147"/>
</g>
<!-- Node5 -->
<g id="node5" class="node"><title>Node5</title>
<g id="a_node5"><a xlink:href="basic__state_8hpp.html" target="_top" xlink:title="basic_state.hpp">
<polygon fill="white" stroke="red" points="90,-56.5 90,-75.5 176,-75.5 176,-56.5 90,-56.5"/>
<text text-anchor="middle" x="133" y="-63.5" font-family="Helvetica,sans-Serif" font-size="10.00">basic_state.hpp</text>
</a>
</g>
</g>
<!-- Node2&#45;&gt;Node5 -->
<g id="edge4" class="edge"><title>Node2&#45;&gt;Node5</title>
<path fill="none" stroke="midnightblue" d="M66.6927,-112.324C78.9011,-103.979 97.5785,-91.2122 112.003,-81.3524"/>
<polygon fill="midnightblue" stroke="midnightblue" points="114.058,-84.1871 120.339,-75.6545 110.108,-78.4082 114.058,-84.1871"/>
</g>
<!-- Node5&#45;&gt;Node3 -->
<g id="edge5" class="edge"><title>Node5&#45;&gt;Node3</title>
<path fill="none" stroke="midnightblue" d="M133,-56.083C133,-49.0059 133,-38.8611 133,-29.9865"/>
<polygon fill="midnightblue" stroke="midnightblue" points="136.5,-29.751 133,-19.7511 129.5,-29.7511 136.5,-29.751"/>
</g>
<!-- Node6&#45;&gt;Node3 -->
<g id="edge7" class="edge"><title>Node6&#45;&gt;Node3</title>
<path fill="none" stroke="midnightblue" d="M201.371,-112.364C200.076,-99.2734 196.216,-74.0244 185,-56 177.51,-43.9628 165.78,-33.4101 155.355,-25.5548"/>
<polygon fill="midnightblue" stroke="midnightblue" points="157.201,-22.5726 147.026,-19.6174 153.137,-28.2724 157.201,-22.5726"/>
</g>
</g>
</svg>
