<?xml version="1.0" encoding="UTF-8" standalone="no"?>
<!DOCTYPE svg PUBLIC "-//W3C//DTD SVG 1.1//EN"
 "http://www.w3.org/Graphics/SVG/1.1/DTD/svg11.dtd">
<!-- Generated by graphviz version 2.38.0 (20140413.2041)
 -->
<!-- Title: gmgf/matrix_state.cpp Pages: 1 -->
<svg width="240pt" height="196pt"
 viewBox="0.00 0.00 240.00 196.00" xmlns="http://www.w3.org/2000/svg" xmlns:xlink="http://www.w3.org/1999/xlink">
<g id="graph0" class="graph" transform="scale(1 1) rotate(0) translate(4 192)">
<title>gmgf/matrix_state.cpp</title>
<polygon fill="white" stroke="none" points="-4,4 -4,-192 236,-192 236,4 -4,4"/>
<!-- Node1 -->
<g id="node1" class="node"><title>Node1</title>
<polygon fill="#bfbfbf" stroke="black" points="54.5,-168.5 54.5,-187.5 168.5,-187.5 168.5,-168.5 54.5,-168.5"/>
<text text-anchor="middle" x="111.5" y="-175.5" font-family="Helvetica,sans-Serif" font-size="10.00">gmgf/matrix_state.cpp</text>
</g>
<!-- Node2 -->
<g id="node2" class="node"><title>Node2</title>
<g id="a_node2"><a xlink:href="matrix__state_8hpp.html" target="_top" xlink:title="matrix_state.hpp">
<polygon fill="white" stroke="black" points="0,-112.5 0,-131.5 89,-131.5 89,-112.5 0,-112.5"/>
<text text-anchor="middle" x="44.5" y="-119.5" font-family="Helvetica,sans-Serif" font-size="10.00">matrix_state.hpp</text>
</a>
</g>
</g>
<!-- Node1&#45;&gt;Node2 -->
<g id="edge1" class="edge"><title>Node1&#45;&gt;Node2</title>
<path fill="none" stroke="midnightblue" d="M100.735,-168.324C90.7339,-160.263 75.6135,-148.077 63.5695,-138.369"/>
<polygon fill="midnightblue" stroke="midnightblue" points="65.4429,-135.384 55.4606,-131.834 61.0502,-140.834 65.4429,-135.384"/>
</g>
<!-- Node6 -->
<g id="node6" class="node"><title>Node6</title>
<g id="a_node6"><a xlink:href="distance__update_8hpp.html" target="_top" xlink:title="distance_update.hpp">
<polygon fill="white" stroke="black" points="125,-112.5 125,-131.5 232,-131.5 232,-112.5 125,-112.5"/>
<text text-anchor="middle" x="178.5" y="-119.5" font-family="Helvetica,sans-Serif" font-size="10.00">distance_update.hpp</text>
</a>
</g>
</g>
<!-- Node1&#45;&gt;Node6 -->
<g id="edge6" class="edge"><title>Node1&#45;&gt;Node6</title>
<path fill="none" stroke="midnightblue" d="M122.265,-168.324C132.266,-160.263 147.387,-148.077 159.43,-138.369"/>
<polygon fill="midnightblue" stroke="midnightblue" points="161.95,-140.834 167.539,-131.834 157.557,-135.384 161.95,-140.834"/>
</g>
<!-- Node3 -->
<g id="node3" class="node"><title>Node3</title>
<polygon fill="white" stroke="#bfbfbf" points="91,-0.5 91,-19.5 142,-19.5 142,-0.5 91,-0.5"/>
<text text-anchor="middle" x="116.5" y="-7.5" font-family="Helvetica,sans-Serif" font-size="10.00">igraph.h</text>
</g>
<!-- Node2&#45;&gt;Node3 -->
<g id="edge2" class="edge"><title>Node2&#45;&gt;Node3</title>
<path fill="none" stroke="midnightblue" d="M32.9736,-112.38C17.4997,-99.7339 -6.61482,-75.535 6.5,-56 22.9764,-31.4579 55.4606,-20.2915 80.8762,-15.2161"/>
<polygon fill="midnightblue" stroke="midnightblue" points="81.6778,-18.6288 90.9185,-13.446 80.4627,-11.7351 81.6778,-18.6288"/>
</g>
<!-- Node4 -->
<g id="node4" class="node"><title>Node4</title>
<polygon fill="white" stroke="#bfbfbf" points="15.5,-56.5 15.5,-75.5 55.5,-75.5 55.5,-56.5 15.5,-56.5"/>
<text text-anchor="middle" x="35.5" y="-63.5" font-family="Helvetica,sans-Serif" font-size="10.00">utility</text>
</g>
<!-- Node2&#45;&gt;Node4 -->
<g id="edge3" class="edge"><title>Node2&#45;&gt;Node4</title>
<path fill="none" stroke="midnightblue" d="M43.0138,-112.083C41.8212,-104.927 40.1059,-94.6353 38.6152,-85.6911"/>
<polygon fill="midnightblue" stroke="midnightblue" points="42.055,-85.0396 36.9585,-75.7511 35.1502,-86.1904 42.055,-85.0396"/>
</g>
<!-- Node5 -->
<g id="node5" class="node"><title>Node5</title>
<g id="a_node5"><a xlink:href="basic__state_8hpp.html" target="_top" xlink:title="basic_state.hpp">
<polygon fill="white" stroke="red" points="73.5,-56.5 73.5,-75.5 159.5,-75.5 159.5,-56.5 73.5,-56.5"/>
<text text-anchor="middle" x="116.5" y="-63.5" font-family="Helvetica,sans-Serif" font-size="10.00">basic_state.hpp</text>
</a>
</g>
</g>
<!-- Node2&#45;&gt;Node5 -->
<g id="edge4" class="edge"><title>Node2&#45;&gt;Node5</title>
<path fill="none" stroke="midnightblue" d="M56.068,-112.324C66.9202,-104.185 83.3807,-91.8395 96.3834,-82.0874"/>
<polygon fill="midnightblue" stroke="midnightblue" points="98.8215,-84.6339 104.721,-75.8339 94.6214,-79.0339 98.8215,-84.6339"/>
</g>
<!-- Node5&#45;&gt;Node3 -->
<g id="edge5" class="edge"><title>Node5&#45;&gt;Node3</title>
<path fill="none" stroke="midnightblue" d="M116.5,-56.083C116.5,-49.0059 116.5,-38.8611 116.5,-29.9865"/>
<polygon fill="midnightblue" stroke="midnightblue" points="120,-29.751 116.5,-19.7511 113,-29.7511 120,-29.751"/>
</g>
<!-- Node6&#45;&gt;Node3 -->
<g id="edge7" class="edge"><title>Node6&#45;&gt;Node3</title>
<path fill="none" stroke="midnightblue" d="M178.997,-112.405C179.367,-99.3666 178.554,-74.1855 168.5,-56 161.731,-43.7559 150.262,-33.2919 139.816,-25.5441"/>
<polygon fill="midnightblue" stroke="midnightblue" points="141.614,-22.5318 131.406,-19.6953 137.617,-28.2786 141.614,-22.5318"/>
</g>
</g>
</svg>
