<?xml version="1.0" encoding="UTF-8" standalone="no"?>
<!DOCTYPE svg PUBLIC "-//W3C//DTD SVG 1.1//EN"
 "http://www.w3.org/Graphics/SVG/1.1/DTD/svg11.dtd">
<!-- Generated by graphviz version 2.38.0 (20140413.2041)
 -->
<!-- Title: gmgf/matrix_opt_state.hpp Pages: 1 -->
<svg width="199pt" height="140pt"
 viewBox="0.00 0.00 198.50 140.00" xmlns="http://www.w3.org/2000/svg" xmlns:xlink="http://www.w3.org/1999/xlink">
<g id="graph0" class="graph" transform="scale(1 1) rotate(0) translate(4 136)">
<title>gmgf/matrix_opt_state.hpp</title>
<polygon fill="white" stroke="none" points="-4,4 -4,-136 194.5,-136 194.5,4 -4,4"/>
<!-- Node1 -->
<g id="node1" class="node"><title>Node1</title>
<polygon fill="#bfbfbf" stroke="black" points="0,-112.5 0,-131.5 133,-131.5 133,-112.5 0,-112.5"/>
<text text-anchor="middle" x="66.5" y="-119.5" font-family="Helvetica,sans-Serif" font-size="10.00">gmgf/matrix_opt_state.hpp</text>
</g>
<!-- Node2 -->
<g id="node2" class="node"><title>Node2</title>
<polygon fill="white" stroke="#bfbfbf" points="21,-0.5 21,-19.5 72,-19.5 72,-0.5 21,-0.5"/>
<text text-anchor="middle" x="46.5" y="-7.5" font-family="Helvetica,sans-Serif" font-size="10.00">igraph.h</text>
</g>
<!-- Node1&#45;&gt;Node2 -->
<g id="edge1" class="edge"><title>Node1&#45;&gt;Node2</title>
<path fill="none" stroke="midnightblue" d="M58.8271,-112.459C51.7211,-103.927 41.6461,-90.0875 37.5,-76 32.9768,-60.6313 36.1387,-42.5335 39.9074,-29.3423"/>
<polygon fill="midnightblue" stroke="midnightblue" points="43.3164,-30.1752 43.0605,-19.5835 36.6555,-28.023 43.3164,-30.1752"/>
</g>
<!-- Node3 -->
<g id="node3" class="node"><title>Node3</title>
<polygon fill="white" stroke="#bfbfbf" points="46.5,-56.5 46.5,-75.5 86.5,-75.5 86.5,-56.5 46.5,-56.5"/>
<text text-anchor="middle" x="66.5" y="-63.5" font-family="Helvetica,sans-Serif" font-size="10.00">utility</text>
</g>
<!-- Node1&#45;&gt;Node3 -->
<g id="edge2" class="edge"><title>Node1&#45;&gt;Node3</title>
<path fill="none" stroke="midnightblue" d="M66.5,-112.083C66.5,-105.006 66.5,-94.8611 66.5,-85.9865"/>
<polygon fill="midnightblue" stroke="midnightblue" points="70.0001,-85.751 66.5,-75.7511 63.0001,-85.7511 70.0001,-85.751"/>
</g>
<!-- Node4 -->
<g id="node4" class="node"><title>Node4</title>
<g id="a_node4"><a xlink:href="basic__state_8hpp.html" target="_top" xlink:title="basic_state.hpp">
<polygon fill="white" stroke="black" points="104.5,-56.5 104.5,-75.5 190.5,-75.5 190.5,-56.5 104.5,-56.5"/>
<text text-anchor="middle" x="147.5" y="-63.5" font-family="Helvetica,sans-Serif" font-size="10.00">basic_state.hpp</text>
</a>
</g>
</g>
<!-- Node1&#45;&gt;Node4 -->
<g id="edge3" class="edge"><title>Node1&#45;&gt;Node4</title>
<path fill="none" stroke="midnightblue" d="M79.5141,-112.324C92.0316,-103.979 111.182,-91.2122 125.971,-81.3524"/>
<polygon fill="midnightblue" stroke="midnightblue" points="128.139,-84.1137 134.518,-75.6545 124.256,-78.2894 128.139,-84.1137"/>
</g>
<!-- Node4&#45;&gt;Node2 -->
<g id="edge4" class="edge"><title>Node4&#45;&gt;Node2</title>
<path fill="none" stroke="midnightblue" d="M131.273,-56.324C115.149,-47.7034 90.1998,-34.3643 71.5359,-24.3855"/>
<polygon fill="midnightblue" stroke="midnightblue" points="73.1561,-21.283 62.6871,-19.6545 69.8556,-27.456 73.1561,-21.283"/>
</g>
<!-- Node5 -->
<g id="node5" class="node"><title>Node5</title>
<g id="a_node5"><a xlink:href="state_8hpp.html" target="_top" xlink:title="state.hpp">
<polygon fill="white" stroke="red" points="119,-0.5 119,-19.5 176,-19.5 176,-0.5 119,-0.5"/>
<text text-anchor="middle" x="147.5" y="-7.5" font-family="Helvetica,sans-Serif" font-size="10.00">state.hpp</text>
</a>
</g>
</g>
<!-- Node4&#45;&gt;Node5 -->
<g id="edge5" class="edge"><title>Node4&#45;&gt;Node5</title>
<path fill="none" stroke="midnightblue" d="M147.5,-56.083C147.5,-49.0059 147.5,-38.8611 147.5,-29.9865"/>
<polygon fill="midnightblue" stroke="midnightblue" points="151,-29.751 147.5,-19.7511 144,-29.7511 151,-29.751"/>
</g>
</g>
</svg>
