<?xml version="1.0" encoding="UTF-8" standalone="no"?>
<!DOCTYPE svg PUBLIC "-//W3C//DTD SVG 1.1//EN"
 "http://www.w3.org/Graphics/SVG/1.1/DTD/svg11.dtd">
<!-- Generated by graphviz version 2.38.0 (20140413.2041)
 -->
<!-- Title: gmgf/matrix_opt_state_initr.cpp Pages: 1 -->
<svg width="391pt" height="207pt"
 viewBox="0.00 0.00 391.00 207.00" xmlns="http://www.w3.org/2000/svg" xmlns:xlink="http://www.w3.org/1999/xlink">
<g id="graph0" class="graph" transform="scale(1 1) rotate(0) translate(4 203)">
<title>gmgf/matrix_opt_state_initr.cpp</title>
<polygon fill="white" stroke="none" points="-4,4 -4,-203 387,-203 387,4 -4,4"/>
<!-- Node1 -->
<g id="node1" class="node"><title>Node1</title>
<polygon fill="#bfbfbf" stroke="black" points="144.5,-168.5 144.5,-198.5 258.5,-198.5 258.5,-168.5 144.5,-168.5"/>
<text text-anchor="start" x="152.5" y="-186.5" font-family="Helvetica,sans-Serif" font-size="10.00">gmgf/matrix_opt_state</text>
<text text-anchor="middle" x="201.5" y="-175.5" font-family="Helvetica,sans-Serif" font-size="10.00">_initr.cpp</text>
</g>
<!-- Node2 -->
<g id="node2" class="node"><title>Node2</title>
<g id="a_node2"><a xlink:href="matrix__opt__state__initr_8hpp.html" target="_top" xlink:title="matrix_opt_state_initr.hpp">
<polygon fill="white" stroke="black" points="0,-112.5 0,-131.5 129,-131.5 129,-112.5 0,-112.5"/>
<text text-anchor="middle" x="64.5" y="-119.5" font-family="Helvetica,sans-Serif" font-size="10.00">matrix_opt_state_initr.hpp</text>
</a>
</g>
</g>
<!-- Node1&#45;&gt;Node2 -->
<g id="edge1" class="edge"><title>Node1&#45;&gt;Node2</title>
<path fill="none" stroke="midnightblue" d="M169.033,-168.399C146.149,-158.461 115.766,-145.265 93.6556,-135.662"/>
<polygon fill="midnightblue" stroke="midnightblue" points="95.0013,-132.431 84.4347,-131.658 92.2127,-138.852 95.0013,-132.431"/>
</g>
<!-- Node4 -->
<g id="node4" class="node"><title>Node4</title>
<g id="a_node4"><a xlink:href="matrix__opt__state_8hpp.html" target="_top" xlink:title="matrix_opt_state.hpp">
<polygon fill="white" stroke="black" points="147.5,-112.5 147.5,-131.5 255.5,-131.5 255.5,-112.5 147.5,-112.5"/>
<text text-anchor="middle" x="201.5" y="-119.5" font-family="Helvetica,sans-Serif" font-size="10.00">matrix_opt_state.hpp</text>
</a>
</g>
</g>
<!-- Node1&#45;&gt;Node4 -->
<g id="edge3" class="edge"><title>Node1&#45;&gt;Node4</title>
<path fill="none" stroke="midnightblue" d="M201.5,-168.399C201.5,-160.466 201.5,-150.458 201.5,-141.858"/>
<polygon fill="midnightblue" stroke="midnightblue" points="205,-141.658 201.5,-131.658 198,-141.658 205,-141.658"/>
</g>
<!-- Node8 -->
<g id="node8" class="node"><title>Node8</title>
<g id="a_node8"><a xlink:href="distance__update_8hpp.html" target="_top" xlink:title="distance_update.hpp">
<polygon fill="white" stroke="black" points="276,-112.5 276,-131.5 383,-131.5 383,-112.5 276,-112.5"/>
<text text-anchor="middle" x="329.5" y="-119.5" font-family="Helvetica,sans-Serif" font-size="10.00">distance_update.hpp</text>
</a>
</g>
</g>
<!-- Node1&#45;&gt;Node8 -->
<g id="edge8" class="edge"><title>Node1&#45;&gt;Node8</title>
<path fill="none" stroke="midnightblue" d="M231.834,-168.399C253.023,-158.55 281.094,-145.501 301.702,-135.922"/>
<polygon fill="midnightblue" stroke="midnightblue" points="303.282,-139.047 310.875,-131.658 300.331,-132.699 303.282,-139.047"/>
</g>
<!-- Node3 -->
<g id="node3" class="node"><title>Node3</title>
<g id="a_node3"><a xlink:href="state__initr_8hpp.html" target="_top" xlink:title="state_initr.hpp">
<polygon fill="white" stroke="red" points="25.5,-56.5 25.5,-75.5 103.5,-75.5 103.5,-56.5 25.5,-56.5"/>
<text text-anchor="middle" x="64.5" y="-63.5" font-family="Helvetica,sans-Serif" font-size="10.00">state_initr.hpp</text>
</a>
</g>
</g>
<!-- Node2&#45;&gt;Node3 -->
<g id="edge2" class="edge"><title>Node2&#45;&gt;Node3</title>
<path fill="none" stroke="midnightblue" d="M64.5,-112.083C64.5,-105.006 64.5,-94.8611 64.5,-85.9865"/>
<polygon fill="midnightblue" stroke="midnightblue" points="68.0001,-85.751 64.5,-75.7511 61.0001,-85.7511 68.0001,-85.751"/>
</g>
<!-- Node5 -->
<g id="node5" class="node"><title>Node5</title>
<polygon fill="white" stroke="#bfbfbf" points="246,-0.5 246,-19.5 297,-19.5 297,-0.5 246,-0.5"/>
<text text-anchor="middle" x="271.5" y="-7.5" font-family="Helvetica,sans-Serif" font-size="10.00">igraph.h</text>
</g>
<!-- Node4&#45;&gt;Node5 -->
<g id="edge4" class="edge"><title>Node4&#45;&gt;Node5</title>
<path fill="none" stroke="midnightblue" d="M189.502,-112.451C173.382,-99.8924 148.206,-75.8019 161.5,-56 177.976,-31.4579 210.461,-20.2915 235.876,-15.2161"/>
<polygon fill="midnightblue" stroke="midnightblue" points="236.678,-18.6288 245.918,-13.446 235.463,-11.7351 236.678,-18.6288"/>
</g>
<!-- Node6 -->
<g id="node6" class="node"><title>Node6</title>
<polygon fill="white" stroke="#bfbfbf" points="170.5,-56.5 170.5,-75.5 210.5,-75.5 210.5,-56.5 170.5,-56.5"/>
<text text-anchor="middle" x="190.5" y="-63.5" font-family="Helvetica,sans-Serif" font-size="10.00">utility</text>
</g>
<!-- Node4&#45;&gt;Node6 -->
<g id="edge5" class="edge"><title>Node4&#45;&gt;Node6</title>
<path fill="none" stroke="midnightblue" d="M199.684,-112.083C198.226,-104.927 196.129,-94.6353 194.307,-85.6911"/>
<polygon fill="midnightblue" stroke="midnightblue" points="197.708,-84.8512 192.283,-75.7511 190.849,-86.2485 197.708,-84.8512"/>
</g>
<!-- Node7 -->
<g id="node7" class="node"><title>Node7</title>
<g id="a_node7"><a xlink:href="basic__state_8hpp.html" target="_top" xlink:title="basic_state.hpp">
<polygon fill="white" stroke="red" points="228.5,-56.5 228.5,-75.5 314.5,-75.5 314.5,-56.5 228.5,-56.5"/>
<text text-anchor="middle" x="271.5" y="-63.5" font-family="Helvetica,sans-Serif" font-size="10.00">basic_state.hpp</text>
</a>
</g>
</g>
<!-- Node4&#45;&gt;Node7 -->
<g id="edge6" class="edge"><title>Node4&#45;&gt;Node7</title>
<path fill="none" stroke="midnightblue" d="M212.747,-112.324C223.297,-104.185 239.301,-91.8395 251.942,-82.0874"/>
<polygon fill="midnightblue" stroke="midnightblue" points="254.269,-84.7132 260.049,-75.8339 249.993,-79.1707 254.269,-84.7132"/>
</g>
<!-- Node7&#45;&gt;Node5 -->
<g id="edge7" class="edge"><title>Node7&#45;&gt;Node5</title>
<path fill="none" stroke="midnightblue" d="M271.5,-56.083C271.5,-49.0059 271.5,-38.8611 271.5,-29.9865"/>
<polygon fill="midnightblue" stroke="midnightblue" points="275,-29.751 271.5,-19.7511 268,-29.7511 275,-29.751"/>
</g>
<!-- Node8&#45;&gt;Node5 -->
<g id="edge9" class="edge"><title>Node8&#45;&gt;Node5</title>
<path fill="none" stroke="midnightblue" d="M330.649,-112.445C331.983,-99.4585 332.928,-74.3445 323.5,-56 317.105,-43.5564 305.668,-33.0756 295.146,-25.3682"/>
<polygon fill="midnightblue" stroke="midnightblue" points="296.883,-22.3167 286.652,-19.564 292.934,-28.096 296.883,-22.3167"/>
</g>
</g>
</svg>
