<?xml version="1.0" encoding="UTF-8" standalone="no"?>
<!DOCTYPE svg PUBLIC "-//W3C//DTD SVG 1.1//EN"
 "http://www.w3.org/Graphics/SVG/1.1/DTD/svg11.dtd">
<!-- Generated by graphviz version 2.38.0 (20140413.2041)
 -->
<!-- Title: gmgf/matrix_state_initr.cpp Pages: 1 -->
<svg width="367pt" height="196pt"
 viewBox="0.00 0.00 366.50 196.00" xmlns="http://www.w3.org/2000/svg" xmlns:xlink="http://www.w3.org/1999/xlink">
<g id="graph0" class="graph" transform="scale(1 1) rotate(0) translate(4 192)">
<title>gmgf/matrix_state_initr.cpp</title>
<polygon fill="white" stroke="none" points="-4,4 -4,-192 362.5,-192 362.5,4 -4,4"/>
<!-- Node1 -->
<g id="node1" class="node"><title>Node1</title>
<polygon fill="#bfbfbf" stroke="black" points="105.5,-168.5 105.5,-187.5 240.5,-187.5 240.5,-168.5 105.5,-168.5"/>
<text text-anchor="middle" x="173" y="-175.5" font-family="Helvetica,sans-Serif" font-size="10.00">gmgf/matrix_state_initr.cpp</text>
</g>
<!-- Node2 -->
<g id="node2" class="node"><title>Node2</title>
<g id="a_node2"><a xlink:href="matrix__state__initr_8hpp.html" target="_top" xlink:title="matrix_state_initr.hpp">
<polygon fill="white" stroke="black" points="0,-112.5 0,-131.5 110,-131.5 110,-112.5 0,-112.5"/>
<text text-anchor="middle" x="55" y="-119.5" font-family="Helvetica,sans-Serif" font-size="10.00">matrix_state_initr.hpp</text>
</a>
</g>
</g>
<!-- Node1&#45;&gt;Node2 -->
<g id="edge1" class="edge"><title>Node1&#45;&gt;Node2</title>
<path fill="none" stroke="midnightblue" d="M154.303,-168.444C135.056,-159.636 104.848,-145.812 82.7999,-135.722"/>
<polygon fill="midnightblue" stroke="midnightblue" points="84.1595,-132.495 73.61,-131.516 81.2466,-138.86 84.1595,-132.495"/>
</g>
<!-- Node4 -->
<g id="node4" class="node"><title>Node4</title>
<g id="a_node4"><a xlink:href="matrix__state_8hpp.html" target="_top" xlink:title="matrix_state.hpp">
<polygon fill="white" stroke="black" points="128.5,-112.5 128.5,-131.5 217.5,-131.5 217.5,-112.5 128.5,-112.5"/>
<text text-anchor="middle" x="173" y="-119.5" font-family="Helvetica,sans-Serif" font-size="10.00">matrix_state.hpp</text>
</a>
</g>
</g>
<!-- Node1&#45;&gt;Node4 -->
<g id="edge3" class="edge"><title>Node1&#45;&gt;Node4</title>
<path fill="none" stroke="midnightblue" d="M173,-168.083C173,-161.006 173,-150.861 173,-141.986"/>
<polygon fill="midnightblue" stroke="midnightblue" points="176.5,-141.751 173,-131.751 169.5,-141.751 176.5,-141.751"/>
</g>
<!-- Node8 -->
<g id="node8" class="node"><title>Node8</title>
<g id="a_node8"><a xlink:href="distance__update_8hpp.html" target="_top" xlink:title="distance_update.hpp">
<polygon fill="white" stroke="black" points="251.5,-112.5 251.5,-131.5 358.5,-131.5 358.5,-112.5 251.5,-112.5"/>
<text text-anchor="middle" x="305" y="-119.5" font-family="Helvetica,sans-Serif" font-size="10.00">distance_update.hpp</text>
</a>
</g>
</g>
<!-- Node1&#45;&gt;Node8 -->
<g id="edge8" class="edge"><title>Node1&#45;&gt;Node8</title>
<path fill="none" stroke="midnightblue" d="M193.916,-168.444C215.736,-159.517 250.15,-145.439 274.892,-135.317"/>
<polygon fill="midnightblue" stroke="midnightblue" points="276.252,-138.542 284.182,-131.516 273.601,-132.063 276.252,-138.542"/>
</g>
<!-- Node3 -->
<g id="node3" class="node"><title>Node3</title>
<g id="a_node3"><a xlink:href="state__initr_8hpp.html" target="_top" xlink:title="state_initr.hpp">
<polygon fill="white" stroke="red" points="16,-56.5 16,-75.5 94,-75.5 94,-56.5 16,-56.5"/>
<text text-anchor="middle" x="55" y="-63.5" font-family="Helvetica,sans-Serif" font-size="10.00">state_initr.hpp</text>
</a>
</g>
</g>
<!-- Node2&#45;&gt;Node3 -->
<g id="edge2" class="edge"><title>Node2&#45;&gt;Node3</title>
<path fill="none" stroke="midnightblue" d="M55,-112.083C55,-105.006 55,-94.8611 55,-85.9865"/>
<polygon fill="midnightblue" stroke="midnightblue" points="58.5001,-85.751 55,-75.7511 51.5001,-85.7511 58.5001,-85.751"/>
</g>
<!-- Node5 -->
<g id="node5" class="node"><title>Node5</title>
<polygon fill="white" stroke="#bfbfbf" points="226.5,-0.5 226.5,-19.5 277.5,-19.5 277.5,-0.5 226.5,-0.5"/>
<text text-anchor="middle" x="252" y="-7.5" font-family="Helvetica,sans-Serif" font-size="10.00">igraph.h</text>
</g>
<!-- Node4&#45;&gt;Node5 -->
<g id="edge4" class="edge"><title>Node4&#45;&gt;Node5</title>
<path fill="none" stroke="midnightblue" d="M163.109,-112.155C149.878,-99.2288 129.456,-74.6842 142,-56 158.476,-31.4579 190.961,-20.2915 216.376,-15.2161"/>
<polygon fill="midnightblue" stroke="midnightblue" points="217.178,-18.6288 226.418,-13.446 215.963,-11.7351 217.178,-18.6288"/>
</g>
<!-- Node6 -->
<g id="node6" class="node"><title>Node6</title>
<polygon fill="white" stroke="#bfbfbf" points="151,-56.5 151,-75.5 191,-75.5 191,-56.5 151,-56.5"/>
<text text-anchor="middle" x="171" y="-63.5" font-family="Helvetica,sans-Serif" font-size="10.00">utility</text>
</g>
<!-- Node4&#45;&gt;Node6 -->
<g id="edge5" class="edge"><title>Node4&#45;&gt;Node6</title>
<path fill="none" stroke="midnightblue" d="M172.67,-112.083C172.408,-105.006 172.032,-94.8611 171.703,-85.9865"/>
<polygon fill="midnightblue" stroke="midnightblue" points="175.192,-85.6147 171.324,-75.7511 168.197,-85.8738 175.192,-85.6147"/>
</g>
<!-- Node7 -->
<g id="node7" class="node"><title>Node7</title>
<g id="a_node7"><a xlink:href="basic__state_8hpp.html" target="_top" xlink:title="basic_state.hpp">
<polygon fill="white" stroke="red" points="209,-56.5 209,-75.5 295,-75.5 295,-56.5 209,-56.5"/>
<text text-anchor="middle" x="252" y="-63.5" font-family="Helvetica,sans-Serif" font-size="10.00">basic_state.hpp</text>
</a>
</g>
</g>
<!-- Node4&#45;&gt;Node7 -->
<g id="edge6" class="edge"><title>Node4&#45;&gt;Node7</title>
<path fill="none" stroke="midnightblue" d="M185.693,-112.324C197.901,-103.979 216.578,-91.2122 231.003,-81.3524"/>
<polygon fill="midnightblue" stroke="midnightblue" points="233.058,-84.1871 239.339,-75.6545 229.108,-78.4082 233.058,-84.1871"/>
</g>
<!-- Node7&#45;&gt;Node5 -->
<g id="edge7" class="edge"><title>Node7&#45;&gt;Node5</title>
<path fill="none" stroke="midnightblue" d="M252,-56.083C252,-49.0059 252,-38.8611 252,-29.9865"/>
<polygon fill="midnightblue" stroke="midnightblue" points="255.5,-29.751 252,-19.7511 248.5,-29.7511 255.5,-29.751"/>
</g>
<!-- Node8&#45;&gt;Node5 -->
<g id="edge9" class="edge"><title>Node8&#45;&gt;Node5</title>
<path fill="none" stroke="midnightblue" d="M307.058,-112.083C309.593,-99.0665 312.587,-74.4109 304,-56 298.165,-43.4895 286.993,-33.1002 276.495,-25.468"/>
<polygon fill="midnightblue" stroke="midnightblue" points="278.216,-22.407 267.968,-19.7194 274.303,-28.2113 278.216,-22.407"/>
</g>
</g>
</svg>
