<?xml version="1.0" encoding="UTF-8" standalone="no"?>
<!DOCTYPE svg PUBLIC "-//W3C//DTD SVG 1.1//EN"
 "http://www.w3.org/Graphics/SVG/1.1/DTD/svg11.dtd">
<!-- Generated by graphviz version 2.38.0 (20140413.2041)
 -->
<!-- Title: gmgf/matrix_state.hpp Pages: 1 -->
<svg width="189pt" height="140pt"
 viewBox="0.00 0.00 189.00 140.00" xmlns="http://www.w3.org/2000/svg" xmlns:xlink="http://www.w3.org/1999/xlink">
<g id="graph0" class="graph" transform="scale(1 1) rotate(0) translate(4 136)">
<title>gmgf/matrix_state.hpp</title>
<polygon fill="white" stroke="none" points="-4,4 -4,-136 185,-136 185,4 -4,4"/>
<!-- Node1 -->
<g id="node1" class="node"><title>Node1</title>
<polygon fill="#bfbfbf" stroke="black" points="0,-112.5 0,-131.5 114,-131.5 114,-112.5 0,-112.5"/>
<text text-anchor="middle" x="57" y="-119.5" font-family="Helvetica,sans-Serif" font-size="10.00">gmgf/matrix_state.hpp</text>
</g>
<!-- Node2 -->
<g id="node2" class="node"><title>Node2</title>
<polygon fill="white" stroke="#bfbfbf" points="11.5,-0.5 11.5,-19.5 62.5,-19.5 62.5,-0.5 11.5,-0.5"/>
<text text-anchor="middle" x="37" y="-7.5" font-family="Helvetica,sans-Serif" font-size="10.00">igraph.h</text>
</g>
<!-- Node1&#45;&gt;Node2 -->
<g id="edge1" class="edge"><title>Node1&#45;&gt;Node2</title>
<path fill="none" stroke="midnightblue" d="M49.3271,-112.459C42.2211,-103.927 32.1461,-90.0875 28,-76 23.4768,-60.6313 26.6387,-42.5335 30.4074,-29.3423"/>
<polygon fill="midnightblue" stroke="midnightblue" points="33.8164,-30.1752 33.5605,-19.5835 27.1555,-28.023 33.8164,-30.1752"/>
</g>
<!-- Node3 -->
<g id="node3" class="node"><title>Node3</title>
<polygon fill="white" stroke="#bfbfbf" points="37,-56.5 37,-75.5 77,-75.5 77,-56.5 37,-56.5"/>
<text text-anchor="middle" x="57" y="-63.5" font-family="Helvetica,sans-Serif" font-size="10.00">utility</text>
</g>
<!-- Node1&#45;&gt;Node3 -->
<g id="edge2" class="edge"><title>Node1&#45;&gt;Node3</title>
<path fill="none" stroke="midnightblue" d="M57,-112.083C57,-105.006 57,-94.8611 57,-85.9865"/>
<polygon fill="midnightblue" stroke="midnightblue" points="60.5001,-85.751 57,-75.7511 53.5001,-85.7511 60.5001,-85.751"/>
</g>
<!-- Node4 -->
<g id="node4" class="node"><title>Node4</title>
<g id="a_node4"><a xlink:href="basic__state_8hpp.html" target="_top" xlink:title="basic_state.hpp">
<polygon fill="white" stroke="black" points="95,-56.5 95,-75.5 181,-75.5 181,-56.5 95,-56.5"/>
<text text-anchor="middle" x="138" y="-63.5" font-family="Helvetica,sans-Serif" font-size="10.00">basic_state.hpp</text>
</a>
</g>
</g>
<!-- Node1&#45;&gt;Node4 -->
<g id="edge3" class="edge"><title>Node1&#45;&gt;Node4</title>
<path fill="none" stroke="midnightblue" d="M70.0141,-112.324C82.5316,-103.979 101.682,-91.2122 116.471,-81.3524"/>
<polygon fill="midnightblue" stroke="midnightblue" points="118.639,-84.1137 125.018,-75.6545 114.756,-78.2894 118.639,-84.1137"/>
</g>
<!-- Node4&#45;&gt;Node2 -->
<g id="edge4" class="edge"><title>Node4&#45;&gt;Node2</title>
<path fill="none" stroke="midnightblue" d="M121.773,-56.324C105.649,-47.7034 80.6998,-34.3643 62.0359,-24.3855"/>
<polygon fill="midnightblue" stroke="midnightblue" points="63.6561,-21.283 53.1871,-19.6545 60.3556,-27.456 63.6561,-21.283"/>
</g>
<!-- Node5 -->
<g id="node5" class="node"><title>Node5</title>
<g id="a_node5"><a xlink:href="state_8hpp.html" target="_top" xlink:title="state.hpp">
<polygon fill="white" stroke="red" points="109.5,-0.5 109.5,-19.5 166.5,-19.5 166.5,-0.5 109.5,-0.5"/>
<text text-anchor="middle" x="138" y="-7.5" font-family="Helvetica,sans-Serif" font-size="10.00">state.hpp</text>
</a>
</g>
</g>
<!-- Node4&#45;&gt;Node5 -->
<g id="edge5" class="edge"><title>Node4&#45;&gt;Node5</title>
<path fill="none" stroke="midnightblue" d="M138,-56.083C138,-49.0059 138,-38.8611 138,-29.9865"/>
<polygon fill="midnightblue" stroke="midnightblue" points="141.5,-29.751 138,-19.7511 134.5,-29.7511 141.5,-29.751"/>
</g>
</g>
</svg>
