<?xml version="1.0" encoding="UTF-8" standalone="no"?>
<!DOCTYPE svg PUBLIC "-//W3C//DTD SVG 1.1//EN"
 "http://www.w3.org/Graphics/SVG/1.1/DTD/svg11.dtd">
<!-- Generated by graphviz version 2.38.0 (20140413.2041)
 -->
<!-- Title: gmgf/matrix_opt_state.hpp Pages: 1 -->
<svg width="274pt" height="95pt"
 viewBox="0.00 0.00 273.50 95.00" xmlns="http://www.w3.org/2000/svg" xmlns:xlink="http://www.w3.org/1999/xlink">
<g id="graph0" class="graph" transform="scale(1 1) rotate(0) translate(4 91)">
<title>gmgf/matrix_opt_state.hpp</title>
<polygon fill="white" stroke="none" points="-4,4 -4,-91 269.5,-91 269.5,4 -4,4"/>
<!-- Node1 -->
<g id="node1" class="node"><title>Node1</title>
<polygon fill="#bfbfbf" stroke="black" points="71,-67.5 71,-86.5 204,-86.5 204,-67.5 71,-67.5"/>
<text text-anchor="middle" x="137.5" y="-74.5" font-family="Helvetica,sans-Serif" font-size="10.00">gmgf/matrix_opt_state.hpp</text>
</g>
<!-- Node2 -->
<g id="node2" class="node"><title>Node2</title>
<g id="a_node2"><a xlink:href="matrix__opt__state_8cpp.html" target="_top" xlink:title="gmgf/matrix_opt_state.cpp">
<polygon fill="white" stroke="black" points="0,-6 0,-25 133,-25 133,-6 0,-6"/>
<text text-anchor="middle" x="66.5" y="-13" font-family="Helvetica,sans-Serif" font-size="10.00">gmgf/matrix_opt_state.cpp</text>
</a>
</g>
</g>
<!-- Node1&#45;&gt;Node2 -->
<g id="edge1" class="edge"><title>Node1&#45;&gt;Node2</title>
<path fill="none" stroke="midnightblue" d="M119.568,-60.9727C105.989,-49.5925 87.8231,-34.3694 76.6537,-25.0091"/>
<polygon fill="midnightblue" stroke="midnightblue" points="117.415,-63.7346 127.327,-67.4751 121.911,-58.3694 117.415,-63.7346"/>
</g>
<!-- Node3 -->
<g id="node3" class="node"><title>Node3</title>
<g id="a_node3"><a xlink:href="matrix__opt__state__initr_8cpp.html" target="_top" xlink:title="gmgf/matrix_opt_state\l_initr.cpp">
<polygon fill="white" stroke="black" points="151.5,-0.5 151.5,-30.5 265.5,-30.5 265.5,-0.5 151.5,-0.5"/>
<text text-anchor="start" x="159.5" y="-18.5" font-family="Helvetica,sans-Serif" font-size="10.00">gmgf/matrix_opt_state</text>
<text text-anchor="middle" x="208.5" y="-7.5" font-family="Helvetica,sans-Serif" font-size="10.00">_initr.cpp</text>
</a>
</g>
</g>
<!-- Node1&#45;&gt;Node3 -->
<g id="edge2" class="edge"><title>Node1&#45;&gt;Node3</title>
<path fill="none" stroke="midnightblue" d="M155.493,-60.9215C166.641,-51.579 180.862,-39.6616 191.767,-30.523"/>
<polygon fill="midnightblue" stroke="midnightblue" points="153.089,-58.3694 147.673,-67.4751 157.585,-63.7346 153.089,-58.3694"/>
</g>
</g>
</svg>
