<?xml version="1.0" encoding="UTF-8" standalone="no"?>
<!DOCTYPE svg PUBLIC "-//W3C//DTD SVG 1.1//EN"
 "http://www.w3.org/Graphics/SVG/1.1/DTD/svg11.dtd">
<!-- Generated by graphviz version 2.38.0 (20140413.2041)
 -->
<!-- Title: gmgf/matrix_state.hpp Pages: 1 -->
<svg width="276pt" height="84pt"
 viewBox="0.00 0.00 275.50 84.00" xmlns="http://www.w3.org/2000/svg" xmlns:xlink="http://www.w3.org/1999/xlink">
<g id="graph0" class="graph" transform="scale(1 1) rotate(0) translate(4 80)">
<title>gmgf/matrix_state.hpp</title>
<polygon fill="white" stroke="none" points="-4,4 -4,-80 271.5,-80 271.5,4 -4,4"/>
<!-- Node1 -->
<g id="node1" class="node"><title>Node1</title>
<polygon fill="#bfbfbf" stroke="black" points="71,-56.5 71,-75.5 185,-75.5 185,-56.5 71,-56.5"/>
<text text-anchor="middle" x="128" y="-63.5" font-family="Helvetica,sans-Serif" font-size="10.00">gmgf/matrix_state.hpp</text>
</g>
<!-- Node2 -->
<g id="node2" class="node"><title>Node2</title>
<g id="a_node2"><a xlink:href="matrix__state_8cpp.html" target="_top" xlink:title="gmgf/matrix_state.cpp">
<polygon fill="white" stroke="black" points="0,-0.5 0,-19.5 114,-19.5 114,-0.5 0,-0.5"/>
<text text-anchor="middle" x="57" y="-7.5" font-family="Helvetica,sans-Serif" font-size="10.00">gmgf/matrix_state.cpp</text>
</a>
</g>
</g>
<!-- Node1&#45;&gt;Node2 -->
<g id="edge1" class="edge"><title>Node1&#45;&gt;Node2</title>
<path fill="none" stroke="midnightblue" d="M108.41,-50.1008C95.6324,-40.3824 79.3873,-28.0269 68.6149,-19.8339"/>
<polygon fill="midnightblue" stroke="midnightblue" points="106.514,-53.0561 116.593,-56.324 110.752,-47.4844 106.514,-53.0561"/>
</g>
<!-- Node3 -->
<g id="node3" class="node"><title>Node3</title>
<g id="a_node3"><a xlink:href="matrix__state__initr_8cpp.html" target="_top" xlink:title="gmgf/matrix_state_initr.cpp">
<polygon fill="white" stroke="black" points="132.5,-0.5 132.5,-19.5 267.5,-19.5 267.5,-0.5 132.5,-0.5"/>
<text text-anchor="middle" x="200" y="-7.5" font-family="Helvetica,sans-Serif" font-size="10.00">gmgf/matrix_state_initr.cpp</text>
</a>
</g>
</g>
<!-- Node1&#45;&gt;Node3 -->
<g id="edge2" class="edge"><title>Node1&#45;&gt;Node3</title>
<path fill="none" stroke="midnightblue" d="M147.866,-50.1008C160.823,-40.3824 177.297,-28.0269 188.221,-19.8339"/>
<polygon fill="midnightblue" stroke="midnightblue" points="145.468,-47.5239 139.568,-56.324 149.668,-53.1239 145.468,-47.5239"/>
</g>
</g>
</svg>
