<?xml version="1.0" encoding="UTF-8" standalone="no"?>
<!DOCTYPE svg PUBLIC "-//W3C//DTD SVG 1.1//EN"
 "http://www.w3.org/Graphics/SVG/1.1/DTD/svg11.dtd">
<!-- Generated by graphviz version 2.38.0 (20140413.2041)
 -->
<!-- Title: gmgf/matrix_opt_state_initr.hpp Pages: 1 -->
<svg width="164pt" height="151pt"
 viewBox="0.00 0.00 163.50 151.00" xmlns="http://www.w3.org/2000/svg" xmlns:xlink="http://www.w3.org/1999/xlink">
<g id="graph0" class="graph" transform="scale(1 1) rotate(0) translate(4 147)">
<title>gmgf/matrix_opt_state_initr.hpp</title>
<polygon fill="white" stroke="none" points="-4,4 -4,-147 159.5,-147 159.5,4 -4,4"/>
<!-- Node1 -->
<g id="node1" class="node"><title>Node1</title>
<polygon fill="#bfbfbf" stroke="black" points="14.5,-112.5 14.5,-142.5 128.5,-142.5 128.5,-112.5 14.5,-112.5"/>
<text text-anchor="start" x="22.5" y="-130.5" font-family="Helvetica,sans-Serif" font-size="10.00">gmgf/matrix_opt_state</text>
<text text-anchor="middle" x="71.5" y="-119.5" font-family="Helvetica,sans-Serif" font-size="10.00">_initr.hpp</text>
</g>
<!-- Node2 -->
<g id="node2" class="node"><title>Node2</title>
<g id="a_node2"><a xlink:href="state__initr_8hpp.html" target="_top" xlink:title="state_initr.hpp">
<polygon fill="white" stroke="black" points="32.5,-56.5 32.5,-75.5 110.5,-75.5 110.5,-56.5 32.5,-56.5"/>
<text text-anchor="middle" x="71.5" y="-63.5" font-family="Helvetica,sans-Serif" font-size="10.00">state_initr.hpp</text>
</a>
</g>
</g>
<!-- Node1&#45;&gt;Node2 -->
<g id="edge1" class="edge"><title>Node1&#45;&gt;Node2</title>
<path fill="none" stroke="midnightblue" d="M71.5,-112.399C71.5,-104.466 71.5,-94.458 71.5,-85.8583"/>
<polygon fill="midnightblue" stroke="midnightblue" points="75.0001,-85.6577 71.5,-75.6578 68.0001,-85.6578 75.0001,-85.6577"/>
</g>
<!-- Node3 -->
<g id="node3" class="node"><title>Node3</title>
<g id="a_node3"><a xlink:href="state_8hpp.html" target="_top" xlink:title="state.hpp">
<polygon fill="white" stroke="red" points="0,-0.5 0,-19.5 57,-19.5 57,-0.5 0,-0.5"/>
<text text-anchor="middle" x="28.5" y="-7.5" font-family="Helvetica,sans-Serif" font-size="10.00">state.hpp</text>
</a>
</g>
</g>
<!-- Node2&#45;&gt;Node3 -->
<g id="edge2" class="edge"><title>Node2&#45;&gt;Node3</title>
<path fill="none" stroke="midnightblue" d="M64.3994,-56.083C58.263,-48.3768 49.2303,-37.0333 41.7608,-27.6531"/>
<polygon fill="midnightblue" stroke="midnightblue" points="44.4357,-25.3936 35.4685,-19.7511 38.9598,-29.7542 44.4357,-25.3936"/>
</g>
<!-- Node4 -->
<g id="node4" class="node"><title>Node4</title>
<g id="a_node4"><a xlink:href="graph__initr_8hpp.html" target="_top" xlink:title="graph_initr.hpp">
<polygon fill="white" stroke="red" points="75.5,-0.5 75.5,-19.5 155.5,-19.5 155.5,-0.5 75.5,-0.5"/>
<text text-anchor="middle" x="115.5" y="-7.5" font-family="Helvetica,sans-Serif" font-size="10.00">graph_initr.hpp</text>
</a>
</g>
</g>
<!-- Node2&#45;&gt;Node4 -->
<g id="edge3" class="edge"><title>Node2&#45;&gt;Node4</title>
<path fill="none" stroke="midnightblue" d="M78.7657,-56.083C85.0448,-48.3768 94.2876,-37.0333 101.931,-27.6531"/>
<polygon fill="midnightblue" stroke="midnightblue" points="104.766,-29.7143 108.369,-19.7511 99.3394,-25.2926 104.766,-29.7143"/>
</g>
</g>
</svg>
