<?xml version="1.0" encoding="UTF-8" standalone="no"?>
<!DOCTYPE svg PUBLIC "-//W3C//DTD SVG 1.1//EN"
 "http://www.w3.org/Graphics/SVG/1.1/DTD/svg11.dtd">
<!-- Generated by graphviz version 2.38.0 (20140413.2041)
 -->
<!-- Title: gmgf/minmax_state_initr.cpp Pages: 1 -->
<svg width="317pt" height="196pt"
 viewBox="0.00 0.00 317.00 196.00" xmlns="http://www.w3.org/2000/svg" xmlns:xlink="http://www.w3.org/1999/xlink">
<g id="graph0" class="graph" transform="scale(1 1) rotate(0) translate(4 192)">
<title>gmgf/minmax_state_initr.cpp</title>
<polygon fill="white" stroke="none" points="-4,4 -4,-192 313,-192 313,4 -4,4"/>
<!-- Node1 -->
<g id="node1" class="node"><title>Node1</title>
<polygon fill="#bfbfbf" stroke="black" points="50.5,-168.5 50.5,-187.5 193.5,-187.5 193.5,-168.5 50.5,-168.5"/>
<text text-anchor="middle" x="122" y="-175.5" font-family="Helvetica,sans-Serif" font-size="10.00">gmgf/minmax_state_initr.cpp</text>
</g>
<!-- Node2 -->
<g id="node2" class="node"><title>Node2</title>
<g id="a_node2"><a xlink:href="minmax__state__initr_8hpp.html" target="_top" xlink:title="minmax_state_initr.hpp">
<polygon fill="white" stroke="black" points="0,-112.5 0,-131.5 118,-131.5 118,-112.5 0,-112.5"/>
<text text-anchor="middle" x="59" y="-119.5" font-family="Helvetica,sans-Serif" font-size="10.00">minmax_state_initr.hpp</text>
</a>
</g>
</g>
<!-- Node1&#45;&gt;Node2 -->
<g id="edge1" class="edge"><title>Node1&#45;&gt;Node2</title>
<path fill="none" stroke="midnightblue" d="M111.878,-168.324C102.474,-160.263 88.2559,-148.077 76.931,-138.369"/>
<polygon fill="midnightblue" stroke="midnightblue" points="79.1766,-135.684 69.3062,-131.834 74.621,-140.999 79.1766,-135.684"/>
</g>
<!-- Node4 -->
<g id="node4" class="node"><title>Node4</title>
<g id="a_node4"><a xlink:href="minmax__state_8hpp.html" target="_top" xlink:title="minmax_state.hpp">
<polygon fill="white" stroke="black" points="136.5,-112.5 136.5,-131.5 233.5,-131.5 233.5,-112.5 136.5,-112.5"/>
<text text-anchor="middle" x="185" y="-119.5" font-family="Helvetica,sans-Serif" font-size="10.00">minmax_state.hpp</text>
</a>
</g>
</g>
<!-- Node1&#45;&gt;Node4 -->
<g id="edge3" class="edge"><title>Node1&#45;&gt;Node4</title>
<path fill="none" stroke="midnightblue" d="M132.122,-168.324C141.526,-160.263 155.744,-148.077 167.069,-138.369"/>
<polygon fill="midnightblue" stroke="midnightblue" points="169.379,-140.999 174.694,-131.834 164.823,-135.684 169.379,-140.999"/>
</g>
<!-- Node3 -->
<g id="node3" class="node"><title>Node3</title>
<g id="a_node3"><a xlink:href="state__initr_8hpp.html" target="_top" xlink:title="state_initr.hpp">
<polygon fill="white" stroke="red" points="20,-56.5 20,-75.5 98,-75.5 98,-56.5 20,-56.5"/>
<text text-anchor="middle" x="59" y="-63.5" font-family="Helvetica,sans-Serif" font-size="10.00">state_initr.hpp</text>
</a>
</g>
</g>
<!-- Node2&#45;&gt;Node3 -->
<g id="edge2" class="edge"><title>Node2&#45;&gt;Node3</title>
<path fill="none" stroke="midnightblue" d="M59,-112.083C59,-105.006 59,-94.8611 59,-85.9865"/>
<polygon fill="midnightblue" stroke="midnightblue" points="62.5001,-85.751 59,-75.7511 55.5001,-85.7511 62.5001,-85.751"/>
</g>
<!-- Node5 -->
<g id="node5" class="node"><title>Node5</title>
<polygon fill="white" stroke="#bfbfbf" points="175.5,-0.5 175.5,-19.5 226.5,-19.5 226.5,-0.5 175.5,-0.5"/>
<text text-anchor="middle" x="201" y="-7.5" font-family="Helvetica,sans-Serif" font-size="10.00">igraph.h</text>
</g>
<!-- Node4&#45;&gt;Node5 -->
<g id="edge4" class="edge"><title>Node4&#45;&gt;Node5</title>
<path fill="none" stroke="midnightblue" d="M176.22,-112.234C164.891,-99.808 147.583,-76.321 156,-56 160.92,-44.121 170.667,-33.7428 179.834,-25.9557"/>
<polygon fill="midnightblue" stroke="midnightblue" points="182.253,-28.5058 187.936,-19.5641 177.917,-23.0101 182.253,-28.5058"/>
</g>
<!-- Node6 -->
<g id="node6" class="node"><title>Node6</title>
<polygon fill="white" stroke="#bfbfbf" points="165,-56.5 165,-75.5 205,-75.5 205,-56.5 165,-56.5"/>
<text text-anchor="middle" x="185" y="-63.5" font-family="Helvetica,sans-Serif" font-size="10.00">utility</text>
</g>
<!-- Node4&#45;&gt;Node6 -->
<g id="edge5" class="edge"><title>Node4&#45;&gt;Node6</title>
<path fill="none" stroke="midnightblue" d="M185,-112.083C185,-105.006 185,-94.8611 185,-85.9865"/>
<polygon fill="midnightblue" stroke="midnightblue" points="188.5,-85.751 185,-75.7511 181.5,-85.7511 188.5,-85.751"/>
</g>
<!-- Node7 -->
<g id="node7" class="node"><title>Node7</title>
<g id="a_node7"><a xlink:href="basic__state_8hpp.html" target="_top" xlink:title="basic_state.hpp">
<polygon fill="white" stroke="red" points="223,-56.5 223,-75.5 309,-75.5 309,-56.5 223,-56.5"/>
<text text-anchor="middle" x="266" y="-63.5" font-family="Helvetica,sans-Serif" font-size="10.00">basic_state.hpp</text>
</a>
</g>
</g>
<!-- Node4&#45;&gt;Node7 -->
<g id="edge6" class="edge"><title>Node4&#45;&gt;Node7</title>
<path fill="none" stroke="midnightblue" d="M198.014,-112.324C210.532,-103.979 229.682,-91.2122 244.471,-81.3524"/>
<polygon fill="midnightblue" stroke="midnightblue" points="246.639,-84.1137 253.018,-75.6545 242.756,-78.2894 246.639,-84.1137"/>
</g>
<!-- Node7&#45;&gt;Node5 -->
<g id="edge7" class="edge"><title>Node7&#45;&gt;Node5</title>
<path fill="none" stroke="midnightblue" d="M255.557,-56.324C245.854,-48.2631 231.185,-36.0765 219.5,-26.3695"/>
<polygon fill="midnightblue" stroke="midnightblue" points="221.562,-23.532 211.633,-19.8339 217.089,-28.9163 221.562,-23.532"/>
</g>
</g>
</svg>
