<?xml version="1.0" encoding="UTF-8" standalone="no"?>
<!DOCTYPE svg PUBLIC "-//W3C//DTD SVG 1.1//EN"
 "http://www.w3.org/Graphics/SVG/1.1/DTD/svg11.dtd">
<!-- Generated by graphviz version 2.38.0 (20140413.2041)
 -->
<!-- Title: gmgf/minmax_state.cpp Pages: 1 -->
<svg width="193pt" height="196pt"
 viewBox="0.00 0.00 193.00 196.00" xmlns="http://www.w3.org/2000/svg" xmlns:xlink="http://www.w3.org/1999/xlink">
<g id="graph0" class="graph" transform="scale(1 1) rotate(0) translate(4 192)">
<title>gmgf/minmax_state.cpp</title>
<polygon fill="white" stroke="none" points="-4,4 -4,-192 189,-192 189,4 -4,4"/>
<!-- Node1 -->
<g id="node1" class="node"><title>Node1</title>
<polygon fill="#bfbfbf" stroke="black" points="0,-168.5 0,-187.5 122,-187.5 122,-168.5 0,-168.5"/>
<text text-anchor="middle" x="61" y="-175.5" font-family="Helvetica,sans-Serif" font-size="10.00">gmgf/minmax_state.cpp</text>
</g>
<!-- Node2 -->
<g id="node2" class="node"><title>Node2</title>
<g id="a_node2"><a xlink:href="minmax__state_8hpp.html" target="_top" xlink:title="minmax_state.hpp">
<polygon fill="white" stroke="black" points="12.5,-112.5 12.5,-131.5 109.5,-131.5 109.5,-112.5 12.5,-112.5"/>
<text text-anchor="middle" x="61" y="-119.5" font-family="Helvetica,sans-Serif" font-size="10.00">minmax_state.hpp</text>
</a>
</g>
</g>
<!-- Node1&#45;&gt;Node2 -->
<g id="edge1" class="edge"><title>Node1&#45;&gt;Node2</title>
<path fill="none" stroke="midnightblue" d="M61,-168.083C61,-161.006 61,-150.861 61,-141.986"/>
<polygon fill="midnightblue" stroke="midnightblue" points="64.5001,-141.751 61,-131.751 57.5001,-141.751 64.5001,-141.751"/>
</g>
<!-- Node3 -->
<g id="node3" class="node"><title>Node3</title>
<polygon fill="white" stroke="#bfbfbf" points="51.5,-0.5 51.5,-19.5 102.5,-19.5 102.5,-0.5 51.5,-0.5"/>
<text text-anchor="middle" x="77" y="-7.5" font-family="Helvetica,sans-Serif" font-size="10.00">igraph.h</text>
</g>
<!-- Node2&#45;&gt;Node3 -->
<g id="edge2" class="edge"><title>Node2&#45;&gt;Node3</title>
<path fill="none" stroke="midnightblue" d="M52.2197,-112.234C40.8911,-99.808 23.5828,-76.321 32,-56 36.9204,-44.121 46.6667,-33.7428 55.8343,-25.9557"/>
<polygon fill="midnightblue" stroke="midnightblue" points="58.2529,-28.5058 63.9359,-19.5641 53.9172,-23.0101 58.2529,-28.5058"/>
</g>
<!-- Node4 -->
<g id="node4" class="node"><title>Node4</title>
<polygon fill="white" stroke="#bfbfbf" points="41,-56.5 41,-75.5 81,-75.5 81,-56.5 41,-56.5"/>
<text text-anchor="middle" x="61" y="-63.5" font-family="Helvetica,sans-Serif" font-size="10.00">utility</text>
</g>
<!-- Node2&#45;&gt;Node4 -->
<g id="edge3" class="edge"><title>Node2&#45;&gt;Node4</title>
<path fill="none" stroke="midnightblue" d="M61,-112.083C61,-105.006 61,-94.8611 61,-85.9865"/>
<polygon fill="midnightblue" stroke="midnightblue" points="64.5001,-85.751 61,-75.7511 57.5001,-85.7511 64.5001,-85.751"/>
</g>
<!-- Node5 -->
<g id="node5" class="node"><title>Node5</title>
<g id="a_node5"><a xlink:href="basic__state_8hpp.html" target="_top" xlink:title="basic_state.hpp">
<polygon fill="white" stroke="red" points="99,-56.5 99,-75.5 185,-75.5 185,-56.5 99,-56.5"/>
<text text-anchor="middle" x="142" y="-63.5" font-family="Helvetica,sans-Serif" font-size="10.00">basic_state.hpp</text>
</a>
</g>
</g>
<!-- Node2&#45;&gt;Node5 -->
<g id="edge4" class="edge"><title>Node2&#45;&gt;Node5</title>
<path fill="none" stroke="midnightblue" d="M74.0141,-112.324C86.5316,-103.979 105.682,-91.2122 120.471,-81.3524"/>
<polygon fill="midnightblue" stroke="midnightblue" points="122.639,-84.1137 129.018,-75.6545 118.756,-78.2894 122.639,-84.1137"/>
</g>
<!-- Node5&#45;&gt;Node3 -->
<g id="edge5" class="edge"><title>Node5&#45;&gt;Node3</title>
<path fill="none" stroke="midnightblue" d="M131.557,-56.324C121.854,-48.2631 107.185,-36.0765 95.5003,-26.3695"/>
<polygon fill="midnightblue" stroke="midnightblue" points="97.5619,-23.532 87.6334,-19.8339 93.0887,-28.9163 97.5619,-23.532"/>
</g>
</g>
</svg>
