<?xml version="1.0" encoding="UTF-8" standalone="no"?>
<!DOCTYPE svg PUBLIC "-//W3C//DTD SVG 1.1//EN"
 "http://www.w3.org/Graphics/SVG/1.1/DTD/svg11.dtd">
<!-- Generated by graphviz version 2.38.0 (20140413.2041)
 -->
<!-- Title: gmgf/minmax_state.hpp Pages: 1 -->
<svg width="292pt" height="84pt"
 viewBox="0.00 0.00 291.50 84.00" xmlns="http://www.w3.org/2000/svg" xmlns:xlink="http://www.w3.org/1999/xlink">
<g id="graph0" class="graph" transform="scale(1 1) rotate(0) translate(4 80)">
<title>gmgf/minmax_state.hpp</title>
<polygon fill="white" stroke="none" points="-4,4 -4,-80 287.5,-80 287.5,4 -4,4"/>
<!-- Node1 -->
<g id="node1" class="node"><title>Node1</title>
<polygon fill="#bfbfbf" stroke="black" points="75,-56.5 75,-75.5 197,-75.5 197,-56.5 75,-56.5"/>
<text text-anchor="middle" x="136" y="-63.5" font-family="Helvetica,sans-Serif" font-size="10.00">gmgf/minmax_state.hpp</text>
</g>
<!-- Node2 -->
<g id="node2" class="node"><title>Node2</title>
<g id="a_node2"><a xlink:href="minmax__state_8cpp.html" target="_top" xlink:title="gmgf/minmax_state.cpp">
<polygon fill="white" stroke="black" points="0,-0.5 0,-19.5 122,-19.5 122,-0.5 0,-0.5"/>
<text text-anchor="middle" x="61" y="-7.5" font-family="Helvetica,sans-Serif" font-size="10.00">gmgf/minmax_state.cpp</text>
</a>
</g>
</g>
<!-- Node1&#45;&gt;Node2 -->
<g id="edge1" class="edge"><title>Node1&#45;&gt;Node2</title>
<path fill="none" stroke="midnightblue" d="M115.695,-50.3804C102.139,-40.6204 84.7579,-28.1057 73.2693,-19.8339"/>
<polygon fill="midnightblue" stroke="midnightblue" points="113.79,-53.3213 123.95,-56.324 117.88,-47.6405 113.79,-53.3213"/>
</g>
<!-- Node3 -->
<g id="node3" class="node"><title>Node3</title>
<g id="a_node3"><a xlink:href="minmax__state__initr_8cpp.html" target="_top" xlink:title="gmgf/minmax_state_initr.cpp">
<polygon fill="white" stroke="black" points="140.5,-0.5 140.5,-19.5 283.5,-19.5 283.5,-0.5 140.5,-0.5"/>
<text text-anchor="middle" x="212" y="-7.5" font-family="Helvetica,sans-Serif" font-size="10.00">gmgf/minmax_state_initr.cpp</text>
</a>
</g>
</g>
<!-- Node1&#45;&gt;Node3 -->
<g id="edge2" class="edge"><title>Node1&#45;&gt;Node3</title>
<path fill="none" stroke="midnightblue" d="M156.576,-50.3804C170.312,-40.6204 187.925,-28.1057 199.567,-19.8339"/>
<polygon fill="midnightblue" stroke="midnightblue" points="154.335,-47.6787 148.211,-56.324 158.39,-53.385 154.335,-47.6787"/>
</g>
</g>
</svg>
