<?xml version="1.0" encoding="UTF-8" standalone="no"?>
<!DOCTYPE svg PUBLIC "-//W3C//DTD SVG 1.1//EN"
 "http://www.w3.org/Graphics/SVG/1.1/DTD/svg11.dtd">
<!-- Generated by graphviz version 2.38.0 (20140413.2041)
 -->
<!-- Title: gmgf/mmmtr_state_initr.cpp Pages: 1 -->
<svg width="372pt" height="196pt"
 viewBox="0.00 0.00 371.50 196.00" xmlns="http://www.w3.org/2000/svg" xmlns:xlink="http://www.w3.org/1999/xlink">
<g id="graph0" class="graph" transform="scale(1 1) rotate(0) translate(4 192)">
<title>gmgf/mmmtr_state_initr.cpp</title>
<polygon fill="white" stroke="none" points="-4,4 -4,-192 367.5,-192 367.5,4 -4,4"/>
<!-- Node1 -->
<g id="node1" class="node"><title>Node1</title>
<polygon fill="#bfbfbf" stroke="black" points="109.5,-168.5 109.5,-187.5 248.5,-187.5 248.5,-168.5 109.5,-168.5"/>
<text text-anchor="middle" x="179" y="-175.5" font-family="Helvetica,sans-Serif" font-size="10.00">gmgf/mmmtr_state_initr.cpp</text>
</g>
<!-- Node2 -->
<g id="node2" class="node"><title>Node2</title>
<g id="a_node2"><a xlink:href="mmmtr__state__initr_8hpp.html" target="_top" xlink:title="mmmtr_state_initr.hpp">
<polygon fill="white" stroke="black" points="0,-112.5 0,-131.5 114,-131.5 114,-112.5 0,-112.5"/>
<text text-anchor="middle" x="57" y="-119.5" font-family="Helvetica,sans-Serif" font-size="10.00">mmmtr_state_initr.hpp</text>
</a>
</g>
</g>
<!-- Node1&#45;&gt;Node2 -->
<g id="edge1" class="edge"><title>Node1&#45;&gt;Node2</title>
<path fill="none" stroke="midnightblue" d="M159.669,-168.444C139.68,-159.596 108.257,-145.687 85.4361,-135.586"/>
<polygon fill="midnightblue" stroke="midnightblue" points="86.8018,-132.363 76.2408,-131.516 83.9685,-138.764 86.8018,-132.363"/>
</g>
<!-- Node4 -->
<g id="node4" class="node"><title>Node4</title>
<g id="a_node4"><a xlink:href="mmmtr__state_8hpp.html" target="_top" xlink:title="mmmtr_state.hpp">
<polygon fill="white" stroke="black" points="132.5,-112.5 132.5,-131.5 225.5,-131.5 225.5,-112.5 132.5,-112.5"/>
<text text-anchor="middle" x="179" y="-119.5" font-family="Helvetica,sans-Serif" font-size="10.00">mmmtr_state.hpp</text>
</a>
</g>
</g>
<!-- Node1&#45;&gt;Node4 -->
<g id="edge3" class="edge"><title>Node1&#45;&gt;Node4</title>
<path fill="none" stroke="midnightblue" d="M179,-168.083C179,-161.006 179,-150.861 179,-141.986"/>
<polygon fill="midnightblue" stroke="midnightblue" points="182.5,-141.751 179,-131.751 175.5,-141.751 182.5,-141.751"/>
</g>
<!-- Node8 -->
<g id="node8" class="node"><title>Node8</title>
<g id="a_node8"><a xlink:href="distance__update_8hpp.html" target="_top" xlink:title="distance_update.hpp">
<polygon fill="white" stroke="black" points="256.5,-112.5 256.5,-131.5 363.5,-131.5 363.5,-112.5 256.5,-112.5"/>
<text text-anchor="middle" x="310" y="-119.5" font-family="Helvetica,sans-Serif" font-size="10.00">distance_update.hpp</text>
</a>
</g>
</g>
<!-- Node1&#45;&gt;Node8 -->
<g id="edge8" class="edge"><title>Node1&#45;&gt;Node8</title>
<path fill="none" stroke="midnightblue" d="M199.757,-168.444C221.316,-159.557 255.263,-145.563 279.794,-135.451"/>
<polygon fill="midnightblue" stroke="midnightblue" points="281.428,-138.563 289.34,-131.516 278.761,-132.092 281.428,-138.563"/>
</g>
<!-- Node3 -->
<g id="node3" class="node"><title>Node3</title>
<g id="a_node3"><a xlink:href="state__initr_8hpp.html" target="_top" xlink:title="state_initr.hpp">
<polygon fill="white" stroke="red" points="18,-56.5 18,-75.5 96,-75.5 96,-56.5 18,-56.5"/>
<text text-anchor="middle" x="57" y="-63.5" font-family="Helvetica,sans-Serif" font-size="10.00">state_initr.hpp</text>
</a>
</g>
</g>
<!-- Node2&#45;&gt;Node3 -->
<g id="edge2" class="edge"><title>Node2&#45;&gt;Node3</title>
<path fill="none" stroke="midnightblue" d="M57,-112.083C57,-105.006 57,-94.8611 57,-85.9865"/>
<polygon fill="midnightblue" stroke="midnightblue" points="60.5001,-85.751 57,-75.7511 53.5001,-85.7511 60.5001,-85.751"/>
</g>
<!-- Node5 -->
<g id="node5" class="node"><title>Node5</title>
<polygon fill="white" stroke="#bfbfbf" points="230.5,-0.5 230.5,-19.5 281.5,-19.5 281.5,-0.5 230.5,-0.5"/>
<text text-anchor="middle" x="256" y="-7.5" font-family="Helvetica,sans-Serif" font-size="10.00">igraph.h</text>
</g>
<!-- Node4&#45;&gt;Node5 -->
<g id="edge4" class="edge"><title>Node4&#45;&gt;Node5</title>
<path fill="none" stroke="midnightblue" d="M168.644,-112.216C154.776,-99.3649 133.302,-74.9134 146,-56 162.476,-31.4579 194.961,-20.2915 220.376,-15.2161"/>
<polygon fill="midnightblue" stroke="midnightblue" points="221.178,-18.6288 230.418,-13.446 219.963,-11.7351 221.178,-18.6288"/>
</g>
<!-- Node6 -->
<g id="node6" class="node"><title>Node6</title>
<polygon fill="white" stroke="#bfbfbf" points="155,-56.5 155,-75.5 195,-75.5 195,-56.5 155,-56.5"/>
<text text-anchor="middle" x="175" y="-63.5" font-family="Helvetica,sans-Serif" font-size="10.00">utility</text>
</g>
<!-- Node4&#45;&gt;Node6 -->
<g id="edge5" class="edge"><title>Node4&#45;&gt;Node6</title>
<path fill="none" stroke="midnightblue" d="M178.339,-112.083C177.815,-105.006 177.064,-94.8611 176.406,-85.9865"/>
<polygon fill="midnightblue" stroke="midnightblue" points="179.877,-85.4652 175.648,-75.7511 172.897,-85.9823 179.877,-85.4652"/>
</g>
<!-- Node7 -->
<g id="node7" class="node"><title>Node7</title>
<g id="a_node7"><a xlink:href="basic__state_8hpp.html" target="_top" xlink:title="basic_state.hpp">
<polygon fill="white" stroke="red" points="213,-56.5 213,-75.5 299,-75.5 299,-56.5 213,-56.5"/>
<text text-anchor="middle" x="256" y="-63.5" font-family="Helvetica,sans-Serif" font-size="10.00">basic_state.hpp</text>
</a>
</g>
</g>
<!-- Node4&#45;&gt;Node7 -->
<g id="edge6" class="edge"><title>Node4&#45;&gt;Node7</title>
<path fill="none" stroke="midnightblue" d="M191.371,-112.324C203.158,-104.058 221.132,-91.4527 235.136,-81.6322"/>
<polygon fill="midnightblue" stroke="midnightblue" points="237.482,-84.2619 243.659,-75.6545 233.462,-78.5307 237.482,-84.2619"/>
</g>
<!-- Node7&#45;&gt;Node5 -->
<g id="edge7" class="edge"><title>Node7&#45;&gt;Node5</title>
<path fill="none" stroke="midnightblue" d="M256,-56.083C256,-49.0059 256,-38.8611 256,-29.9865"/>
<polygon fill="midnightblue" stroke="midnightblue" points="259.5,-29.751 256,-19.7511 252.5,-29.7511 259.5,-29.751"/>
</g>
<!-- Node8&#45;&gt;Node5 -->
<g id="edge9" class="edge"><title>Node8&#45;&gt;Node5</title>
<path fill="none" stroke="midnightblue" d="M311.808,-112.497C314.115,-99.58 316.828,-74.5547 308,-56 302.069,-43.5348 290.888,-33.1498 280.409,-25.5088"/>
<polygon fill="midnightblue" stroke="midnightblue" points="282.145,-22.4578 271.902,-19.7503 278.221,-28.2545 282.145,-22.4578"/>
</g>
</g>
</svg>
