<?xml version="1.0" encoding="UTF-8" standalone="no"?>
<!DOCTYPE svg PUBLIC "-//W3C//DTD SVG 1.1//EN"
 "http://www.w3.org/Graphics/SVG/1.1/DTD/svg11.dtd">
<!-- Generated by graphviz version 2.38.0 (20140413.2041)
 -->
<!-- Title: gmgf/mmmtr_state.hpp Pages: 1 -->
<svg width="191pt" height="140pt"
 viewBox="0.00 0.00 191.00 140.00" xmlns="http://www.w3.org/2000/svg" xmlns:xlink="http://www.w3.org/1999/xlink">
<g id="graph0" class="graph" transform="scale(1 1) rotate(0) translate(4 136)">
<title>gmgf/mmmtr_state.hpp</title>
<polygon fill="white" stroke="none" points="-4,4 -4,-136 187,-136 187,4 -4,4"/>
<!-- Node1 -->
<g id="node1" class="node"><title>Node1</title>
<polygon fill="#bfbfbf" stroke="black" points="0,-112.5 0,-131.5 118,-131.5 118,-112.5 0,-112.5"/>
<text text-anchor="middle" x="59" y="-119.5" font-family="Helvetica,sans-Serif" font-size="10.00">gmgf/mmmtr_state.hpp</text>
</g>
<!-- Node2 -->
<g id="node2" class="node"><title>Node2</title>
<polygon fill="white" stroke="#bfbfbf" points="13.5,-0.5 13.5,-19.5 64.5,-19.5 64.5,-0.5 13.5,-0.5"/>
<text text-anchor="middle" x="39" y="-7.5" font-family="Helvetica,sans-Serif" font-size="10.00">igraph.h</text>
</g>
<!-- Node1&#45;&gt;Node2 -->
<g id="edge1" class="edge"><title>Node1&#45;&gt;Node2</title>
<path fill="none" stroke="midnightblue" d="M51.3271,-112.459C44.2211,-103.927 34.1461,-90.0875 30,-76 25.4768,-60.6313 28.6387,-42.5335 32.4074,-29.3423"/>
<polygon fill="midnightblue" stroke="midnightblue" points="35.8164,-30.1752 35.5605,-19.5835 29.1555,-28.023 35.8164,-30.1752"/>
</g>
<!-- Node3 -->
<g id="node3" class="node"><title>Node3</title>
<polygon fill="white" stroke="#bfbfbf" points="39,-56.5 39,-75.5 79,-75.5 79,-56.5 39,-56.5"/>
<text text-anchor="middle" x="59" y="-63.5" font-family="Helvetica,sans-Serif" font-size="10.00">utility</text>
</g>
<!-- Node1&#45;&gt;Node3 -->
<g id="edge2" class="edge"><title>Node1&#45;&gt;Node3</title>
<path fill="none" stroke="midnightblue" d="M59,-112.083C59,-105.006 59,-94.8611 59,-85.9865"/>
<polygon fill="midnightblue" stroke="midnightblue" points="62.5001,-85.751 59,-75.7511 55.5001,-85.7511 62.5001,-85.751"/>
</g>
<!-- Node4 -->
<g id="node4" class="node"><title>Node4</title>
<g id="a_node4"><a xlink:href="basic__state_8hpp.html" target="_top" xlink:title="basic_state.hpp">
<polygon fill="white" stroke="black" points="97,-56.5 97,-75.5 183,-75.5 183,-56.5 97,-56.5"/>
<text text-anchor="middle" x="140" y="-63.5" font-family="Helvetica,sans-Serif" font-size="10.00">basic_state.hpp</text>
</a>
</g>
</g>
<!-- Node1&#45;&gt;Node4 -->
<g id="edge3" class="edge"><title>Node1&#45;&gt;Node4</title>
<path fill="none" stroke="midnightblue" d="M72.0141,-112.324C84.5316,-103.979 103.682,-91.2122 118.471,-81.3524"/>
<polygon fill="midnightblue" stroke="midnightblue" points="120.639,-84.1137 127.018,-75.6545 116.756,-78.2894 120.639,-84.1137"/>
</g>
<!-- Node4&#45;&gt;Node2 -->
<g id="edge4" class="edge"><title>Node4&#45;&gt;Node2</title>
<path fill="none" stroke="midnightblue" d="M123.773,-56.324C107.649,-47.7034 82.6998,-34.3643 64.0359,-24.3855"/>
<polygon fill="midnightblue" stroke="midnightblue" points="65.6561,-21.283 55.1871,-19.6545 62.3556,-27.456 65.6561,-21.283"/>
</g>
<!-- Node5 -->
<g id="node5" class="node"><title>Node5</title>
<g id="a_node5"><a xlink:href="state_8hpp.html" target="_top" xlink:title="state.hpp">
<polygon fill="white" stroke="red" points="111.5,-0.5 111.5,-19.5 168.5,-19.5 168.5,-0.5 111.5,-0.5"/>
<text text-anchor="middle" x="140" y="-7.5" font-family="Helvetica,sans-Serif" font-size="10.00">state.hpp</text>
</a>
</g>
</g>
<!-- Node4&#45;&gt;Node5 -->
<g id="edge5" class="edge"><title>Node4&#45;&gt;Node5</title>
<path fill="none" stroke="midnightblue" d="M140,-56.083C140,-49.0059 140,-38.8611 140,-29.9865"/>
<polygon fill="midnightblue" stroke="midnightblue" points="143.5,-29.751 140,-19.7511 136.5,-29.7511 143.5,-29.751"/>
</g>
</g>
</svg>
