<?xml version="1.0" encoding="UTF-8" standalone="no"?>
<!DOCTYPE svg PUBLIC "-//W3C//DTD SVG 1.1//EN"
 "http://www.w3.org/Graphics/SVG/1.1/DTD/svg11.dtd">
<!-- Generated by graphviz version 2.38.0 (20140413.2041)
 -->
<!-- Title: gmgf/mmmtr_state.cpp Pages: 1 -->
<svg width="243pt" height="196pt"
 viewBox="0.00 0.00 243.00 196.00" xmlns="http://www.w3.org/2000/svg" xmlns:xlink="http://www.w3.org/1999/xlink">
<g id="graph0" class="graph" transform="scale(1 1) rotate(0) translate(4 192)">
<title>gmgf/mmmtr_state.cpp</title>
<polygon fill="white" stroke="none" points="-4,4 -4,-192 239,-192 239,4 -4,4"/>
<!-- Node1 -->
<g id="node1" class="node"><title>Node1</title>
<polygon fill="#bfbfbf" stroke="black" points="54.5,-168.5 54.5,-187.5 172.5,-187.5 172.5,-168.5 54.5,-168.5"/>
<text text-anchor="middle" x="113.5" y="-175.5" font-family="Helvetica,sans-Serif" font-size="10.00">gmgf/mmmtr_state.cpp</text>
</g>
<!-- Node2 -->
<g id="node2" class="node"><title>Node2</title>
<g id="a_node2"><a xlink:href="mmmtr__state_8hpp.html" target="_top" xlink:title="mmmtr_state.hpp">
<polygon fill="white" stroke="black" points="0,-112.5 0,-131.5 93,-131.5 93,-112.5 0,-112.5"/>
<text text-anchor="middle" x="46.5" y="-119.5" font-family="Helvetica,sans-Serif" font-size="10.00">mmmtr_state.hpp</text>
</a>
</g>
</g>
<!-- Node1&#45;&gt;Node2 -->
<g id="edge1" class="edge"><title>Node1&#45;&gt;Node2</title>
<path fill="none" stroke="midnightblue" d="M102.735,-168.324C92.7339,-160.263 77.6135,-148.077 65.5695,-138.369"/>
<polygon fill="midnightblue" stroke="midnightblue" points="67.4429,-135.384 57.4606,-131.834 63.0502,-140.834 67.4429,-135.384"/>
</g>
<!-- Node6 -->
<g id="node6" class="node"><title>Node6</title>
<g id="a_node6"><a xlink:href="distance__update_8hpp.html" target="_top" xlink:title="distance_update.hpp">
<polygon fill="white" stroke="black" points="128,-112.5 128,-131.5 235,-131.5 235,-112.5 128,-112.5"/>
<text text-anchor="middle" x="181.5" y="-119.5" font-family="Helvetica,sans-Serif" font-size="10.00">distance_update.hpp</text>
</a>
</g>
</g>
<!-- Node1&#45;&gt;Node6 -->
<g id="edge6" class="edge"><title>Node1&#45;&gt;Node6</title>
<path fill="none" stroke="midnightblue" d="M124.425,-168.324C134.675,-160.185 150.221,-147.839 162.501,-138.087"/>
<polygon fill="midnightblue" stroke="midnightblue" points="164.721,-140.794 170.376,-131.834 160.368,-135.312 164.721,-140.794"/>
</g>
<!-- Node3 -->
<g id="node3" class="node"><title>Node3</title>
<polygon fill="white" stroke="#bfbfbf" points="94,-0.5 94,-19.5 145,-19.5 145,-0.5 94,-0.5"/>
<text text-anchor="middle" x="119.5" y="-7.5" font-family="Helvetica,sans-Serif" font-size="10.00">igraph.h</text>
</g>
<!-- Node2&#45;&gt;Node3 -->
<g id="edge2" class="edge"><title>Node2&#45;&gt;Node3</title>
<path fill="none" stroke="midnightblue" d="M35.2087,-112.346C20.057,-99.6569 -3.52778,-75.4053 9.5,-56 25.9764,-31.4579 58.4606,-20.2915 83.8762,-15.2161"/>
<polygon fill="midnightblue" stroke="midnightblue" points="84.6778,-18.6288 93.9185,-13.446 83.4627,-11.7351 84.6778,-18.6288"/>
</g>
<!-- Node4 -->
<g id="node4" class="node"><title>Node4</title>
<polygon fill="white" stroke="#bfbfbf" points="18.5,-56.5 18.5,-75.5 58.5,-75.5 58.5,-56.5 18.5,-56.5"/>
<text text-anchor="middle" x="38.5" y="-63.5" font-family="Helvetica,sans-Serif" font-size="10.00">utility</text>
</g>
<!-- Node2&#45;&gt;Node4 -->
<g id="edge3" class="edge"><title>Node2&#45;&gt;Node4</title>
<path fill="none" stroke="midnightblue" d="M45.179,-112.083C44.1189,-104.927 42.5941,-94.6353 41.2691,-85.6911"/>
<polygon fill="midnightblue" stroke="midnightblue" points="44.7242,-85.1302 39.7965,-75.7511 37.7998,-86.1561 44.7242,-85.1302"/>
</g>
<!-- Node5 -->
<g id="node5" class="node"><title>Node5</title>
<g id="a_node5"><a xlink:href="basic__state_8hpp.html" target="_top" xlink:title="basic_state.hpp">
<polygon fill="white" stroke="red" points="76.5,-56.5 76.5,-75.5 162.5,-75.5 162.5,-56.5 76.5,-56.5"/>
<text text-anchor="middle" x="119.5" y="-63.5" font-family="Helvetica,sans-Serif" font-size="10.00">basic_state.hpp</text>
</a>
</g>
</g>
<!-- Node2&#45;&gt;Node5 -->
<g id="edge4" class="edge"><title>Node2&#45;&gt;Node5</title>
<path fill="none" stroke="midnightblue" d="M58.2287,-112.324C69.3374,-104.107 86.2422,-91.6017 99.4833,-81.8069"/>
<polygon fill="midnightblue" stroke="midnightblue" points="101.6,-84.5948 107.558,-75.8339 97.4369,-78.9671 101.6,-84.5948"/>
</g>
<!-- Node5&#45;&gt;Node3 -->
<g id="edge5" class="edge"><title>Node5&#45;&gt;Node3</title>
<path fill="none" stroke="midnightblue" d="M119.5,-56.083C119.5,-49.0059 119.5,-38.8611 119.5,-29.9865"/>
<polygon fill="midnightblue" stroke="midnightblue" points="123,-29.751 119.5,-19.7511 116,-29.7511 123,-29.751"/>
</g>
<!-- Node6&#45;&gt;Node3 -->
<g id="edge7" class="edge"><title>Node6&#45;&gt;Node3</title>
<path fill="none" stroke="midnightblue" d="M181.997,-112.405C182.367,-99.3666 181.554,-74.1855 171.5,-56 164.731,-43.7559 153.262,-33.2919 142.816,-25.5441"/>
<polygon fill="midnightblue" stroke="midnightblue" points="144.614,-22.5318 134.406,-19.6953 140.617,-28.2786 144.614,-22.5318"/>
</g>
</g>
</svg>
