<?xml version="1.0" encoding="UTF-8" standalone="no"?>
<!DOCTYPE svg PUBLIC "-//W3C//DTD SVG 1.1//EN"
 "http://www.w3.org/Graphics/SVG/1.1/DTD/svg11.dtd">
<!-- Generated by graphviz version 2.38.0 (20140413.2041)
 -->
<!-- Title: gmgf/sorted_graph_initr.cpp Pages: 1 -->
<svg width="313pt" height="196pt"
 viewBox="0.00 0.00 312.50 196.00" xmlns="http://www.w3.org/2000/svg" xmlns:xlink="http://www.w3.org/1999/xlink">
<g id="graph0" class="graph" transform="scale(1 1) rotate(0) translate(4 192)">
<title>gmgf/sorted_graph_initr.cpp</title>
<polygon fill="white" stroke="none" points="-4,4 -4,-192 308.5,-192 308.5,4 -4,4"/>
<!-- Node1 -->
<g id="node1" class="node"><title>Node1</title>
<polygon fill="#bfbfbf" stroke="black" points="147,-168.5 147,-187.5 284,-187.5 284,-168.5 147,-168.5"/>
<text text-anchor="middle" x="215.5" y="-175.5" font-family="Helvetica,sans-Serif" font-size="10.00">gmgf/sorted_graph_initr.cpp</text>
</g>
<!-- Node2 -->
<g id="node2" class="node"><title>Node2</title>
<g id="a_node2"><a xlink:href="sorted__graph__initr_8hpp.html" target="_top" xlink:title="sorted_graph_initr.hpp">
<polygon fill="white" stroke="black" points="69,-112.5 69,-131.5 182,-131.5 182,-112.5 69,-112.5"/>
<text text-anchor="middle" x="125.5" y="-119.5" font-family="Helvetica,sans-Serif" font-size="10.00">sorted_graph_initr.hpp</text>
</a>
</g>
</g>
<!-- Node1&#45;&gt;Node2 -->
<g id="edge1" class="edge"><title>Node1&#45;&gt;Node2</title>
<path fill="none" stroke="midnightblue" d="M201.04,-168.324C187,-159.9 165.452,-146.971 148.957,-137.074"/>
<polygon fill="midnightblue" stroke="midnightblue" points="150.3,-133.798 139.924,-131.655 146.698,-139.801 150.3,-133.798"/>
</g>
<!-- Node7 -->
<g id="node7" class="node"><title>Node7</title>
<polygon fill="white" stroke="#bfbfbf" points="200.5,-112.5 200.5,-131.5 230.5,-131.5 230.5,-112.5 200.5,-112.5"/>
<text text-anchor="middle" x="215.5" y="-119.5" font-family="Helvetica,sans-Serif" font-size="10.00">set</text>
</g>
<!-- Node1&#45;&gt;Node7 -->
<g id="edge9" class="edge"><title>Node1&#45;&gt;Node7</title>
<path fill="none" stroke="midnightblue" d="M215.5,-168.083C215.5,-161.006 215.5,-150.861 215.5,-141.986"/>
<polygon fill="midnightblue" stroke="midnightblue" points="219,-141.751 215.5,-131.751 212,-141.751 219,-141.751"/>
</g>
<!-- Node8 -->
<g id="node8" class="node"><title>Node8</title>
<polygon fill="white" stroke="#bfbfbf" points="248.5,-112.5 248.5,-131.5 304.5,-131.5 304.5,-112.5 248.5,-112.5"/>
<text text-anchor="middle" x="276.5" y="-119.5" font-family="Helvetica,sans-Serif" font-size="10.00">algorithm</text>
</g>
<!-- Node1&#45;&gt;Node8 -->
<g id="edge10" class="edge"><title>Node1&#45;&gt;Node8</title>
<path fill="none" stroke="midnightblue" d="M225.301,-168.324C234.318,-160.341 247.906,-148.313 258.818,-138.653"/>
<polygon fill="midnightblue" stroke="midnightblue" points="261.353,-141.083 266.521,-131.834 256.713,-135.842 261.353,-141.083"/>
</g>
<!-- Node3 -->
<g id="node3" class="node"><title>Node3</title>
<polygon fill="white" stroke="#bfbfbf" points="0,-0.5 0,-19.5 51,-19.5 51,-0.5 0,-0.5"/>
<text text-anchor="middle" x="25.5" y="-7.5" font-family="Helvetica,sans-Serif" font-size="10.00">igraph.h</text>
</g>
<!-- Node2&#45;&gt;Node3 -->
<g id="edge2" class="edge"><title>Node2&#45;&gt;Node3</title>
<path fill="none" stroke="midnightblue" d="M97.7488,-112.478C79.4846,-105.487 56.4561,-93.8015 42.5,-76 32.0514,-62.6724 27.9864,-43.555 26.425,-29.5018"/>
<polygon fill="midnightblue" stroke="midnightblue" points="29.9135,-29.2172 25.6354,-19.5245 22.9354,-29.7695 29.9135,-29.2172"/>
</g>
<!-- Node4 -->
<g id="node4" class="node"><title>Node4</title>
<polygon fill="white" stroke="#bfbfbf" points="82.5,-0.5 82.5,-19.5 122.5,-19.5 122.5,-0.5 82.5,-0.5"/>
<text text-anchor="middle" x="102.5" y="-7.5" font-family="Helvetica,sans-Serif" font-size="10.00">utility</text>
</g>
<!-- Node2&#45;&gt;Node4 -->
<g id="edge3" class="edge"><title>Node2&#45;&gt;Node4</title>
<path fill="none" stroke="midnightblue" d="M130.574,-112.392C137.336,-99.7594 147.661,-75.578 140.5,-56 136.443,-44.9083 128.312,-34.6651 120.609,-26.7625"/>
<polygon fill="midnightblue" stroke="midnightblue" points="122.862,-24.0747 113.214,-19.6955 118.025,-29.1351 122.862,-24.0747"/>
</g>
<!-- Node5 -->
<g id="node5" class="node"><title>Node5</title>
<polygon fill="white" stroke="#bfbfbf" points="163.5,-0.5 163.5,-19.5 207.5,-19.5 207.5,-0.5 163.5,-0.5"/>
<text text-anchor="middle" x="185.5" y="-7.5" font-family="Helvetica,sans-Serif" font-size="10.00">vector</text>
</g>
<!-- Node2&#45;&gt;Node5 -->
<g id="edge4" class="edge"><title>Node2&#45;&gt;Node5</title>
<path fill="none" stroke="midnightblue" d="M132.174,-112.346C138.819,-103.506 149.071,-89.2367 156.5,-76 165.09,-60.6951 173.075,-42.3649 178.482,-29.0774"/>
<polygon fill="midnightblue" stroke="midnightblue" points="181.786,-30.2419 182.228,-19.6564 175.281,-27.6554 181.786,-30.2419"/>
</g>
<!-- Node6 -->
<g id="node6" class="node"><title>Node6</title>
<g id="a_node6"><a xlink:href="graph__initr_8hpp.html" target="_top" xlink:title="graph_initr.hpp">
<polygon fill="white" stroke="red" points="51.5,-56.5 51.5,-75.5 131.5,-75.5 131.5,-56.5 51.5,-56.5"/>
<text text-anchor="middle" x="91.5" y="-63.5" font-family="Helvetica,sans-Serif" font-size="10.00">graph_initr.hpp</text>
</a>
</g>
</g>
<!-- Node2&#45;&gt;Node6 -->
<g id="edge5" class="edge"><title>Node2&#45;&gt;Node6</title>
<path fill="none" stroke="midnightblue" d="M119.886,-112.083C115.133,-104.534 108.182,-93.4948 102.348,-84.2298"/>
<polygon fill="midnightblue" stroke="midnightblue" points="105.3,-82.3486 97.0099,-75.7511 99.3763,-86.0783 105.3,-82.3486"/>
</g>
<!-- Node6&#45;&gt;Node3 -->
<g id="edge6" class="edge"><title>Node6&#45;&gt;Node3</title>
<path fill="none" stroke="midnightblue" d="M80.896,-56.324C71.0438,-48.2631 56.1491,-36.0765 44.2849,-26.3695"/>
<polygon fill="midnightblue" stroke="midnightblue" points="46.2529,-23.4575 36.297,-19.8339 41.8202,-28.8752 46.2529,-23.4575"/>
</g>
<!-- Node6&#45;&gt;Node4 -->
<g id="edge7" class="edge"><title>Node6&#45;&gt;Node4</title>
<path fill="none" stroke="midnightblue" d="M93.3164,-56.083C94.7741,-48.9272 96.8706,-38.6353 98.6925,-29.6911"/>
<polygon fill="midnightblue" stroke="midnightblue" points="102.151,-30.2485 100.717,-19.7511 95.2917,-28.8512 102.151,-30.2485"/>
</g>
<!-- Node6&#45;&gt;Node5 -->
<g id="edge8" class="edge"><title>Node6&#45;&gt;Node5</title>
<path fill="none" stroke="midnightblue" d="M106.603,-56.324C121.403,-47.8215 144.194,-34.7288 161.482,-24.7975"/>
<polygon fill="midnightblue" stroke="midnightblue" points="163.507,-27.6707 170.435,-19.6545 160.02,-21.6009 163.507,-27.6707"/>
</g>
</g>
</svg>
