<?xml version="1.0" encoding="UTF-8" standalone="no"?>
<!DOCTYPE svg PUBLIC "-//W3C//DTD SVG 1.1//EN"
 "http://www.w3.org/Graphics/SVG/1.1/DTD/svg11.dtd">
<!-- Generated by graphviz version 2.38.0 (20140413.2041)
 -->
<!-- Title: gmgf/sorted_graph_initr.hpp Pages: 1 -->
<svg width="285pt" height="196pt"
 viewBox="0.00 0.00 284.50 196.00" xmlns="http://www.w3.org/2000/svg" xmlns:xlink="http://www.w3.org/1999/xlink">
<g id="graph0" class="graph" transform="scale(1 1) rotate(0) translate(4 192)">
<title>gmgf/sorted_graph_initr.hpp</title>
<polygon fill="white" stroke="none" points="-4,4 -4,-192 280.5,-192 280.5,4 -4,4"/>
<!-- Node1 -->
<g id="node1" class="node"><title>Node1</title>
<polygon fill="#bfbfbf" stroke="black" points="0,-168.5 0,-187.5 137,-187.5 137,-168.5 0,-168.5"/>
<text text-anchor="middle" x="68.5" y="-175.5" font-family="Helvetica,sans-Serif" font-size="10.00">gmgf/sorted_graph_initr.hpp</text>
</g>
<!-- Node2 -->
<g id="node2" class="node"><title>Node2</title>
<polygon fill="white" stroke="#bfbfbf" points="30,-0.5 30,-19.5 81,-19.5 81,-0.5 30,-0.5"/>
<text text-anchor="middle" x="55.5" y="-7.5" font-family="Helvetica,sans-Serif" font-size="10.00">igraph.h</text>
</g>
<!-- Node1&#45;&gt;Node2 -->
<g id="edge1" class="edge"><title>Node1&#45;&gt;Node2</title>
<path fill="none" stroke="midnightblue" d="M52.7167,-168.467C40.2973,-160.769 23.8949,-148.179 16.5,-132 2.45837,-101.279 4.69441,-87.6475 16.5,-56 20.6734,-44.8124 29.0196,-34.5598 36.9238,-26.6759"/>
<polygon fill="midnightblue" stroke="midnightblue" points="39.5616,-29.0029 44.5098,-19.6346 34.7994,-23.8724 39.5616,-29.0029"/>
</g>
<!-- Node3 -->
<g id="node3" class="node"><title>Node3</title>
<polygon fill="white" stroke="#bfbfbf" points="99.5,-0.5 99.5,-19.5 139.5,-19.5 139.5,-0.5 99.5,-0.5"/>
<text text-anchor="middle" x="119.5" y="-7.5" font-family="Helvetica,sans-Serif" font-size="10.00">utility</text>
</g>
<!-- Node1&#45;&gt;Node3 -->
<g id="edge2" class="edge"><title>Node1&#45;&gt;Node3</title>
<path fill="none" stroke="midnightblue" d="M64.6866,-168.457C59.6134,-155.907 51.9003,-131.826 57.5,-112 66.7696,-79.181 90.0265,-46.5203 105.272,-27.5708"/>
<polygon fill="midnightblue" stroke="midnightblue" points="108.146,-29.5884 111.826,-19.6531 102.753,-25.125 108.146,-29.5884"/>
</g>
<!-- Node4 -->
<g id="node4" class="node"><title>Node4</title>
<polygon fill="white" stroke="#bfbfbf" points="232.5,-0.5 232.5,-19.5 276.5,-19.5 276.5,-0.5 232.5,-0.5"/>
<text text-anchor="middle" x="254.5" y="-7.5" font-family="Helvetica,sans-Serif" font-size="10.00">vector</text>
</g>
<!-- Node1&#45;&gt;Node4 -->
<g id="edge3" class="edge"><title>Node1&#45;&gt;Node4</title>
<path fill="none" stroke="midnightblue" d="M107.902,-168.413C152.595,-156.318 223.306,-129.484 254.5,-76 262.665,-62.0011 261.669,-43.2533 259.221,-29.4899"/>
<polygon fill="midnightblue" stroke="midnightblue" points="262.639,-28.7345 257.094,-19.7065 255.799,-30.2219 262.639,-28.7345"/>
</g>
<!-- Node5 -->
<g id="node5" class="node"><title>Node5</title>
<g id="a_node5"><a xlink:href="graph__initr_8hpp.html" target="_top" xlink:title="graph_initr.hpp">
<polygon fill="white" stroke="black" points="66.5,-112.5 66.5,-131.5 146.5,-131.5 146.5,-112.5 66.5,-112.5"/>
<text text-anchor="middle" x="106.5" y="-119.5" font-family="Helvetica,sans-Serif" font-size="10.00">graph_initr.hpp</text>
</a>
</g>
</g>
<!-- Node1&#45;&gt;Node5 -->
<g id="edge4" class="edge"><title>Node1&#45;&gt;Node5</title>
<path fill="none" stroke="midnightblue" d="M74.7749,-168.083C80.1425,-160.455 88.0176,-149.264 94.5787,-139.941"/>
<polygon fill="midnightblue" stroke="midnightblue" points="97.4492,-141.943 100.342,-131.751 91.7245,-137.915 97.4492,-141.943"/>
</g>
<!-- Node5&#45;&gt;Node2 -->
<g id="edge5" class="edge"><title>Node5&#45;&gt;Node2</title>
<path fill="none" stroke="midnightblue" d="M102.498,-112.368C94.1934,-94.4563 74.9372,-52.9233 63.8214,-28.9482"/>
<polygon fill="midnightblue" stroke="midnightblue" points="66.8649,-27.1916 59.4833,-19.5914 60.5143,-30.136 66.8649,-27.1916"/>
</g>
<!-- Node5&#45;&gt;Node3 -->
<g id="edge6" class="edge"><title>Node5&#45;&gt;Node3</title>
<path fill="none" stroke="midnightblue" d="M107.52,-112.368C109.618,-94.617 114.458,-53.6664 117.302,-29.5974"/>
<polygon fill="midnightblue" stroke="midnightblue" points="120.787,-29.9331 118.485,-19.5914 113.835,-29.1115 120.787,-29.9331"/>
</g>
<!-- Node5&#45;&gt;Node4 -->
<g id="edge7" class="edge"><title>Node5&#45;&gt;Node4</title>
<path fill="none" stroke="midnightblue" d="M146.551,-116.468C174.732,-111.244 211.402,-100.03 234.5,-76 246.379,-63.6413 251.217,-44.3938 253.179,-30.0464"/>
<polygon fill="midnightblue" stroke="midnightblue" points="256.69,-30.1179 254.216,-19.8159 249.726,-29.4119 256.69,-30.1179"/>
</g>
<!-- Node6 -->
<g id="node6" class="node"><title>Node6</title>
<g id="a_node6"><a xlink:href="graph__config_8hpp.html" target="_top" xlink:title="graph_config.hpp">
<polygon fill="white" stroke="black" points="135,-56.5 135,-75.5 226,-75.5 226,-56.5 135,-56.5"/>
<text text-anchor="middle" x="180.5" y="-63.5" font-family="Helvetica,sans-Serif" font-size="10.00">graph_config.hpp</text>
</a>
</g>
</g>
<!-- Node5&#45;&gt;Node6 -->
<g id="edge8" class="edge"><title>Node5&#45;&gt;Node6</title>
<path fill="none" stroke="midnightblue" d="M118.389,-112.324C129.65,-104.107 146.787,-91.6017 160.209,-81.8069"/>
<polygon fill="midnightblue" stroke="midnightblue" points="162.38,-84.5559 168.394,-75.8339 158.253,-78.9014 162.38,-84.5559"/>
</g>
<!-- Node6&#45;&gt;Node2 -->
<g id="edge9" class="edge"><title>Node6&#45;&gt;Node2</title>
<path fill="none" stroke="midnightblue" d="M160.693,-56.4435C140.213,-47.5961 108.017,-33.6875 84.6353,-23.5865"/>
<polygon fill="midnightblue" stroke="midnightblue" points="85.782,-20.2692 75.214,-19.5164 83.0059,-26.6953 85.782,-20.2692"/>
</g>
<!-- Node6&#45;&gt;Node3 -->
<g id="edge10" class="edge"><title>Node6&#45;&gt;Node3</title>
<path fill="none" stroke="midnightblue" d="M170.699,-56.324C161.682,-48.3414 148.094,-36.3128 137.182,-26.6529"/>
<polygon fill="midnightblue" stroke="midnightblue" points="139.287,-23.8416 129.479,-19.8339 134.647,-29.083 139.287,-23.8416"/>
</g>
<!-- Node6&#45;&gt;Node4 -->
<g id="edge11" class="edge"><title>Node6&#45;&gt;Node4</title>
<path fill="none" stroke="midnightblue" d="M192.389,-56.324C203.65,-48.1066 220.787,-35.6017 234.209,-25.8069"/>
<polygon fill="midnightblue" stroke="midnightblue" points="236.38,-28.5559 242.394,-19.8339 232.253,-22.9014 236.38,-28.5559"/>
</g>
</g>
</svg>
