<?xml version="1.0" encoding="UTF-8" standalone="no"?>
<!DOCTYPE svg PUBLIC "-//W3C//DTD SVG 1.1//EN"
 "http://www.w3.org/Graphics/SVG/1.1/DTD/svg11.dtd">
<!-- Generated by graphviz version 2.38.0 (20140413.2041)
 -->
<!-- Title: gmgf/state.hpp Pages: 1 -->
<svg width="180pt" height="140pt"
 viewBox="0.00 0.00 179.50 140.00" xmlns="http://www.w3.org/2000/svg" xmlns:xlink="http://www.w3.org/1999/xlink">
<g id="graph0" class="graph" transform="scale(1 1) rotate(0) translate(4 136)">
<title>gmgf/state.hpp</title>
<polygon fill="white" stroke="none" points="-4,4 -4,-136 175.5,-136 175.5,4 -4,4"/>
<!-- Node1 -->
<g id="node1" class="node"><title>Node1</title>
<polygon fill="#bfbfbf" stroke="black" points="48.5,-112.5 48.5,-131.5 130.5,-131.5 130.5,-112.5 48.5,-112.5"/>
<text text-anchor="middle" x="89.5" y="-119.5" font-family="Helvetica,sans-Serif" font-size="10.00">gmgf/state.hpp</text>
</g>
<!-- Node2 -->
<g id="node2" class="node"><title>Node2</title>
<g id="a_node2"><a xlink:href="graph__config_8hpp.html" target="_top" xlink:title="graph_config.hpp">
<polygon fill="white" stroke="black" points="44,-56.5 44,-75.5 135,-75.5 135,-56.5 44,-56.5"/>
<text text-anchor="middle" x="89.5" y="-63.5" font-family="Helvetica,sans-Serif" font-size="10.00">graph_config.hpp</text>
</a>
</g>
</g>
<!-- Node1&#45;&gt;Node2 -->
<g id="edge1" class="edge"><title>Node1&#45;&gt;Node2</title>
<path fill="none" stroke="midnightblue" d="M89.5,-112.083C89.5,-105.006 89.5,-94.8611 89.5,-85.9865"/>
<polygon fill="midnightblue" stroke="midnightblue" points="93.0001,-85.751 89.5,-75.7511 86.0001,-85.7511 93.0001,-85.751"/>
</g>
<!-- Node3 -->
<g id="node3" class="node"><title>Node3</title>
<polygon fill="white" stroke="#bfbfbf" points="0,-0.5 0,-19.5 51,-19.5 51,-0.5 0,-0.5"/>
<text text-anchor="middle" x="25.5" y="-7.5" font-family="Helvetica,sans-Serif" font-size="10.00">igraph.h</text>
</g>
<!-- Node2&#45;&gt;Node3 -->
<g id="edge2" class="edge"><title>Node2&#45;&gt;Node3</title>
<path fill="none" stroke="midnightblue" d="M79.2173,-56.324C69.6637,-48.2631 55.2203,-36.0765 43.7157,-26.3695"/>
<polygon fill="midnightblue" stroke="midnightblue" points="45.8698,-23.6076 35.9698,-19.8339 41.3557,-28.9577 45.8698,-23.6076"/>
</g>
<!-- Node4 -->
<g id="node4" class="node"><title>Node4</title>
<polygon fill="white" stroke="#bfbfbf" points="69.5,-0.5 69.5,-19.5 109.5,-19.5 109.5,-0.5 69.5,-0.5"/>
<text text-anchor="middle" x="89.5" y="-7.5" font-family="Helvetica,sans-Serif" font-size="10.00">utility</text>
</g>
<!-- Node2&#45;&gt;Node4 -->
<g id="edge3" class="edge"><title>Node2&#45;&gt;Node4</title>
<path fill="none" stroke="midnightblue" d="M89.5,-56.083C89.5,-49.0059 89.5,-38.8611 89.5,-29.9865"/>
<polygon fill="midnightblue" stroke="midnightblue" points="93.0001,-29.751 89.5,-19.7511 86.0001,-29.7511 93.0001,-29.751"/>
</g>
<!-- Node5 -->
<g id="node5" class="node"><title>Node5</title>
<polygon fill="white" stroke="#bfbfbf" points="127.5,-0.5 127.5,-19.5 171.5,-19.5 171.5,-0.5 127.5,-0.5"/>
<text text-anchor="middle" x="149.5" y="-7.5" font-family="Helvetica,sans-Serif" font-size="10.00">vector</text>
</g>
<!-- Node2&#45;&gt;Node5 -->
<g id="edge4" class="edge"><title>Node2&#45;&gt;Node5</title>
<path fill="none" stroke="midnightblue" d="M99.14,-56.324C108.01,-48.3414 121.375,-36.3128 132.108,-26.6529"/>
<polygon fill="midnightblue" stroke="midnightblue" points="134.593,-29.1251 139.685,-19.8339 129.91,-23.922 134.593,-29.1251"/>
</g>
</g>
</svg>
