<?xml version="1.0" encoding="UTF-8" standalone="no"?>
<!DOCTYPE svg PUBLIC "-//W3C//DTD SVG 1.1//EN"
 "http://www.w3.org/Graphics/SVG/1.1/DTD/svg11.dtd">
<!-- Generated by graphviz version 2.38.0 (20140413.2041)
 -->
<!-- Title: gmgf/state_initr.hpp Pages: 1 -->
<svg width="957pt" height="162pt"
 viewBox="0.00 0.00 957.00 162.00" xmlns="http://www.w3.org/2000/svg" xmlns:xlink="http://www.w3.org/1999/xlink">
<g id="graph0" class="graph" transform="scale(1 1) rotate(0) translate(4 158)">
<title>gmgf/state_initr.hpp</title>
<polygon fill="white" stroke="none" points="-4,4 -4,-158 953,-158 953,4 -4,4"/>
<!-- Node1 -->
<g id="node1" class="node"><title>Node1</title>
<polygon fill="#bfbfbf" stroke="black" points="405,-134.5 405,-153.5 508,-153.5 508,-134.5 405,-134.5"/>
<text text-anchor="middle" x="456.5" y="-141.5" font-family="Helvetica,sans-Serif" font-size="10.00">gmgf/state_initr.hpp</text>
</g>
<!-- Node2 -->
<g id="node2" class="node"><title>Node2</title>
<g id="a_node2"><a xlink:href="basic__state__initr_8hpp.html" target="_top" xlink:title="gmgf/basic_state_initr.hpp">
<polygon fill="white" stroke="black" points="0,-73 0,-92 131,-92 131,-73 0,-73"/>
<text text-anchor="middle" x="65.5" y="-80" font-family="Helvetica,sans-Serif" font-size="10.00">gmgf/basic_state_initr.hpp</text>
</a>
</g>
</g>
<!-- Node1&#45;&gt;Node2 -->
<g id="edge1" class="edge"><title>Node1&#45;&gt;Node2</title>
<path fill="none" stroke="midnightblue" d="M394.831,-135.22C330.844,-126.92 227.947,-112.933 139.5,-98 128.915,-96.2129 117.518,-94.0829 106.916,-92.0131"/>
<polygon fill="midnightblue" stroke="midnightblue" points="394.393,-138.693 404.759,-136.503 395.29,-131.75 394.393,-138.693"/>
</g>
<!-- Node4 -->
<g id="node4" class="node"><title>Node4</title>
<g id="a_node4"><a xlink:href="dfs__finder_8hpp.html" target="_top" xlink:title="gmgf/dfs_finder.hpp">
<polygon fill="white" stroke="black" points="149,-73 149,-92 252,-92 252,-73 149,-73"/>
<text text-anchor="middle" x="200.5" y="-80" font-family="Helvetica,sans-Serif" font-size="10.00">gmgf/dfs_finder.hpp</text>
</a>
</g>
</g>
<!-- Node1&#45;&gt;Node4 -->
<g id="edge3" class="edge"><title>Node1&#45;&gt;Node4</title>
<path fill="none" stroke="midnightblue" d="M408.591,-132.161C368.887,-123.14 310.987,-109.896 260.5,-98 252.364,-96.083 243.616,-93.988 235.384,-92.0016"/>
<polygon fill="midnightblue" stroke="midnightblue" points="408.003,-135.617 418.53,-134.418 409.553,-128.79 408.003,-135.617"/>
</g>
<!-- Node6 -->
<g id="node6" class="node"><title>Node6</title>
<g id="a_node6"><a xlink:href="fbs__enumer_8hpp.html" target="_top" xlink:title="gmgf/fbs_enumer.hpp">
<polygon fill="white" stroke="black" points="270,-73 270,-92 381,-92 381,-73 270,-73"/>
<text text-anchor="middle" x="325.5" y="-80" font-family="Helvetica,sans-Serif" font-size="10.00">gmgf/fbs_enumer.hpp</text>
</a>
</g>
</g>
<!-- Node1&#45;&gt;Node6 -->
<g id="edge5" class="edge"><title>Node1&#45;&gt;Node6</title>
<path fill="none" stroke="midnightblue" d="M428.598,-130.327C403.167,-118.776 366.301,-102.032 344.234,-92.0091"/>
<polygon fill="midnightblue" stroke="midnightblue" points="427.179,-133.526 437.731,-134.475 430.073,-127.153 427.179,-133.526"/>
</g>
<!-- Node8 -->
<g id="node8" class="node"><title>Node8</title>
<g id="a_node8"><a xlink:href="matrix__opt__state__initr_8hpp.html" target="_top" xlink:title="gmgf/matrix_opt_state\l_initr.hpp">
<polygon fill="white" stroke="black" points="399.5,-67.5 399.5,-97.5 513.5,-97.5 513.5,-67.5 399.5,-67.5"/>
<text text-anchor="start" x="407.5" y="-85.5" font-family="Helvetica,sans-Serif" font-size="10.00">gmgf/matrix_opt_state</text>
<text text-anchor="middle" x="456.5" y="-74.5" font-family="Helvetica,sans-Serif" font-size="10.00">_initr.hpp</text>
</a>
</g>
</g>
<!-- Node1&#45;&gt;Node8 -->
<g id="edge7" class="edge"><title>Node1&#45;&gt;Node8</title>
<path fill="none" stroke="midnightblue" d="M456.5,-124.235C456.5,-115.586 456.5,-105.497 456.5,-97.523"/>
<polygon fill="midnightblue" stroke="midnightblue" points="453,-124.475 456.5,-134.475 460,-124.475 453,-124.475"/>
</g>
<!-- Node10 -->
<g id="node10" class="node"><title>Node10</title>
<g id="a_node10"><a xlink:href="matrix__state__initr_8hpp.html" target="_top" xlink:title="gmgf/matrix_state_initr.hpp">
<polygon fill="white" stroke="black" points="532,-73 532,-92 667,-92 667,-73 532,-73"/>
<text text-anchor="middle" x="599.5" y="-80" font-family="Helvetica,sans-Serif" font-size="10.00">gmgf/matrix_state_initr.hpp</text>
</a>
</g>
</g>
<!-- Node1&#45;&gt;Node10 -->
<g id="edge9" class="edge"><title>Node1&#45;&gt;Node10</title>
<path fill="none" stroke="midnightblue" d="M486.227,-130.631C514.008,-119.072 554.75,-102.12 579.05,-92.0091"/>
<polygon fill="midnightblue" stroke="midnightblue" points="484.877,-127.402 476.988,-134.475 487.566,-133.865 484.877,-127.402"/>
</g>
<!-- Node12 -->
<g id="node12" class="node"><title>Node12</title>
<g id="a_node12"><a xlink:href="minmax__state__initr_8hpp.html" target="_top" xlink:title="gmgf/minmax_state_initr.hpp">
<polygon fill="white" stroke="black" points="685,-73 685,-92 828,-92 828,-73 685,-73"/>
<text text-anchor="middle" x="756.5" y="-80" font-family="Helvetica,sans-Serif" font-size="10.00">gmgf/minmax_state_initr.hpp</text>
</a>
</g>
</g>
<!-- Node1&#45;&gt;Node12 -->
<g id="edge11" class="edge"><title>Node1&#45;&gt;Node12</title>
<path fill="none" stroke="midnightblue" d="M509.572,-132.474C567.713,-120.943 659.835,-102.672 713.597,-92.0091"/>
<polygon fill="midnightblue" stroke="midnightblue" points="508.611,-129.096 499.483,-134.475 509.973,-135.963 508.611,-129.096"/>
</g>
<!-- Node14 -->
<g id="node14" class="node"><title>Node14</title>
<g id="a_node14"><a xlink:href="state__initr_8cpp.html" target="_top" xlink:title="gmgf/state_initr.cpp">
<polygon fill="white" stroke="black" points="846,-73 846,-92 949,-92 949,-73 846,-73"/>
<text text-anchor="middle" x="897.5" y="-80" font-family="Helvetica,sans-Serif" font-size="10.00">gmgf/state_initr.cpp</text>
</a>
</g>
</g>
<!-- Node1&#45;&gt;Node14 -->
<g id="edge13" class="edge"><title>Node1&#45;&gt;Node14</title>
<path fill="none" stroke="midnightblue" d="M518.545,-137.968C594.229,-131.303 725.887,-118.004 837.5,-98 846.572,-96.3741 856.32,-94.2042 865.266,-92.0394"/>
<polygon fill="midnightblue" stroke="midnightblue" points="517.904,-134.511 508.245,-138.865 518.511,-141.484 517.904,-134.511"/>
</g>
<!-- Node3 -->
<g id="node3" class="node"><title>Node3</title>
<g id="a_node3"><a xlink:href="basic__state__initr_8cpp.html" target="_top" xlink:title="gmgf/basic_state_initr.cpp">
<polygon fill="white" stroke="black" points="0,-6 0,-25 131,-25 131,-6 0,-6"/>
<text text-anchor="middle" x="65.5" y="-13" font-family="Helvetica,sans-Serif" font-size="10.00">gmgf/basic_state_initr.cpp</text>
</a>
</g>
</g>
<!-- Node2&#45;&gt;Node3 -->
<g id="edge2" class="edge"><title>Node2&#45;&gt;Node3</title>
<path fill="none" stroke="midnightblue" d="M65.5,-62.537C65.5,-50.1703 65.5,-34.6198 65.5,-25.1273"/>
<polygon fill="midnightblue" stroke="midnightblue" points="62.0001,-62.7338 65.5,-72.7338 69.0001,-62.7338 62.0001,-62.7338"/>
</g>
<!-- Node5 -->
<g id="node5" class="node"><title>Node5</title>
<g id="a_node5"><a xlink:href="dfs__finder_8cpp.html" target="_top" xlink:title="gmgf/dfs_finder.cpp">
<polygon fill="white" stroke="black" points="149,-6 149,-25 252,-25 252,-6 149,-6"/>
<text text-anchor="middle" x="200.5" y="-13" font-family="Helvetica,sans-Serif" font-size="10.00">gmgf/dfs_finder.cpp</text>
</a>
</g>
</g>
<!-- Node4&#45;&gt;Node5 -->
<g id="edge4" class="edge"><title>Node4&#45;&gt;Node5</title>
<path fill="none" stroke="midnightblue" d="M200.5,-62.537C200.5,-50.1703 200.5,-34.6198 200.5,-25.1273"/>
<polygon fill="midnightblue" stroke="midnightblue" points="197,-62.7338 200.5,-72.7338 204,-62.7338 197,-62.7338"/>
</g>
<!-- Node7 -->
<g id="node7" class="node"><title>Node7</title>
<g id="a_node7"><a xlink:href="fbs__enumer_8cpp.html" target="_top" xlink:title="gmgf/fbs_enumer.cpp">
<polygon fill="white" stroke="black" points="270,-6 270,-25 381,-25 381,-6 270,-6"/>
<text text-anchor="middle" x="325.5" y="-13" font-family="Helvetica,sans-Serif" font-size="10.00">gmgf/fbs_enumer.cpp</text>
</a>
</g>
</g>
<!-- Node6&#45;&gt;Node7 -->
<g id="edge6" class="edge"><title>Node6&#45;&gt;Node7</title>
<path fill="none" stroke="midnightblue" d="M325.5,-62.537C325.5,-50.1703 325.5,-34.6198 325.5,-25.1273"/>
<polygon fill="midnightblue" stroke="midnightblue" points="322,-62.7338 325.5,-72.7338 329,-62.7338 322,-62.7338"/>
</g>
<!-- Node9 -->
<g id="node9" class="node"><title>Node9</title>
<g id="a_node9"><a xlink:href="matrix__opt__state__initr_8cpp.html" target="_top" xlink:title="gmgf/matrix_opt_state\l_initr.cpp">
<polygon fill="white" stroke="black" points="399.5,-0.5 399.5,-30.5 513.5,-30.5 513.5,-0.5 399.5,-0.5"/>
<text text-anchor="start" x="407.5" y="-18.5" font-family="Helvetica,sans-Serif" font-size="10.00">gmgf/matrix_opt_state</text>
<text text-anchor="middle" x="456.5" y="-7.5" font-family="Helvetica,sans-Serif" font-size="10.00">_initr.cpp</text>
</a>
</g>
</g>
<!-- Node8&#45;&gt;Node9 -->
<g id="edge8" class="edge"><title>Node8&#45;&gt;Node9</title>
<path fill="none" stroke="midnightblue" d="M456.5,-57.1081C456.5,-48.1539 456.5,-38.3227 456.5,-30.5765"/>
<polygon fill="midnightblue" stroke="midnightblue" points="453,-57.3959 456.5,-67.396 460,-57.396 453,-57.3959"/>
</g>
<!-- Node11 -->
<g id="node11" class="node"><title>Node11</title>
<g id="a_node11"><a xlink:href="matrix__state__initr_8cpp.html" target="_top" xlink:title="gmgf/matrix_state_initr.cpp">
<polygon fill="white" stroke="black" points="532,-6 532,-25 667,-25 667,-6 532,-6"/>
<text text-anchor="middle" x="599.5" y="-13" font-family="Helvetica,sans-Serif" font-size="10.00">gmgf/matrix_state_initr.cpp</text>
</a>
</g>
</g>
<!-- Node10&#45;&gt;Node11 -->
<g id="edge10" class="edge"><title>Node10&#45;&gt;Node11</title>
<path fill="none" stroke="midnightblue" d="M599.5,-62.537C599.5,-50.1703 599.5,-34.6198 599.5,-25.1273"/>
<polygon fill="midnightblue" stroke="midnightblue" points="596,-62.7338 599.5,-72.7338 603,-62.7338 596,-62.7338"/>
</g>
<!-- Node13 -->
<g id="node13" class="node"><title>Node13</title>
<g id="a_node13"><a xlink:href="minmax__state__initr_8cpp.html" target="_top" xlink:title="gmgf/minmax_state_initr.cpp">
<polygon fill="white" stroke="black" points="685,-6 685,-25 828,-25 828,-6 685,-6"/>
<text text-anchor="middle" x="756.5" y="-13" font-family="Helvetica,sans-Serif" font-size="10.00">gmgf/minmax_state_initr.cpp</text>
</a>
</g>
</g>
<!-- Node12&#45;&gt;Node13 -->
<g id="edge12" class="edge"><title>Node12&#45;&gt;Node13</title>
<path fill="none" stroke="midnightblue" d="M756.5,-62.537C756.5,-50.1703 756.5,-34.6198 756.5,-25.1273"/>
<polygon fill="midnightblue" stroke="midnightblue" points="753,-62.7338 756.5,-72.7338 760,-62.7338 753,-62.7338"/>
</g>
</g>
</svg>
