<?xml version="1.0" encoding="UTF-8" standalone="no"?>
<!DOCTYPE svg PUBLIC "-//W3C//DTD SVG 1.1//EN"
 "http://www.w3.org/Graphics/SVG/1.1/DTD/svg11.dtd">
<!-- Generated by graphviz version 2.38.0 (20140413.2041)
 -->
<!-- Title: gmgf/state_initr.hpp Pages: 1 -->
<svg width="699pt" height="140pt"
 viewBox="0.00 0.00 699.00 140.00" xmlns="http://www.w3.org/2000/svg" xmlns:xlink="http://www.w3.org/1999/xlink">
<g id="graph0" class="graph" transform="scale(1 1) rotate(0) translate(4 136)">
<title>gmgf/state_initr.hpp</title>
<polygon fill="white" stroke="none" points="-4,4 -4,-136 695,-136 695,4 -4,4"/>
<!-- Node1 -->
<g id="node1" class="node"><title>Node1</title>
<polygon fill="#bfbfbf" stroke="black" points="290,-112.5 290,-131.5 393,-131.5 393,-112.5 290,-112.5"/>
<text text-anchor="middle" x="341.5" y="-119.5" font-family="Helvetica,sans-Serif" font-size="10.00">gmgf/state_initr.hpp</text>
</g>
<!-- Node2 -->
<g id="node2" class="node"><title>Node2</title>
<g id="a_node2"><a xlink:href="basic__state__initr_8hpp.html" target="_top" xlink:title="gmgf/basic_state_initr.hpp">
<polygon fill="white" stroke="black" points="0,-56.5 0,-75.5 131,-75.5 131,-56.5 0,-56.5"/>
<text text-anchor="middle" x="65.5" y="-63.5" font-family="Helvetica,sans-Serif" font-size="10.00">gmgf/basic_state_initr.hpp</text>
</a>
</g>
</g>
<!-- Node1&#45;&gt;Node2 -->
<g id="edge1" class="edge"><title>Node1&#45;&gt;Node2</title>
<path fill="none" stroke="midnightblue" d="M287.697,-110.473C235.536,-100.268 157.395,-84.9794 109.028,-75.5164"/>
<polygon fill="midnightblue" stroke="midnightblue" points="287.281,-113.958 297.767,-112.444 288.625,-107.088 287.281,-113.958"/>
</g>
<!-- Node4 -->
<g id="node4" class="node"><title>Node4</title>
<g id="a_node4"><a xlink:href="dfs__finder_8hpp.html" target="_top" xlink:title="gmgf/dfs_finder.hpp">
<polygon fill="white" stroke="black" points="149,-56.5 149,-75.5 252,-75.5 252,-56.5 149,-56.5"/>
<text text-anchor="middle" x="200.5" y="-63.5" font-family="Helvetica,sans-Serif" font-size="10.00">gmgf/dfs_finder.hpp</text>
</a>
</g>
</g>
<!-- Node1&#45;&gt;Node4 -->
<g id="edge3" class="edge"><title>Node1&#45;&gt;Node4</title>
<path fill="none" stroke="midnightblue" d="M309.571,-108.772C283.086,-98.6287 246.108,-84.4669 222.737,-75.5164"/>
<polygon fill="midnightblue" stroke="midnightblue" points="308.568,-112.136 319.158,-112.444 311.071,-105.599 308.568,-112.136"/>
</g>
<!-- Node6 -->
<g id="node6" class="node"><title>Node6</title>
<g id="a_node6"><a xlink:href="minmax__state__initr_8hpp.html" target="_top" xlink:title="gmgf/minmax_state_initr.hpp">
<polygon fill="white" stroke="black" points="270,-56.5 270,-75.5 413,-75.5 413,-56.5 270,-56.5"/>
<text text-anchor="middle" x="341.5" y="-63.5" font-family="Helvetica,sans-Serif" font-size="10.00">gmgf/minmax_state_initr.hpp</text>
</a>
</g>
</g>
<!-- Node1&#45;&gt;Node6 -->
<g id="edge5" class="edge"><title>Node1&#45;&gt;Node6</title>
<path fill="none" stroke="midnightblue" d="M341.5,-101.805C341.5,-92.9102 341.5,-82.7798 341.5,-75.7511"/>
<polygon fill="midnightblue" stroke="midnightblue" points="338,-102.083 341.5,-112.083 345,-102.083 338,-102.083"/>
</g>
<!-- Node8 -->
<g id="node8" class="node"><title>Node8</title>
<g id="a_node8"><a xlink:href="mmmtr__state__initr_8hpp.html" target="_top" xlink:title="gmgf/mmmtr_state_initr.hpp">
<polygon fill="white" stroke="black" points="431,-56.5 431,-75.5 570,-75.5 570,-56.5 431,-56.5"/>
<text text-anchor="middle" x="500.5" y="-63.5" font-family="Helvetica,sans-Serif" font-size="10.00">gmgf/mmmtr_state_initr.hpp</text>
</a>
</g>
</g>
<!-- Node1&#45;&gt;Node8 -->
<g id="edge7" class="edge"><title>Node1&#45;&gt;Node8</title>
<path fill="none" stroke="midnightblue" d="M376.327,-109.172C406.266,-99.0039 448.721,-84.5852 475.424,-75.5164"/>
<polygon fill="midnightblue" stroke="midnightblue" points="375.037,-105.914 366.694,-112.444 377.288,-112.542 375.037,-105.914"/>
</g>
<!-- Node10 -->
<g id="node10" class="node"><title>Node10</title>
<g id="a_node10"><a xlink:href="state__initr_8cpp.html" target="_top" xlink:title="gmgf/state_initr.cpp">
<polygon fill="white" stroke="black" points="588,-56.5 588,-75.5 691,-75.5 691,-56.5 588,-56.5"/>
<text text-anchor="middle" x="639.5" y="-63.5" font-family="Helvetica,sans-Serif" font-size="10.00">gmgf/state_initr.cpp</text>
</a>
</g>
</g>
<!-- Node1&#45;&gt;Node10 -->
<g id="edge9" class="edge"><title>Node1&#45;&gt;Node10</title>
<path fill="none" stroke="midnightblue" d="M398.889,-110.601C455.207,-100.395 540.062,-85.0189 592.502,-75.5164"/>
<polygon fill="midnightblue" stroke="midnightblue" points="397.935,-107.217 388.719,-112.444 399.183,-114.104 397.935,-107.217"/>
</g>
<!-- Node3 -->
<g id="node3" class="node"><title>Node3</title>
<g id="a_node3"><a xlink:href="basic__state__initr_8cpp.html" target="_top" xlink:title="gmgf/basic_state_initr.cpp">
<polygon fill="white" stroke="black" points="0,-0.5 0,-19.5 131,-19.5 131,-0.5 0,-0.5"/>
<text text-anchor="middle" x="65.5" y="-7.5" font-family="Helvetica,sans-Serif" font-size="10.00">gmgf/basic_state_initr.cpp</text>
</a>
</g>
</g>
<!-- Node2&#45;&gt;Node3 -->
<g id="edge2" class="edge"><title>Node2&#45;&gt;Node3</title>
<path fill="none" stroke="midnightblue" d="M65.5,-45.8045C65.5,-36.9102 65.5,-26.7798 65.5,-19.7511"/>
<polygon fill="midnightblue" stroke="midnightblue" points="62.0001,-46.083 65.5,-56.083 69.0001,-46.083 62.0001,-46.083"/>
</g>
<!-- Node5 -->
<g id="node5" class="node"><title>Node5</title>
<g id="a_node5"><a xlink:href="dfs__finder_8cpp.html" target="_top" xlink:title="gmgf/dfs_finder.cpp">
<polygon fill="white" stroke="black" points="149,-0.5 149,-19.5 252,-19.5 252,-0.5 149,-0.5"/>
<text text-anchor="middle" x="200.5" y="-7.5" font-family="Helvetica,sans-Serif" font-size="10.00">gmgf/dfs_finder.cpp</text>
</a>
</g>
</g>
<!-- Node4&#45;&gt;Node5 -->
<g id="edge4" class="edge"><title>Node4&#45;&gt;Node5</title>
<path fill="none" stroke="midnightblue" d="M200.5,-45.8045C200.5,-36.9102 200.5,-26.7798 200.5,-19.7511"/>
<polygon fill="midnightblue" stroke="midnightblue" points="197,-46.083 200.5,-56.083 204,-46.083 197,-46.083"/>
</g>
<!-- Node7 -->
<g id="node7" class="node"><title>Node7</title>
<g id="a_node7"><a xlink:href="minmax__state__initr_8cpp.html" target="_top" xlink:title="gmgf/minmax_state_initr.cpp">
<polygon fill="white" stroke="black" points="270,-0.5 270,-19.5 413,-19.5 413,-0.5 270,-0.5"/>
<text text-anchor="middle" x="341.5" y="-7.5" font-family="Helvetica,sans-Serif" font-size="10.00">gmgf/minmax_state_initr.cpp</text>
</a>
</g>
</g>
<!-- Node6&#45;&gt;Node7 -->
<g id="edge6" class="edge"><title>Node6&#45;&gt;Node7</title>
<path fill="none" stroke="midnightblue" d="M341.5,-45.8045C341.5,-36.9102 341.5,-26.7798 341.5,-19.7511"/>
<polygon fill="midnightblue" stroke="midnightblue" points="338,-46.083 341.5,-56.083 345,-46.083 338,-46.083"/>
</g>
<!-- Node9 -->
<g id="node9" class="node"><title>Node9</title>
<g id="a_node9"><a xlink:href="mmmtr__state__initr_8cpp.html" target="_top" xlink:title="gmgf/mmmtr_state_initr.cpp">
<polygon fill="white" stroke="black" points="431,-0.5 431,-19.5 570,-19.5 570,-0.5 431,-0.5"/>
<text text-anchor="middle" x="500.5" y="-7.5" font-family="Helvetica,sans-Serif" font-size="10.00">gmgf/mmmtr_state_initr.cpp</text>
</a>
</g>
</g>
<!-- Node8&#45;&gt;Node9 -->
<g id="edge8" class="edge"><title>Node8&#45;&gt;Node9</title>
<path fill="none" stroke="midnightblue" d="M500.5,-45.8045C500.5,-36.9102 500.5,-26.7798 500.5,-19.7511"/>
<polygon fill="midnightblue" stroke="midnightblue" points="497,-46.083 500.5,-56.083 504,-46.083 497,-46.083"/>
</g>
</g>
</svg>
