<?xml version="1.0" encoding="UTF-8" standalone="no"?>
<!DOCTYPE svg PUBLIC "-//W3C//DTD SVG 1.1//EN"
 "http://www.w3.org/Graphics/SVG/1.1/DTD/svg11.dtd">
<!-- Generated by graphviz version 2.38.0 (20140413.2041)
 -->
<!-- Title: gmgf/state_initr.hpp Pages: 1 -->
<svg width="224pt" height="196pt"
 viewBox="0.00 0.00 223.50 196.00" xmlns="http://www.w3.org/2000/svg" xmlns:xlink="http://www.w3.org/1999/xlink">
<g id="graph0" class="graph" transform="scale(1 1) rotate(0) translate(4 192)">
<title>gmgf/state_initr.hpp</title>
<polygon fill="white" stroke="none" points="-4,4 -4,-192 219.5,-192 219.5,4 -4,4"/>
<!-- Node1 -->
<g id="node1" class="node"><title>Node1</title>
<polygon fill="#bfbfbf" stroke="black" points="73,-168.5 73,-187.5 176,-187.5 176,-168.5 73,-168.5"/>
<text text-anchor="middle" x="124.5" y="-175.5" font-family="Helvetica,sans-Serif" font-size="10.00">gmgf/state_initr.hpp</text>
</g>
<!-- Node2 -->
<g id="node2" class="node"><title>Node2</title>
<g id="a_node2"><a xlink:href="state_8hpp.html" target="_top" xlink:title="state.hpp">
<polygon fill="white" stroke="black" points="53,-112.5 53,-131.5 110,-131.5 110,-112.5 53,-112.5"/>
<text text-anchor="middle" x="81.5" y="-119.5" font-family="Helvetica,sans-Serif" font-size="10.00">state.hpp</text>
</a>
</g>
</g>
<!-- Node1&#45;&gt;Node2 -->
<g id="edge1" class="edge"><title>Node1&#45;&gt;Node2</title>
<path fill="none" stroke="midnightblue" d="M117.399,-168.083C111.263,-160.377 102.23,-149.033 94.7608,-139.653"/>
<polygon fill="midnightblue" stroke="midnightblue" points="97.4357,-137.394 88.4685,-131.751 91.9598,-141.754 97.4357,-137.394"/>
</g>
<!-- Node7 -->
<g id="node7" class="node"><title>Node7</title>
<g id="a_node7"><a xlink:href="graph__initr_8hpp.html" target="_top" xlink:title="graph_initr.hpp">
<polygon fill="white" stroke="black" points="128.5,-112.5 128.5,-131.5 208.5,-131.5 208.5,-112.5 128.5,-112.5"/>
<text text-anchor="middle" x="168.5" y="-119.5" font-family="Helvetica,sans-Serif" font-size="10.00">graph_initr.hpp</text>
</a>
</g>
</g>
<!-- Node1&#45;&gt;Node7 -->
<g id="edge6" class="edge"><title>Node1&#45;&gt;Node7</title>
<path fill="none" stroke="midnightblue" d="M131.766,-168.083C138.045,-160.377 147.288,-149.033 154.931,-139.653"/>
<polygon fill="midnightblue" stroke="midnightblue" points="157.766,-141.714 161.369,-131.751 152.339,-137.293 157.766,-141.714"/>
</g>
<!-- Node3 -->
<g id="node3" class="node"><title>Node3</title>
<g id="a_node3"><a xlink:href="graph__config_8hpp.html" target="_top" xlink:title="graph_config.hpp">
<polygon fill="white" stroke="black" points="49,-56.5 49,-75.5 140,-75.5 140,-56.5 49,-56.5"/>
<text text-anchor="middle" x="94.5" y="-63.5" font-family="Helvetica,sans-Serif" font-size="10.00">graph_config.hpp</text>
</a>
</g>
</g>
<!-- Node2&#45;&gt;Node3 -->
<g id="edge2" class="edge"><title>Node2&#45;&gt;Node3</title>
<path fill="none" stroke="midnightblue" d="M83.6467,-112.083C85.3694,-104.927 87.8471,-94.6353 90.0003,-85.6911"/>
<polygon fill="midnightblue" stroke="midnightblue" points="93.4554,-86.2925 92.3933,-75.7511 86.6499,-84.6541 93.4554,-86.2925"/>
</g>
<!-- Node4 -->
<g id="node4" class="node"><title>Node4</title>
<polygon fill="white" stroke="#bfbfbf" points="0,-0.5 0,-19.5 51,-19.5 51,-0.5 0,-0.5"/>
<text text-anchor="middle" x="25.5" y="-7.5" font-family="Helvetica,sans-Serif" font-size="10.00">igraph.h</text>
</g>
<!-- Node3&#45;&gt;Node4 -->
<g id="edge3" class="edge"><title>Node3&#45;&gt;Node4</title>
<path fill="none" stroke="midnightblue" d="M83.414,-56.324C73.014,-48.1849 57.2394,-35.8395 44.7784,-26.0874"/>
<polygon fill="midnightblue" stroke="midnightblue" points="46.8199,-23.2407 36.7878,-19.8339 42.5057,-28.7533 46.8199,-23.2407"/>
</g>
<!-- Node5 -->
<g id="node5" class="node"><title>Node5</title>
<polygon fill="white" stroke="#bfbfbf" points="87.5,-0.5 87.5,-19.5 127.5,-19.5 127.5,-0.5 87.5,-0.5"/>
<text text-anchor="middle" x="107.5" y="-7.5" font-family="Helvetica,sans-Serif" font-size="10.00">utility</text>
</g>
<!-- Node3&#45;&gt;Node5 -->
<g id="edge4" class="edge"><title>Node3&#45;&gt;Node5</title>
<path fill="none" stroke="midnightblue" d="M96.6467,-56.083C98.3694,-48.9272 100.847,-38.6353 103,-29.6911"/>
<polygon fill="midnightblue" stroke="midnightblue" points="106.455,-30.2925 105.393,-19.7511 99.6499,-28.6541 106.455,-30.2925"/>
</g>
<!-- Node6 -->
<g id="node6" class="node"><title>Node6</title>
<polygon fill="white" stroke="#bfbfbf" points="171.5,-0.5 171.5,-19.5 215.5,-19.5 215.5,-0.5 171.5,-0.5"/>
<text text-anchor="middle" x="193.5" y="-7.5" font-family="Helvetica,sans-Serif" font-size="10.00">vector</text>
</g>
<!-- Node3&#45;&gt;Node6 -->
<g id="edge5" class="edge"><title>Node3&#45;&gt;Node6</title>
<path fill="none" stroke="midnightblue" d="M110.406,-56.324C126.138,-47.7428 150.442,-34.486 168.709,-24.5224"/>
<polygon fill="midnightblue" stroke="midnightblue" points="170.53,-27.5157 177.633,-19.6545 167.178,-21.3704 170.53,-27.5157"/>
</g>
<!-- Node7&#45;&gt;Node3 -->
<g id="edge10" class="edge"><title>Node7&#45;&gt;Node3</title>
<path fill="none" stroke="midnightblue" d="M156.611,-112.324C145.35,-104.107 128.213,-91.6017 114.791,-81.8069"/>
<polygon fill="midnightblue" stroke="midnightblue" points="116.747,-78.9014 106.606,-75.8339 112.62,-84.5559 116.747,-78.9014"/>
</g>
<!-- Node7&#45;&gt;Node4 -->
<g id="edge7" class="edge"><title>Node7&#45;&gt;Node4</title>
<path fill="none" stroke="midnightblue" d="M131.715,-112.439C98.1379,-103.893 51.9071,-90.0424 39.5,-76 28.403,-63.4404 25.39,-44.2198 24.8608,-29.9335"/>
<polygon fill="midnightblue" stroke="midnightblue" points="28.3608,-29.7559 24.862,-19.7554 21.3608,-29.755 28.3608,-29.7559"/>
</g>
<!-- Node7&#45;&gt;Node5 -->
<g id="edge8" class="edge"><title>Node7&#45;&gt;Node5</title>
<path fill="none" stroke="midnightblue" d="M167.044,-112.095C164.643,-99.0937 159.036,-74.4568 148.5,-56 142.37,-45.261 133.279,-34.9386 125.214,-26.8952"/>
<polygon fill="midnightblue" stroke="midnightblue" points="127.294,-24.0428 117.639,-19.6804 122.466,-29.1116 127.294,-24.0428"/>
</g>
<!-- Node7&#45;&gt;Node6 -->
<g id="edge9" class="edge"><title>Node7&#45;&gt;Node6</title>
<path fill="none" stroke="midnightblue" d="M171.53,-112.468C174.631,-103.487 179.419,-88.8914 182.5,-76 186.163,-60.6749 189.068,-43.0344 190.97,-30.0009"/>
<polygon fill="midnightblue" stroke="midnightblue" points="194.463,-30.2949 192.378,-19.9073 187.53,-29.3279 194.463,-30.2949"/>
</g>
</g>
</svg>
