<?xml version="1.0" encoding="UTF-8" standalone="no"?>
<!DOCTYPE svg PUBLIC "-//W3C//DTD SVG 1.1//EN"
 "http://www.w3.org/Graphics/SVG/1.1/DTD/svg11.dtd">
<!-- Generated by graphviz version 2.38.0 (20140413.2041)
 -->
<!-- Title: gmgf/state.hpp Pages: 1 -->
<svg width="1548pt" height="207pt"
 viewBox="0.00 0.00 1547.50 207.00" xmlns="http://www.w3.org/2000/svg" xmlns:xlink="http://www.w3.org/1999/xlink">
<g id="graph0" class="graph" transform="scale(1 1) rotate(0) translate(4 203)">
<title>gmgf/state.hpp</title>
<polygon fill="white" stroke="none" points="-4,4 -4,-203 1543.5,-203 1543.5,4 -4,4"/>
<!-- Node1 -->
<g id="node1" class="node"><title>Node1</title>
<polygon fill="#bfbfbf" stroke="black" points="940,-179.5 940,-198.5 1022,-198.5 1022,-179.5 940,-179.5"/>
<text text-anchor="middle" x="981" y="-186.5" font-family="Helvetica,sans-Serif" font-size="10.00">gmgf/state.hpp</text>
</g>
<!-- Node2 -->
<g id="node2" class="node"><title>Node2</title>
<g id="a_node2"><a xlink:href="basic__state_8hpp.html" target="_top" xlink:title="gmgf/basic_state.hpp">
<polygon fill="white" stroke="black" points="249,-123.5 249,-142.5 359,-142.5 359,-123.5 249,-123.5"/>
<text text-anchor="middle" x="304" y="-130.5" font-family="Helvetica,sans-Serif" font-size="10.00">gmgf/basic_state.hpp</text>
</a>
</g>
</g>
<!-- Node1&#45;&gt;Node2 -->
<g id="edge1" class="edge"><title>Node1&#45;&gt;Node2</title>
<path fill="none" stroke="midnightblue" d="M929.894,-183.924C805.441,-173.997 487.467,-148.634 359.041,-138.39"/>
<polygon fill="midnightblue" stroke="midnightblue" points="929.676,-187.417 939.923,-184.724 930.233,-180.439 929.676,-187.417"/>
</g>
<!-- Node8 -->
<g id="node8" class="node"><title>Node8</title>
<g id="a_node8"><a xlink:href="state__initr_8hpp.html" target="_top" xlink:title="gmgf/state_initr.hpp">
<polygon fill="white" stroke="black" points="929.5,-123.5 929.5,-142.5 1032.5,-142.5 1032.5,-123.5 929.5,-123.5"/>
<text text-anchor="middle" x="981" y="-130.5" font-family="Helvetica,sans-Serif" font-size="10.00">gmgf/state_initr.hpp</text>
</a>
</g>
</g>
<!-- Node1&#45;&gt;Node8 -->
<g id="edge7" class="edge"><title>Node1&#45;&gt;Node8</title>
<path fill="none" stroke="midnightblue" d="M981,-168.805C981,-159.91 981,-149.78 981,-142.751"/>
<polygon fill="midnightblue" stroke="midnightblue" points="977.5,-169.083 981,-179.083 984.5,-169.083 977.5,-169.083"/>
</g>
<!-- Node16 -->
<g id="node16" class="node"><title>Node16</title>
<g id="a_node16"><a xlink:href="state_8cpp.html" target="_top" xlink:title="gmgf/state.cpp">
<polygon fill="white" stroke="black" points="1051,-123.5 1051,-142.5 1133,-142.5 1133,-123.5 1051,-123.5"/>
<text text-anchor="middle" x="1092" y="-130.5" font-family="Helvetica,sans-Serif" font-size="10.00">gmgf/state.cpp</text>
</a>
</g>
</g>
<!-- Node1&#45;&gt;Node16 -->
<g id="edge16" class="edge"><title>Node1&#45;&gt;Node16</title>
<path fill="none" stroke="midnightblue" d="M1008.01,-174.862C1028.59,-164.849 1056.34,-151.346 1074.21,-142.655"/>
<polygon fill="midnightblue" stroke="midnightblue" points="1006.3,-171.802 998.834,-179.324 1009.36,-178.097 1006.3,-171.802"/>
</g>
<!-- Node3 -->
<g id="node3" class="node"><title>Node3</title>
<g id="a_node3"><a xlink:href="basic__state_8cpp.html" target="_top" xlink:title="gmgf/basic_state.cpp">
<polygon fill="white" stroke="black" points="0,-62 0,-81 110,-81 110,-62 0,-62"/>
<text text-anchor="middle" x="55" y="-69" font-family="Helvetica,sans-Serif" font-size="10.00">gmgf/basic_state.cpp</text>
</a>
</g>
</g>
<!-- Node2&#45;&gt;Node3 -->
<g id="edge2" class="edge"><title>Node2&#45;&gt;Node3</title>
<path fill="none" stroke="midnightblue" d="M258.442,-121.114C210.113,-109.565 134.77,-91.5615 90.6094,-81.0091"/>
<polygon fill="midnightblue" stroke="midnightblue" points="257.785,-124.555 268.324,-123.475 259.412,-117.747 257.785,-124.555"/>
</g>
<!-- Node4 -->
<g id="node4" class="node"><title>Node4</title>
<g id="a_node4"><a xlink:href="basic__state__initr_8cpp.html" target="_top" xlink:title="gmgf/basic_state_initr.cpp">
<polygon fill="white" stroke="black" points="331.5,-0.5 331.5,-19.5 462.5,-19.5 462.5,-0.5 331.5,-0.5"/>
<text text-anchor="middle" x="397" y="-7.5" font-family="Helvetica,sans-Serif" font-size="10.00">gmgf/basic_state_initr.cpp</text>
</a>
</g>
</g>
<!-- Node2&#45;&gt;Node4 -->
<g id="edge3" class="edge"><title>Node2&#45;&gt;Node4</title>
<path fill="none" stroke="midnightblue" d="M238.729,-121.548C187.375,-110.526 128.817,-89.9579 157,-56 178.794,-29.7396 268.101,-18.7113 331.382,-14.1426"/>
<polygon fill="midnightblue" stroke="midnightblue" points="238.044,-124.98 248.543,-123.561 239.451,-118.123 238.044,-124.98"/>
</g>
<!-- Node5 -->
<g id="node5" class="node"><title>Node5</title>
<g id="a_node5"><a xlink:href="matrix__opt__state_8hpp.html" target="_top" xlink:title="gmgf/matrix_opt_state.hpp">
<polygon fill="white" stroke="red" points="166.5,-62 166.5,-81 299.5,-81 299.5,-62 166.5,-62"/>
<text text-anchor="middle" x="233" y="-69" font-family="Helvetica,sans-Serif" font-size="10.00">gmgf/matrix_opt_state.hpp</text>
</a>
</g>
</g>
<!-- Node2&#45;&gt;Node5 -->
<g id="edge4" class="edge"><title>Node2&#45;&gt;Node5</title>
<path fill="none" stroke="midnightblue" d="M286.068,-116.973C272.489,-105.593 254.323,-90.3694 243.154,-81.0091"/>
<polygon fill="midnightblue" stroke="midnightblue" points="283.915,-119.735 293.827,-123.475 288.411,-114.369 283.915,-119.735"/>
</g>
<!-- Node6 -->
<g id="node6" class="node"><title>Node6</title>
<g id="a_node6"><a xlink:href="matrix__state_8hpp.html" target="_top" xlink:title="gmgf/matrix_state.hpp">
<polygon fill="white" stroke="red" points="318,-62 318,-81 432,-81 432,-62 318,-62"/>
<text text-anchor="middle" x="375" y="-69" font-family="Helvetica,sans-Serif" font-size="10.00">gmgf/matrix_state.hpp</text>
</a>
</g>
</g>
<!-- Node2&#45;&gt;Node6 -->
<g id="edge5" class="edge"><title>Node2&#45;&gt;Node6</title>
<path fill="none" stroke="midnightblue" d="M321.932,-116.973C335.511,-105.593 353.677,-90.3694 364.846,-81.0091"/>
<polygon fill="midnightblue" stroke="midnightblue" points="319.589,-114.369 314.173,-123.475 324.085,-119.735 319.589,-114.369"/>
</g>
<!-- Node7 -->
<g id="node7" class="node"><title>Node7</title>
<g id="a_node7"><a xlink:href="minmax__state_8hpp.html" target="_top" xlink:title="gmgf/minmax_state.hpp">
<polygon fill="white" stroke="red" points="450,-62 450,-81 572,-81 572,-62 450,-62"/>
<text text-anchor="middle" x="511" y="-69" font-family="Helvetica,sans-Serif" font-size="10.00">gmgf/minmax_state.hpp</text>
</a>
</g>
</g>
<!-- Node2&#45;&gt;Node7 -->
<g id="edge6" class="edge"><title>Node2&#45;&gt;Node7</title>
<path fill="none" stroke="midnightblue" d="M343.397,-120.676C383.619,-109.114 445.146,-91.429 481.397,-81.0091"/>
<polygon fill="midnightblue" stroke="midnightblue" points="342.302,-117.349 333.658,-123.475 344.236,-124.076 342.302,-117.349"/>
</g>
<!-- Node9 -->
<g id="node9" class="node"><title>Node9</title>
<g id="a_node9"><a xlink:href="basic__state__initr_8hpp.html" target="_top" xlink:title="gmgf/basic_state_initr.hpp">
<polygon fill="white" stroke="black" points="590.5,-62 590.5,-81 721.5,-81 721.5,-62 590.5,-62"/>
<text text-anchor="middle" x="656" y="-69" font-family="Helvetica,sans-Serif" font-size="10.00">gmgf/basic_state_initr.hpp</text>
</a>
</g>
</g>
<!-- Node8&#45;&gt;Node9 -->
<g id="edge8" class="edge"><title>Node8&#45;&gt;Node9</title>
<path fill="none" stroke="midnightblue" d="M921.74,-121.653C870.847,-112.7 795.539,-99.2953 730,-87 719.964,-85.1172 709.174,-83.0356 699.021,-81.0512"/>
<polygon fill="midnightblue" stroke="midnightblue" points="921.445,-125.155 931.9,-123.438 922.656,-118.26 921.445,-125.155"/>
</g>
<!-- Node10 -->
<g id="node10" class="node"><title>Node10</title>
<g id="a_node10"><a xlink:href="dfs__finder_8hpp.html" target="_top" xlink:title="gmgf/dfs_finder.hpp">
<polygon fill="white" stroke="red" points="739.5,-62 739.5,-81 842.5,-81 842.5,-62 739.5,-62"/>
<text text-anchor="middle" x="791" y="-69" font-family="Helvetica,sans-Serif" font-size="10.00">gmgf/dfs_finder.hpp</text>
</a>
</g>
</g>
<!-- Node8&#45;&gt;Node10 -->
<g id="edge10" class="edge"><title>Node8&#45;&gt;Node10</title>
<path fill="none" stroke="midnightblue" d="M943.896,-120.381C906.965,-108.815 851.164,-91.3407 818.172,-81.0091"/>
<polygon fill="midnightblue" stroke="midnightblue" points="943.189,-123.827 953.778,-123.475 945.281,-117.147 943.189,-123.827"/>
</g>
<!-- Node11 -->
<g id="node11" class="node"><title>Node11</title>
<g id="a_node11"><a xlink:href="fbs__enumer_8hpp.html" target="_top" xlink:title="gmgf/fbs_enumer.hpp">
<polygon fill="white" stroke="red" points="860.5,-62 860.5,-81 971.5,-81 971.5,-62 860.5,-62"/>
<text text-anchor="middle" x="916" y="-69" font-family="Helvetica,sans-Serif" font-size="10.00">gmgf/fbs_enumer.hpp</text>
</a>
</g>
</g>
<!-- Node8&#45;&gt;Node11 -->
<g id="edge11" class="edge"><title>Node8&#45;&gt;Node11</title>
<path fill="none" stroke="midnightblue" d="M964.231,-116.65C951.838,-105.306 935.425,-90.2811 925.296,-81.0091"/>
<polygon fill="midnightblue" stroke="midnightblue" points="961.948,-119.305 971.687,-123.475 966.674,-114.141 961.948,-119.305"/>
</g>
<!-- Node12 -->
<g id="node12" class="node"><title>Node12</title>
<g id="a_node12"><a xlink:href="matrix__opt__state__initr_8hpp.html" target="_top" xlink:title="gmgf/matrix_opt_state\l_initr.hpp">
<polygon fill="white" stroke="red" points="990,-56.5 990,-86.5 1104,-86.5 1104,-56.5 990,-56.5"/>
<text text-anchor="start" x="998" y="-74.5" font-family="Helvetica,sans-Serif" font-size="10.00">gmgf/matrix_opt_state</text>
<text text-anchor="middle" x="1047" y="-63.5" font-family="Helvetica,sans-Serif" font-size="10.00">_initr.hpp</text>
</a>
</g>
</g>
<!-- Node8&#45;&gt;Node12 -->
<g id="edge12" class="edge"><title>Node8&#45;&gt;Node12</title>
<path fill="none" stroke="midnightblue" d="M998.031,-116.646C1008.35,-107.346 1021.41,-95.572 1031.45,-86.523"/>
<polygon fill="midnightblue" stroke="midnightblue" points="995.54,-114.18 990.456,-123.475 1000.23,-119.379 995.54,-114.18"/>
</g>
<!-- Node13 -->
<g id="node13" class="node"><title>Node13</title>
<g id="a_node13"><a xlink:href="matrix__state__initr_8hpp.html" target="_top" xlink:title="gmgf/matrix_state_initr.hpp">
<polygon fill="white" stroke="red" points="1122.5,-62 1122.5,-81 1257.5,-81 1257.5,-62 1122.5,-62"/>
<text text-anchor="middle" x="1190" y="-69" font-family="Helvetica,sans-Serif" font-size="10.00">gmgf/matrix_state_initr.hpp</text>
</a>
</g>
</g>
<!-- Node8&#45;&gt;Node13 -->
<g id="edge13" class="edge"><title>Node8&#45;&gt;Node13</title>
<path fill="none" stroke="midnightblue" d="M1020.78,-120.676C1061.39,-109.114 1123.51,-91.429 1160.11,-81.0091"/>
<polygon fill="midnightblue" stroke="midnightblue" points="1019.6,-117.371 1010.94,-123.475 1021.52,-124.103 1019.6,-117.371"/>
</g>
<!-- Node14 -->
<g id="node14" class="node"><title>Node14</title>
<g id="a_node14"><a xlink:href="minmax__state__initr_8hpp.html" target="_top" xlink:title="gmgf/minmax_state_initr.hpp">
<polygon fill="white" stroke="red" points="1275.5,-62 1275.5,-81 1418.5,-81 1418.5,-62 1275.5,-62"/>
<text text-anchor="middle" x="1347" y="-69" font-family="Helvetica,sans-Serif" font-size="10.00">gmgf/minmax_state_initr.hpp</text>
</a>
</g>
</g>
<!-- Node8&#45;&gt;Node14 -->
<g id="edge14" class="edge"><title>Node8&#45;&gt;Node14</title>
<path fill="none" stroke="midnightblue" d="M1042.82,-122.697C1100.79,-113.873 1189.86,-100.058 1267,-87 1277.99,-85.1389 1289.82,-83.0456 1300.92,-81.0407"/>
<polygon fill="midnightblue" stroke="midnightblue" points="1042.09,-119.269 1032.73,-124.231 1043.14,-126.189 1042.09,-119.269"/>
</g>
<!-- Node15 -->
<g id="node15" class="node"><title>Node15</title>
<g id="a_node15"><a xlink:href="state__initr_8cpp.html" target="_top" xlink:title="gmgf/state_initr.cpp">
<polygon fill="white" stroke="black" points="1436.5,-62 1436.5,-81 1539.5,-81 1539.5,-62 1436.5,-62"/>
<text text-anchor="middle" x="1488" y="-69" font-family="Helvetica,sans-Serif" font-size="10.00">gmgf/state_initr.cpp</text>
</a>
</g>
</g>
<!-- Node8&#45;&gt;Node15 -->
<g id="edge15" class="edge"><title>Node8&#45;&gt;Node15</title>
<path fill="none" stroke="midnightblue" d="M1042.73,-122.988C1214.82,-102.894 1261.28,-114.771 1428,-87 1437.3,-85.4505 1447.3,-83.2529 1456.41,-81.0358"/>
<polygon fill="midnightblue" stroke="midnightblue" points="1042.08,-119.541 1032.56,-124.195 1042.9,-126.492 1042.08,-119.541"/>
</g>
<!-- Node9&#45;&gt;Node4 -->
<g id="edge9" class="edge"><title>Node9&#45;&gt;Node4</title>
<path fill="none" stroke="midnightblue" d="M608.928,-59.6862C558.671,-48.1406 480.07,-30.0835 434.04,-19.5091"/>
<polygon fill="midnightblue" stroke="midnightblue" points="608.362,-63.1472 618.892,-61.9751 609.929,-56.3249 608.362,-63.1472"/>
</g>
</g>
</svg>
