<?xml version="1.0" encoding="UTF-8" standalone="no"?>
<!DOCTYPE svg PUBLIC "-//W3C//DTD SVG 1.1//EN"
 "http://www.w3.org/Graphics/SVG/1.1/DTD/svg11.dtd">
<!-- Generated by graphviz version 2.38.0 (20140413.2041)
 -->
<!-- Title: gmgf/state.hpp Pages: 1 -->
<svg width="1142pt" height="196pt"
 viewBox="0.00 0.00 1141.50 196.00" xmlns="http://www.w3.org/2000/svg" xmlns:xlink="http://www.w3.org/1999/xlink">
<g id="graph0" class="graph" transform="scale(1 1) rotate(0) translate(4 192)">
<title>gmgf/state.hpp</title>
<polygon fill="white" stroke="none" points="-4,4 -4,-192 1137.5,-192 1137.5,4 -4,4"/>
<!-- Node1 -->
<g id="node1" class="node"><title>Node1</title>
<polygon fill="#bfbfbf" stroke="black" points="672,-168.5 672,-187.5 754,-187.5 754,-168.5 672,-168.5"/>
<text text-anchor="middle" x="713" y="-175.5" font-family="Helvetica,sans-Serif" font-size="10.00">gmgf/state.hpp</text>
</g>
<!-- Node2 -->
<g id="node2" class="node"><title>Node2</title>
<g id="a_node2"><a xlink:href="basic__state_8hpp.html" target="_top" xlink:title="gmgf/basic_state.hpp">
<polygon fill="white" stroke="black" points="172,-112.5 172,-131.5 282,-131.5 282,-112.5 172,-112.5"/>
<text text-anchor="middle" x="227" y="-119.5" font-family="Helvetica,sans-Serif" font-size="10.00">gmgf/basic_state.hpp</text>
</a>
</g>
</g>
<!-- Node1&#45;&gt;Node2 -->
<g id="edge1" class="edge"><title>Node1&#45;&gt;Node2</title>
<path fill="none" stroke="midnightblue" d="M661.806,-171.312C569.81,-161.09 377.3,-139.7 282.361,-129.151"/>
<polygon fill="midnightblue" stroke="midnightblue" points="661.657,-174.817 671.983,-172.443 662.43,-167.86 661.657,-174.817"/>
</g>
<!-- Node7 -->
<g id="node7" class="node"><title>Node7</title>
<g id="a_node7"><a xlink:href="state__initr_8hpp.html" target="_top" xlink:title="gmgf/state_initr.hpp">
<polygon fill="white" stroke="black" points="661.5,-112.5 661.5,-131.5 764.5,-131.5 764.5,-112.5 661.5,-112.5"/>
<text text-anchor="middle" x="713" y="-119.5" font-family="Helvetica,sans-Serif" font-size="10.00">gmgf/state_initr.hpp</text>
</a>
</g>
</g>
<!-- Node1&#45;&gt;Node7 -->
<g id="edge6" class="edge"><title>Node1&#45;&gt;Node7</title>
<path fill="none" stroke="midnightblue" d="M713,-157.805C713,-148.91 713,-138.78 713,-131.751"/>
<polygon fill="midnightblue" stroke="midnightblue" points="709.5,-158.083 713,-168.083 716.5,-158.083 709.5,-158.083"/>
</g>
<!-- Node13 -->
<g id="node13" class="node"><title>Node13</title>
<g id="a_node13"><a xlink:href="state_8cpp.html" target="_top" xlink:title="gmgf/state.cpp">
<polygon fill="white" stroke="black" points="783,-112.5 783,-131.5 865,-131.5 865,-112.5 783,-112.5"/>
<text text-anchor="middle" x="824" y="-119.5" font-family="Helvetica,sans-Serif" font-size="10.00">gmgf/state.cpp</text>
</a>
</g>
</g>
<!-- Node1&#45;&gt;Node13 -->
<g id="edge13" class="edge"><title>Node1&#45;&gt;Node13</title>
<path fill="none" stroke="midnightblue" d="M740.005,-163.862C760.588,-153.849 788.345,-140.346 806.21,-131.655"/>
<polygon fill="midnightblue" stroke="midnightblue" points="738.295,-160.802 730.834,-168.324 741.358,-167.097 738.295,-160.802"/>
</g>
<!-- Node3 -->
<g id="node3" class="node"><title>Node3</title>
<g id="a_node3"><a xlink:href="basic__state_8cpp.html" target="_top" xlink:title="gmgf/basic_state.cpp">
<polygon fill="white" stroke="black" points="0,-56.5 0,-75.5 110,-75.5 110,-56.5 0,-56.5"/>
<text text-anchor="middle" x="55" y="-63.5" font-family="Helvetica,sans-Serif" font-size="10.00">gmgf/basic_state.cpp</text>
</a>
</g>
</g>
<!-- Node2&#45;&gt;Node3 -->
<g id="edge2" class="edge"><title>Node2&#45;&gt;Node3</title>
<path fill="none" stroke="midnightblue" d="M190.168,-109.436C157.738,-99.2551 111.263,-84.664 82.1264,-75.5164"/>
<polygon fill="midnightblue" stroke="midnightblue" points="189.157,-112.787 199.746,-112.444 191.254,-106.109 189.157,-112.787"/>
</g>
<!-- Node4 -->
<g id="node4" class="node"><title>Node4</title>
<g id="a_node4"><a xlink:href="basic__state__initr_8cpp.html" target="_top" xlink:title="gmgf/basic_state_initr.cpp">
<polygon fill="white" stroke="black" points="257.5,-0.5 257.5,-19.5 388.5,-19.5 388.5,-0.5 257.5,-0.5"/>
<text text-anchor="middle" x="323" y="-7.5" font-family="Helvetica,sans-Serif" font-size="10.00">gmgf/basic_state_initr.cpp</text>
</a>
</g>
</g>
<!-- Node2&#45;&gt;Node4 -->
<g id="edge3" class="edge"><title>Node2&#45;&gt;Node4</title>
<path fill="none" stroke="midnightblue" d="M195.269,-107.996C170.073,-95.7592 141.453,-76.3227 157,-56 170.017,-38.9839 220.6,-26.9049 262.544,-19.5747"/>
<polygon fill="midnightblue" stroke="midnightblue" points="194.111,-111.316 204.658,-112.32 197.039,-104.958 194.111,-111.316"/>
</g>
<!-- Node5 -->
<g id="node5" class="node"><title>Node5</title>
<g id="a_node5"><a xlink:href="minmax__state_8hpp.html" target="_top" xlink:title="gmgf/minmax_state.hpp">
<polygon fill="white" stroke="red" points="166,-56.5 166,-75.5 288,-75.5 288,-56.5 166,-56.5"/>
<text text-anchor="middle" x="227" y="-63.5" font-family="Helvetica,sans-Serif" font-size="10.00">gmgf/minmax_state.hpp</text>
</a>
</g>
</g>
<!-- Node2&#45;&gt;Node5 -->
<g id="edge4" class="edge"><title>Node2&#45;&gt;Node5</title>
<path fill="none" stroke="midnightblue" d="M227,-101.805C227,-92.9102 227,-82.7798 227,-75.7511"/>
<polygon fill="midnightblue" stroke="midnightblue" points="223.5,-102.083 227,-112.083 230.5,-102.083 223.5,-102.083"/>
</g>
<!-- Node6 -->
<g id="node6" class="node"><title>Node6</title>
<g id="a_node6"><a xlink:href="mmmtr__state_8hpp.html" target="_top" xlink:title="gmgf/mmmtr_state.hpp">
<polygon fill="white" stroke="red" points="306,-56.5 306,-75.5 424,-75.5 424,-56.5 306,-56.5"/>
<text text-anchor="middle" x="365" y="-63.5" font-family="Helvetica,sans-Serif" font-size="10.00">gmgf/mmmtr_state.hpp</text>
</a>
</g>
</g>
<!-- Node2&#45;&gt;Node6 -->
<g id="edge5" class="edge"><title>Node2&#45;&gt;Node6</title>
<path fill="none" stroke="midnightblue" d="M258.249,-108.772C284.171,-98.6287 320.362,-84.4669 343.236,-75.5164"/>
<polygon fill="midnightblue" stroke="midnightblue" points="256.904,-105.54 248.867,-112.444 259.454,-112.059 256.904,-105.54"/>
</g>
<!-- Node8 -->
<g id="node8" class="node"><title>Node8</title>
<g id="a_node8"><a xlink:href="basic__state__initr_8hpp.html" target="_top" xlink:title="gmgf/basic_state_initr.hpp">
<polygon fill="white" stroke="black" points="442.5,-56.5 442.5,-75.5 573.5,-75.5 573.5,-56.5 442.5,-56.5"/>
<text text-anchor="middle" x="508" y="-63.5" font-family="Helvetica,sans-Serif" font-size="10.00">gmgf/basic_state_initr.hpp</text>
</a>
</g>
</g>
<!-- Node7&#45;&gt;Node8 -->
<g id="edge7" class="edge"><title>Node7&#45;&gt;Node8</title>
<path fill="none" stroke="midnightblue" d="M670.592,-109.829C631.886,-99.6333 575.507,-84.7823 540.331,-75.5164"/>
<polygon fill="midnightblue" stroke="midnightblue" points="669.955,-113.281 680.517,-112.444 671.739,-106.512 669.955,-113.281"/>
</g>
<!-- Node9 -->
<g id="node9" class="node"><title>Node9</title>
<g id="a_node9"><a xlink:href="dfs__finder_8hpp.html" target="_top" xlink:title="gmgf/dfs_finder.hpp">
<polygon fill="white" stroke="red" points="591.5,-56.5 591.5,-75.5 694.5,-75.5 694.5,-56.5 591.5,-56.5"/>
<text text-anchor="middle" x="643" y="-63.5" font-family="Helvetica,sans-Serif" font-size="10.00">gmgf/dfs_finder.hpp</text>
</a>
</g>
</g>
<!-- Node7&#45;&gt;Node9 -->
<g id="edge9" class="edge"><title>Node7&#45;&gt;Node9</title>
<path fill="none" stroke="midnightblue" d="M693.686,-106.101C681.088,-96.3824 665.072,-84.0269 654.451,-75.8339"/>
<polygon fill="midnightblue" stroke="midnightblue" points="691.698,-108.987 701.753,-112.324 695.973,-103.445 691.698,-108.987"/>
</g>
<!-- Node10 -->
<g id="node10" class="node"><title>Node10</title>
<g id="a_node10"><a xlink:href="minmax__state__initr_8hpp.html" target="_top" xlink:title="gmgf/minmax_state_initr.hpp">
<polygon fill="white" stroke="red" points="712.5,-56.5 712.5,-75.5 855.5,-75.5 855.5,-56.5 712.5,-56.5"/>
<text text-anchor="middle" x="784" y="-63.5" font-family="Helvetica,sans-Serif" font-size="10.00">gmgf/minmax_state_initr.hpp</text>
</a>
</g>
</g>
<!-- Node7&#45;&gt;Node10 -->
<g id="edge10" class="edge"><title>Node7&#45;&gt;Node10</title>
<path fill="none" stroke="midnightblue" d="M732.59,-106.101C745.368,-96.3824 761.613,-84.0269 772.385,-75.8339"/>
<polygon fill="midnightblue" stroke="midnightblue" points="730.248,-103.484 724.407,-112.324 734.486,-109.056 730.248,-103.484"/>
</g>
<!-- Node11 -->
<g id="node11" class="node"><title>Node11</title>
<g id="a_node11"><a xlink:href="mmmtr__state__initr_8hpp.html" target="_top" xlink:title="gmgf/mmmtr_state_initr.hpp">
<polygon fill="white" stroke="red" points="873.5,-56.5 873.5,-75.5 1012.5,-75.5 1012.5,-56.5 873.5,-56.5"/>
<text text-anchor="middle" x="943" y="-63.5" font-family="Helvetica,sans-Serif" font-size="10.00">gmgf/mmmtr_state_initr.hpp</text>
</a>
</g>
</g>
<!-- Node7&#45;&gt;Node11 -->
<g id="edge11" class="edge"><title>Node7&#45;&gt;Node11</title>
<path fill="none" stroke="midnightblue" d="M759.201,-110.153C802.658,-99.95 866.841,-84.8809 906.726,-75.5164"/>
<polygon fill="midnightblue" stroke="midnightblue" points="758.379,-106.75 749.444,-112.444 759.979,-113.565 758.379,-106.75"/>
</g>
<!-- Node12 -->
<g id="node12" class="node"><title>Node12</title>
<g id="a_node12"><a xlink:href="state__initr_8cpp.html" target="_top" xlink:title="gmgf/state_initr.cpp">
<polygon fill="white" stroke="black" points="1030.5,-56.5 1030.5,-75.5 1133.5,-75.5 1133.5,-56.5 1030.5,-56.5"/>
<text text-anchor="middle" x="1082" y="-63.5" font-family="Helvetica,sans-Serif" font-size="10.00">gmgf/state_initr.cpp</text>
</a>
</g>
</g>
<!-- Node7&#45;&gt;Node12 -->
<g id="edge12" class="edge"><title>Node7&#45;&gt;Node12</title>
<path fill="none" stroke="midnightblue" d="M774.529,-111.926C885.834,-95.657 914.936,-91.8004 1022,-76 1024.71,-75.6002 1027.49,-75.1887 1030.29,-74.7721"/>
<polygon fill="midnightblue" stroke="midnightblue" points="773.972,-108.47 764.583,-113.381 774.985,-115.396 773.972,-108.47"/>
</g>
<!-- Node8&#45;&gt;Node4 -->
<g id="edge8" class="edge"><title>Node8&#45;&gt;Node4</title>
<path fill="none" stroke="midnightblue" d="M468.834,-53.5677C433.935,-43.381 383.651,-28.7034 352.177,-19.5164"/>
<polygon fill="midnightblue" stroke="midnightblue" points="468.106,-57.0013 478.686,-56.4435 470.067,-50.2817 468.106,-57.0013"/>
</g>
</g>
</svg>
