<?xml version="1.0" encoding="UTF-8" standalone="no"?>
<!DOCTYPE svg PUBLIC "-//W3C//DTD SVG 1.1//EN"
 "http://www.w3.org/Graphics/SVG/1.1/DTD/svg11.dtd">
<!-- Generated by graphviz version 2.38.0 (20140413.2041)
 -->
<!-- Title: gmgf/stree_graph_initr.hpp Pages: 1 -->
<svg width="266pt" height="196pt"
 viewBox="0.00 0.00 266.00 196.00" xmlns="http://www.w3.org/2000/svg" xmlns:xlink="http://www.w3.org/1999/xlink">
<g id="graph0" class="graph" transform="scale(1 1) rotate(0) translate(4 192)">
<title>gmgf/stree_graph_initr.hpp</title>
<polygon fill="white" stroke="none" points="-4,4 -4,-192 262,-192 262,4 -4,4"/>
<!-- Node1 -->
<g id="node1" class="node"><title>Node1</title>
<polygon fill="#bfbfbf" stroke="black" points="0,-168.5 0,-187.5 132,-187.5 132,-168.5 0,-168.5"/>
<text text-anchor="middle" x="66" y="-175.5" font-family="Helvetica,sans-Serif" font-size="10.00">gmgf/stree_graph_initr.hpp</text>
</g>
<!-- Node2 -->
<g id="node2" class="node"><title>Node2</title>
<polygon fill="white" stroke="#bfbfbf" points="44,-0.5 44,-19.5 88,-19.5 88,-0.5 44,-0.5"/>
<text text-anchor="middle" x="66" y="-7.5" font-family="Helvetica,sans-Serif" font-size="10.00">vector</text>
</g>
<!-- Node1&#45;&gt;Node2 -->
<g id="edge1" class="edge"><title>Node1&#45;&gt;Node2</title>
<path fill="none" stroke="midnightblue" d="M63.2701,-168.486C60.5492,-159.52 56.5581,-144.935 55,-132 50.6428,-95.8256 57.1737,-53.3793 61.883,-29.5945"/>
<polygon fill="midnightblue" stroke="midnightblue" points="65.3673,-30.0319 63.9929,-19.5266 58.5161,-28.5961 65.3673,-30.0319"/>
</g>
<!-- Node3 -->
<g id="node3" class="node"><title>Node3</title>
<g id="a_node3"><a xlink:href="graph__initr_8hpp.html" target="_top" xlink:title="graph_initr.hpp">
<polygon fill="white" stroke="black" points="64,-112.5 64,-131.5 144,-131.5 144,-112.5 64,-112.5"/>
<text text-anchor="middle" x="104" y="-119.5" font-family="Helvetica,sans-Serif" font-size="10.00">graph_initr.hpp</text>
</a>
</g>
</g>
<!-- Node1&#45;&gt;Node3 -->
<g id="edge2" class="edge"><title>Node1&#45;&gt;Node3</title>
<path fill="none" stroke="midnightblue" d="M72.2749,-168.083C77.6425,-160.455 85.5176,-149.264 92.0787,-139.941"/>
<polygon fill="midnightblue" stroke="midnightblue" points="94.9492,-141.943 97.8418,-131.751 89.2245,-137.915 94.9492,-141.943"/>
</g>
<!-- Node3&#45;&gt;Node2 -->
<g id="edge5" class="edge"><title>Node3&#45;&gt;Node2</title>
<path fill="none" stroke="midnightblue" d="M101.018,-112.368C94.8581,-94.5366 80.6111,-53.2953 72.3121,-29.2717"/>
<polygon fill="midnightblue" stroke="midnightblue" points="75.5414,-27.9005 68.9679,-19.5914 68.925,-30.1862 75.5414,-27.9005"/>
</g>
<!-- Node4 -->
<g id="node4" class="node"><title>Node4</title>
<polygon fill="white" stroke="#bfbfbf" points="120.5,-0.5 120.5,-19.5 171.5,-19.5 171.5,-0.5 120.5,-0.5"/>
<text text-anchor="middle" x="146" y="-7.5" font-family="Helvetica,sans-Serif" font-size="10.00">igraph.h</text>
</g>
<!-- Node3&#45;&gt;Node4 -->
<g id="edge3" class="edge"><title>Node3&#45;&gt;Node4</title>
<path fill="none" stroke="midnightblue" d="M105.962,-112.415C108.964,-99.8112 115.181,-75.6651 123,-56 126.687,-46.726 131.639,-36.809 136.003,-28.6514"/>
<polygon fill="midnightblue" stroke="midnightblue" points="139.155,-30.1834 140.911,-19.735 133.023,-26.808 139.155,-30.1834"/>
</g>
<!-- Node5 -->
<g id="node5" class="node"><title>Node5</title>
<polygon fill="white" stroke="#bfbfbf" points="218,-0.5 218,-19.5 258,-19.5 258,-0.5 218,-0.5"/>
<text text-anchor="middle" x="238" y="-7.5" font-family="Helvetica,sans-Serif" font-size="10.00">utility</text>
</g>
<!-- Node3&#45;&gt;Node5 -->
<g id="edge4" class="edge"><title>Node3&#45;&gt;Node5</title>
<path fill="none" stroke="midnightblue" d="M144.084,-118.055C173.247,-113.642 211.139,-102.747 232,-76 242.119,-63.0259 242.69,-43.861 241.289,-29.7005"/>
<polygon fill="midnightblue" stroke="midnightblue" points="244.732,-29.0525 239.886,-19.6308 237.799,-30.018 244.732,-29.0525"/>
</g>
<!-- Node6 -->
<g id="node6" class="node"><title>Node6</title>
<g id="a_node6"><a xlink:href="graph__config_8hpp.html" target="_top" xlink:title="graph_config.hpp">
<polygon fill="white" stroke="black" points="132.5,-56.5 132.5,-75.5 223.5,-75.5 223.5,-56.5 132.5,-56.5"/>
<text text-anchor="middle" x="178" y="-63.5" font-family="Helvetica,sans-Serif" font-size="10.00">graph_config.hpp</text>
</a>
</g>
</g>
<!-- Node3&#45;&gt;Node6 -->
<g id="edge6" class="edge"><title>Node3&#45;&gt;Node6</title>
<path fill="none" stroke="midnightblue" d="M115.889,-112.324C127.15,-104.107 144.287,-91.6017 157.709,-81.8069"/>
<polygon fill="midnightblue" stroke="midnightblue" points="159.88,-84.5559 165.894,-75.8339 155.753,-78.9014 159.88,-84.5559"/>
</g>
<!-- Node6&#45;&gt;Node2 -->
<g id="edge9" class="edge"><title>Node6&#45;&gt;Node2</title>
<path fill="none" stroke="midnightblue" d="M160.005,-56.324C141.962,-47.6247 113.953,-34.1202 93.1973,-24.113"/>
<polygon fill="midnightblue" stroke="midnightblue" points="94.4778,-20.8449 83.9501,-19.6545 91.4377,-27.1502 94.4778,-20.8449"/>
</g>
<!-- Node6&#45;&gt;Node4 -->
<g id="edge7" class="edge"><title>Node6&#45;&gt;Node4</title>
<path fill="none" stroke="midnightblue" d="M172.716,-56.083C168.289,-48.6127 161.837,-37.7244 156.382,-28.5199"/>
<polygon fill="midnightblue" stroke="midnightblue" points="159.295,-26.5697 151.186,-19.7511 153.273,-30.1383 159.295,-26.5697"/>
</g>
<!-- Node6&#45;&gt;Node5 -->
<g id="edge8" class="edge"><title>Node6&#45;&gt;Node5</title>
<path fill="none" stroke="midnightblue" d="M187.64,-56.324C196.51,-48.3414 209.875,-36.3128 220.608,-26.6529"/>
<polygon fill="midnightblue" stroke="midnightblue" points="223.093,-29.1251 228.185,-19.8339 218.41,-23.922 223.093,-29.1251"/>
</g>
</g>
</svg>
