<?xml version="1.0" encoding="UTF-8" standalone="no"?>
<!DOCTYPE svg PUBLIC "-//W3C//DTD SVG 1.1//EN"
 "http://www.w3.org/Graphics/SVG/1.1/DTD/svg11.dtd">
<!-- Generated by graphviz version 2.38.0 (20140413.2041)
 -->
<!-- Title: gmgf/stree_graph_initr.cpp Pages: 1 -->
<svg width="148pt" height="196pt"
 viewBox="0.00 0.00 148.00 196.00" xmlns="http://www.w3.org/2000/svg" xmlns:xlink="http://www.w3.org/1999/xlink">
<g id="graph0" class="graph" transform="scale(1 1) rotate(0) translate(4 192)">
<title>gmgf/stree_graph_initr.cpp</title>
<polygon fill="white" stroke="none" points="-4,4 -4,-192 144,-192 144,4 -4,4"/>
<!-- Node1 -->
<g id="node1" class="node"><title>Node1</title>
<polygon fill="#bfbfbf" stroke="black" points="0,-168.5 0,-187.5 132,-187.5 132,-168.5 0,-168.5"/>
<text text-anchor="middle" x="66" y="-175.5" font-family="Helvetica,sans-Serif" font-size="10.00">gmgf/stree_graph_initr.cpp</text>
</g>
<!-- Node2 -->
<g id="node2" class="node"><title>Node2</title>
<g id="a_node2"><a xlink:href="stree__graph__initr_8hpp.html" target="_top" xlink:title="stree_graph_initr.hpp">
<polygon fill="white" stroke="black" points="12.5,-112.5 12.5,-131.5 119.5,-131.5 119.5,-112.5 12.5,-112.5"/>
<text text-anchor="middle" x="66" y="-119.5" font-family="Helvetica,sans-Serif" font-size="10.00">stree_graph_initr.hpp</text>
</a>
</g>
</g>
<!-- Node1&#45;&gt;Node2 -->
<g id="edge1" class="edge"><title>Node1&#45;&gt;Node2</title>
<path fill="none" stroke="midnightblue" d="M66,-168.083C66,-161.006 66,-150.861 66,-141.986"/>
<polygon fill="midnightblue" stroke="midnightblue" points="69.5001,-141.751 66,-131.751 62.5001,-141.751 69.5001,-141.751"/>
</g>
<!-- Node3 -->
<g id="node3" class="node"><title>Node3</title>
<polygon fill="white" stroke="#bfbfbf" points="44,-0.5 44,-19.5 88,-19.5 88,-0.5 44,-0.5"/>
<text text-anchor="middle" x="66" y="-7.5" font-family="Helvetica,sans-Serif" font-size="10.00">vector</text>
</g>
<!-- Node2&#45;&gt;Node3 -->
<g id="edge2" class="edge"><title>Node2&#45;&gt;Node3</title>
<path fill="none" stroke="midnightblue" d="M62.1443,-112.249C58.4423,-103.333 53.1106,-89.006 51,-76 48.4202,-60.1027 53.0694,-42.2964 57.855,-29.3461"/>
<polygon fill="midnightblue" stroke="midnightblue" points="61.2289,-30.3404 61.7514,-19.7585 54.7439,-27.7049 61.2289,-30.3404"/>
</g>
<!-- Node4 -->
<g id="node4" class="node"><title>Node4</title>
<g id="a_node4"><a xlink:href="graph__initr_8hpp.html" target="_top" xlink:title="graph_initr.hpp">
<polygon fill="white" stroke="red" points="60,-56.5 60,-75.5 140,-75.5 140,-56.5 60,-56.5"/>
<text text-anchor="middle" x="100" y="-63.5" font-family="Helvetica,sans-Serif" font-size="10.00">graph_initr.hpp</text>
</a>
</g>
</g>
<!-- Node2&#45;&gt;Node4 -->
<g id="edge3" class="edge"><title>Node2&#45;&gt;Node4</title>
<path fill="none" stroke="midnightblue" d="M71.6144,-112.083C76.3674,-104.534 83.3181,-93.4948 89.1516,-84.2298"/>
<polygon fill="midnightblue" stroke="midnightblue" points="92.1237,-86.0783 94.4901,-75.7511 86.2001,-82.3486 92.1237,-86.0783"/>
</g>
<!-- Node4&#45;&gt;Node3 -->
<g id="edge4" class="edge"><title>Node4&#45;&gt;Node3</title>
<path fill="none" stroke="midnightblue" d="M94.3856,-56.083C89.6326,-48.5341 82.6819,-37.4948 76.8484,-28.2298"/>
<polygon fill="midnightblue" stroke="midnightblue" points="79.7999,-26.3486 71.5099,-19.7511 73.8763,-30.0783 79.7999,-26.3486"/>
</g>
</g>
</svg>
