<?xml version="1.0" encoding="UTF-8" standalone="no"?>
<!-- Created with Inkscape (http://www.inkscape.org/) -->

<svg
   xmlns:dc="http://purl.org/dc/elements/1.1/"
   xmlns:cc="http://creativecommons.org/ns#"
   xmlns:rdf="http://www.w3.org/1999/02/22-rdf-syntax-ns#"
   xmlns:svg="http://www.w3.org/2000/svg"
   xmlns="http://www.w3.org/2000/svg"
   xmlns:sodipodi="http://sodipodi.sourceforge.net/DTD/sodipodi-0.dtd"
   xmlns:inkscape="http://www.inkscape.org/namespaces/inkscape"
   width="75mm"
   height="75mm"
   viewBox="0 0 75 75"
   version="1.1"
   id="svg8"
   inkscape:version="0.92.1 r15371"
   sodipodi:docname="elgraph.svg"
   inkscape:export-filename="C:\Users\ysatotani\Desktop\bitmap.png"
   inkscape:export-xdpi="1000"
   inkscape:export-ydpi="1000">
  <defs
     id="defs2">
    <marker
       inkscape:isstock="true"
       inkscape:stockid="DistanceStart"
       orient="auto"
       refY="0.0"
       refX="0.0"
       id="marker8948"
       style="overflow:visible">
      <g
         style="stroke:#000000;stroke-opacity:1;fill:#808080;fill-opacity:0.12110727"
         id="g8946">
        <path
           id="path8940"
           d="M 0,0 L 2,0"
           style="fill:#808080;stroke:#000000;stroke-width:1.15;stroke-linecap:square;stroke-opacity:1;fill-opacity:0.12110727" />
        <path
           id="path8942"
           d="M 0,0 L 13,4 L 9,0 13,-4 L 0,0 z "
           style="fill:#808080;fill-rule:evenodd;stroke:#000000;stroke-opacity:1;fill-opacity:0.12110727" />
        <path
           id="path8944"
           d="M 0,-4 L 0,40"
           style="fill:#808080;stroke:#000000;stroke-width:1;stroke-linecap:square;stroke-opacity:1;fill-opacity:0.12110727" />
      </g>
    </marker>
    <marker
       inkscape:isstock="true"
       inkscape:stockid="DistanceStart"
       orient="auto"
       refY="0.0"
       refX="0.0"
       id="marker7968"
       style="overflow:visible">
      <g
         style="stroke:#000000;stroke-opacity:1;fill:#000000;fill-opacity:1"
         id="g7966">
        <path
           id="path7960"
           d="M 0,0 L 2,0"
           style="fill:#000000;stroke:#000000;stroke-width:1.15;stroke-linecap:square;stroke-opacity:1;fill-opacity:1" />
        <path
           id="path7962"
           d="M 0,0 L 13,4 L 9,0 13,-4 L 0,0 z "
           style="fill:#000000;fill-rule:evenodd;stroke:#000000;stroke-opacity:1;fill-opacity:1" />
        <path
           id="path7964"
           d="M 0,-4 L 0,40"
           style="fill:#000000;stroke:#000000;stroke-width:1;stroke-linecap:square;stroke-opacity:1;fill-opacity:1" />
      </g>
    </marker>
    <marker
       inkscape:isstock="true"
       inkscape:stockid="DistanceStart"
       orient="auto"
       refY="0.0"
       refX="0.0"
       id="marker7688"
       style="overflow:visible">
      <g
         style="stroke:#000000;stroke-opacity:1;fill:#000000;fill-opacity:1"
         id="g7686">
        <path
           id="path7680"
           d="M 0,0 L 2,0"
           style="fill:#000000;stroke:#000000;stroke-width:1.15;stroke-linecap:square;stroke-opacity:1;fill-opacity:1" />
        <path
           id="path7682"
           d="M 0,0 L 13,4 L 9,0 13,-4 L 0,0 z "
           style="fill:#000000;fill-rule:evenodd;stroke:#000000;stroke-opacity:1;fill-opacity:1" />
        <path
           id="path7684"
           d="M 0,-4 L 0,40"
           style="fill:#000000;stroke:#000000;stroke-width:1;stroke-linecap:square;stroke-opacity:1;fill-opacity:1" />
      </g>
    </marker>
    <marker
       inkscape:isstock="true"
       inkscape:stockid="DistanceStart"
       orient="auto"
       refY="0.0"
       refX="0.0"
       id="marker7423"
       style="overflow:visible">
      <g
         style="stroke:#000000;stroke-opacity:1;fill:#000000;fill-opacity:1"
         id="g7421">
        <path
           id="path7415"
           d="M 0,0 L 2,0"
           style="fill:#000000;stroke:#000000;stroke-width:1.15;stroke-linecap:square;stroke-opacity:1;fill-opacity:1" />
        <path
           id="path7417"
           d="M 0,0 L 13,4 L 9,0 13,-4 L 0,0 z "
           style="fill:#000000;fill-rule:evenodd;stroke:#000000;stroke-opacity:1;fill-opacity:1" />
        <path
           id="path7419"
           d="M 0,-4 L 0,40"
           style="fill:#000000;stroke:#000000;stroke-width:1;stroke-linecap:square;stroke-opacity:1;fill-opacity:1" />
      </g>
    </marker>
    <marker
       inkscape:isstock="true"
       inkscape:stockid="DistanceStart"
       orient="auto"
       refY="0.0"
       refX="0.0"
       id="marker7173"
       style="overflow:visible">
      <g
         style="stroke:#000000;stroke-opacity:1;fill:#000000;fill-opacity:1"
         id="g7171">
        <path
           id="path7165"
           d="M 0,0 L 2,0"
           style="fill:#000000;stroke:#000000;stroke-width:1.15;stroke-linecap:square;stroke-opacity:1;fill-opacity:1" />
        <path
           id="path7167"
           d="M 0,0 L 13,4 L 9,0 13,-4 L 0,0 z "
           style="fill:#000000;fill-rule:evenodd;stroke:#000000;stroke-opacity:1;fill-opacity:1" />
        <path
           id="path7169"
           d="M 0,-4 L 0,40"
           style="fill:#000000;stroke:#000000;stroke-width:1;stroke-linecap:square;stroke-opacity:1;fill-opacity:1" />
      </g>
    </marker>
    <marker
       inkscape:isstock="true"
       inkscape:stockid="DistanceStart"
       orient="auto"
       refY="0.0"
       refX="0.0"
       id="marker6938"
       style="overflow:visible">
      <g
         style="stroke:#000000;stroke-opacity:1;fill:#000000;fill-opacity:1"
         id="g6936">
        <path
           id="path6930"
           d="M 0,0 L 2,0"
           style="fill:#000000;stroke:#000000;stroke-width:1.15;stroke-linecap:square;stroke-opacity:1;fill-opacity:1" />
        <path
           id="path6932"
           d="M 0,0 L 13,4 L 9,0 13,-4 L 0,0 z "
           style="fill:#000000;fill-rule:evenodd;stroke:#000000;stroke-opacity:1;fill-opacity:1" />
        <path
           id="path6934"
           d="M 0,-4 L 0,40"
           style="fill:#000000;stroke:#000000;stroke-width:1;stroke-linecap:square;stroke-opacity:1;fill-opacity:1" />
      </g>
    </marker>
    <marker
       inkscape:isstock="true"
       inkscape:stockid="DistanceStart"
       orient="auto"
       refY="0.0"
       refX="0.0"
       id="marker6718"
       style="overflow:visible">
      <g
         style="stroke:#000000;stroke-opacity:1;fill:#000000;fill-opacity:1"
         id="g6716">
        <path
           id="path6710"
           d="M 0,0 L 2,0"
           style="fill:#000000;stroke:#000000;stroke-width:1.15;stroke-linecap:square;stroke-opacity:1;fill-opacity:1" />
        <path
           id="path6712"
           d="M 0,0 L 13,4 L 9,0 13,-4 L 0,0 z "
           style="fill:#000000;fill-rule:evenodd;stroke:#000000;stroke-opacity:1;fill-opacity:1" />
        <path
           id="path6714"
           d="M 0,-4 L 0,40"
           style="fill:#000000;stroke:#000000;stroke-width:1;stroke-linecap:square;stroke-opacity:1;fill-opacity:1" />
      </g>
    </marker>
    <marker
       inkscape:isstock="true"
       inkscape:stockid="DistanceStart"
       orient="auto"
       refY="0.0"
       refX="0.0"
       id="marker6513"
       style="overflow:visible">
      <g
         style="stroke:#000000;stroke-opacity:1;fill:#000000;fill-opacity:1"
         id="g6511">
        <path
           id="path6505"
           d="M 0,0 L 2,0"
           style="fill:#000000;stroke:#000000;stroke-width:1.15;stroke-linecap:square;stroke-opacity:1;fill-opacity:1" />
        <path
           id="path6507"
           d="M 0,0 L 13,4 L 9,0 13,-4 L 0,0 z "
           style="fill:#000000;fill-rule:evenodd;stroke:#000000;stroke-opacity:1;fill-opacity:1" />
        <path
           id="path6509"
           d="M 0,-4 L 0,40"
           style="fill:#000000;stroke:#000000;stroke-width:1;stroke-linecap:square;stroke-opacity:1;fill-opacity:1" />
      </g>
    </marker>
    <marker
       inkscape:isstock="true"
       inkscape:stockid="DistanceStart"
       orient="auto"
       refY="0.0"
       refX="0.0"
       id="marker6323"
       style="overflow:visible">
      <g
         style="stroke:#000000;stroke-opacity:1;fill:#000000;fill-opacity:1"
         id="g6321">
        <path
           id="path6315"
           d="M 0,0 L 2,0"
           style="fill:#000000;stroke:#000000;stroke-width:1.15;stroke-linecap:square;stroke-opacity:1;fill-opacity:1" />
        <path
           id="path6317"
           d="M 0,0 L 13,4 L 9,0 13,-4 L 0,0 z "
           style="fill:#000000;fill-rule:evenodd;stroke:#000000;stroke-opacity:1;fill-opacity:1" />
        <path
           id="path6319"
           d="M 0,-4 L 0,40"
           style="fill:#000000;stroke:#000000;stroke-width:1;stroke-linecap:square;stroke-opacity:1;fill-opacity:1" />
      </g>
    </marker>
    <marker
       inkscape:isstock="true"
       inkscape:stockid="DistanceStart"
       orient="auto"
       refY="0.0"
       refX="0.0"
       id="marker6148"
       style="overflow:visible">
      <g
         style="stroke:#000000;stroke-opacity:1;fill:#000000;fill-opacity:1"
         id="g6146">
        <path
           id="path6140"
           d="M 0,0 L 2,0"
           style="fill:#000000;stroke:#000000;stroke-width:1.15;stroke-linecap:square;stroke-opacity:1;fill-opacity:1" />
        <path
           id="path6142"
           d="M 0,0 L 13,4 L 9,0 13,-4 L 0,0 z "
           style="fill:#000000;fill-rule:evenodd;stroke:#000000;stroke-opacity:1;fill-opacity:1" />
        <path
           id="path6144"
           d="M 0,-4 L 0,40"
           style="fill:#000000;stroke:#000000;stroke-width:1;stroke-linecap:square;stroke-opacity:1;fill-opacity:1" />
      </g>
    </marker>
    <marker
       inkscape:isstock="true"
       inkscape:stockid="DistanceStart"
       orient="auto"
       refY="0.0"
       refX="0.0"
       id="marker5988"
       style="overflow:visible">
      <g
         style="stroke:#000000;stroke-opacity:1;fill:#000000;fill-opacity:1"
         id="g5986">
        <path
           id="path5980"
           d="M 0,0 L 2,0"
           style="fill:#000000;stroke:#000000;stroke-width:1.15;stroke-linecap:square;stroke-opacity:1;fill-opacity:1" />
        <path
           id="path5982"
           d="M 0,0 L 13,4 L 9,0 13,-4 L 0,0 z "
           style="fill:#000000;fill-rule:evenodd;stroke:#000000;stroke-opacity:1;fill-opacity:1" />
        <path
           id="path5984"
           d="M 0,-4 L 0,40"
           style="fill:#000000;stroke:#000000;stroke-width:1;stroke-linecap:square;stroke-opacity:1;fill-opacity:1" />
      </g>
    </marker>
    <marker
       inkscape:isstock="true"
       inkscape:stockid="DistanceStart"
       orient="auto"
       refY="0.0"
       refX="0.0"
       id="marker5843"
       style="overflow:visible">
      <g
         style="stroke:#000000;stroke-opacity:1;fill:#000000;fill-opacity:1"
         id="g5841">
        <path
           id="path5835"
           d="M 0,0 L 2,0"
           style="fill:#000000;stroke:#000000;stroke-width:1.15;stroke-linecap:square;stroke-opacity:1;fill-opacity:1" />
        <path
           id="path5837"
           d="M 0,0 L 13,4 L 9,0 13,-4 L 0,0 z "
           style="fill:#000000;fill-rule:evenodd;stroke:#000000;stroke-opacity:1;fill-opacity:1" />
        <path
           id="path5839"
           d="M 0,-4 L 0,40"
           style="fill:#000000;stroke:#000000;stroke-width:1;stroke-linecap:square;stroke-opacity:1;fill-opacity:1" />
      </g>
    </marker>
    <marker
       inkscape:isstock="true"
       inkscape:stockid="DistanceStart"
       orient="auto"
       refY="0.0"
       refX="0.0"
       id="marker5713"
       style="overflow:visible">
      <g
         style="stroke:#000000;stroke-opacity:1;fill:#000000;fill-opacity:1"
         id="g5711">
        <path
           id="path5705"
           d="M 0,0 L 2,0"
           style="fill:#000000;stroke:#000000;stroke-width:1.15;stroke-linecap:square;stroke-opacity:1;fill-opacity:1" />
        <path
           id="path5707"
           d="M 0,0 L 13,4 L 9,0 13,-4 L 0,0 z "
           style="fill:#000000;fill-rule:evenodd;stroke:#000000;stroke-opacity:1;fill-opacity:1" />
        <path
           id="path5709"
           d="M 0,-4 L 0,40"
           style="fill:#000000;stroke:#000000;stroke-width:1;stroke-linecap:square;stroke-opacity:1;fill-opacity:1" />
      </g>
    </marker>
    <marker
       inkscape:isstock="true"
       inkscape:stockid="DistanceStart"
       orient="auto"
       refY="0.0"
       refX="0.0"
       id="marker5598"
       style="overflow:visible">
      <g
         style="stroke:#000000;stroke-opacity:1;fill:#000000;fill-opacity:1"
         id="g5596">
        <path
           id="path5590"
           d="M 0,0 L 2,0"
           style="fill:#000000;stroke:#000000;stroke-width:1.15;stroke-linecap:square;stroke-opacity:1;fill-opacity:1" />
        <path
           id="path5592"
           d="M 0,0 L 13,4 L 9,0 13,-4 L 0,0 z "
           style="fill:#000000;fill-rule:evenodd;stroke:#000000;stroke-opacity:1;fill-opacity:1" />
        <path
           id="path5594"
           d="M 0,-4 L 0,40"
           style="fill:#000000;stroke:#000000;stroke-width:1;stroke-linecap:square;stroke-opacity:1;fill-opacity:1" />
      </g>
    </marker>
    <marker
       inkscape:isstock="true"
       inkscape:stockid="DistanceStart"
       orient="auto"
       refY="0.0"
       refX="0.0"
       id="marker5498"
       style="overflow:visible">
      <g
         style="stroke:#000000;stroke-opacity:1;fill:#000000;fill-opacity:1"
         id="g5496">
        <path
           id="path5490"
           d="M 0,0 L 2,0"
           style="fill:#000000;stroke:#000000;stroke-width:1.15;stroke-linecap:square;stroke-opacity:1;fill-opacity:1" />
        <path
           id="path5492"
           d="M 0,0 L 13,4 L 9,0 13,-4 L 0,0 z "
           style="fill:#000000;fill-rule:evenodd;stroke:#000000;stroke-opacity:1;fill-opacity:1" />
        <path
           id="path5494"
           d="M 0,-4 L 0,40"
           style="fill:#000000;stroke:#000000;stroke-width:1;stroke-linecap:square;stroke-opacity:1;fill-opacity:1" />
      </g>
    </marker>
    <marker
       inkscape:isstock="true"
       inkscape:stockid="DistanceStart"
       orient="auto"
       refY="0.0"
       refX="0.0"
       id="marker5413"
       style="overflow:visible">
      <g
         style="stroke:#000000;stroke-opacity:1;fill:#000000;fill-opacity:1"
         id="g5411">
        <path
           id="path5405"
           d="M 0,0 L 2,0"
           style="fill:#000000;stroke:#000000;stroke-width:1.15;stroke-linecap:square;stroke-opacity:1;fill-opacity:1" />
        <path
           id="path5407"
           d="M 0,0 L 13,4 L 9,0 13,-4 L 0,0 z "
           style="fill:#000000;fill-rule:evenodd;stroke:#000000;stroke-opacity:1;fill-opacity:1" />
        <path
           id="path5409"
           d="M 0,-4 L 0,40"
           style="fill:#000000;stroke:#000000;stroke-width:1;stroke-linecap:square;stroke-opacity:1;fill-opacity:1" />
      </g>
    </marker>
    <marker
       inkscape:isstock="true"
       inkscape:stockid="DistanceStart"
       orient="auto"
       refY="0.0"
       refX="0.0"
       id="marker5343"
       style="overflow:visible">
      <g
         style="stroke:#000000;stroke-opacity:1;fill:#000000;fill-opacity:1"
         id="g5341">
        <path
           id="path5335"
           d="M 0,0 L 2,0"
           style="fill:#000000;stroke:#000000;stroke-width:1.15;stroke-linecap:square;stroke-opacity:1;fill-opacity:1" />
        <path
           id="path5337"
           d="M 0,0 L 13,4 L 9,0 13,-4 L 0,0 z "
           style="fill:#000000;fill-rule:evenodd;stroke:#000000;stroke-opacity:1;fill-opacity:1" />
        <path
           id="path5339"
           d="M 0,-4 L 0,40"
           style="fill:#000000;stroke:#000000;stroke-width:1;stroke-linecap:square;stroke-opacity:1;fill-opacity:1" />
      </g>
    </marker>
    <marker
       inkscape:isstock="true"
       inkscape:stockid="DistanceStart"
       orient="auto"
       refY="0.0"
       refX="0.0"
       id="marker5288"
       style="overflow:visible">
      <g
         style="stroke:#000000;stroke-opacity:1;fill:#000000;fill-opacity:1"
         id="g5286">
        <path
           id="path5280"
           d="M 0,0 L 2,0"
           style="fill:#000000;stroke:#000000;stroke-width:1.15;stroke-linecap:square;stroke-opacity:1;fill-opacity:1" />
        <path
           id="path5282"
           d="M 0,0 L 13,4 L 9,0 13,-4 L 0,0 z "
           style="fill:#000000;fill-rule:evenodd;stroke:#000000;stroke-opacity:1;fill-opacity:1" />
        <path
           id="path5284"
           d="M 0,-4 L 0,40"
           style="fill:#000000;stroke:#000000;stroke-width:1;stroke-linecap:square;stroke-opacity:1;fill-opacity:1" />
      </g>
    </marker>
  </defs>
  <sodipodi:namedview
     id="base"
     pagecolor="#ffffff"
     bordercolor="#666666"
     borderopacity="1.0"
     inkscape:pageopacity="0.0"
     inkscape:pageshadow="2"
     inkscape:zoom="2"
     inkscape:cx="48.679134"
     inkscape:cy="145.65191"
     inkscape:document-units="mm"
     inkscape:current-layer="layer1"
     showgrid="false"
     inkscape:window-width="1920"
     inkscape:window-height="1003"
     inkscape:window-x="-9"
     inkscape:window-y="-9"
     inkscape:window-maximized="1"
     inkscape:object-paths="true"
     inkscape:object-nodes="true"
     inkscape:snap-smooth-nodes="false"
     inkscape:snap-object-midpoints="true"
     inkscape:snap-center="true"
     inkscape:snap-global="false" />
  <metadata
     id="metadata5">
    <rdf:RDF>
      <cc:Work
         rdf:about="">
        <dc:format>image/svg+xml</dc:format>
        <dc:type
           rdf:resource="http://purl.org/dc/dcmitype/StillImage" />
        <dc:title />
      </cc:Work>
    </rdf:RDF>
  </metadata>
  <g
     inkscape:label="レイヤー 1"
     inkscape:groupmode="layer"
     id="layer1"
     transform="translate(0,-222)"
     style="display:inline">
    <path
       id="path4818-9"
       style="display:inline;fill:#ffffff;fill-opacity:1;fill-rule:evenodd;stroke:none;stroke-width:0.1;stroke-linecap:butt;stroke-linejoin:miter;stroke-miterlimit:4;stroke-dasharray:none;stroke-opacity:1"
       d="m 36.717157,234.28401 1.147056,-0.0655 m 0,0 c 0,0 -0.33301,-1.50176 -0.341236,-2.34876 -0.02019,-2.07991 -1.206566,-4.26297 -0.05707,-5.33689 1.504908,0.68092 3.585676,2.43482 5.075836,4.0239 1.181417,1.25985 2.143837,2.52708 3.215886,4.00413 10.272604,3.61732 19.504731,6.68994 29.200075,10.11163 l 0.316257,39.95625 h -16.69182 c 0,0 -4.054277,-4.20806 -5.981798,-5.94459 -1.801487,-1.62299 -4.170558,-3.2453 -6.564934,-5.04966 -1.733431,1.59478 -3.75833,3.6038 -6.179262,4.40877 -3.592465,1.24485 -8.100261,2.51499 -10.201394,3.78863 -2.41501,1.46029 -5.460173,2.61728 -7.83646,4.91734 -2.056467,2.33928 -4.419109,6.94898 -8.241111,8.61624 -2.091231,0.91225 -5.2031834,0.61456 -7.8152067,-1.6213 -1.9889221,-1.70249 -3.3719016,-3.28669 -4.1097855,-5.90941 -0.3680104,-1.30805 -1.47284842,-4.37423 -0.4377304,-6.50193 1.2440463,-2.28565 0.5967032,-3.89806 2.6937586,-6.49646 1.2296383,-1.50741 2.3933232,-3.30954 3.6271147,-5.01579 1.7037717,-2.35621 2.7617123,-5.1029 3.9648503,-7.7358 1.594698,-3.59815 3.955432,-6.90669 6.062975,-10.30167 1.551046,-2.49853 3.114942,-4.93732 4.899296,-7.32966 1.097463,-1.47141 2.202643,-2.93509 3.361632,-4.34497 1.151048,-1.40022 2.595542,-2.69338 4.38938,-3.65188 -0.595609,-0.89697 -1.885056,-2.42596 -2.6132,-5.987 -0.412906,-2.01933 -1.1126,-4.61369 -0.650399,-6.57383 4.617069,2.39816 8.076385,7.33599 9.767292,10.38817"
       inkscape:connector-curvature="0"
       sodipodi:nodetypes="cccscsccccsccccsssccscssscscc" />
    <path
       style="fill:#808080;fill-opacity:0.19607843;fill-rule:evenodd;stroke:none;stroke-width:0.37795275;stroke-linecap:round;stroke-linejoin:miter;stroke-miterlimit:4;stroke-dasharray:none;stroke-opacity:1"
       d="M 91.21875,90.371094 C 97.753659,91.6759 108.007,83.52791 106.125,75.589844 94.685276,64.257373 31.276879,10.630406 18.299672,7.6981477 22.485143,19.83242 77.089356,78.959136 91.21875,90.371094 Z"
       id="path4664-4"
       inkscape:connector-curvature="0"
       sodipodi:nodetypes="cccc"
       transform="matrix(0.26458333,0,0,0.26458333,0,222)" />
    <path
       style="fill:none;fill-opacity:1;fill-rule:evenodd;stroke:#000000;stroke-width:0.5;stroke-linecap:round;stroke-linejoin:miter;stroke-miterlimit:4;stroke-dasharray:none;stroke-opacity:1"
       d="m 45.124387,274.46616 c 0,0 -2.465514,2.60595 -5.268243,3.57713 -3.592465,1.24484 -8.10026,2.51498 -10.201392,3.78863 -3.42401,2.07554 -6.455079,3.76941 -6.455079,3.76941"
       id="path4619"
       inkscape:connector-curvature="0"
       sodipodi:nodetypes="cssc" />
    <path
       style="fill:none;fill-rule:evenodd;stroke:#000000;stroke-width:0.5;stroke-linecap:round;stroke-linejoin:miter;stroke-miterlimit:4;stroke-dasharray:none;stroke-opacity:1"
       d="m 21.514273,287.31053 c 0,0 -4.084524,6.4596 -7.937092,8.05496 -3.970418,1.64416 -7.0179984,-0.97733 -7.0179984,-0.97733"
       id="path4621"
       inkscape:connector-curvature="0"
       sodipodi:nodetypes="csc" />
    <path
       style="fill:none;fill-rule:evenodd;stroke:#000000;stroke-width:0.5;stroke-linecap:round;stroke-linejoin:miter;stroke-miterlimit:4;stroke-dasharray:none;stroke-opacity:1"
       d="m 4.6380493,292.92048 c 0,0 -1.6561446,-0.70744 -2.9858596,-5.0857 -0.3948767,-1.30018 -1.47284845,-4.37422 -0.4377305,-6.50193 1.1119572,-2.28565 0.5509995,-3.89806 2.6937588,-6.49645 1.2807653,-1.5531 2.9056161,-4.00442 2.9056161,-4.00442"
       id="path4623"
       inkscape:connector-curvature="0"
       sodipodi:nodetypes="csssc" />
    <path
       style="fill:none;fill-rule:evenodd;stroke:#000000;stroke-width:0.5;stroke-linecap:round;stroke-linejoin:round;stroke-miterlimit:4;stroke-dasharray:none;stroke-opacity:1"
       d="m 18.273991,250.71222 c 0,0 1.802799,-3.68314 4.188462,-6.25874"
       id="path4635"
       inkscape:connector-curvature="0"
       sodipodi:nodetypes="cc" />
    <path
       style="fill:none;fill-rule:evenodd;stroke:#000000;stroke-width:0.30000001;stroke-linecap:round;stroke-linejoin:round;stroke-miterlimit:4;stroke-dasharray:none;stroke-opacity:1"
       d="m 25.824085,240.10851 c 1.817323,-2.69221 5.024412,-4.68891 10.893073,-5.82454 -3.867383,-7.22843 -9.10613,-9.99096 -9.10613,-9.99096"
       id="path4625"
       inkscape:connector-curvature="0"
       sodipodi:nodetypes="ccc" />
    <path
       style="fill:none;fill-rule:evenodd;stroke:#000000;stroke-width:0.30000001;stroke-linecap:round;stroke-linejoin:miter;stroke-miterlimit:4;stroke-dasharray:none;stroke-opacity:1"
       d="m 38.126604,226.89877 c 0,0 2.906148,2.0628 4.438516,3.61122 1.229335,1.24222 2.792506,3.44091 2.792506,3.44091"
       id="path4627"
       inkscape:connector-curvature="0"
       sodipodi:nodetypes="csc" />
    <path
       style="fill:none;fill-rule:evenodd;stroke:#000000;stroke-width:0.5;stroke-linecap:round;stroke-linejoin:miter;stroke-miterlimit:4;stroke-dasharray:none;stroke-opacity:1"
       d="m 16.939004,252.72347 c 0,0 -4.079422,6.18231 -5.438822,9.36133 -1.7443973,4.07934 -3.2823288,6.77905 -3.2823288,6.77905"
       id="path4629"
       inkscape:connector-curvature="0"
       sodipodi:nodetypes="csc" />
    <path
       style="fill:none;fill-rule:evenodd;stroke:#000000;stroke-width:0.5;stroke-linecap:round;stroke-linejoin:miter;stroke-miterlimit:4;stroke-dasharray:none;stroke-opacity:1"
       d="m 46.615024,234.79321 c 0,0 3.50236,0.81443 6.372229,2.37549 2.203366,3.32671 2.297991,11.24547 1.403654,19.8241 -1.061469,10.18178 -7.424662,15.93338 -7.424662,15.93338"
       id="path4631"
       inkscape:connector-curvature="0"
       sodipodi:nodetypes="ccsc" />
    <path
       style="fill:none;fill-rule:evenodd;stroke:#000000;stroke-width:0.5;stroke-linecap:round;stroke-linejoin:round;stroke-miterlimit:4;stroke-dasharray:none;stroke-opacity:1"
       d="m 46.883128,274.36017 c 0,0 2.982806,1.84577 5.717214,4.32401 1.922345,1.74225 5.981797,5.94458 5.981797,5.94458 0,0 -6.443165,-5.54066 -10.397636,-6.7214 -3.948521,-1.17897 -8.260906,-0.4813 -12.362069,-0.0798 -4.638349,0.45409 -11.715882,3.68181 -11.715882,3.68181 0,0 16.978243,-9.66056 20.256847,-19.84578 4.182858,-12.99435 -2.877531,-16.73815 -2.877531,-16.73815"
       id="path4637"
       inkscape:connector-curvature="0"
       sodipodi:nodetypes="cscsscsc" />
    <path
       style="fill:none;fill-rule:evenodd;stroke:#000000;stroke-width:0.30000001;stroke-linecap:round;stroke-linejoin:miter;stroke-miterlimit:4;stroke-dasharray:none;stroke-opacity:1"
       d="m 26.822823,224.74443 c 0,0 0.205638,3.81892 0.678223,5.65906 0.993932,3.87014 2.743736,6.0723 2.743736,6.0723 l 11.241086,8.44965"
       id="path4639"
       inkscape:connector-curvature="0"
       sodipodi:nodetypes="cscc" />
    <path
       style="fill:none;fill-rule:evenodd;stroke:#000000;stroke-width:0.30000001;stroke-linecap:round;stroke-linejoin:miter;stroke-miterlimit:4;stroke-dasharray:none;stroke-opacity:1"
       d="m 27.406649,224.54166 c 0,0 2.645514,3.82138 3.158962,6.01848 1.061877,4.54389 -0.423436,6.13355 -0.423436,6.13355 0,0 -1.581293,5.39122 -0.945162,7.99999 0.488862,2.00482 3.474809,5.1235 3.474809,5.1235"
       id="path4641"
       inkscape:connector-curvature="0"
       sodipodi:nodetypes="cscsc" />
    <path
       style="fill:none;fill-rule:evenodd;stroke:#000000;stroke-width:0.30000001;stroke-linecap:round;stroke-linejoin:miter;stroke-miterlimit:4;stroke-dasharray:none;stroke-opacity:1"
       d="m 37.790241,227.15344 c 0,0 4.284514,6.00772 5.039186,9.98458 0.188746,0.99463 -1.885157,2.38125 -1.885157,2.38125 l -0.599972,7.20504 -3.835296,3.09422"
       id="path4652"
       inkscape:connector-curvature="0"
       sodipodi:nodetypes="csccc" />
    <path
       style="fill:none;fill-rule:evenodd;stroke:#000000;stroke-width:0.30000001;stroke-linecap:round;stroke-linejoin:miter;stroke-miterlimit:4;stroke-dasharray:none;stroke-opacity:1"
       d="m 37.074138,227.1024 c -0.08538,1.67369 0.194486,3.55436 0.495609,5.49232 0.622598,3.65547 1.10399,5.02967 1.10399,5.02967 0,0 -15.795168,14.40401 -19.587013,20.13816 -8.94772,13.53103 -9.763786,21.61502 -9.763786,21.61502"
       id="path4654"
       inkscape:connector-curvature="0"
       sodipodi:nodetypes="cccsc" />
    <path
       style="fill:none;fill-rule:evenodd;stroke:#000000;stroke-width:0.26458332px;stroke-linecap:round;stroke-linejoin:miter;stroke-opacity:1"
       d="m 46.261473,235.30379 1.363526,1.83423 c 0,0 -0.670413,2.73217 -1.968325,3.2251 -1.754696,0.6664 -4.000459,1.80801 -5.630312,0.43269 -1.111254,-0.93771 -4.48519,-3.50478 -4.48519,-3.50478 0,0 -8.828661,8.95157 -10.705951,11.06168 -2.644825,2.97283 -7.089215,8.87875 -9.92575,12.40175 -4.737107,5.88352 -6.4295418,8.3601 -6.4295418,8.3601"
       id="path4656"
       inkscape:connector-curvature="0"
       sodipodi:nodetypes="ccsscssc" />
    <path
       style="fill:none;fill-rule:evenodd;stroke:#000000;stroke-width:0.30000001;stroke-linecap:round;stroke-linejoin:miter;stroke-miterlimit:4;stroke-dasharray:none;stroke-opacity:1"
       d="m 35.176638,252.65713 4.205527,4.96071 c 0,0 -5.260076,7.78298 -10.603416,10.19989 -7.046571,3.18732 -9.697216,12.69049 -11.987541,19.12625 -1.383442,4.00835 -10.0298032,6.40313 -10.0298032,6.40313"
       id="path4658"
       inkscape:connector-curvature="0"
       sodipodi:nodetypes="ccscc" />
    <path
       style="fill:none;fill-rule:evenodd;stroke:#000000;stroke-width:0.30000001;stroke-linecap:round;stroke-linejoin:miter;stroke-miterlimit:4;stroke-dasharray:none;stroke-opacity:1"
       d="m 10.740871,281.44613 7.449233,-6.83649 c 0,0 1.652714,1.25001 3.013419,4.68894 0.958625,2.42274 1.025054,5.84754 1.025054,5.84754"
       id="path4660"
       inkscape:connector-curvature="0"
       sodipodi:nodetypes="ccsc" />
    <path
       style="fill:none;fill-rule:evenodd;stroke:#000000;stroke-width:0.30000001;stroke-linecap:round;stroke-linejoin:miter;stroke-miterlimit:4;stroke-dasharray:none;stroke-opacity:1"
       d="m 6.6990449,281.70799 -2.3186367,-1.58572 c 0,0 5.1195549,-7.51414 7.0149838,-12.45321 1.821697,-4.74694 5.907526,-14.7601 5.907526,-14.7601"
       id="path4662"
       inkscape:connector-curvature="0"
       sodipodi:nodetypes="ccsc" />
    <path
       style="fill:#965afa;fill-opacity:0.78431373;fill-rule:evenodd;stroke:none;stroke-width:0.99999994px;stroke-linecap:butt;stroke-linejoin:miter;stroke-opacity:1"
       d="m 178.27344,49.689453 c 23.19114,35.644914 28.59055,79.459137 15.50781,106.652347 14.55897,-10.87703 22.54879,-24.95129 26.94141,-39.74805 2.30251,24.26011 -1.16986,48.26466 -11.54493,72.7207 19.76306,-17.91428 28.89926,-34.92612 33.84375,-51.65039 1.13358,40.46409 -2.13203,62.88045 -17.13671,90.47071 C 270.93373,205.651 286.86574,166.54 283.30469,85.691406 247.82226,73.65521 209.32123,60.282606 178.27344,49.689453 Z"
       id="path4713"
       inkscape:connector-curvature="0"
       sodipodi:nodetypes="cccccccc"
       transform="matrix(0.26458333,0,0,0.26458333,0,222)" />
    <path
       style="fill:none;fill-rule:evenodd;stroke:#000000;stroke-width:0.2;stroke-linecap:round;stroke-linejoin:miter;stroke-miterlimit:4;stroke-dasharray:none;stroke-opacity:1"
       d="m 22.462453,244.45348 3.361632,-4.34497"
       id="path4964"
       inkscape:connector-curvature="0" />
    <path
       style="fill:#965afa;fill-opacity:0.78431373;fill-rule:evenodd;stroke:none;stroke-width:0.37795275;stroke-linecap:butt;stroke-linejoin:miter;stroke-miterlimit:4;stroke-dasharray:none;stroke-opacity:1"
       d="m 18.298828,7.6972656 c 1.32863,3.8518894 7.7556,12.4530574 16.337891,22.7460934 1.357885,-3.695724 2.275432,-7.515535 2.628906,-11.496093 C 28.702008,12.824246 21.722512,8.4708658 18.298828,7.6972656 Z M 37.802734,19.335938 c -0.389954,4.019742 -1.351277,7.874934 -2.746093,11.603515 3.671222,4.391081 7.772887,9.101983 11.986328,13.857422 2.15903,-4.970968 3.549026,-10.157012 3.863281,-15.650391 -4.585395,-3.541071 -9.027417,-6.883544 -13.103516,-9.810546 z m 13.636719,10.220703 c -0.367546,5.512622 -1.793702,10.72134 -3.984375,15.705078 3.95506,4.456834 8.038894,8.953518 12.076172,13.322265 2.864138,-5.886647 4.702088,-12.058284 4.960938,-18.68164 -4.375423,-3.530213 -8.774125,-7.034537 -13.052735,-10.345703 z m 13.597656,10.785156 c -0.328686,6.62728 -2.206437,12.809311 -5.09375,18.693359 4.201564,4.540481 8.3144,8.884318 12.191407,12.896485 3.457246,-6.552016 5.682398,-13.443173 5.90625,-20.908203 -4.187851,-3.492919 -8.573611,-7.10192 -13.003907,-10.681641 z m 13.560547,11.146484 c -0.306394,7.451641 -2.58388,14.338904 -6.050781,20.871094 4.692253,4.847446 8.894347,9.0278 12.421875,12.378906 C 88.827344,77.799152 91.338795,70.49047 91.580078,62.53125 87.629419,59.115612 83.337095,55.446492 78.597656,51.488281 Z m 13.544922,11.529297 c -0.331163,7.929346 -2.892853,15.21973 -6.746094,22.123047 2.284532,2.158417 4.332337,4.027092 5.822266,5.230469 C 97.753659,91.6759 108.007,83.52791 106.125,75.589844 103.6332,73.121415 98.503534,68.527174 92.142578,63.017578 Z"
       id="path4664-4-9"
       inkscape:connector-curvature="0"
       transform="matrix(0.26458333,0,0,0.26458333,0,222)" />
    <circle
       style="opacity:1;vector-effect:none;fill:#5050fa;fill-opacity:0.82352941;stroke:none;stroke-width:0.5;stroke-linecap:butt;stroke-linejoin:miter;stroke-miterlimit:4;stroke-dasharray:none;stroke-dashoffset:0;stroke-opacity:1"
       id="path4496"
       cx="45.953964"
       cy="273.58691"
       r="1.2088324" />
    <circle
       style="opacity:1;vector-effect:none;fill:#5050fa;fill-opacity:0.82352941;stroke:none;stroke-width:0.30000001;stroke-linecap:butt;stroke-linejoin:miter;stroke-miterlimit:4;stroke-dasharray:none;stroke-dashoffset:0;stroke-opacity:1"
       id="path4496-00"
       cx="45.819977"
       cy="234.62038"
       r="0.81361735" />
    <circle
       style="opacity:1;vector-effect:none;fill:#5050fa;fill-opacity:0.82352941;stroke:none;stroke-width:0.5;stroke-linecap:butt;stroke-linejoin:miter;stroke-miterlimit:4;stroke-dasharray:none;stroke-dashoffset:0;stroke-opacity:1"
       id="path4496-6"
       cx="22.254292"
       cy="286.35468"
       r="1.2088324" />
    <circle
       style="opacity:1;vector-effect:none;fill:#5050fa;fill-opacity:0.82352941;stroke:none;stroke-width:0.5;stroke-linecap:butt;stroke-linejoin:miter;stroke-miterlimit:4;stroke-dasharray:none;stroke-dashoffset:0;stroke-opacity:1"
       id="path4496-5"
       cx="5.5939007"
       cy="293.66049"
       r="1.2088324" />
    <circle
       style="opacity:1;vector-effect:none;fill:#5050fa;fill-opacity:0.82352941;stroke:none;stroke-width:0.5;stroke-linecap:butt;stroke-linejoin:miter;stroke-miterlimit:4;stroke-dasharray:none;stroke-dashoffset:0;stroke-opacity:1"
       id="path4496-3"
       cx="7.5227127"
       cy="269.85281"
       r="1.2088324" />
    <circle
       style="opacity:1;vector-effect:none;fill:#5050fa;fill-opacity:0.82352941;stroke:none;stroke-width:0.5;stroke-linecap:butt;stroke-linejoin:miter;stroke-miterlimit:4;stroke-dasharray:none;stroke-dashoffset:0;stroke-opacity:1"
       id="path4496-4"
       cx="17.662022"
       cy="251.7547"
       r="1.2088324" />
    <circle
       style="opacity:1;vector-effect:none;fill:#5050fa;fill-opacity:0.82352941;stroke:none;stroke-width:0.30000001;stroke-linecap:butt;stroke-linejoin:miter;stroke-miterlimit:4;stroke-dasharray:none;stroke-dashoffset:0;stroke-opacity:1"
       id="path4496-00-1"
       cx="37.484097"
       cy="226.39961"
       r="0.81361735" />
    <circle
       style="opacity:1;vector-effect:none;fill:#5050fa;fill-opacity:0.82352941;stroke:none;stroke-width:0.30000001;stroke-linecap:butt;stroke-linejoin:miter;stroke-miterlimit:4;stroke-dasharray:none;stroke-dashoffset:0;stroke-opacity:1"
       id="path4496-00-3"
       cx="26.881432"
       cy="223.93292"
       r="0.81361735" />
    <path
       style="fill:#c85afa;fill-opacity:0.78431373;fill-rule:evenodd;stroke:none;stroke-width:0.2;stroke-linecap:butt;stroke-linejoin:miter;stroke-miterlimit:4;stroke-dasharray:none;stroke-opacity:1"
       d="m 33.007265,249.60146 c 1.03095,-0.57858 2.405877,-0.57492 3.501737,0.21707 0.238208,1.03291 -0.62753,2.45438 -1.539291,2.97191 -1.102911,0.62603 -2.587322,0.84218 -3.575013,0.0386 -0.07572,-1.5735 0.581617,-2.64903 1.612567,-3.22761 z"
       id="path4615"
       inkscape:connector-curvature="0"
       sodipodi:nodetypes="zcscz" />
    <path
       style="fill:#646464;fill-opacity:1;fill-rule:evenodd;stroke:none;stroke-width:0.30000001;stroke-linecap:butt;stroke-linejoin:miter;stroke-miterlimit:4;stroke-dasharray:none;stroke-opacity:1"
       d="m 8.7306906,279.24952 c 1.5490734,-0.0338 2.3188304,2.63316 2.3513114,4.18226 0.02819,1.34434 -0.43851,3.45941 -1.7731201,3.62333 -1.3667009,0.16786 -2.5677702,-1.90986 -2.7367728,-3.27642 -0.2070016,-1.67382 0.4724099,-4.4924 2.1585815,-4.52917 z"
       id="path4617"
       inkscape:connector-curvature="0"
       sodipodi:nodetypes="sssss" />
  </g>
</svg>
