<?xml version="1.0" encoding="UTF-8" standalone="no"?>
<!-- Created with matplotlib (http://matplotlib.org/) -->

<svg
   xmlns:dc="http://purl.org/dc/elements/1.1/"
   xmlns:cc="http://creativecommons.org/ns#"
   xmlns:rdf="http://www.w3.org/1999/02/22-rdf-syntax-ns#"
   xmlns:svg="http://www.w3.org/2000/svg"
   xmlns="http://www.w3.org/2000/svg"
   xmlns:xlink="http://www.w3.org/1999/xlink"
   xmlns:sodipodi="http://sodipodi.sourceforge.net/DTD/sodipodi-0.dtd"
   xmlns:inkscape="http://www.inkscape.org/namespaces/inkscape"
   height="381pt"
   version="1.1"
   viewBox="0 0 503 381"
   width="503pt"
   id="svg5601"
   inkscape:version="0.91 r13725"
   sodipodi:docname="gmg-example-bignode.svg">
  <metadata
     id="metadata5806">
    <rdf:RDF>
      <cc:Work
         rdf:about="">
        <dc:format>image/svg+xml</dc:format>
        <dc:type
           rdf:resource="http://purl.org/dc/dcmitype/StillImage" />
      </cc:Work>
    </rdf:RDF>
  </metadata>
  <sodipodi:namedview
     pagecolor="#ffffff"
     bordercolor="#666666"
     borderopacity="1"
     objecttolerance="10"
     gridtolerance="10"
     guidetolerance="10"
     inkscape:pageopacity="0"
     inkscape:pageshadow="2"
     inkscape:window-width="1920"
     inkscape:window-height="1016"
     id="namedview5804"
     showgrid="false"
     inkscape:zoom="1.244211"
     inkscape:cx="164.51412"
     inkscape:cy="257.74315"
     inkscape:window-x="0"
     inkscape:window-y="27"
     inkscape:window-maximized="1"
     inkscape:current-layer="svg5601" />
  <defs
     id="defs5603">
    <style
       type="text/css"
       id="style5605">
*{stroke-linecap:butt;stroke-linejoin:round;stroke-miterlimit:100000;}
  </style>
    <defs
       id="defs5650">
      <path
         inkscape:connector-curvature="0"
         style="stroke:#000000;stroke-linecap:butt;stroke-linejoin:round;stroke-miterlimit:100;stroke-width:1;stroke-dasharray:none"
         id="maa67df4f73"
         d="m 0,8.660254 c 2.296726,0 4.499694,-0.912499 6.123724,-2.53653 C 7.747755,4.499694 8.660254,2.296726 8.660254,0 c 0,-2.296726 -0.912499,-4.499694 -2.53653,-6.123724 C 4.499694,-7.747755 2.296726,-8.660254 0,-8.660254 c -2.296726,0 -4.499694,0.912499 -6.123724,2.53653 -1.624031,1.62403 -2.53653,3.826998 -2.53653,6.123724 0,2.296726 0.912499,4.499694 2.53653,6.123724 1.62403,1.624031 3.826998,2.53653 6.123724,2.53653 z" />
    </defs>
  </defs>
  <g
     style="stroke-linecap:butt;stroke-linejoin:round;stroke-miterlimit:100000"
     id="patch_1">
    <path
       inkscape:connector-curvature="0"
       id="path5609"
       style="fill:#ffffff;stroke-linecap:butt;stroke-linejoin:round;stroke-miterlimit:100;stroke-width:2;stroke-dasharray:none"
       d="m 0,381.42062 503.48125,0 L 503.48125,0 0,0 Z" />
  </g>
  <path
     inkscape:connector-curvature="0"
     id="path5613"
     style="fill:none;stroke:#000000;stroke-linecap:butt;stroke-linejoin:round;stroke-miterlimit:100;stroke-width:1.41732283;stroke-dasharray:none"
     d="m 159.17117,61.30609 48.3007,120.13247"
     clip-path="url(#p06df4999a0)" />
  <path
     inkscape:connector-curvature="0"
     id="path5615"
     style="fill:none;stroke:#000000;stroke-linecap:butt;stroke-linejoin:round;stroke-miterlimit:100;stroke-width:1.41732283;stroke-dasharray:none"
     d="M 159.17117,61.30609 104.1108,110.61036"
     clip-path="url(#p06df4999a0)" />
  <path
     inkscape:connector-curvature="0"
     id="path5617"
     style="fill:none;stroke:#000000;stroke-linecap:butt;stroke-linejoin:round;stroke-miterlimit:100;stroke-width:1.41732283;stroke-dasharray:none"
     d="m 159.17117,61.30609 131.03947,42.26127"
     clip-path="url(#p06df4999a0)" />
  <path
     inkscape:connector-curvature="0"
     id="path5619"
     style="fill:none;stroke:#000000;stroke-linecap:butt;stroke-linejoin:round;stroke-miterlimit:100;stroke-width:1.41732283;stroke-dasharray:none"
     d="m 207.47187,181.43856 131.19142,-9.82367"
     clip-path="url(#p06df4999a0)" />
  <path
     inkscape:connector-curvature="0"
     id="path5621"
     style="fill:none;stroke:#000000;stroke-linecap:butt;stroke-linejoin:round;stroke-miterlimit:100;stroke-width:1.41732283;stroke-dasharray:none"
     d="m 207.47187,181.43856 49.46846,119.56831"
     clip-path="url(#p06df4999a0)" />
  <path
     inkscape:connector-curvature="0"
     id="path5623"
     style="fill:none;stroke:#000000;stroke-linecap:butt;stroke-linejoin:round;stroke-miterlimit:100;stroke-width:1.41732283;stroke-dasharray:none"
     d="M 104.1108,110.61036 272.50947,45.879973"
     clip-path="url(#p06df4999a0)" />
  <path
     inkscape:connector-curvature="0"
     id="path5625"
     style="fill:none;stroke:#000000;stroke-linecap:butt;stroke-linejoin:round;stroke-miterlimit:100;stroke-width:1.41732283;stroke-dasharray:none"
     d="m 104.1108,110.61036 31.10453,145.39397"
     clip-path="url(#p06df4999a0)" />
  <path
     inkscape:connector-curvature="0"
     id="path5627"
     style="fill:none;stroke:#000000;stroke-linecap:butt;stroke-linejoin:round;stroke-miterlimit:100;stroke-width:1.41732283;stroke-dasharray:none"
     d="M 407.62073,296.71703 280.82528,245.57311"
     clip-path="url(#p06df4999a0)" />
  <path
     inkscape:connector-curvature="0"
     id="path5629"
     style="fill:none;stroke:#000000;stroke-linecap:butt;stroke-linejoin:round;stroke-miterlimit:100;stroke-width:1.41732283;stroke-dasharray:none"
     d="m 407.62073,296.71703 15.34722,-69.19942"
     clip-path="url(#p06df4999a0)" />
  <path
     inkscape:connector-curvature="0"
     id="path5631"
     style="fill:none;stroke:#000000;stroke-linecap:butt;stroke-linejoin:round;stroke-miterlimit:100;stroke-width:1.41732283;stroke-dasharray:none"
     d="M 407.62073,296.71703 338.66329,171.61489"
     clip-path="url(#p06df4999a0)" />
  <path
     inkscape:connector-curvature="0"
     id="path5633"
     style="fill:none;stroke:#000000;stroke-linecap:butt;stroke-linejoin:round;stroke-miterlimit:100;stroke-width:1.41732283;stroke-dasharray:none"
     d="M 280.82528,245.57311 135.21533,256.00433"
     clip-path="url(#p06df4999a0)" />
  <path
     inkscape:connector-curvature="0"
     id="path5635"
     style="fill:none;stroke:#000000;stroke-linecap:butt;stroke-linejoin:round;stroke-miterlimit:100;stroke-width:1.41732283;stroke-dasharray:none"
     d="m 280.82528,245.57311 9.38536,-142.00575"
     clip-path="url(#p06df4999a0)" />
  <path
     inkscape:connector-curvature="0"
     id="path5637"
     style="fill:none;stroke:#000000;stroke-linecap:butt;stroke-linejoin:round;stroke-miterlimit:100;stroke-width:1.41732283;stroke-dasharray:none"
     d="M 422.96795,227.51761 411.03788,80.411613"
     clip-path="url(#p06df4999a0)" />
  <path
     inkscape:connector-curvature="0"
     id="path5639"
     style="fill:none;stroke:#000000;stroke-linecap:butt;stroke-linejoin:round;stroke-miterlimit:100;stroke-width:1.41732283;stroke-dasharray:none"
     d="M 422.96795,227.51761 256.94033,301.00687"
     clip-path="url(#p06df4999a0)" />
  <path
     inkscape:connector-curvature="0"
     id="path5641"
     style="fill:none;stroke:#000000;stroke-linecap:butt;stroke-linejoin:round;stroke-miterlimit:100;stroke-width:1.41732283;stroke-dasharray:none"
     d="M 411.03788,80.411613 272.50947,45.879973"
     clip-path="url(#p06df4999a0)" />
  <path
     inkscape:connector-curvature="0"
     id="path5643"
     style="fill:none;stroke:#000000;stroke-linecap:butt;stroke-linejoin:round;stroke-miterlimit:100;stroke-width:1.41732283;stroke-dasharray:none"
     d="M 411.03788,80.411613 290.21064,103.56736"
     clip-path="url(#p06df4999a0)" />
  <path
     inkscape:connector-curvature="0"
     id="path5645"
     style="fill:none;stroke:#000000;stroke-linecap:butt;stroke-linejoin:round;stroke-miterlimit:100;stroke-width:1.41732283;stroke-dasharray:none"
     d="M 338.66329,171.61489 272.50947,45.879973"
     clip-path="url(#p06df4999a0)" />
  <path
     inkscape:connector-curvature="0"
     id="path5647"
     style="fill:none;stroke:#000000;stroke-linecap:butt;stroke-linejoin:round;stroke-miterlimit:100;stroke-width:1.41732283;stroke-dasharray:none"
     d="m 256.94033,301.00687 -121.725,-45.00254"
     clip-path="url(#p06df4999a0)" />
  <use
     style="fill:#4169e1;stroke:#000000;stroke-linecap:butt;stroke-linejoin:round;stroke-miterlimit:100000"
     x="159.17117"
     xlink:href="#maa67df4f73"
     y="61.306091"
     id="use5655"
     width="100%"
     height="100%"
     transform="matrix(2,0,0,2,-159.17117,-61.306091)" />
  <use
     style="fill:#4169e1;stroke:#000000;stroke-linecap:butt;stroke-linejoin:round;stroke-miterlimit:100000"
     x="207.47186"
     xlink:href="#maa67df4f73"
     y="181.43857"
     id="use5657"
     width="100%"
     height="100%"
     transform="matrix(2,0,0,2,-207.47186,-181.43857)" />
  <use
     style="fill:#4169e1;stroke:#000000;stroke-linecap:butt;stroke-linejoin:round;stroke-miterlimit:100000"
     x="104.1108"
     xlink:href="#maa67df4f73"
     y="110.61036"
     id="use5659"
     width="100%"
     height="100%"
     transform="matrix(2,0,0,2,-104.1108,-110.61036)" />
  <use
     style="fill:#4169e1;stroke:#000000;stroke-linecap:butt;stroke-linejoin:round;stroke-miterlimit:100000"
     x="407.62073"
     xlink:href="#maa67df4f73"
     y="296.71704"
     id="use5661"
     width="100%"
     height="100%"
     transform="matrix(2,0,0,2,-407.62073,-296.71704)" />
  <use
     style="fill:#4169e1;stroke:#000000;stroke-linecap:butt;stroke-linejoin:round;stroke-miterlimit:100000"
     x="280.82529"
     xlink:href="#maa67df4f73"
     y="245.5731"
     id="use5663"
     width="100%"
     height="100%"
     transform="matrix(2,0,0,2,-280.82529,-245.5731)" />
  <use
     style="fill:#4169e1;stroke:#000000;stroke-linecap:butt;stroke-linejoin:round;stroke-miterlimit:100000"
     x="422.96796"
     xlink:href="#maa67df4f73"
     y="227.51761"
     id="use5665"
     width="100%"
     height="100%"
     transform="matrix(2,0,0,2,-422.96796,-227.51761)" />
  <use
     style="fill:#4169e1;stroke:#000000;stroke-linecap:butt;stroke-linejoin:round;stroke-miterlimit:100000"
     x="411.03787"
     xlink:href="#maa67df4f73"
     y="80.411613"
     id="use5667"
     width="100%"
     height="100%"
     transform="matrix(2,0,0,2,-411.03787,-80.411613)" />
  <use
     style="fill:#4169e1;stroke:#000000;stroke-linecap:butt;stroke-linejoin:round;stroke-miterlimit:100000"
     x="338.6633"
     xlink:href="#maa67df4f73"
     y="171.61488"
     id="use5669"
     width="100%"
     height="100%"
     transform="matrix(2,0,0,2,-338.6633,-171.61488)" />
  <use
     style="fill:#4169e1;stroke:#000000;stroke-linecap:butt;stroke-linejoin:round;stroke-miterlimit:100000"
     x="290.21063"
     xlink:href="#maa67df4f73"
     y="103.56737"
     id="use5671"
     width="100%"
     height="100%"
     transform="matrix(2,0,0,2,-290.21063,-103.56737)" />
  <use
     style="fill:#4169e1;stroke:#000000;stroke-linecap:butt;stroke-linejoin:round;stroke-miterlimit:100000"
     x="256.94034"
     xlink:href="#maa67df4f73"
     y="301.00687"
     id="use5673"
     width="100%"
     height="100%"
     transform="matrix(2,0,0,2,-256.94034,-301.00687)" />
  <use
     style="fill:#4169e1;stroke:#000000;stroke-linecap:butt;stroke-linejoin:round;stroke-miterlimit:100000"
     x="272.50946"
     xlink:href="#maa67df4f73"
     y="45.879974"
     id="use5675"
     width="100%"
     height="100%"
     transform="matrix(2,0,0,2,-272.50946,-45.879974)" />
  <use
     style="fill:#4169e1;stroke:#000000;stroke-linecap:butt;stroke-linejoin:round;stroke-miterlimit:100000"
     x="135.21533"
     xlink:href="#maa67df4f73"
     y="256.00433"
     id="use5677"
     width="100%"
     height="100%"
     transform="matrix(2,0,0,2,-135.21533,-256.00433)" />
  <g
     id="text_1"
     style="stroke-linecap:butt;stroke-linejoin:round;stroke-miterlimit:100000"
     transform="matrix(2,0,0,2,-159.27605,-60.242965)">
    <g
       clip-path="url(#p06df4999a0)"
       id="g5680"
       style="stroke-linecap:butt;stroke-linejoin:round;stroke-miterlimit:100000">
      <!-- 11 -->
      <defs
         id="defs5682">
        <path
           d="m 12.40625,8.296875 16.109375,0 0,55.625 -17.53125,-3.515625 0,8.984375 17.4375,3.515625 9.859375,0 0,-64.609375 16.109375,0 0,-8.296875 -41.984375,0 z"
           id="BitstreamVeraSans-Roman-31"
           inkscape:connector-curvature="0"
           style="stroke-linecap:butt;stroke-linejoin:round;stroke-miterlimit:100;stroke-width:8.33333333;stroke-dasharray:none" />
      </defs>
      <g
         transform="matrix(0.12,0,0,-0.12,151.53617,64.61734)"
         id="g5685"
         style="stroke-linecap:butt;stroke-linejoin:round;stroke-miterlimit:100000">
        <use
           xlink:href="#BitstreamVeraSans-Roman-31"
           id="use5687"
           style="stroke-linecap:butt;stroke-linejoin:round;stroke-miterlimit:100000"
           x="0"
           y="0"
           width="100%"
           height="100%" />
        <use
           x="63.623047"
           xlink:href="#BitstreamVeraSans-Roman-31"
           id="use5689"
           style="stroke-linecap:butt;stroke-linejoin:round;stroke-miterlimit:100000"
           y="0"
           width="100%"
           height="100%" />
      </g>
    </g>
  </g>
  <g
     id="text_2"
     style="stroke-linecap:butt;stroke-linejoin:round;stroke-miterlimit:100000"
     transform="matrix(2,0,0,2,-207.73238,-180.382)">
    <g
       clip-path="url(#p06df4999a0)"
       id="g5692"
       style="stroke-linecap:butt;stroke-linejoin:round;stroke-miterlimit:100000">
      <!-- 10 -->
      <defs
         id="defs5694">
        <path
           d="m 31.78125,66.40625 q -7.609375,0 -11.453125,-7.5 Q 16.5,51.421875 16.5,36.375 q 0,-14.984375 3.828125,-22.484375 3.84375,-7.5 11.453125,-7.5 7.671875,0 11.5,7.5 3.84375,7.5 3.84375,22.484375 0,15.046875 -3.84375,22.53125 -3.828125,7.5 -11.5,7.5 m 0,7.8125 q 12.265625,0 18.734375,-9.703125 6.46875,-9.6875 6.46875,-28.140625 0,-18.40625 -6.46875,-28.109375 -6.46875,-9.6875 -18.734375,-9.6875 -12.25,0 -18.71875,9.6875 Q 6.59375,17.96875 6.59375,36.375 q 0,18.453125 6.46875,28.140625 6.46875,9.703125 18.71875,9.703125"
           id="BitstreamVeraSans-Roman-30"
           inkscape:connector-curvature="0"
           style="stroke-linecap:butt;stroke-linejoin:round;stroke-miterlimit:100;stroke-width:8.33333333;stroke-dasharray:none" />
      </defs>
      <g
         transform="matrix(0.12,0,0,-0.12,199.83687,184.74981)"
         id="g5697"
         style="stroke-linecap:butt;stroke-linejoin:round;stroke-miterlimit:100000">
        <use
           xlink:href="#BitstreamVeraSans-Roman-31"
           id="use5699"
           style="stroke-linecap:butt;stroke-linejoin:round;stroke-miterlimit:100000"
           x="0"
           y="0"
           width="100%"
           height="100%" />
        <use
           x="63.623047"
           xlink:href="#BitstreamVeraSans-Roman-30"
           id="use5701"
           style="stroke-linecap:butt;stroke-linejoin:round;stroke-miterlimit:100000"
           y="0"
           width="100%"
           height="100%" />
      </g>
    </g>
  </g>
  <g
     id="text_3"
     style="stroke-linecap:butt;stroke-linejoin:round;stroke-miterlimit:100000"
     transform="matrix(2,0,0,2,-104.16881,-109.46848)">
    <g
       clip-path="url(#p06df4999a0)"
       id="g5704"
       style="stroke-linecap:butt;stroke-linejoin:round;stroke-miterlimit:100000">
      <!-- 12 -->
      <defs
         id="defs5706">
        <path
           d="m 19.1875,8.296875 34.421875,0 0,-8.296875 -46.28125,0 0,8.296875 q 5.609375,5.8125 15.296875,15.59375 9.703125,9.796875 12.1875,12.640625 4.734375,5.3125 6.609375,9 1.890625,3.6875 1.890625,7.25 0,5.8125 -4.078125,9.46875 -4.078125,3.671875 -10.625,3.671875 -4.640625,0 -9.796875,-1.609375 -5.140625,-1.609375 -11,-4.890625 l 0,9.96875 Q 13.765625,71.78125 18.9375,73 q 5.1875,1.21875 9.484375,1.21875 11.328125,0 18.0625,-5.671875 6.734375,-5.65625 6.734375,-15.125 0,-4.5 -1.6875,-8.53125 Q 49.859375,40.875 45.40625,35.40625 44.1875,33.984375 37.640625,27.21875 31.109375,20.453125 19.1875,8.296875"
           id="BitstreamVeraSans-Roman-32"
           inkscape:connector-curvature="0"
           style="stroke-linecap:butt;stroke-linejoin:round;stroke-miterlimit:100;stroke-width:8.33333333;stroke-dasharray:none" />
      </defs>
      <g
         transform="matrix(0.12,0,0,-0.12,96.475804,113.92161)"
         id="g5709"
         style="stroke-linecap:butt;stroke-linejoin:round;stroke-miterlimit:100000">
        <use
           xlink:href="#BitstreamVeraSans-Roman-31"
           id="use5711"
           style="stroke-linecap:butt;stroke-linejoin:round;stroke-miterlimit:100000"
           x="0"
           y="0"
           width="100%"
           height="100%" />
        <use
           x="63.623047"
           xlink:href="#BitstreamVeraSans-Roman-32"
           id="use5713"
           style="stroke-linecap:butt;stroke-linejoin:round;stroke-miterlimit:100000"
           y="0"
           width="100%"
           height="100%" />
      </g>
    </g>
  </g>
  <g
     id="text_4"
     style="stroke-linecap:butt;stroke-linejoin:round;stroke-miterlimit:100000"
     transform="matrix(2,0,0,2,-407.72573,-295.6539)">
    <g
       clip-path="url(#p06df4999a0)"
       id="g5716"
       style="stroke-linecap:butt;stroke-linejoin:round;stroke-miterlimit:100000">
      <!-- 1 -->
      <g
         transform="matrix(0.12,0,0,-0.12,403.80323,300.02828)"
         id="g5718"
         style="stroke-linecap:butt;stroke-linejoin:round;stroke-miterlimit:100000">
        <use
           xlink:href="#BitstreamVeraSans-Roman-31"
           id="use5720"
           style="stroke-linecap:butt;stroke-linejoin:round;stroke-miterlimit:100000"
           x="0"
           y="0"
           width="100%"
           height="100%" />
      </g>
    </g>
  </g>
  <g
     id="text_5"
     style="stroke-linecap:butt;stroke-linejoin:round;stroke-miterlimit:100000"
     transform="matrix(2,0,0,2,-280.80184,-244.51655)">
    <g
       clip-path="url(#p06df4999a0)"
       id="g5723"
       style="stroke-linecap:butt;stroke-linejoin:round;stroke-miterlimit:100000">
      <!-- 3 -->
      <defs
         id="defs5725">
        <path
           d="M 40.578125,39.3125 Q 47.65625,37.796875 51.625,33 q 3.984375,-4.78125 3.984375,-11.8125 0,-10.78125 -7.421875,-16.703125 -7.421875,-5.90625 -21.09375,-5.90625 -4.578125,0 -9.4375,0.90625 -4.859375,0.90625 -10.03125,2.71875 l 0,9.515625 q 4.09375,-2.390625 8.96875,-3.609375 4.890625,-1.21875 10.21875,-1.21875 9.265625,0 14.125,3.65625 4.859375,3.65625 4.859375,10.640625 0,6.453125 -4.515625,10.078125 -4.515625,3.640625 -12.5625,3.640625 l -8.5,0 0,8.109375 8.890625,0 q 7.265625,0 11.125,2.90625 3.859375,2.90625 3.859375,8.375 0,5.609375 -3.984375,8.609375 -3.96875,3.015625 -11.390625,3.015625 -4.0625,0 -8.703125,-0.890625 Q 15.375,64.15625 9.8125,62.3125 l 0,8.78125 q 5.625,1.5625 10.53125,2.34375 4.90625,0.78125 9.25,0.78125 11.234375,0 17.765625,-5.109375 6.546875,-5.09375 6.546875,-13.78125 0,-6.0625 -3.46875,-10.234375 -3.46875,-4.171875 -9.859375,-5.78125"
           id="BitstreamVeraSans-Roman-33"
           inkscape:connector-curvature="0"
           style="stroke-linecap:butt;stroke-linejoin:round;stroke-miterlimit:100;stroke-width:8.33333333;stroke-dasharray:none" />
      </defs>
      <g
         transform="matrix(0.12,0,0,-0.12,277.00778,248.88436)"
         id="g5728"
         style="stroke-linecap:butt;stroke-linejoin:round;stroke-miterlimit:100000">
        <use
           xlink:href="#BitstreamVeraSans-Roman-33"
           id="use5730"
           style="stroke-linecap:butt;stroke-linejoin:round;stroke-miterlimit:100000"
           x="0"
           y="0"
           width="100%"
           height="100%" />
      </g>
    </g>
  </g>
  <g
     id="text_6"
     style="stroke-linecap:butt;stroke-linejoin:round;stroke-miterlimit:100000"
     transform="matrix(2,0,0,2,-422.8067,-226.37573)">
    <g
       clip-path="url(#p06df4999a0)"
       id="g5733"
       style="stroke-linecap:butt;stroke-linejoin:round;stroke-miterlimit:100000">
      <!-- 2 -->
      <g
         transform="matrix(0.12,0,0,-0.12,419.15045,230.82886)"
         id="g5735"
         style="stroke-linecap:butt;stroke-linejoin:round;stroke-miterlimit:100000">
        <use
           xlink:href="#BitstreamVeraSans-Roman-32"
           id="use5737"
           style="stroke-linecap:butt;stroke-linejoin:round;stroke-miterlimit:100000"
           x="0"
           y="0"
           width="100%"
           height="100%" />
      </g>
    </g>
  </g>
  <g
     id="text_7"
     style="stroke-linecap:butt;stroke-linejoin:round;stroke-miterlimit:100000"
     transform="matrix(2,0,0,2,-410.97694,-79.4338)">
    <g
       clip-path="url(#p06df4999a0)"
       id="g5740"
       style="stroke-linecap:butt;stroke-linejoin:round;stroke-miterlimit:100000">
      <!-- 5 -->
      <defs
         id="defs5742">
        <path
           d="m 10.796875,72.90625 38.71875,0 0,-8.3125 -29.6875,0 0,-17.859375 q 2.140625,0.734375 4.28125,1.09375 2.15625,0.359375 4.3125,0.359375 Q 40.625,48.1875 47.75,41.5 54.890625,34.8125 54.890625,23.390625 54.890625,11.625 47.5625,5.09375 40.234375,-1.421875 26.90625,-1.421875 q -4.59375,0 -9.359375,0.78125 -4.75,0.78125 -9.828125,2.34375 l 0,9.921875 q 4.390625,-2.390625 9.078125,-3.5625 4.6875,-1.171875 9.90625,-1.171875 8.453125,0 13.375,4.4375 4.9375,4.4375 4.9375,12.0625 0,7.609375 -4.9375,12.046875 -4.921875,4.453125 -13.375,4.453125 -3.953125,0 -7.890625,-0.875 -3.921875,-0.875 -8.015625,-2.734375 z"
           id="BitstreamVeraSans-Roman-35"
           inkscape:connector-curvature="0"
           style="stroke-linecap:butt;stroke-linejoin:round;stroke-miterlimit:100;stroke-width:8.33333333;stroke-dasharray:none" />
      </defs>
      <g
         transform="matrix(0.12,0,0,-0.12,407.22038,83.722863)"
         id="g5745"
         style="stroke-linecap:butt;stroke-linejoin:round;stroke-miterlimit:100000">
        <use
           xlink:href="#BitstreamVeraSans-Roman-35"
           id="use5747"
           style="stroke-linecap:butt;stroke-linejoin:round;stroke-miterlimit:100000"
           x="0"
           y="0"
           width="100%"
           height="100%" />
      </g>
    </g>
  </g>
  <g
     id="text_8"
     style="stroke-linecap:butt;stroke-linejoin:round;stroke-miterlimit:100000"
     transform="matrix(2,0,0,2,-338.62018,-170.55177)">
    <g
       clip-path="url(#p06df4999a0)"
       id="g5750"
       style="stroke-linecap:butt;stroke-linejoin:round;stroke-miterlimit:100000">
      <!-- 4 -->
      <defs
         id="defs5752">
        <path
           d="m 37.796875,64.3125 -24.90625,-38.921875 24.90625,0 z m -2.59375,8.59375 12.40625,0 0,-47.515625 10.40625,0 0,-8.203125 -10.40625,0 0,-17.1875 -9.8125,0 0,17.1875 -32.90625,0 0,9.515625 z"
           id="BitstreamVeraSans-Roman-34"
           inkscape:connector-curvature="0"
           style="stroke-linecap:butt;stroke-linejoin:round;stroke-miterlimit:100;stroke-width:8.33333333;stroke-dasharray:none" />
      </defs>
      <g
         transform="matrix(0.12,0,0,-0.12,334.8458,174.92614)"
         id="g5755"
         style="stroke-linecap:butt;stroke-linejoin:round;stroke-miterlimit:100000">
        <use
           xlink:href="#BitstreamVeraSans-Roman-34"
           id="use5757"
           style="stroke-linecap:butt;stroke-linejoin:round;stroke-miterlimit:100000"
           x="0"
           y="0"
           width="100%"
           height="100%" />
      </g>
    </g>
  </g>
  <g
     id="text_9"
     style="stroke-linecap:butt;stroke-linejoin:round;stroke-miterlimit:100000"
     transform="matrix(2,0,0,2,-290.19002,-102.50425)">
    <g
       clip-path="url(#p06df4999a0)"
       id="g5760"
       style="stroke-linecap:butt;stroke-linejoin:round;stroke-miterlimit:100000">
      <!-- 7 -->
      <defs
         id="defs5762">
        <path
           d="m 8.203125,72.90625 46.875,0 0,-4.203125 L 28.609375,0 18.3125,0 l 24.90625,64.59375 -35.015625,0 z"
           id="BitstreamVeraSans-Roman-37"
           inkscape:connector-curvature="0"
           style="stroke-linecap:butt;stroke-linejoin:round;stroke-miterlimit:100;stroke-width:8.33333333;stroke-dasharray:none" />
      </defs>
      <g
         transform="matrix(0.12,0,0,-0.12,286.39314,106.87862)"
         id="g5765"
         style="stroke-linecap:butt;stroke-linejoin:round;stroke-miterlimit:100000">
        <use
           xlink:href="#BitstreamVeraSans-Roman-37"
           id="use5767"
           style="stroke-linecap:butt;stroke-linejoin:round;stroke-miterlimit:100000"
           x="0"
           y="0"
           width="100%"
           height="100%" />
      </g>
    </g>
  </g>
  <g
     id="text_10"
     style="stroke-linecap:butt;stroke-linejoin:round;stroke-miterlimit:100000"
     transform="matrix(2,0,0,2,-256.98158,-299.95031)">
    <g
       clip-path="url(#p06df4999a0)"
       id="g5770"
       style="stroke-linecap:butt;stroke-linejoin:round;stroke-miterlimit:100000">
      <!-- 6 -->
      <defs
         id="defs5772">
        <path
           d="m 33.015625,40.375 q -6.640625,0 -10.53125,-4.546875 -3.875,-4.53125 -3.875,-12.4375 0,-7.859375 3.875,-12.4375 3.890625,-4.5625 10.53125,-4.5625 6.640625,0 10.515625,4.5625 3.875,4.578125 3.875,12.4375 0,7.90625 -3.875,12.4375 Q 39.65625,40.375 33.015625,40.375 m 19.578125,30.921875 0,-8.984375 q -3.71875,1.75 -7.5,2.671875 -3.78125,0.9375 -7.5,0.9375 -9.765625,0 -14.921875,-6.59375 -5.140625,-6.59375 -5.875,-19.921875 2.875,4.25 7.21875,6.515625 4.359375,2.265625 9.578125,2.265625 10.984375,0 17.359375,-6.671875 6.375,-6.65625 6.375,-18.125 0,-11.234375 -6.640625,-18.03125 -6.640625,-6.78125 -17.671875,-6.78125 -12.65625,0 -19.34375,9.6875 -6.6875,9.703125 -6.6875,28.109375 0,17.28125 8.203125,27.5625 8.203125,10.28125 22.015625,10.28125 3.71875,0 7.5,-0.734375 3.78125,-0.734375 7.890625,-2.1875"
           id="BitstreamVeraSans-Roman-36"
           inkscape:connector-curvature="0"
           style="stroke-linecap:butt;stroke-linejoin:round;stroke-miterlimit:100;stroke-width:8.33333333;stroke-dasharray:none" />
      </defs>
      <g
         transform="matrix(0.12,0,0,-0.12,253.12283,304.31812)"
         id="g5775"
         style="stroke-linecap:butt;stroke-linejoin:round;stroke-miterlimit:100000">
        <use
           xlink:href="#BitstreamVeraSans-Roman-36"
           id="use5777"
           style="stroke-linecap:butt;stroke-linejoin:round;stroke-miterlimit:100000"
           x="0"
           y="0"
           width="100%"
           height="100%" />
      </g>
    </g>
  </g>
  <g
     id="text_11"
     style="stroke-linecap:butt;stroke-linejoin:round;stroke-miterlimit:100000"
     transform="matrix(2,0,0,2,-272.46541,-44.82341)">
    <g
       clip-path="url(#p06df4999a0)"
       id="g5780"
       style="stroke-linecap:butt;stroke-linejoin:round;stroke-miterlimit:100000">
      <!-- 9 -->
      <defs
         id="defs5782">
        <path
           d="m 10.984375,1.515625 0,8.984375 Q 14.703125,8.734375 18.5,7.8125 q 3.8125,-0.921875 7.484375,-0.921875 9.765625,0 14.90625,6.5625 5.15625,6.5625 5.890625,19.953125 -2.828125,-4.203125 -7.1875,-6.453125 -4.34375,-2.25 -9.609375,-2.25 -10.9375,0 -17.3125,6.609375 -6.375,6.625 -6.375,18.109375 0,11.21875 6.640625,18 6.640625,6.796875 17.671875,6.796875 12.65625,0 19.3125,-9.703125 6.671875,-9.6875 6.671875,-28.140625 0,-17.234375 -8.1875,-27.515625 -8.171875,-10.28125 -21.984375,-10.28125 -3.71875,0 -7.53125,0.734375 -3.796875,0.734375 -7.90625,2.203125 m 19.625,30.90625 q 6.640625,0 10.515625,4.53125 3.890625,4.546875 3.890625,12.46875 0,7.859375 -3.890625,12.421875 -3.875,4.5625 -10.515625,4.5625 -6.640625,0 -10.515625,-4.5625 -3.875,-4.5625 -3.875,-12.421875 0,-7.921875 3.875,-12.46875 3.875,-4.53125 10.515625,-4.53125"
           id="BitstreamVeraSans-Roman-39"
           inkscape:connector-curvature="0"
           style="stroke-linecap:butt;stroke-linejoin:round;stroke-miterlimit:100;stroke-width:8.33333333;stroke-dasharray:none" />
      </defs>
      <g
         transform="matrix(0.12,0,0,-0.12,268.69197,49.191223)"
         id="g5785"
         style="stroke-linecap:butt;stroke-linejoin:round;stroke-miterlimit:100000">
        <use
           xlink:href="#BitstreamVeraSans-Roman-39"
           id="use5787"
           style="stroke-linecap:butt;stroke-linejoin:round;stroke-miterlimit:100000"
           x="0"
           y="0"
           width="100%"
           height="100%" />
      </g>
    </g>
  </g>
  <g
     id="text_12"
     style="stroke-linecap:butt;stroke-linejoin:round;stroke-miterlimit:100000"
     transform="matrix(2,0,0,2,-135.21158,-254.94777)">
    <g
       clip-path="url(#p06df4999a0)"
       id="g5790"
       style="stroke-linecap:butt;stroke-linejoin:round;stroke-miterlimit:100000">
      <!-- 8 -->
      <defs
         id="defs5792">
        <path
           d="m 31.78125,34.625 q -7.03125,0 -11.0625,-3.765625 -4.015625,-3.765625 -4.015625,-10.34375 0,-6.59375 4.015625,-10.359375 4.03125,-3.765625 11.0625,-3.765625 7.03125,0 11.078125,3.78125 4.0625,3.796875 4.0625,10.34375 0,6.578125 -4.03125,10.34375 Q 38.875,34.625 31.78125,34.625 m -9.859375,4.1875 Q 15.578125,40.375 12.03125,44.71875 8.5,49.078125 8.5,55.328125 q 0,8.734375 6.21875,13.8125 6.234375,5.078125 17.0625,5.078125 10.890625,0 17.09375,-5.078125 6.203125,-5.078125 6.203125,-13.8125 0,-6.25 -3.546875,-10.609375 Q 48,40.375 41.703125,38.8125 q 7.125,-1.65625 11.09375,-6.5 3.984375,-4.828125 3.984375,-11.796875 0,-10.609375 -6.46875,-16.28125 -6.46875,-5.65625 -18.53125,-5.65625 -12.046875,0 -18.53125,5.65625 -6.46875,5.671875 -6.46875,16.28125 0,6.96875 4,11.796875 4.015625,4.84375 11.140625,6.5 M 18.3125,54.390625 q 0,-5.65625 3.53125,-8.828125 3.546875,-3.171875 9.9375,-3.171875 6.359375,0 9.9375,3.171875 3.59375,3.171875 3.59375,8.828125 0,5.671875 -3.59375,8.84375 -3.578125,3.171875 -9.9375,3.171875 -6.390625,0 -9.9375,-3.171875 Q 18.3125,60.0625 18.3125,54.390625"
           id="BitstreamVeraSans-Roman-38"
           inkscape:connector-curvature="0"
           style="stroke-linecap:butt;stroke-linejoin:round;stroke-miterlimit:100;stroke-width:8.33333333;stroke-dasharray:none" />
      </defs>
      <g
         transform="matrix(0.12,0,0,-0.12,131.39783,259.31558)"
         id="g5795"
         style="stroke-linecap:butt;stroke-linejoin:round;stroke-miterlimit:100000">
        <use
           xlink:href="#BitstreamVeraSans-Roman-38"
           id="use5797"
           style="stroke-linecap:butt;stroke-linejoin:round;stroke-miterlimit:100000"
           x="0"
           y="0"
           width="100%"
           height="100%" />
      </g>
    </g>
  </g>
  <defs
     id="defs5799">
    <clipPath
       id="p06df4999a0">
      <rect
         height="345.6"
         width="446.4"
         x="40.339375"
         y="13.006875"
         id="rect5802" />
    </clipPath>
  </defs>
</svg>
