<?xml version="1.0" encoding="UTF-8" standalone="no"?>
<!-- Created with matplotlib (http://matplotlib.org/) -->

<svg
   xmlns:dc="http://purl.org/dc/elements/1.1/"
   xmlns:cc="http://creativecommons.org/ns#"
   xmlns:rdf="http://www.w3.org/1999/02/22-rdf-syntax-ns#"
   xmlns:svg="http://www.w3.org/2000/svg"
   xmlns="http://www.w3.org/2000/svg"
   xmlns:xlink="http://www.w3.org/1999/xlink"
   xmlns:sodipodi="http://sodipodi.sourceforge.net/DTD/sodipodi-0.dtd"
   xmlns:inkscape="http://www.inkscape.org/namespaces/inkscape"
   height="54.165833mm"
   version="1.1"
   viewBox="0 0 201.58174 153.54094"
   width="71.113556mm"
   id="svg4839"
   inkscape:version="0.91 r13725"
   sodipodi:docname="gmg-example.svg">
  <metadata
     id="metadata5044">
    <rdf:RDF>
      <cc:Work
         rdf:about="">
        <dc:format>image/svg+xml</dc:format>
        <dc:type
           rdf:resource="http://purl.org/dc/dcmitype/StillImage" />
        <dc:title />
      </cc:Work>
    </rdf:RDF>
  </metadata>
  <sodipodi:namedview
     pagecolor="#ffffff"
     bordercolor="#666666"
     borderopacity="1"
     objecttolerance="10"
     gridtolerance="10"
     guidetolerance="10"
     inkscape:pageopacity="0"
     inkscape:pageshadow="2"
     inkscape:window-width="1920"
     inkscape:window-height="1016"
     id="namedview5042"
     showgrid="false"
     inkscape:zoom="2.8284271"
     inkscape:cx="78.288328"
     inkscape:cy="80.008598"
     inkscape:window-x="0"
     inkscape:window-y="27"
     inkscape:window-maximized="1"
     inkscape:current-layer="svg4839"
     fit-margin-top="0"
     fit-margin-left="0"
     fit-margin-right="0"
     fit-margin-bottom="0"
     inkscape:snap-center="true"
     inkscape:document-units="mm"
     units="mm" />
  <defs
     id="defs4841"
     style="stroke-linecap:butt;stroke-linejoin:round;stroke-miterlimit:100000">
    <style
       type="text/css"
       id="style4843">
*{stroke-linecap:butt;stroke-linejoin:round;stroke-miterlimit:100000;}
  </style>
    <defs
       id="defs4888">
      <path
         inkscape:connector-curvature="0"
         style="stroke:#000000;stroke-width:0.94488192;stroke-linecap:butt;stroke-linejoin:round;stroke-miterlimit:100;stroke-dasharray:none"
         id="m6c4d14b3d2"
         d="m 0,8.660254 c 2.296726,0 4.499694,-0.912499 6.123724,-2.53653 C 7.747755,4.499694 8.660254,2.296726 8.660254,0 c 0,-2.296726 -0.912499,-4.499694 -2.53653,-6.123724 C 4.499694,-7.747755 2.296726,-8.660254 0,-8.660254 c -2.296726,0 -4.499694,0.912499 -6.123724,2.53653 -1.624031,1.62403 -2.53653,3.826998 -2.53653,6.123724 0,2.296726 0.912499,4.499694 2.53653,6.123724 1.62403,1.624031 3.826998,2.53653 6.123724,2.53653 z" />
    </defs>
  </defs>
  <path
     inkscape:connector-curvature="0"
     id="path4851"
     style="fill:none;stroke:#000000;stroke-width:1.88976383;stroke-linecap:butt;stroke-linejoin:round;stroke-miterlimit:100;stroke-dasharray:none"
     d="M 399.72832,370.28571 357.88872,228.01986"
     clip-path="url(#p26280e154e)"
     transform="matrix(0.45,0,0,0.45,-28.809135,-21.30705)" />
  <path
     inkscape:connector-curvature="0"
     id="path4853"
     style="fill:none;stroke:#000000;stroke-width:1.88976383;stroke-linecap:butt;stroke-linejoin:round;stroke-miterlimit:100;stroke-dasharray:none"
     d="m 399.72832,370.28571 77.29409,-46.34067"
     clip-path="url(#p26280e154e)"
     transform="matrix(0.45,0,0,0.45,-28.809135,-21.30705)" />
  <path
     inkscape:connector-curvature="0"
     id="path4855"
     style="fill:none;stroke:#000000;stroke-width:1.88976383;stroke-linecap:butt;stroke-linejoin:round;stroke-miterlimit:100;stroke-dasharray:none"
     d="M 399.72832,370.28571 262.6792,287.9703"
     clip-path="url(#p26280e154e)"
     transform="matrix(0.45,0,0,0.45,-28.809135,-21.30705)" />
  <path
     inkscape:connector-curvature="0"
     id="path4857"
     style="fill:none;stroke:#000000;stroke-width:1.88976383;stroke-linecap:butt;stroke-linejoin:round;stroke-miterlimit:100;stroke-dasharray:none"
     d="M 357.88872,228.01986 325.65907,71.916411"
     clip-path="url(#p26280e154e)"
     transform="matrix(0.45,0,0,0.45,-28.809135,-21.30705)" />
  <path
     inkscape:connector-curvature="0"
     id="path4859"
     style="fill:none;stroke:#000000;stroke-width:1.88976383;stroke-linecap:butt;stroke-linejoin:round;stroke-miterlimit:100;stroke-dasharray:none"
     d="M 357.88872,228.01986 184.52229,240.23304"
     clip-path="url(#p26280e154e)"
     transform="matrix(0.45,0,0,0.45,-28.809135,-21.30705)" />
  <path
     inkscape:connector-curvature="0"
     id="path4861"
     style="fill:none;stroke:#000000;stroke-width:1.88976383;stroke-linecap:butt;stroke-linejoin:round;stroke-miterlimit:100;stroke-dasharray:none"
     d="M 477.02241,323.94504 493.71429,156.44648"
     clip-path="url(#p26280e154e)"
     transform="matrix(0.45,0,0,0.45,-28.809135,-21.30705)" />
  <path
     inkscape:connector-curvature="0"
     id="path4863"
     style="fill:none;stroke:#000000;stroke-width:1.88976383;stroke-linecap:butt;stroke-linejoin:round;stroke-miterlimit:100;stroke-dasharray:none"
     d="M 477.02241,323.94504 227.8843,357.64902"
     clip-path="url(#p26280e154e)"
     transform="matrix(0.45,0,0,0.45,-28.809135,-21.30705)" />
  <path
     inkscape:connector-curvature="0"
     id="path4865"
     style="fill:none;stroke:#000000;stroke-width:1.88976383;stroke-linecap:butt;stroke-linejoin:round;stroke-miterlimit:100;stroke-dasharray:none"
     d="M 86.837178,65.614395 82.285714,243.61645"
     clip-path="url(#p26280e154e)"
     transform="matrix(0.45,0,0,0.45,-28.809135,-21.30705)" />
  <path
     inkscape:connector-curvature="0"
     id="path4867"
     style="fill:none;stroke:#000000;stroke-width:1.88976383;stroke-linecap:butt;stroke-linejoin:round;stroke-miterlimit:100;stroke-dasharray:none"
     d="M 86.837178,65.614395 160.62565,116.1341"
     clip-path="url(#p26280e154e)"
     transform="matrix(0.45,0,0,0.45,-28.809135,-21.30705)" />
  <path
     inkscape:connector-curvature="0"
     id="path4869"
     style="fill:none;stroke:#000000;stroke-width:1.88976383;stroke-linecap:butt;stroke-linejoin:round;stroke-miterlimit:100;stroke-dasharray:none"
     d="M 86.837178,65.614395 325.65907,71.916411"
     clip-path="url(#p26280e154e)"
     transform="matrix(0.45,0,0,0.45,-28.809135,-21.30705)" />
  <path
     inkscape:connector-curvature="0"
     id="path4871"
     style="fill:none;stroke:#000000;stroke-width:1.88976383;stroke-linecap:butt;stroke-linejoin:round;stroke-miterlimit:100;stroke-dasharray:none"
     d="M 82.285714,243.61645 227.8843,357.64902"
     clip-path="url(#p26280e154e)"
     transform="matrix(0.45,0,0,0.45,-28.809135,-21.30705)" />
  <path
     inkscape:connector-curvature="0"
     id="path4873"
     style="fill:none;stroke:#000000;stroke-width:1.88976383;stroke-linecap:butt;stroke-linejoin:round;stroke-miterlimit:100;stroke-dasharray:none"
     d="M 82.285714,243.61645 262.6792,287.9703"
     clip-path="url(#p26280e154e)"
     transform="matrix(0.45,0,0,0.45,-28.809135,-21.30705)" />
  <path
     inkscape:connector-curvature="0"
     id="path4875"
     style="fill:none;stroke:#000000;stroke-width:1.88976383;stroke-linecap:butt;stroke-linejoin:round;stroke-miterlimit:100;stroke-dasharray:none"
     d="m 160.62565,116.1341 167.02817,35.02837"
     clip-path="url(#p26280e154e)"
     transform="matrix(0.45,0,0,0.45,-28.809135,-21.30705)" />
  <path
     inkscape:connector-curvature="0"
     id="path4877"
     style="fill:none;stroke:#000000;stroke-width:1.88976383;stroke-linecap:butt;stroke-linejoin:round;stroke-miterlimit:100;stroke-dasharray:none"
     d="m 160.62565,116.1341 23.89664,124.09894"
     clip-path="url(#p26280e154e)"
     transform="matrix(0.45,0,0,0.45,-28.809135,-21.30705)" />
  <path
     inkscape:connector-curvature="0"
     id="path4879"
     style="fill:none;stroke:#000000;stroke-width:1.88976383;stroke-linecap:butt;stroke-linejoin:round;stroke-miterlimit:100;stroke-dasharray:none"
     d="m 327.65382,151.16247 166.06047,5.28401"
     clip-path="url(#p26280e154e)"
     transform="matrix(0.45,0,0,0.45,-28.809135,-21.30705)" />
  <path
     inkscape:connector-curvature="0"
     id="path4881"
     style="fill:none;stroke:#000000;stroke-width:1.88976383;stroke-linecap:butt;stroke-linejoin:round;stroke-miterlimit:100;stroke-dasharray:none"
     d="M 327.65382,151.16247 262.6792,287.9703"
     clip-path="url(#p26280e154e)"
     transform="matrix(0.45,0,0,0.45,-28.809135,-21.30705)" />
  <path
     inkscape:connector-curvature="0"
     id="path4883"
     style="fill:none;stroke:#000000;stroke-width:1.88976383;stroke-linecap:butt;stroke-linejoin:round;stroke-miterlimit:100;stroke-dasharray:none"
     d="M 325.65907,71.916411 493.71429,156.44648"
     clip-path="url(#p26280e154e)"
     transform="matrix(0.45,0,0,0.45,-28.809135,-21.30705)" />
  <path
     inkscape:connector-curvature="0"
     id="path4885"
     style="fill:none;stroke:#000000;stroke-width:1.88976383;stroke-linecap:butt;stroke-linejoin:round;stroke-miterlimit:100;stroke-dasharray:none"
     d="M 184.52229,240.23304 227.8843,357.64902"
     clip-path="url(#p26280e154e)"
     transform="matrix(0.45,0,0,0.45,-28.809135,-21.30705)" />
  <use
     style="fill:#ffffff;stroke:#000000;stroke-width:0.94488192;stroke-linecap:butt;stroke-linejoin:round;stroke-miterlimit:100;stroke-dasharray:none;fill-opacity:1"
     x="399.72833"
     xlink:href="#m6c4d14b3d2"
     y="370.28571"
     id="use4893"
     width="100%"
     height="100%"
     transform="matrix(0.9,0,0,0.9,-208.68688,-187.93563)" />
  <use
     style="fill:#ffffff;stroke:#000000;stroke-width:0.94488192;stroke-linecap:butt;stroke-linejoin:round;stroke-miterlimit:100;stroke-dasharray:none;fill-opacity:1"
     x="357.88873"
     xlink:href="#m6c4d14b3d2"
     y="228.01985"
     id="use4895"
     width="100%"
     height="100%"
     transform="matrix(0.9,0,0,0.9,-189.85907,-123.91599)" />
  <use
     style="fill:#ffffff;stroke:#000000;stroke-width:0.94488192;stroke-linecap:butt;stroke-linejoin:round;stroke-miterlimit:100;stroke-dasharray:none;fill-opacity:1"
     x="477.0224"
     xlink:href="#m6c4d14b3d2"
     y="323.94504"
     id="use4897"
     width="100%"
     height="100%"
     transform="matrix(0.9,0,0,0.9,-243.46922,-167.08233)" />
  <use
     style="fill:#ffffff;stroke:#000000;stroke-width:0.94488192;stroke-linecap:butt;stroke-linejoin:round;stroke-miterlimit:100;stroke-dasharray:none;fill-opacity:1"
     x="86.837181"
     xlink:href="#m6c4d14b3d2"
     y="65.614395"
     id="use4899"
     width="100%"
     height="100%"
     transform="matrix(0.9,0,0,0.9,-67.885876,-50.83353)" />
  <use
     style="fill:#ffffff;stroke:#000000;stroke-width:0.94488192;stroke-linecap:butt;stroke-linejoin:round;stroke-miterlimit:100;stroke-dasharray:none;fill-opacity:1"
     x="82.285713"
     xlink:href="#m6c4d14b3d2"
     y="243.61646"
     id="use4901"
     width="100%"
     height="100%"
     transform="matrix(0.9,0,0,0.9,-65.837716,-130.93446)" />
  <use
     style="fill:#ffffff;stroke:#000000;stroke-width:0.94488192;stroke-linecap:butt;stroke-linejoin:round;stroke-miterlimit:100;stroke-dasharray:none;fill-opacity:1"
     x="160.62566"
     xlink:href="#m6c4d14b3d2"
     y="116.1341"
     id="use4903"
     width="100%"
     height="100%"
     transform="matrix(0.9,0,0,0.9,-101.09069,-73.567406)" />
  <use
     style="fill:#ffffff;stroke:#000000;stroke-width:0.94488192;stroke-linecap:butt;stroke-linejoin:round;stroke-miterlimit:100;stroke-dasharray:none;fill-opacity:1"
     x="327.65381"
     xlink:href="#m6c4d14b3d2"
     y="151.16248"
     id="use4905"
     width="100%"
     height="100%"
     transform="matrix(0.9,0,0,0.9,-176.25335,-89.330156)" />
  <use
     style="fill:#ffffff;stroke:#000000;stroke-width:0.94488192;stroke-linecap:butt;stroke-linejoin:round;stroke-miterlimit:100;stroke-dasharray:none;fill-opacity:1"
     x="325.65909"
     xlink:href="#m6c4d14b3d2"
     y="71.916412"
     id="use4907"
     width="100%"
     height="100%"
     transform="matrix(0.9,0,0,0.9,-175.35573,-53.66943)" />
  <use
     style="fill:#ffffff;stroke:#000000;stroke-width:0.94488192;stroke-linecap:butt;stroke-linejoin:round;stroke-miterlimit:100;stroke-dasharray:none;fill-opacity:1"
     x="262.6792"
     xlink:href="#m6c4d14b3d2"
     y="287.97031"
     id="use4909"
     width="100%"
     height="100%"
     transform="matrix(0.9,0,0,0.9,-147.01478,-150.8937)" />
  <use
     style="fill:#ffffff;stroke:#000000;stroke-width:0.94488192;stroke-linecap:butt;stroke-linejoin:round;stroke-miterlimit:100;stroke-dasharray:none;fill-opacity:1"
     x="184.52229"
     xlink:href="#m6c4d14b3d2"
     y="240.23303"
     id="use4911"
     width="100%"
     height="100%"
     transform="matrix(0.9,0,0,0.9,-111.84416,-129.4119)" />
  <use
     style="fill:#ffffff;stroke:#000000;stroke-width:0.94488192;stroke-linecap:butt;stroke-linejoin:round;stroke-miterlimit:100;stroke-dasharray:none;fill-opacity:1"
     x="493.71429"
     xlink:href="#m6c4d14b3d2"
     y="156.44649"
     id="use4913"
     width="100%"
     height="100%"
     transform="matrix(0.9,0,0,0.9,-250.98056,-91.707956)" />
  <use
     style="fill:#ffffff;stroke:#000000;stroke-width:0.94488192;stroke-linecap:butt;stroke-linejoin:round;stroke-miterlimit:100;stroke-dasharray:none;fill-opacity:1"
     x="227.88431"
     xlink:href="#m6c4d14b3d2"
     y="357.64902"
     id="use4915"
     width="100%"
     height="100%"
     transform="matrix(0.9,0,0,0.9,-131.35876,-182.72457)" />
  <g
     id="text_1"
     style="stroke-linecap:butt;stroke-linejoin:round;stroke-miterlimit:100000"
     transform="matrix(0.9,0,0,0.9,-208.73408,-187.45723)">
    <g
       clip-path="url(#p26280e154e)"
       id="g4918"
       style="stroke-linecap:butt;stroke-linejoin:round;stroke-miterlimit:100000">
      <!-- 11 -->
      <defs
         id="defs4920">
        <path
           d="m 12.40625,8.296875 16.109375,0 0,55.625 -17.53125,-3.515625 0,8.984375 17.4375,3.515625 9.859375,0 0,-64.609375 16.109375,0 0,-8.296875 -41.984375,0 z"
           id="BitstreamVeraSans-Roman-31"
           inkscape:connector-curvature="0"
           style="stroke-width:7.87401581;stroke-linecap:butt;stroke-linejoin:round;stroke-miterlimit:100;stroke-dasharray:none" />
      </defs>
      <g
         transform="matrix(0.12,0,0,-0.12,392.09332,373.59696)"
         id="g4923"
         style="stroke-linecap:butt;stroke-linejoin:round;stroke-miterlimit:100000">
        <use
           xlink:href="#BitstreamVeraSans-Roman-31"
           id="use4925"
           style="stroke-width:7.87401581;stroke-linecap:butt;stroke-linejoin:round;stroke-miterlimit:100;stroke-dasharray:none"
           x="0"
           y="0"
           width="100%"
           height="100%" />
        <use
           x="63.623047"
           xlink:href="#BitstreamVeraSans-Roman-31"
           id="use4927"
           style="stroke-width:7.87401581;stroke-linecap:butt;stroke-linejoin:round;stroke-miterlimit:100;stroke-dasharray:none"
           y="0"
           width="100%"
           height="100%" />
      </g>
    </g>
  </g>
  <g
     id="text_2"
     style="stroke-linecap:butt;stroke-linejoin:round;stroke-miterlimit:100000"
     transform="matrix(0.9,0,0,0.9,-189.97629,-123.44052)">
    <g
       clip-path="url(#p26280e154e)"
       id="g4930"
       style="stroke-linecap:butt;stroke-linejoin:round;stroke-miterlimit:100000">
      <!-- 10 -->
      <defs
         id="defs4932">
        <path
           d="m 31.78125,66.40625 q -7.609375,0 -11.453125,-7.5 Q 16.5,51.421875 16.5,36.375 q 0,-14.984375 3.828125,-22.484375 3.84375,-7.5 11.453125,-7.5 7.671875,0 11.5,7.5 3.84375,7.5 3.84375,22.484375 0,15.046875 -3.84375,22.53125 -3.828125,7.5 -11.5,7.5 m 0,7.8125 q 12.265625,0 18.734375,-9.703125 6.46875,-9.6875 6.46875,-28.140625 0,-18.40625 -6.46875,-28.109375 -6.46875,-9.6875 -18.734375,-9.6875 -12.25,0 -18.71875,9.6875 Q 6.59375,17.96875 6.59375,36.375 q 0,18.453125 6.46875,28.140625 6.46875,9.703125 18.71875,9.703125"
           id="BitstreamVeraSans-Roman-30"
           inkscape:connector-curvature="0"
           style="stroke-width:7.87401581;stroke-linecap:butt;stroke-linejoin:round;stroke-miterlimit:100;stroke-dasharray:none" />
      </defs>
      <g
         transform="matrix(0.12,0,0,-0.12,350.25372,231.33111)"
         id="g4935"
         style="stroke-linecap:butt;stroke-linejoin:round;stroke-miterlimit:100000">
        <use
           xlink:href="#BitstreamVeraSans-Roman-31"
           id="use4937"
           style="stroke-width:7.87401581;stroke-linecap:butt;stroke-linejoin:round;stroke-miterlimit:100;stroke-dasharray:none"
           x="0"
           y="0"
           width="100%"
           height="100%" />
        <use
           x="63.623047"
           xlink:href="#BitstreamVeraSans-Roman-30"
           id="use4939"
           style="stroke-width:7.87401581;stroke-linecap:butt;stroke-linejoin:round;stroke-miterlimit:100;stroke-dasharray:none"
           y="0"
           width="100%"
           height="100%" />
      </g>
    </g>
  </g>
  <g
     id="text_3"
     style="stroke-linecap:butt;stroke-linejoin:round;stroke-miterlimit:100000"
     transform="matrix(0.9,0,0,0.9,-243.49532,-166.56849)">
    <g
       clip-path="url(#p26280e154e)"
       id="g4942"
       style="stroke-linecap:butt;stroke-linejoin:round;stroke-miterlimit:100000">
      <!-- 12 -->
      <defs
         id="defs4944">
        <path
           d="m 19.1875,8.296875 34.421875,0 0,-8.296875 -46.28125,0 0,8.296875 q 5.609375,5.8125 15.296875,15.59375 9.703125,9.796875 12.1875,12.640625 4.734375,5.3125 6.609375,9 1.890625,3.6875 1.890625,7.25 0,5.8125 -4.078125,9.46875 -4.078125,3.671875 -10.625,3.671875 -4.640625,0 -9.796875,-1.609375 -5.140625,-1.609375 -11,-4.890625 l 0,9.96875 Q 13.765625,71.78125 18.9375,73 q 5.1875,1.21875 9.484375,1.21875 11.328125,0 18.0625,-5.671875 6.734375,-5.65625 6.734375,-15.125 0,-4.5 -1.6875,-8.53125 Q 49.859375,40.875 45.40625,35.40625 44.1875,33.984375 37.640625,27.21875 31.109375,20.453125 19.1875,8.296875"
           id="BitstreamVeraSans-Roman-32"
           inkscape:connector-curvature="0"
           style="stroke-width:7.87401581;stroke-linecap:butt;stroke-linejoin:round;stroke-miterlimit:100;stroke-dasharray:none" />
      </defs>
      <g
         transform="matrix(0.12,0,0,-0.12,469.38741,327.2563)"
         id="g4947"
         style="stroke-linecap:butt;stroke-linejoin:round;stroke-miterlimit:100000">
        <use
           xlink:href="#BitstreamVeraSans-Roman-31"
           id="use4949"
           style="stroke-width:7.87401581;stroke-linecap:butt;stroke-linejoin:round;stroke-miterlimit:100;stroke-dasharray:none"
           x="0"
           y="0"
           width="100%"
           height="100%" />
        <use
           x="63.623047"
           xlink:href="#BitstreamVeraSans-Roman-32"
           id="use4951"
           style="stroke-width:7.87401581;stroke-linecap:butt;stroke-linejoin:round;stroke-miterlimit:100;stroke-dasharray:none"
           y="0"
           width="100%"
           height="100%" />
      </g>
    </g>
  </g>
  <g
     id="text_4"
     style="stroke-linecap:butt;stroke-linejoin:round;stroke-miterlimit:100000"
     transform="matrix(0.9,0,0,0.9,-67.933126,-50.35512)">
    <g
       clip-path="url(#p26280e154e)"
       id="g4954"
       style="stroke-linecap:butt;stroke-linejoin:round;stroke-miterlimit:100000">
      <!-- 1 -->
      <g
         transform="matrix(0.12,0,0,-0.12,83.019678,68.925645)"
         id="g4956"
         style="stroke-linecap:butt;stroke-linejoin:round;stroke-miterlimit:100000">
        <use
           xlink:href="#BitstreamVeraSans-Roman-31"
           id="use4958"
           style="stroke-width:7.87401581;stroke-linecap:butt;stroke-linejoin:round;stroke-miterlimit:100;stroke-dasharray:none"
           x="0"
           y="0"
           width="100%"
           height="100%" />
      </g>
    </g>
  </g>
  <g
     id="text_5"
     style="stroke-linecap:butt;stroke-linejoin:round;stroke-miterlimit:100000"
     transform="matrix(0.9,0,0,0.9,-65.827156,-130.45899)">
    <g
       clip-path="url(#p26280e154e)"
       id="g4961"
       style="stroke-linecap:butt;stroke-linejoin:round;stroke-miterlimit:100000">
      <!-- 3 -->
      <defs
         id="defs4963">
        <path
           d="M 40.578125,39.3125 Q 47.65625,37.796875 51.625,33 q 3.984375,-4.78125 3.984375,-11.8125 0,-10.78125 -7.421875,-16.703125 -7.421875,-5.90625 -21.09375,-5.90625 -4.578125,0 -9.4375,0.90625 -4.859375,0.90625 -10.03125,2.71875 l 0,9.515625 q 4.09375,-2.390625 8.96875,-3.609375 4.890625,-1.21875 10.21875,-1.21875 9.265625,0 14.125,3.65625 4.859375,3.65625 4.859375,10.640625 0,6.453125 -4.515625,10.078125 -4.515625,3.640625 -12.5625,3.640625 l -8.5,0 0,8.109375 8.890625,0 q 7.265625,0 11.125,2.90625 3.859375,2.90625 3.859375,8.375 0,5.609375 -3.984375,8.609375 -3.96875,3.015625 -11.390625,3.015625 -4.0625,0 -8.703125,-0.890625 Q 15.375,64.15625 9.8125,62.3125 l 0,8.78125 q 5.625,1.5625 10.53125,2.34375 4.90625,0.78125 9.25,0.78125 11.234375,0 17.765625,-5.109375 6.546875,-5.09375 6.546875,-13.78125 0,-6.0625 -3.46875,-10.234375 -3.46875,-4.171875 -9.859375,-5.78125"
           id="BitstreamVeraSans-Roman-33"
           inkscape:connector-curvature="0"
           style="stroke-width:7.87401581;stroke-linecap:butt;stroke-linejoin:round;stroke-miterlimit:100;stroke-dasharray:none" />
      </defs>
      <g
         transform="matrix(0.12,0,0,-0.12,78.468214,246.92771)"
         id="g4966"
         style="stroke-linecap:butt;stroke-linejoin:round;stroke-miterlimit:100000">
        <use
           xlink:href="#BitstreamVeraSans-Roman-33"
           id="use4968"
           style="stroke-width:7.87401581;stroke-linecap:butt;stroke-linejoin:round;stroke-miterlimit:100;stroke-dasharray:none"
           x="0"
           y="0"
           width="100%"
           height="100%" />
      </g>
    </g>
  </g>
  <g
     id="text_6"
     style="stroke-linecap:butt;stroke-linejoin:round;stroke-miterlimit:100000"
     transform="matrix(0.9,0,0,0.9,-101.01812,-73.053536)">
    <g
       clip-path="url(#p26280e154e)"
       id="g4971"
       style="stroke-linecap:butt;stroke-linejoin:round;stroke-miterlimit:100000">
      <!-- 2 -->
      <g
         transform="matrix(0.12,0,0,-0.12,156.80815,119.44535)"
         id="g4973"
         style="stroke-linecap:butt;stroke-linejoin:round;stroke-miterlimit:100000">
        <use
           xlink:href="#BitstreamVeraSans-Roman-32"
           id="use4975"
           style="stroke-width:7.87401581;stroke-linecap:butt;stroke-linejoin:round;stroke-miterlimit:100;stroke-dasharray:none"
           x="0"
           y="0"
           width="100%"
           height="100%" />
      </g>
    </g>
  </g>
  <g
     id="text_7"
     style="stroke-linecap:butt;stroke-linejoin:round;stroke-miterlimit:100000"
     transform="matrix(0.9,0,0,0.9,-176.22593,-88.890146)">
    <g
       clip-path="url(#p26280e154e)"
       id="g4978"
       style="stroke-linecap:butt;stroke-linejoin:round;stroke-miterlimit:100000">
      <!-- 5 -->
      <defs
         id="defs4980">
        <path
           d="m 10.796875,72.90625 38.71875,0 0,-8.3125 -29.6875,0 0,-17.859375 q 2.140625,0.734375 4.28125,1.09375 2.15625,0.359375 4.3125,0.359375 Q 40.625,48.1875 47.75,41.5 54.890625,34.8125 54.890625,23.390625 54.890625,11.625 47.5625,5.09375 40.234375,-1.421875 26.90625,-1.421875 q -4.59375,0 -9.359375,0.78125 -4.75,0.78125 -9.828125,2.34375 l 0,9.921875 q 4.390625,-2.390625 9.078125,-3.5625 4.6875,-1.171875 9.90625,-1.171875 8.453125,0 13.375,4.4375 4.9375,4.4375 4.9375,12.0625 0,7.609375 -4.9375,12.046875 -4.921875,4.453125 -13.375,4.453125 -3.953125,0 -7.890625,-0.875 -3.921875,-0.875 -8.015625,-2.734375 z"
           id="BitstreamVeraSans-Roman-35"
           inkscape:connector-curvature="0"
           style="stroke-width:7.87401581;stroke-linecap:butt;stroke-linejoin:round;stroke-miterlimit:100;stroke-dasharray:none" />
      </defs>
      <g
         transform="matrix(0.12,0,0,-0.12,323.83632,154.47372)"
         id="g4983"
         style="stroke-linecap:butt;stroke-linejoin:round;stroke-miterlimit:100000">
        <use
           xlink:href="#BitstreamVeraSans-Roman-35"
           id="use4985"
           style="stroke-width:7.87401581;stroke-linecap:butt;stroke-linejoin:round;stroke-miterlimit:100;stroke-dasharray:none"
           x="0"
           y="0"
           width="100%"
           height="100%" />
      </g>
    </g>
  </g>
  <g
     id="text_8"
     style="stroke-linecap:butt;stroke-linejoin:round;stroke-miterlimit:100000"
     transform="matrix(0.9,0,0,0.9,-175.33631,-53.19102)">
    <g
       clip-path="url(#p26280e154e)"
       id="g4988"
       style="stroke-linecap:butt;stroke-linejoin:round;stroke-miterlimit:100000">
      <!-- 4 -->
      <defs
         id="defs4990">
        <path
           d="m 37.796875,64.3125 -24.90625,-38.921875 24.90625,0 z m -2.59375,8.59375 12.40625,0 0,-47.515625 10.40625,0 0,-8.203125 -10.40625,0 0,-17.1875 -9.8125,0 0,17.1875 -32.90625,0 0,9.515625 z"
           id="BitstreamVeraSans-Roman-34"
           inkscape:connector-curvature="0"
           style="stroke-width:7.87401581;stroke-linecap:butt;stroke-linejoin:round;stroke-miterlimit:100;stroke-dasharray:none" />
      </defs>
      <g
         transform="matrix(0.12,0,0,-0.12,321.84157,75.227661)"
         id="g4993"
         style="stroke-linecap:butt;stroke-linejoin:round;stroke-miterlimit:100000">
        <use
           xlink:href="#BitstreamVeraSans-Roman-34"
           id="use4995"
           style="stroke-width:7.87401581;stroke-linecap:butt;stroke-linejoin:round;stroke-miterlimit:100;stroke-dasharray:none"
           x="0"
           y="0"
           width="100%"
           height="100%" />
      </g>
    </g>
  </g>
  <g
     id="text_9"
     style="stroke-linecap:butt;stroke-linejoin:round;stroke-miterlimit:100000"
     transform="matrix(0.9,0,0,0.9,-147.00551,-150.41529)">
    <g
       clip-path="url(#p26280e154e)"
       id="g4998"
       style="stroke-linecap:butt;stroke-linejoin:round;stroke-miterlimit:100000">
      <!-- 7 -->
      <defs
         id="defs5000">
        <path
           d="m 8.203125,72.90625 46.875,0 0,-4.203125 L 28.609375,0 18.3125,0 l 24.90625,64.59375 -35.015625,0 z"
           id="BitstreamVeraSans-Roman-37"
           inkscape:connector-curvature="0"
           style="stroke-width:7.87401581;stroke-linecap:butt;stroke-linejoin:round;stroke-miterlimit:100;stroke-dasharray:none" />
      </defs>
      <g
         transform="matrix(0.12,0,0,-0.12,258.8617,291.28155)"
         id="g5003"
         style="stroke-linecap:butt;stroke-linejoin:round;stroke-miterlimit:100000">
        <use
           xlink:href="#BitstreamVeraSans-Roman-37"
           id="use5005"
           style="stroke-width:7.87401581;stroke-linecap:butt;stroke-linejoin:round;stroke-miterlimit:100;stroke-dasharray:none"
           x="0"
           y="0"
           width="100%"
           height="100%" />
      </g>
    </g>
  </g>
  <g
     id="text_10"
     style="stroke-linecap:butt;stroke-linejoin:round;stroke-miterlimit:100000"
     transform="matrix(0.9,0,0,0.9,-111.86273,-128.93646)">
    <g
       clip-path="url(#p26280e154e)"
       id="g5008"
       style="stroke-linecap:butt;stroke-linejoin:round;stroke-miterlimit:100000">
      <!-- 6 -->
      <defs
         id="defs5010">
        <path
           d="m 33.015625,40.375 q -6.640625,0 -10.53125,-4.546875 -3.875,-4.53125 -3.875,-12.4375 0,-7.859375 3.875,-12.4375 3.890625,-4.5625 10.53125,-4.5625 6.640625,0 10.515625,4.5625 3.875,4.578125 3.875,12.4375 0,7.90625 -3.875,12.4375 Q 39.65625,40.375 33.015625,40.375 m 19.578125,30.921875 0,-8.984375 q -3.71875,1.75 -7.5,2.671875 -3.78125,0.9375 -7.5,0.9375 -9.765625,0 -14.921875,-6.59375 -5.140625,-6.59375 -5.875,-19.921875 2.875,4.25 7.21875,6.515625 4.359375,2.265625 9.578125,2.265625 10.984375,0 17.359375,-6.671875 6.375,-6.65625 6.375,-18.125 0,-11.234375 -6.640625,-18.03125 -6.640625,-6.78125 -17.671875,-6.78125 -12.65625,0 -19.34375,9.6875 -6.6875,9.703125 -6.6875,28.109375 0,17.28125 8.203125,27.5625 8.203125,10.28125 22.015625,10.28125 3.71875,0 7.5,-0.734375 3.78125,-0.734375 7.890625,-2.1875"
           id="BitstreamVeraSans-Roman-36"
           inkscape:connector-curvature="0"
           style="stroke-width:7.87401581;stroke-linecap:butt;stroke-linejoin:round;stroke-miterlimit:100;stroke-dasharray:none" />
      </defs>
      <g
         transform="matrix(0.12,0,0,-0.12,180.70479,243.54429)"
         id="g5013"
         style="stroke-linecap:butt;stroke-linejoin:round;stroke-miterlimit:100000">
        <use
           xlink:href="#BitstreamVeraSans-Roman-36"
           id="use5015"
           style="stroke-width:7.87401581;stroke-linecap:butt;stroke-linejoin:round;stroke-miterlimit:100;stroke-dasharray:none"
           x="0"
           y="0"
           width="100%"
           height="100%" />
      </g>
    </g>
  </g>
  <g
     id="text_11"
     style="stroke-linecap:butt;stroke-linejoin:round;stroke-miterlimit:100000"
     transform="matrix(0.9,0,0,0.9,-250.96072,-91.232516)">
    <g
       clip-path="url(#p26280e154e)"
       id="g5018"
       style="stroke-linecap:butt;stroke-linejoin:round;stroke-miterlimit:100000">
      <!-- 9 -->
      <defs
         id="defs5020">
        <path
           d="m 10.984375,1.515625 0,8.984375 Q 14.703125,8.734375 18.5,7.8125 q 3.8125,-0.921875 7.484375,-0.921875 9.765625,0 14.90625,6.5625 5.15625,6.5625 5.890625,19.953125 -2.828125,-4.203125 -7.1875,-6.453125 -4.34375,-2.25 -9.609375,-2.25 -10.9375,0 -17.3125,6.609375 -6.375,6.625 -6.375,18.109375 0,11.21875 6.640625,18 6.640625,6.796875 17.671875,6.796875 12.65625,0 19.3125,-9.703125 6.671875,-9.6875 6.671875,-28.140625 0,-17.234375 -8.1875,-27.515625 -8.171875,-10.28125 -21.984375,-10.28125 -3.71875,0 -7.53125,0.734375 -3.796875,0.734375 -7.90625,2.203125 m 19.625,30.90625 q 6.640625,0 10.515625,4.53125 3.890625,4.546875 3.890625,12.46875 0,7.859375 -3.890625,12.421875 -3.875,4.5625 -10.515625,4.5625 -6.640625,0 -10.515625,-4.5625 -3.875,-4.5625 -3.875,-12.421875 0,-7.921875 3.875,-12.46875 3.875,-4.53125 10.515625,-4.53125"
           id="BitstreamVeraSans-Roman-39"
           inkscape:connector-curvature="0"
           style="stroke-width:7.87401581;stroke-linecap:butt;stroke-linejoin:round;stroke-miterlimit:100;stroke-dasharray:none" />
      </defs>
      <g
         transform="matrix(0.12,0,0,-0.12,489.89679,159.75773)"
         id="g5023"
         style="stroke-linecap:butt;stroke-linejoin:round;stroke-miterlimit:100000">
        <use
           xlink:href="#BitstreamVeraSans-Roman-39"
           id="use5025"
           style="stroke-width:7.87401581;stroke-linecap:butt;stroke-linejoin:round;stroke-miterlimit:100;stroke-dasharray:none"
           x="0"
           y="0"
           width="100%"
           height="100%" />
      </g>
    </g>
  </g>
  <g
     id="text_12"
     style="stroke-linecap:butt;stroke-linejoin:round;stroke-miterlimit:100000"
     transform="matrix(0.9,0,0,0.9,-131.35538,-181.77367)">
    <g
       clip-path="url(#p26280e154e)"
       id="g5028"
       style="stroke-linecap:butt;stroke-linejoin:round;stroke-miterlimit:100000">
      <!-- 8 -->
      <defs
         id="defs5030">
        <path
           d="m 31.78125,34.625 q -7.03125,0 -11.0625,-3.765625 -4.015625,-3.765625 -4.015625,-10.34375 0,-6.59375 4.015625,-10.359375 4.03125,-3.765625 11.0625,-3.765625 7.03125,0 11.078125,3.78125 4.0625,3.796875 4.0625,10.34375 0,6.578125 -4.03125,10.34375 Q 38.875,34.625 31.78125,34.625 m -9.859375,4.1875 Q 15.578125,40.375 12.03125,44.71875 8.5,49.078125 8.5,55.328125 q 0,8.734375 6.21875,13.8125 6.234375,5.078125 17.0625,5.078125 10.890625,0 17.09375,-5.078125 6.203125,-5.078125 6.203125,-13.8125 0,-6.25 -3.546875,-10.609375 Q 48,40.375 41.703125,38.8125 q 7.125,-1.65625 11.09375,-6.5 3.984375,-4.828125 3.984375,-11.796875 0,-10.609375 -6.46875,-16.28125 -6.46875,-5.65625 -18.53125,-5.65625 -12.046875,0 -18.53125,5.65625 -6.46875,5.671875 -6.46875,16.28125 0,6.96875 4,11.796875 4.015625,4.84375 11.140625,6.5 M 18.3125,54.390625 q 0,-5.65625 3.53125,-8.828125 3.546875,-3.171875 9.9375,-3.171875 6.359375,0 9.9375,3.171875 3.59375,3.171875 3.59375,8.828125 0,5.671875 -3.59375,8.84375 -3.578125,3.171875 -9.9375,3.171875 -6.390625,0 -9.9375,-3.171875 Q 18.3125,60.0625 18.3125,54.390625"
           id="BitstreamVeraSans-Roman-38"
           inkscape:connector-curvature="0"
           style="stroke-width:7.87401581;stroke-linecap:butt;stroke-linejoin:round;stroke-miterlimit:100;stroke-dasharray:none" />
      </defs>
      <g
         transform="matrix(0.12,0,0,-0.12,224.0668,360.96027)"
         id="g5033"
         style="stroke-linecap:butt;stroke-linejoin:round;stroke-miterlimit:100000">
        <use
           xlink:href="#BitstreamVeraSans-Roman-38"
           id="use5035"
           style="stroke-width:7.87401581;stroke-linecap:butt;stroke-linejoin:round;stroke-miterlimit:100;stroke-dasharray:none"
           x="0"
           y="0"
           width="100%"
           height="100%" />
      </g>
    </g>
  </g>
  <defs
     id="defs5037">
    <clipPath
       id="p26280e154e"
       style="stroke-linecap:butt;stroke-linejoin:round;stroke-miterlimit:100000">
      <rect
         height="432"
         width="576"
         x="0"
         y="0"
         id="rect5040"
         style="stroke-linecap:butt;stroke-linejoin:round;stroke-miterlimit:100000" />
    </clipPath>
  </defs>
</svg>
