<?xml version="1.0" encoding="UTF-8" standalone="no"?>
<!-- Created with Inkscape (http://www.inkscape.org/) -->

<svg
   xmlns:dc="http://purl.org/dc/elements/1.1/"
   xmlns:cc="http://creativecommons.org/ns#"
   xmlns:rdf="http://www.w3.org/1999/02/22-rdf-syntax-ns#"
   xmlns:svg="http://www.w3.org/2000/svg"
   xmlns="http://www.w3.org/2000/svg"
   xmlns:sodipodi="http://sodipodi.sourceforge.net/DTD/sodipodi-0.dtd"
   xmlns:inkscape="http://www.inkscape.org/namespaces/inkscape"
   width="126.36971mm"
   height="70.501328mm"
   viewBox="0 0 447.76665 249.80786"
   id="svg2"
   version="1.1"
   inkscape:version="0.91 r13725"
   sodipodi:docname="spanning-tree-anim-12.svg">
  <defs
     id="defs4" />
  <sodipodi:namedview
     id="base"
     pagecolor="#ffffff"
     bordercolor="#666666"
     borderopacity="1.0"
     inkscape:pageopacity="0.0"
     inkscape:pageshadow="2"
     inkscape:zoom="2.8284271"
     inkscape:cx="211.19286"
     inkscape:cy="133.83314"
     inkscape:document-units="px"
     inkscape:current-layer="layer1"
     showgrid="true"
     inkscape:window-width="1920"
     inkscape:window-height="1016"
     inkscape:window-x="0"
     inkscape:window-y="27"
     inkscape:window-maximized="1"
     inkscape:snap-center="true"
     inkscape:snap-global="true"
     fit-margin-top="0"
     fit-margin-left="0"
     fit-margin-right="8"
     fit-margin-bottom="0"
     inkscape:object-nodes="false">
    <inkscape:grid
       type="xygrid"
       id="grid4136"
       units="mm"
       spacingx="7.0866142"
       spacingy="7.0866143"
       dotted="false"
       originx="-130.67819"
       originy="-477.45597" />
  </sodipodi:namedview>
  <metadata
     id="metadata7">
    <rdf:RDF>
      <cc:Work
         rdf:about="">
        <dc:format>image/svg+xml</dc:format>
        <dc:type
           rdf:resource="http://purl.org/dc/dcmitype/StillImage" />
        <dc:title></dc:title>
      </cc:Work>
    </rdf:RDF>
  </metadata>
  <g
     inkscape:label="レイヤー 1"
     inkscape:groupmode="layer"
     id="layer1"
     transform="translate(-130.6782,-325.09841)">
    <path
       style="fill:none;fill-rule:evenodd;stroke:#000000;stroke-width:1.77165353;stroke-linecap:butt;stroke-linejoin:miter;stroke-miterlimit:4;stroke-dasharray:none;stroke-opacity:1"
       d="M 354.33071,343.70079 212.59842,414.56693"
       id="path4258"
       inkscape:connector-curvature="0" />
    <path
       style="fill:none;fill-rule:evenodd;stroke:#000000;stroke-width:1.77165353;stroke-linecap:butt;stroke-linejoin:miter;stroke-miterlimit:4;stroke-dasharray:none;stroke-opacity:1"
       d="m 354.33071,343.70079 0,70.86614"
       id="path4260"
       inkscape:connector-curvature="0" />
    <path
       style="fill:none;fill-rule:evenodd;stroke:#000000;stroke-width:1.77165353;stroke-linecap:butt;stroke-linejoin:miter;stroke-miterlimit:4;stroke-dasharray:none;stroke-opacity:1"
       d="m 354.33071,343.70079 141.73228,70.86614"
       id="path4262"
       inkscape:connector-curvature="0" />
    <path
       style="fill:none;fill-rule:evenodd;stroke:#000000;stroke-width:1.77165353;stroke-linecap:butt;stroke-linejoin:miter;stroke-miterlimit:4;stroke-dasharray:none;stroke-opacity:1"
       d="m 177.16535,485.43307 35.43307,-70.86614"
       id="path4222" />
    <path
       style="fill:none;fill-rule:evenodd;stroke:#000000;stroke-width:1.77165353;stroke-linecap:butt;stroke-linejoin:miter;stroke-miterlimit:4;stroke-dasharray:none;stroke-opacity:1"
       d="m 318.89764,485.43307 35.43307,-70.86614"
       id="path4218" />
    <path
       style="fill:none;fill-rule:evenodd;stroke:#ff0000;stroke-width:1.77165353;stroke-linecap:butt;stroke-linejoin:miter;stroke-miterlimit:4;stroke-dasharray:none;stroke-opacity:1"
       d="m 460.62992,485.43307 35.43307,-70.86614"
       id="path4214" />
    <circle
       style="fill:#ffffff;fill-opacity:1;fill-rule:nonzero;stroke:#000000;stroke-width:1.77165353;stroke-miterlimit:4;stroke-dasharray:none;stroke-dashoffset:0;stroke-opacity:1"
       id="path4180"
       cx="354.33072"
       cy="343.70078"
       r="17.716536" />
    <circle
       style="fill:#ffffff;fill-opacity:1;fill-rule:nonzero;stroke:#000000;stroke-width:1.77165353;stroke-miterlimit:4;stroke-dasharray:none;stroke-dashoffset:0;stroke-opacity:1"
       id="path4180-6"
       cx="212.59842"
       cy="414.56693"
       r="17.716536" />
    <circle
       style="fill:#ffffff;fill-opacity:1;fill-rule:nonzero;stroke:#000000;stroke-width:1.77165353;stroke-miterlimit:4;stroke-dasharray:none;stroke-dashoffset:0;stroke-opacity:1"
       id="path4180-64"
       cx="354.33072"
       cy="414.56693"
       r="17.716536" />
    <circle
       style="fill:#ffffff;fill-opacity:1;fill-rule:nonzero;stroke:#000000;stroke-width:1.77165353;stroke-miterlimit:4;stroke-dasharray:none;stroke-dashoffset:0;stroke-opacity:1"
       id="path4180-9"
       cx="496.06299"
       cy="414.56693"
       r="17.716536" />
    <circle
       style="fill:#ffffff;fill-opacity:1;fill-rule:nonzero;stroke:#000000;stroke-width:1.77165353;stroke-miterlimit:4;stroke-dasharray:none;stroke-dashoffset:0;stroke-opacity:1"
       id="path4180-6-5"
       cx="177.16534"
       cy="485.43307"
       r="17.716536" />
    <circle
       style="fill:#ffffff;fill-opacity:1;fill-rule:nonzero;stroke:#ff0000;stroke-width:1.77165353;stroke-miterlimit:4;stroke-dasharray:none;stroke-dashoffset:0;stroke-opacity:1"
       id="path4180-64-0"
       cx="460.62991"
       cy="485.43307"
       r="17.716536" />
    <circle
       style="fill:#ffffff;fill-opacity:1;fill-rule:nonzero;stroke:#000000;stroke-width:1.77165353;stroke-miterlimit:4;stroke-dasharray:none;stroke-dashoffset:0;stroke-opacity:1"
       id="path4180-6-8"
       cx="318.89761"
       cy="485.43307"
       r="17.716536" />
    <path
       style="font-style:normal;font-weight:normal;font-size:medium;line-height:125%;font-family:sans-serif;letter-spacing:0px;word-spacing:0px;fill:#000000;fill-opacity:1;stroke:none;stroke-width:1px;stroke-linecap:butt;stroke-linejoin:miter;stroke-opacity:1"
       inkscape:connector-curvature="0"
       id="path4668"
       d="m 355.31639,350.69366 -1.68616,0 0,-12.11226 q -1.58311,0.54332 -3.33485,0.91802 l -0.30913,-1.30209 q 2.51051,-0.62762 4.26224,-1.48944 l 1.0679,0 0,13.98577 z" />
    <g
       style="font-style:normal;font-weight:normal;font-size:19.18476677px;line-height:125%;font-family:sans-serif;letter-spacing:0px;word-spacing:0px;fill:#000000;fill-opacity:1;stroke:none;stroke-width:1px;stroke-linecap:butt;stroke-linejoin:miter;stroke-opacity:1"
       id="text4394-97-3">
      <path
         d="m 217.41335,421.55514 -9.62985,0 0,-1.59248 q 1.13348,-2.64166 4.33718,-4.8243 l 0.53395,-0.35597 q 1.63933,-1.1241 2.15454,-1.75173 0.59016,-0.73067 0.59016,-1.61122 0,-0.97423 -0.6932,-1.66743 -0.76814,-0.76814 -2.01403,-0.76814 -2.50114,0 -3.27864,2.78217 l -1.48008,-0.53395 q 1.0679,-3.65335 4.8524,-3.65335 2.07023,0 3.29738,1.22715 1.07727,1.10537 1.07727,2.66975 0,1.16158 -0.6932,2.10771 -0.63699,0.91802 -2.93205,2.35125 l -0.4028,0.24356 q -2.92268,1.80794 -3.75639,3.85944 l 8.03736,0 0,1.51754 z"
         id="path4665"
         inkscape:connector-curvature="0" />
    </g>
    <g
       style="font-style:normal;font-weight:normal;font-size:19.18476677px;line-height:125%;font-family:sans-serif;letter-spacing:0px;word-spacing:0px;fill:#000000;fill-opacity:1;stroke:none;stroke-width:1px;stroke-linecap:butt;stroke-linejoin:miter;stroke-opacity:1"
       id="text4394-97-4">
      <path
         d="m 355.78267,414.35147 q 3.37233,0.59952 3.37233,3.40979 0,1.69553 -1.13348,2.76343 -1.25525,1.17094 -3.5503,1.17094 -3.4379,0 -4.96481,-2.73532 l 1.40513,-0.74941 q 1.05854,2.07023 3.54094,2.07023 1.46134,0 2.26695,-0.7494 0.76814,-0.71194 0.76814,-1.80794 0,-1.27399 -1.15221,-2.0515 -1.04917,-0.71193 -2.76343,-0.71193 l -0.84308,0 0,-1.3583 0.88055,0 q 1.72363,0 2.63228,-0.65573 0.97423,-0.6932 0.97423,-1.86414 0,-1.27399 -1.096,-1.88288 -0.70257,-0.42154 -1.68616,-0.42154 -2.08897,0 -3.08193,2.09833 l -1.40514,-0.67446 q 1.37703,-2.76343 4.5058,-2.76343 1.97656,0 3.20371,1.00232 1.22715,0.96486 1.22715,2.56672 0,1.51754 -1.18968,2.4824 -0.76814,0.61826 -1.91099,0.78688 l 0,0.0749 z"
         id="path4662"
         inkscape:connector-curvature="0" />
    </g>
    <g
       style="font-style:normal;font-weight:normal;font-size:19.18476677px;line-height:125%;font-family:sans-serif;letter-spacing:0px;word-spacing:0px;fill:#000000;fill-opacity:1;stroke:none;stroke-width:1px;stroke-linecap:butt;stroke-linejoin:miter;stroke-opacity:1"
       id="text4394-97-1">
      <path
         d="m 501.48214,418.19688 -2.26695,0 0,3.28801 -1.53628,0 0,-3.28801 -7.03504,0 0,-1.53628 6.76338,-9.0116 1.80794,0 0,9.12401 2.26695,0 0,1.42387 z m -3.70956,-8.84298 -0.0562,0 q -0.83372,1.34893 -1.66743,2.47303 l -3.71892,4.94608 5.34888,0 0,-4.52454 q 0,-0.98359 0.0937,-2.89457 z"
         id="path4659"
         inkscape:connector-curvature="0" />
    </g>
    <g
       style="font-style:normal;font-weight:normal;font-size:19.18476677px;line-height:125%;font-family:sans-serif;letter-spacing:0px;word-spacing:0px;fill:#000000;fill-opacity:1;stroke:none;stroke-width:1px;stroke-linecap:butt;stroke-linejoin:miter;stroke-opacity:1"
       id="text4394-97-9">
      <path
         d="m 174.54244,484.5291 q 1.36766,-1.07727 2.97888,-1.07727 1.92972,0 3.20371,1.30209 1.18968,1.24588 1.18968,3.09129 0,1.6768 -1.02107,2.95079 -1.28335,1.62995 -3.79386,1.62995 -3.21307,0 -4.68378,-2.44493 l 1.40513,-0.73067 q 1.11474,1.77983 3.22244,1.77983 1.3583,0 2.26695,-0.84308 0.93676,-0.88991 0.93676,-2.36062 0,-1.3864 -0.82435,-2.21075 -0.86181,-0.86181 -2.24821,-0.86181 -1.94845,0 -2.95078,1.49881 l -1.44261,-0.18735 0.88055,-7.6252 7.55963,0 0,1.44261 -6.19196,0 -0.61826,4.64631 0.13115,0 z"
         id="path4656"
         inkscape:connector-curvature="0" />
    </g>
    <g
       style="font-style:normal;font-weight:normal;font-size:19.18476677px;line-height:125%;font-family:sans-serif;letter-spacing:0px;word-spacing:0px;fill:#000000;fill-opacity:1;stroke:none;stroke-width:1px;stroke-linecap:butt;stroke-linejoin:miter;stroke-opacity:1"
       id="text4394-97-90"
       transform="translate(70.866152,-9.3058313e-6)">
      <path
         d="m 244.9683,485.48928 q 1.3583,-1.95782 3.53157,-1.95782 2.01403,0 3.24118,1.40513 1.07727,1.21778 1.07727,2.96952 0,1.91098 -1.20842,3.25991 -1.25525,1.39576 -3.27865,1.39576 -2.40746,0 -3.76576,-1.83604 -1.32082,-1.7892 -1.32082,-4.9367 0,-3.58778 1.59248,-5.63927 1.44261,-1.84541 3.77513,-1.84541 2.75406,0 4.00932,2.09833 l -1.37703,0.7494 q -0.76814,-1.46134 -2.54798,-1.46134 -3.54094,0 -3.80323,5.79853 l 0.0749,0 z m 3.25054,-0.65573 q -1.36766,0 -2.26695,1.02106 -0.80561,0.91802 -0.80561,1.99529 0,1.15221 0.71194,2.08897 0.95549,1.24588 2.41683,1.24588 1.52691,0 2.34189,-1.24588 0.55268,-0.85245 0.55268,-1.97656 0,-1.32082 -0.73066,-2.17327 -0.84309,-0.95549 -2.22012,-0.95549 z"
         id="path4653"
         inkscape:connector-curvature="0" />
    </g>
    <g
       style="font-style:normal;font-weight:normal;font-size:19.18476677px;line-height:125%;font-family:sans-serif;letter-spacing:0px;word-spacing:0px;fill:#ff0000;fill-opacity:1;stroke:none;stroke-width:1px;stroke-linecap:butt;stroke-linejoin:miter;stroke-opacity:1"
       id="text4394-97-50"
       transform="translate(141.73225,-9.3058313e-6)">
      <path
         d="m 323.64699,479.69545 q -4.07489,6.46362 -5.45192,12.59001 l -1.93908,0 q 1.35829,-5.32078 5.45192,-12.1872 l -7.55962,0 0,-1.51755 9.4987,0 0,1.11474 z"
         id="path4650"
         inkscape:connector-curvature="0"
         style="fill:#ff0000;fill-opacity:1" />
    </g>
  </g>
</svg>
